<?xml version="1.0" encoding="utf-8"?>
<!-- Generator: Adobe Illustrator 25.2.3, SVG Export Plug-In . SVG Version: 6.00 Build 0)  -->
<svg version="1.1" id="Layer_1" xmlns="http://www.w3.org/2000/svg" xmlns:xlink="http://www.w3.org/1999/xlink" x="0px" y="0px"
	 viewBox="0 0 850.39 283.46" style="enable-background:new 0 0 850.39 283.46;" xml:space="preserve">
<style type="text/css">
	.st0{fill:#FFFFFF;}
	.st1{font-family:'NotoSansKR-Medium-KSCpc-EUC-H';}
	.st2{font-size:45px;}
	.st3{letter-spacing:1;}
</style>
<g>
	<polygon class="st0" points="66.92,40.28 66.92,192.7 116.32,192.7 116.32,128.36 167.64,192.7 224.32,192.7 163.04,116.49 
		224.32,40.28 165.34,40.28 115.55,102.32 115.55,40.28 	"/>
	<polyline class="st0" points="416.58,40.28 365.26,40.28 328.49,84.7 295.55,40.28 240.41,40.28 240.41,192.7 289.43,192.7 
		289.43,103.85 328.49,147.51 366.02,105.38 366.02,192.7 416.58,192.7 	"/>
	<path class="st0" d="M560.09,129.19c-5.26,14.09-18.85,24.13-34.77,24.13c-20.5,0-37.11-16.62-37.11-37.11s16.62-37.11,37.11-37.11
		c16.12,0,29.83,10.28,34.96,24.64l45.18-14.75c-11.34-33.38-42.92-57.41-80.14-57.41c-46.74,0-84.64,37.89-84.64,84.64
		s37.89,84.64,84.64,84.64c37.03,0,68.48-23.79,79.96-56.9L560.09,129.19z"/>
	<path class="st0" d="M727.55,40.28h-30.64h-30.64L605.45,192.7h49.59l11.23-26.04h30.64h30.64l11.23,26.04h49.59L727.55,40.28z
		 M696.92,126.83h-17.36l17.36-36.77l17.36,36.77H696.92z"/>
</g>
<text transform="matrix(1 0 0 1 68.0591 243.7434)" class="st0 st1 st2 st3">K Museum of Contemporary Art</text>
</svg>
