<?xml version="1.0" encoding="utf-8"?>
<!-- Generator: Adobe Illustrator 25.2.3, SVG Export Plug-In . SVG Version: 6.00 Build 0)  -->
<svg version="1.1" id="Layer_1" xmlns="http://www.w3.org/2000/svg" xmlns:xlink="http://www.w3.org/1999/xlink" x="0px" y="0px"
	 viewBox="0 0 1700.79 1133.86" style="enable-background:new 0 0 1700.79 1133.86;" xml:space="preserve">
<style type="text/css">
	.st0{fill:#C30D23;}
	.st1{font-family:'NotoSansKR-Bold-KSCpc-EUC-H';}
	.st2{font-size:22px;}
	.st3{letter-spacing:1;}
	.st4{fill:#231815;}
	.st5{fill:#FFFFFF;}
	.st6{font-size:20.3406px;}
	.st7{fill:#595757;}
	.st8{fill:#727171;}
	.st9{fill:none;stroke:#C30D23;stroke-width:3;stroke-miterlimit:10;}
</style>
<text transform="matrix(1 0 0 1 688.1476 349.1684)" class="st0 st1 st2 st3">K현대미술관 KMCA</text>
<rect x="905.37" y="-137.35" transform="matrix(0.9722 0.2342 -0.2342 0.9722 103.3249 -208.4781)" class="st4" width="48.41" height="936.42"/>
<rect x="369.27" y="-137.75" transform="matrix(0.9986 -0.0524 0.0524 0.9986 -27.135 21.3537)" class="st4" width="48.41" height="1331.35"/>
<rect x="797.92" y="-141.84" transform="matrix(0.1828 0.9832 -0.9832 0.1828 1437.3777 -171.9602)" class="st4" width="48.41" height="1840.94"/>
<rect x="808.96" y="92.19" transform="matrix(-0.1659 0.9861 -0.9861 -0.1659 1183.2167 -555.318)" class="st4" width="35" height="261.09"/>
<rect x="284.62" y="-179.18" transform="matrix(0.0524 0.9986 -0.9986 0.0524 508.3213 -91.0143)" class="st4" width="35" height="803.05"/>
<rect x="1309.03" y="-41.19" transform="matrix(0.1828 0.9832 -0.9832 0.1828 1467.9573 -985.0961)" class="st4" width="35" height="863.3"/>
<rect x="896.74" y="763.8" transform="matrix(0.9765 -0.2153 0.2153 0.9765 -243.6948 227.2203)" class="st4" width="48.41" height="936.42"/>
<text transform="matrix(0.9832 -0.1828 0.1828 0.9832 781.9887 796.0812)" class="st5 st1 st6 st3">학동 사거리</text>
<text transform="matrix(0.9832 -0.1828 0.1828 0.9832 1279.9813 701.8069)" class="st5 st1 st6 st3">도산대로</text>
<text transform="matrix(1 0 0 1 587.7231 700.3138)" class="st7 st1 st2 st3">KB국민은행 KB Star</text>
<text transform="matrix(1 0 0 1 526.7764 895.0587)"><tspan x="0" y="0" class="st7 st1 st2 st3">삼성 디지털 프라자 강남본점</tspan><tspan x="0" y="26.4" class="st7 st1 st2 st3">Samsung Digital Plaza</tspan></text>
<text transform="matrix(1 0 0 1 892.6704 651.9958)"><tspan x="0" y="0" class="st7 st1 st2 st3">LG베스트샵 강남본점</tspan><tspan x="0" y="26.4" class="st7 st1 st2 st3">LG Best Shop</tspan></text>
<text transform="matrix(1 0 0 1 954.6349 394.0297)" class="st7 st1 st2 st3">버거킹 Buger king</text>
<text transform="matrix(1 0 0 1 702.1594 164.643)" class="st7 st1 st2 st3">죠스떡볶이 Jaws food</text>
<g>
	<text transform="matrix(0.2342 -0.9722 0.9722 0.2342 879.4731 567.1439)" class="st5 st1 st6 st3">선릉로</text>
</g>
<rect x="953.16" y="405.72" class="st8" width="18.36" height="18.36"/>
<rect x="902.58" y="186.48" class="st8" width="18.36" height="18.36"/>
<rect x="768.7" y="835.86" class="st8" width="18.36" height="18.36"/>
<rect x="883.49" y="704.89" class="st8" width="18.36" height="18.36"/>
<rect x="768.7" y="714.07" class="st8" width="18.36" height="18.36"/>
<rect x="827.87" y="368.63" class="st0" width="18.36" height="18.36"/>
<rect x="822.39" y="363.15" class="st9" width="29.32" height="29.32"/>
</svg>
