<?xml version="1.0" encoding="utf-8"?>
<!-- Generator: Adobe Illustrator 26.3.1, SVG Export Plug-In . SVG Version: 6.00 Build 0)  -->
<svg version="1.1" id="Layer_1" xmlns="http://www.w3.org/2000/svg" xmlns:xlink="http://www.w3.org/1999/xlink" x="0px" y="0px"
	 viewBox="0 0 400 200" style="enable-background:new 0 0 400 200;" xml:space="preserve">
<style type="text/css">
	.st0{fill:none;stroke:#40305F;stroke-width:2;stroke-miterlimit:10;}
	.st1{fill:#40305F;}
</style>
<g>
	<path class="st0" d="M74.8,135.2c0,0-14.8,12.9-16,33.7c0,0,14.6-27.2,49-26.5C95.6,132.5,83,130.2,74.8,135.2z"/>
	<g>
		<path class="st1" d="M74.6,96.3h11.3v6.4l2.6-0.9c0.6-0.2,1-0.8,1-1.4v-4.2h9.1V94H73.9L74.6,96.3z M42.5,81.5
			c0-0.4-0.3-0.7-0.7-0.7h-4.3l0.4,1.1h0.7c0.2,0,0.3,0.2,0.3,0.3v19.8l2.6-0.9c0.6-0.2,1-0.8,1-1.4v-9.2h3.3v-2.4h-3.3V81.5z
			 M126.2,90.3h-3.6v-8.9c0-0.4-0.3-0.7-0.7-0.7h-4.3l0.4,1.1h0.7c0.2,0,0.3,0.2,0.3,0.3v18.1c-0.3,0.1-2,0.6-6.1,0.6h-2.4V96
			c2.8-0.7,4.8-3.1,4.8-6.3c0-2-0.8-3.5-2-4.4h3.1v-2.3h-5.8v-2c0-0.4-0.3-0.7-0.7-0.7h-4.3l0.4,1.1h0.7c0.2,0,0.3,0.2,0.3,0.3v1.4
			h-6.5l0.6,2.3h3.1c-1.3,0.9-2,2.4-2,4.4c0,3.3,2,5.6,4.8,6.3v4.8h-6.9l0.6,2.4H113c3.2,0,5.1-0.5,6-0.7v6.5l2.6-0.9
			c0.6-0.2,1-0.8,1-1.4v-14h3.6C126.2,92.7,126.2,90.3,126.2,90.3z M105.5,89.7c0-2.5,1.4-4.2,3.2-4.2s3.2,1.7,3.2,4.2
			s-1.4,4.2-3.2,4.2S105.5,92.2,105.5,89.7z M149.8,80.7h-4.1l0.4,1.1h0.7c0.2,0,0.3,0.2,0.3,0.3v8.2h-2.2v-8.5
			c0-0.4-0.3-0.7-0.7-0.7h-4l0.4,1.1h0.7c0.2,0,0.3,0.1,0.3,0.3v26.1l2.3-0.8c0.6-0.2,1-0.8,1-1.4V92.7h2.2v16.2l2.4-0.8
			c0.6-0.2,1-0.8,1-1.4V81.5C150.5,81.1,150.2,80.7,149.8,80.7z M29.4,99.3c0-0.4-0.3-0.7-0.7-0.7h-4.3l0.4,1.1h0.7
			c0.2,0,0.3,0.2,0.3,0.3v6.2c0,1.1,0.9,2,2,2h15.2v-2.4H29.4V99.3z M188.9,99.3c0-0.4-0.3-0.7-0.7-0.7h-4.3l0.4,1.1h0.7
			c0.2,0,0.3,0.2,0.3,0.3v6.2c0,1.1,0.9,2,2,2h15.2v-2.4h-13.7L188.9,99.3L188.9,99.3z M180.4,81.8l0.4,1.1h0.7
			c0.2,0,0.3,0.2,0.3,0.3v9.3c0,1.1,0.9,2,2,2h8.5c3.2,0,5.1-0.5,6-0.7v8.2l2.6-0.9c0.6-0.2,1-0.8,1-1.4v-9.2h3.3v-2.4H202v-6.7
			c0-0.4-0.3-0.7-0.7-0.7h-4.3l0.4,1.1h0.7c0.2,0,0.3,0.2,0.3,0.3v9.4c-0.3,0.1-2,0.6-6.1,0.6h-6.8v-7.9h8.3v-2.4L180.4,81.8z
			 M76.3,81.4l0.4,1.1h0.7c0.2,0,0.3,0.2,0.3,0.3v6.3c0,1.1,0.9,2,2,2h15.9v-8.8c0-0.6-0.4-1-1-1L76.3,81.4L76.3,81.4z M81.3,83.8
			H92v5H81.3V83.8z M81.7,99.6c0-0.4-0.3-0.7-0.7-0.7h-4.3l0.4,1.1h0.7c0.2,0,0.3,0.2,0.3,0.3v6c0,1.1,0.9,2,2,2h16.1v-2.4H81.7
			V99.6z M34.4,89.5c0-1.9-0.7-3.3-2-4.2h3v-2.3h-5.8v-2c0-0.4-0.3-0.7-0.7-0.7h-4.3l0.4,1.1h0.7c0.2,0,0.3,0.2,0.3,0.3v1.4h-6.5
			l0.6,2.3h3c-1.2,0.9-2,2.3-2,4.2c0,3.8,3,6.4,6.6,6.4C31.4,95.8,34.4,93.3,34.4,89.5z M24.6,89.5c0-2.4,1.4-4,3.1-4s3.1,1.6,3.1,4
			c0,2.4-1.4,4-3.1,4C26,93.5,24.6,91.9,24.6,89.5z M68.8,88.3v-5.9c0-0.6-0.4-1-1-1H49.7l0.6,2.4h14.8v4.9c0,1.3-0.4,2.3-0.6,2.6
			H46.8l0.6,2.4h9.9v4.8h-8l0.6,2.4h15.6v8.1l2.6-0.9c0.6-0.2,1-0.8,1-1.4v-7.2c0-0.6-0.4-1-1-1h-7.2v-4.8h10.6v-2.4h-3.6
			C68.1,91.1,68.8,89.9,68.8,88.3z M134.6,91c0.6-1.7,1.1-3.6,1.4-5.7h3.4v-2.3h-12.3l0.6,2.3h4.6c-0.2,1.5-1.2,9.2-6.4,14.6
			l1.8,1.1c0,0,3.2-2.3,5.7-7.3c2.6,3.2,3.7,7.2,3.7,7.2l3.1-2.2C138.2,94.6,135.5,91.9,134.6,91z M176.5,80.7h-4.1l0.4,1.1h0.7
			c0.2,0,0.3,0.2,0.3,0.3v8.2h-2.2v-8.5c0-0.4-0.3-0.7-0.7-0.7h-4l0.4,1.1h0.7c0.2,0,0.3,0.1,0.3,0.3v26.1l2.3-0.8
			c0.6-0.2,1-0.8,1-1.4V92.7h2.2v16.2l2.5-0.8c0.6-0.2,1-0.8,1-1.4V81.5C177.2,81.1,176.9,80.7,176.5,80.7z M161.3,91
			c0.6-1.7,1.1-3.6,1.4-5.7h3.4v-2.3h-12.3l0.6,2.3h4.6c-0.2,1.5-1.2,9.2-6.4,14.6l1.8,1.1c0,0,3.2-2.3,5.7-7.3
			c2.6,3.2,3.7,7.2,3.7,7.2l3-2.2C164.9,94.6,162.2,91.9,161.3,91z"/>
		<path class="st1" d="M308.8,101.1c0,0.8-0.2,1.5-0.6,2.2c-0.4,0.7-0.9,1-1.5,1s-0.9-0.3-1-0.9c0-0.2,0-0.7,0-1.3v-4.2h-1.5v5.3
			c0,0.7,0.1,1.2,0.4,1.6c0.4,0.6,0.9,0.9,1.7,0.9c0.7,0,1.3-0.2,1.7-0.7c0.3-0.3,0.5-0.7,0.8-1.1v1.7h1.5v-7.7h-1.5L308.8,101.1
			L308.8,101.1z M313.8,99.3v-1.5h-1.5v7.7h1.5v-3.3c0-1.1,0.2-1.9,0.7-2.4c0.4-0.4,0.9-0.6,1.7-0.6v-1.6c-0.7,0-1.2,0.2-1.7,0.7
			C314.1,98.6,313.9,98.9,313.8,99.3z M301,95.1l-1.5,0.9v1.8h-1.4v1.1h1.4v4.9c0,0.6,0.2,1.1,0.5,1.3c0.4,0.3,1,0.5,1.8,0.5
			c0.2,0,0.4,0,0.6,0c0.2,0,0.4-0.1,0.5-0.1v-1.1c-0.2,0.1-0.5,0.1-0.8,0.1c-0.4,0-0.7-0.1-0.9-0.3c-0.2-0.2-0.3-0.6-0.3-1.2v-4.1
			h2.1v-1.1H301L301,95.1L301,95.1z M295.3,105.5h1.5v-11h-1.5V105.5z M324.5,105.5h1.5v-11h-1.5V105.5z M320,97.6
			c-1,0-1.8,0.2-2.3,0.7c-0.4,0.4-0.6,0.9-0.6,1.6h1.5c0-0.3,0.1-0.6,0.3-0.8c0.2-0.2,0.5-0.3,0.9-0.3c0.3,0,0.6,0.1,0.8,0.2
			c0.2,0.2,0.4,0.5,0.4,0.8v1.3c-0.6,0-1.1,0-1.6,0.1s-0.9,0.2-1.3,0.4c-0.9,0.4-1.4,1.1-1.4,2c0,0.6,0.2,1.1,0.6,1.5
			s0.9,0.6,1.6,0.6c0.5,0,1-0.1,1.4-0.4c0.3-0.2,0.5-0.4,0.6-0.7v1h1.5v-5.3c0-0.9-0.2-1.6-0.6-2C321.5,97.8,320.8,97.6,320,97.6z
			 M321.1,102.5c0,0.5-0.2,0.9-0.5,1.4c-0.4,0.4-0.8,0.7-1.2,0.7c-0.2,0-0.4-0.1-0.6-0.3c-0.2-0.2-0.2-0.4-0.2-0.7
			c0-0.5,0.2-0.8,0.7-1.1c0.5-0.3,1-0.4,1.6-0.4h0.3V102.5z M286.4,78h-1.9l-3.8,4.9V78h-1.6v11h1.6v-5.5l4.1,5.5h1.9l-4.4-5.8
			L286.4,78z M290.1,81.1c-1.1,0-2,0.4-2.6,1.1c-0.6,0.7-0.9,1.7-0.9,3c0,1.3,0.3,2.2,0.9,2.9c0.6,0.7,1.4,1.1,2.6,1.1
			s2-0.4,2.5-1.1c0.6-0.7,0.9-1.7,0.9-2.9s-0.3-2.2-0.9-2.9C292.1,81.5,291.3,81.1,290.1,81.1z M291.6,87c-0.3,0.7-0.8,1-1.5,1
			c-0.3,0-0.5-0.1-0.8-0.2c-0.2-0.1-0.4-0.3-0.5-0.4c-0.3-0.5-0.5-1.2-0.5-2.3c0-0.8,0.1-1.4,0.3-1.9c0.3-0.6,0.8-1,1.5-1
			c0.6,0,1,0.2,1.3,0.6c0.3,0.5,0.5,1.2,0.5,2.3C291.9,85.9,291.8,86.5,291.6,87z M291.7,101.1c0,0.8-0.2,1.5-0.6,2.2
			c-0.4,0.7-0.9,1-1.5,1s-0.9-0.3-1-0.9c0-0.2,0-0.7,0-1.3v-4.2h-1.5v5.3c0,0.7,0.1,1.2,0.4,1.6c0.4,0.6,0.9,0.9,1.7,0.9
			c0.7,0,1.3-0.2,1.7-0.7c0.3-0.3,0.5-0.7,0.8-1.1v1.7h1.5v-7.7h-1.5L291.7,101.1L291.7,101.1z M296.5,82.8v-1.6H295V89h1.5v-3.3
			c0-1.1,0.2-1.9,0.7-2.4c0.4-0.4,1-0.6,1.7-0.6v-1.6c-0.7,0-1.2,0.2-1.7,0.7C296.9,82,296.7,82.4,296.5,82.8z M337.1,99.2h-4.3
			v-4.7h-1.6v11h1.6v-5.1h4.3v5.1h1.6v-11h-1.6V99.2z M347.5,115.1c-0.3-0.6-0.9-0.9-1.7-0.9c-0.7,0-1.3,0.2-1.7,0.7
			c-0.3,0.3-0.5,0.7-0.8,1.2v-1.7h-1.5v7.7h1.5v-3.3c0-0.8,0.2-1.5,0.6-2.2s0.9-1,1.4-1c0.5,0,0.8,0.2,0.9,0.6
			c0.1,0.2,0.1,0.8,0.1,1.6v4.2h1.5v-5.3C347.9,116,347.8,115.5,347.5,115.1z M282.4,95.6c0.7,0,1.2,0.2,1.5,0.7
			c0.2,0.3,0.3,0.7,0.3,1.2h1.9c0-1-0.3-1.7-0.9-2.3c-0.6-0.6-1.5-0.9-2.6-0.9c-1.5,0-2.6,0.6-3.3,1.7c-0.6,0.9-0.9,2.2-0.9,3.9
			c0,2,0.4,3.5,1.3,4.5c0.8,0.8,1.8,1.3,3.1,1.3c0.3,0,0.6,0,0.9-0.1c0.3,0,0.6-0.1,0.9-0.2c0.4-0.1,0.8-0.3,1.1-0.4v-1.5
			c-0.4,0.3-0.7,0.4-0.9,0.5c-0.5,0.2-1.1,0.4-1.7,0.4c-1.1,0-1.9-0.4-2.3-1.3c-0.4-0.8-0.6-1.9-0.6-3.4c0-1.1,0.1-1.9,0.4-2.6
			C280.9,96.1,281.5,95.6,282.4,95.6z M309.6,81.1c-1,0-1.8,0.2-2.3,0.7c-0.4,0.4-0.6,0.9-0.6,1.6h1.5c0-0.3,0.1-0.6,0.3-0.8
			c0.2-0.2,0.5-0.3,0.9-0.3c0.3,0,0.6,0.1,0.8,0.2c0.2,0.2,0.4,0.5,0.4,0.8v1.3c-0.6,0-1.1,0-1.6,0.1c-0.5,0.1-0.9,0.2-1.3,0.4
			c-0.9,0.4-1.4,1.1-1.4,2c0,0.6,0.2,1.1,0.6,1.5s0.9,0.6,1.6,0.6c0.5,0,1-0.1,1.4-0.4c0.3-0.2,0.5-0.4,0.6-0.7v1h1.5v-5.3
			c0-0.9-0.2-1.6-0.6-2C311.1,81.3,310.5,81.1,309.6,81.1z M310.7,86c0,0.5-0.2,0.9-0.5,1.4c-0.4,0.4-0.8,0.7-1.2,0.7
			c-0.2,0-0.4-0.1-0.6-0.3c-0.2-0.2-0.2-0.4-0.2-0.7c0-0.5,0.2-0.8,0.7-1.1c0.5-0.3,1-0.4,1.6-0.4h0.3V86z M337,114.1
			c-1.1,0-2,0.3-2.6,1.1s-0.9,1.7-0.9,3c0,1.3,0.3,2.2,0.9,2.9c0.6,0.7,1.4,1.1,2.5,1.1c1.1,0,2-0.4,2.5-1.1
			c0.6-0.7,0.9-1.7,0.9-2.9s-0.3-2.2-0.9-2.9C338.9,114.5,338.1,114.1,337,114.1z M338.4,120.1c-0.3,0.7-0.8,1-1.5,1
			c-0.3,0-0.5-0.1-0.8-0.2s-0.4-0.3-0.5-0.4c-0.3-0.5-0.5-1.2-0.5-2.3c0-0.8,0.1-1.4,0.3-1.9c0.3-0.7,0.8-1,1.5-1
			c0.6,0,1,0.2,1.3,0.6c0.3,0.5,0.5,1.2,0.5,2.3C338.7,118.9,338.6,119.6,338.4,120.1z M298.4,117.6c0,0.8-0.2,1.5-0.6,2.2
			c-0.4,0.7-0.9,1-1.5,1s-0.9-0.3-1-0.9c0-0.2,0-0.7,0-1.3v-4.2h-1.5v5.3c0,0.7,0.1,1.2,0.4,1.6c0.3,0.6,0.9,0.9,1.7,0.9
			c0.7,0,1.3-0.2,1.7-0.7c0.3-0.3,0.5-0.7,0.8-1.1v1.7h1.5v-7.7h-1.5V117.6z M320.4,114.1c-1,0-1.8,0.2-2.3,0.7
			c-0.4,0.4-0.6,0.9-0.6,1.6h1.5c0-0.3,0.1-0.6,0.3-0.8c0.2-0.2,0.5-0.3,0.9-0.3c0.3,0,0.6,0.1,0.8,0.2c0.2,0.2,0.4,0.5,0.4,0.8v1.3
			c-0.6,0-1.1,0-1.6,0.1c-0.5,0.1-0.9,0.2-1.3,0.4c-0.9,0.4-1.4,1.1-1.4,2c0,0.6,0.2,1.1,0.6,1.5c0.4,0.4,0.9,0.6,1.6,0.6
			c0.5,0,1-0.1,1.4-0.4c0.3-0.2,0.5-0.4,0.6-0.7v1h1.5v-5.3c0-0.9-0.2-1.6-0.6-2C321.9,114.3,321.3,114.1,320.4,114.1z M321.5,119
			c0,0.5-0.2,0.9-0.5,1.4s-0.8,0.7-1.2,0.7c-0.2,0-0.4-0.1-0.6-0.3c-0.2-0.2-0.2-0.4-0.2-0.7c0-0.5,0.2-0.8,0.7-1.1
			c0.5-0.3,1-0.4,1.6-0.4h0.3L321.5,119L321.5,119z M373.4,98.9c-0.1-0.3-0.4-0.6-0.6-0.8c-0.4-0.3-0.9-0.5-1.4-0.5
			c-0.9,0-1.6,0.4-2.1,1.2c-0.4,0.7-0.6,1.7-0.6,2.8c0,1.1,0.2,2,0.6,2.7c0.5,0.8,1.1,1.2,2.1,1.2c0.6,0,1.1-0.2,1.5-0.5
			c0.3-0.3,0.5-0.5,0.6-0.8v1c0,0.7-0.1,1.2-0.3,1.6c-0.3,0.6-1,0.9-2,0.9c-0.4,0-0.8-0.1-1.3-0.2c-0.3-0.1-0.6-0.2-0.9-0.4v1.5
			c0.4,0.1,0.7,0.2,1,0.2c0.3,0.1,0.6,0.1,1.1,0.1h0.2c1.2,0,2.1-0.3,2.7-0.8c0.6-0.5,0.9-1.3,0.9-2.4v-7.8h-1.5L373.4,98.9z
			 M373,103.4c-0.3,0.7-0.8,1-1.3,1c-0.6,0-1-0.3-1.2-1c-0.2-0.5-0.3-1-0.3-1.8c0-0.8,0.1-1.4,0.3-1.9c0.3-0.7,0.7-1,1.2-1
			c0.6,0,1,0.3,1.3,0.9c0.2,0.5,0.4,1.1,0.4,1.8C373.4,102.2,373.2,102.8,373,103.4z M279.1,122h1.6v-5.1h4.1v-1.3h-4.1v-3.4h4.3
			V111h-5.9L279.1,122L279.1,122z M305.9,114.1c-0.7,0-1.3,0.2-1.7,0.7c-0.3,0.3-0.5,0.7-0.7,1.2v-1.7H302v7.7h1.5v-3.3
			c0-0.8,0.2-1.5,0.6-2.2s0.9-1,1.4-1c0.5,0,0.8,0.2,0.9,0.6c0.1,0.2,0.1,0.8,0.1,1.6v4.2h1.5v-5.3c0-0.7-0.1-1.2-0.4-1.6
			C307.3,114.4,306.7,114.1,305.9,114.1z M327,111.6l-1.5,0.9v1.8h-1.4v1.1h1.4v4.9c0,0.6,0.2,1.1,0.5,1.3c0.4,0.3,1,0.5,1.8,0.5
			c0.2,0,0.4,0,0.6,0c0.2,0,0.4-0.1,0.5-0.1V121c-0.2,0.1-0.5,0.1-0.8,0.1c-0.4,0-0.7-0.1-0.9-0.3c-0.2-0.2-0.3-0.6-0.3-1.2v-4.1
			h2.1v-1.1H327L327,111.6L327,111.6z M330.4,112.7h1.7V111h-1.7V112.7z M289,114.1c-1.1,0-2,0.3-2.6,1.1s-0.9,1.7-0.9,3
			c0,1.3,0.3,2.2,0.9,2.9c0.6,0.7,1.4,1.1,2.5,1.1c1.1,0,2-0.4,2.5-1.1c0.6-0.7,0.9-1.7,0.9-2.9s-0.3-2.2-0.9-2.9
			C291,114.5,290.1,114.1,289,114.1z M290.5,120.1c-0.3,0.7-0.8,1-1.5,1c-0.3,0-0.5-0.1-0.8-0.2c-0.2-0.1-0.4-0.3-0.5-0.4
			c-0.3-0.5-0.5-1.2-0.5-2.3c0-0.8,0.1-1.4,0.3-1.9c0.3-0.7,0.8-1,1.5-1c0.5,0,1,0.2,1.3,0.6c0.3,0.5,0.5,1.2,0.5,2.3
			C290.8,118.9,290.7,119.6,290.5,120.1z M314.2,115.4c-0.1-0.3-0.3-0.6-0.6-0.8c-0.4-0.3-0.9-0.4-1.5-0.4c-0.9,0-1.5,0.4-2,1.1
			c-0.5,0.7-0.7,1.8-0.7,3.1c0,1.2,0.2,2.1,0.6,2.8c0.5,0.7,1.1,1.1,2,1.1c0.5,0,0.9-0.1,1.3-0.3c0.4-0.2,0.7-0.6,0.9-1v1.2h1.5v-11
			h-1.5L314.2,115.4z M313.8,120.1c-0.3,0.7-0.7,1-1.3,1c-0.6,0-1-0.3-1.3-1c-0.2-0.4-0.2-1.1-0.2-1.9c0-0.9,0.1-1.6,0.4-2.1
			c0.2-0.5,0.6-0.8,1.1-0.8c0.6,0,1,0.3,1.3,0.9c0.2,0.5,0.4,1.2,0.4,1.9C314.2,118.9,314.1,119.5,313.8,120.1z M364.6,97.6
			c-1,0-1.8,0.2-2.3,0.7c-0.4,0.4-0.6,0.9-0.6,1.6h1.5c0-0.3,0.1-0.6,0.3-0.8c0.2-0.2,0.5-0.3,0.9-0.3c0.3,0,0.6,0.1,0.8,0.2
			c0.2,0.2,0.4,0.5,0.4,0.8v1.3c-0.6,0-1.1,0-1.6,0.1c-0.5,0.1-0.9,0.2-1.3,0.4c-0.9,0.4-1.4,1.1-1.4,2c0,0.6,0.2,1.1,0.6,1.5
			s0.9,0.6,1.6,0.6c0.5,0,1-0.1,1.4-0.4c0.3-0.2,0.5-0.4,0.6-0.7v1h1.5v-5.3c0-0.9-0.2-1.6-0.6-2C366.1,97.8,365.4,97.6,364.6,97.6z
			 M365.7,102.5c0,0.5-0.2,0.9-0.5,1.4c-0.4,0.4-0.8,0.7-1.2,0.7c-0.2,0-0.4-0.1-0.6-0.3c-0.2-0.2-0.2-0.4-0.2-0.7
			c0-0.5,0.2-0.8,0.7-1.1c0.5-0.3,1-0.4,1.6-0.4h0.3V102.5z M352.8,96.2h1.7v-1.7h-1.7V96.2z M352.9,105.5h1.5v-7.7h-1.5V105.5z
			 M330.5,122h1.5v-7.7h-1.5L330.5,122L330.5,122z M358.6,95.1l-1.5,0.9v1.8h-1.4v1.1h1.4v4.9c0,0.6,0.2,1.1,0.5,1.3
			c0.4,0.3,1,0.5,1.9,0.5c0.2,0,0.4,0,0.6,0c0.2,0,0.4-0.1,0.5-0.1v-1.1c-0.2,0.1-0.5,0.1-0.8,0.1c-0.4,0-0.7-0.1-0.9-0.3
			c-0.2-0.2-0.3-0.6-0.3-1.2v-4.1h2.1v-1.1h-2.1L358.6,95.1L358.6,95.1z M349.2,99.3v-1.5h-1.5v7.7h1.5v-3.3c0-1.1,0.2-1.9,0.7-2.4
			c0.4-0.4,1-0.6,1.7-0.6v-1.6c-0.7,0-1.2,0.2-1.7,0.7C349.6,98.6,349.3,98.9,349.2,99.3z M302.7,81.1c-0.8,0-1.4,0.2-1.9,0.6
			c-0.8,0.6-1.2,1.6-1.2,3.1c0,1.5,0.4,2.6,1,3.3c0.7,0.7,1.6,1.1,2.8,1.1c0.5,0,1.2-0.1,1.9-0.3v-1.1c0,0-0.8,0.3-1.5,0.3
			c-1,0-1.8-0.4-2.3-1.2c-0.4-0.6-0.5-1.3-0.5-2.2h4.5v-0.4c0-0.9-0.2-1.7-0.7-2.3C304.3,81.4,303.6,81.1,302.7,81.1z M301.1,83.6
			c0-0.3,0.1-0.6,0.3-0.8c0.3-0.4,0.7-0.6,1.2-0.6c0.5,0,0.9,0.2,1.1,0.5c0.2,0.3,0.3,0.6,0.3,0.9L301.1,83.6L301.1,83.6z
			 M343.4,97.6c-0.8,0-1.4,0.2-1.9,0.6c-0.8,0.6-1.2,1.6-1.2,3.1c0,1.5,0.3,2.6,1,3.3c0.7,0.7,1.6,1.1,2.8,1.1
			c0.5,0,1.2-0.1,1.9-0.3v-1.1c0,0-0.8,0.3-1.5,0.3c-1,0-1.8-0.4-2.4-1.2c-0.4-0.6-0.5-1.3-0.5-2.2h4.5v-0.4c0-0.9-0.2-1.7-0.7-2.3
			C345,97.9,344.3,97.6,343.4,97.6z M341.8,100.1c0-0.3,0.1-0.6,0.3-0.8c0.3-0.4,0.7-0.6,1.2-0.6c0.5,0,0.9,0.2,1.1,0.5
			c0.2,0.3,0.3,0.6,0.3,0.9C344.8,100.1,341.8,100.1,341.8,100.1z M379.5,97.6c-0.8,0-1.4,0.2-2,0.6c-0.8,0.6-1.2,1.6-1.2,3.1
			c0,1.5,0.4,2.6,1,3.3c0.7,0.7,1.6,1.1,2.8,1.1c0.5,0,1.2-0.1,1.9-0.3v-1.1c0,0-0.8,0.3-1.5,0.3c-1,0-1.8-0.4-2.4-1.2
			c-0.4-0.6-0.5-1.3-0.5-2.2h4.5v-0.4c0-0.9-0.2-1.7-0.7-2.3C381,97.9,380.4,97.6,379.5,97.6z M377.8,100.1c0-0.3,0.1-0.6,0.3-0.8
			c0.3-0.4,0.7-0.6,1.2-0.6c0.5,0,0.9,0.2,1.1,0.5c0.2,0.3,0.3,0.6,0.3,0.9C380.8,100.1,377.8,100.1,377.8,100.1z"/>
		<g>
			<g>
				<path id="SVGID_1_" class="st0" d="M147.3,156.7c0,0-23.4,0-37.1-12.3c-0.8-0.7-1.6-1.4-2.4-2.1c-12.2-9.8-24.7-12.2-32.9-7.2
					c12.9-12.1,29.1-16.4,44.9-16.4c21.7,0,38.8,8.5,46.2,12.1c16.7,8.3,22.3,8.3,22.3,8.3C176.6,148.4,163.1,155.6,147.3,156.7z"/>
			</g>
		</g>
		<path class="st0" d="M222,103.8c-8.6,9.6-19.7,23.9-33.9,35.3c-11.5,9.2-25,16.5-40.8,17.5c25,0,41.8-4.1,47.5-5.6
			c35.1-9.3,58-32.8,58-32.8c1.4-18.8,4.7-32.2,10.1-44.2l0,0C249.2,80.4,234.7,89.7,222,103.8z"/>
		<path class="st0" d="M262.9,74.2c26.1-11.9,48.8-12.3,48.5-12.3c6.9-20.3,22.8-30.7,22.8-30.7S281.4,33.1,262.9,74.2z"/>
	</g>
</g>
</svg>
