<?xml version="1.0" encoding="utf-8"?>
<!-- Generator: Adobe Illustrator 26.3.1, SVG Export Plug-In . SVG Version: 6.00 Build 0)  -->
<svg version="1.1" id="Layer_1" xmlns="http://www.w3.org/2000/svg" xmlns:xlink="http://www.w3.org/1999/xlink" x="0px" y="0px"
	 viewBox="0 0 400 200" style="enable-background:new 0 0 400 200;" xml:space="preserve">
<style type="text/css">
	.st0{fill:#FFF4D7;}
</style>
<path class="st0" d="M76.3,103.41c-7.27-4.94-16.57-2.92-21.45,4.5c-4.08,6.2-10.24,6.97-12.62,6.97c-7.77,0-13.09-5.47-14.67-11.13
	h0c-0.01-0.05-0.03-0.1-0.04-0.16c-0.02-0.06-0.04-0.12-0.05-0.19c-0.62-2.36-0.77-3.49-0.77-5.99c0-13.53,13.88-28.59,33.87-28.59
	c20.47,0,32.18,15.58,35.19,24.24c-0.05-0.15-0.09-0.3-0.15-0.46C89.8,75.68,73.73,63.5,54.82,63.5c-23.8,0-43.1,19.29-43.1,43.1
	c0,21.28,15.35,39.49,36.63,39.49c16.98,0,28.39-9.52,33.62-22.64C84.85,116.27,82.81,107.84,76.3,103.41z"/>
<path class="st0" d="M96.02,93.91c-2.52-8.45-14.31-25.08-35.46-25.08c-19.99,0-33.87,15.06-33.87,28.59c0,2.51,0.15,3.64,0.77,5.99
	c-0.26-1.03-0.4-2.06-0.4-3.07c0-14.09,14.1-23.85,28.6-23.85c19.63,0,35.54,15.91,35.54,35.54c0,15.39-8.85,28.7-21.72,35.1l0,0.01
	c16.58-6,28.42-21.89,28.42-40.54C97.92,102.18,97.32,98.29,96.02,93.91z"/>
<path class="st0" d="M145.99,79.83H126.5v6.3h19.49V79.83L145.99,79.83z M121.95,90.09V75.83h28.59v14.25H121.95L121.95,90.09z
	 M153.27,93.87v4.04h-14.55v5.74h-4.64v-5.74h-14.85v-4.04H153.27L153.27,93.87z M126.59,100.89h-4.64v10.89h29.06v-4.04h-24.42
	V100.89L126.59,100.89z M168.74,79.07v-3.96h4.98v3.96h8.72v3.96h-22.46v-3.96H168.74L168.74,79.07z M175.85,92
	c0-1.22-0.45-2.27-1.34-3.15c-0.89-0.88-1.98-1.32-3.25-1.32c-1.28,0-2.36,0.44-3.23,1.32c-0.88,0.88-1.32,1.93-1.32,3.15
	c0,1.22,0.44,2.27,1.32,3.15c0.88,0.88,1.96,1.32,3.23,1.32c1.28,0,2.36-0.44,3.25-1.32C175.4,94.27,175.85,93.22,175.85,92
	L175.85,92z M180.32,92c0,1.13-0.23,2.21-0.7,3.23c-0.47,1.02-1.11,1.91-1.94,2.68c-1.14,1.05-2.51,1.77-4.13,2.17v4.68h9.7v4.04
	h-24.04v-4.04h9.74v-4.68c-1.67-0.42-3.05-1.15-4.13-2.17c-0.82-0.77-1.47-1.66-1.94-2.68c-0.47-1.02-0.7-2.1-0.7-3.23
	c0-1.14,0.23-2.21,0.7-3.23c0.47-1.02,1.11-1.92,1.94-2.68s1.79-1.36,2.89-1.79c1.11-0.43,2.28-0.64,3.53-0.64
	c1.25,0,2.42,0.21,3.53,0.64c1.11,0.43,2.07,1.02,2.89,1.79c0.82,0.77,1.47,1.66,1.94,2.68C180.08,89.79,180.32,90.87,180.32,92
	L180.32,92z M190.7,112.42h-4.6V75.37h4.6v15.57h4.77v4.34h-4.77V112.42L190.7,112.42z M200.01,81.7v-4.04h18.12v4.04h-7.49
	l8.3,24.81l-3.91,1.19l-5.79-17.79L203.41,108l-4.08-1.23l8.38-25.06H200.01L200.01,81.7z M229.19,75.37h4.42v37.06h-4.42v-17.4
	h-4.26v17.19h-4.3v-36.8h4.3v15.36h4.26V75.37L229.19,75.37z M240.71,82.43v-3.87h8.68v-3.62h4.89v3.62h8.25v3.87h-8.93l9.28,9.45
	l-3.06,2.85l-8-8.3l-7.87,8.98l-3.15-2.94l9.27-10.04H240.71L240.71,82.43z M268.84,96.09h4.59V75.37h-4.59v8.34h-6.47v3.96h6.47
	V96.09L268.84,96.09z M270.28,104.55c0,1.25-0.26,2.42-0.77,3.51c-0.51,1.09-1.19,2.05-2.04,2.87c-0.88,0.82-1.91,1.48-3.09,1.96
	c-1.18,0.48-2.42,0.72-3.72,0.72c-1.31,0-2.55-0.24-3.75-0.72c-1.19-0.48-2.23-1.14-3.1-1.96c-0.85-0.82-1.53-1.78-2.04-2.87
	c-0.51-1.09-0.77-2.26-0.77-3.51c0-1.25,0.26-2.42,0.77-3.53c0.51-1.11,1.19-2.07,2.04-2.89c0.88-0.82,1.91-1.48,3.1-1.96
	c1.19-0.48,2.44-0.72,3.75-0.72c1.3,0,2.54,0.24,3.72,0.72c1.18,0.48,2.21,1.13,3.09,1.96c0.85,0.82,1.53,1.79,2.04,2.89
	C270.03,102.13,270.28,103.31,270.28,104.55L270.28,104.55z M265.77,104.51c0-1.39-0.51-2.59-1.53-3.6
	c-1.02-1.01-2.23-1.51-3.62-1.51c-1.39,0-2.59,0.5-3.6,1.51c-1.01,1.01-1.51,2.21-1.51,3.6c0,1.39,0.5,2.58,1.51,3.57
	c1.01,0.99,2.21,1.49,3.6,1.49c1.39,0,2.6-0.5,3.62-1.49C265.26,107.09,265.77,105.9,265.77,104.51z"/>
<path class="st0" d="M126.92,136.68c1.37,0,2.62-0.44,3.75-1.33l0.9,1.6c-1.17,1.05-2.72,1.58-4.66,1.58
	c-1.88,0-3.48-0.65-4.79-1.95c-1.31-1.3-1.96-2.91-1.96-4.82c0-1.92,0.65-3.54,1.96-4.84c1.31-1.3,2.91-1.95,4.79-1.95
	c1.91,0,3.44,0.53,4.58,1.58l-0.88,1.6c-1.12-0.88-2.35-1.33-3.69-1.33c-1.24,0-2.32,0.46-3.21,1.39c-0.9,0.97-1.35,2.16-1.35,3.56
	c0,1.4,0.45,2.58,1.35,3.54C124.61,136.22,125.68,136.68,126.92,136.68L126.92,136.68z M139.42,133.62v-4.73h2.14v9.41h-2.06v-1.25
	c-0.26,0.46-0.6,0.81-1.04,1.06c-0.51,0.28-1.04,0.42-1.6,0.42c-1.1,0-1.99-0.38-2.67-1.14c-0.67-0.76-1.01-1.77-1.01-3.04v-5.46
	h2.14v4.93c0,1,0.16,1.74,0.49,2.22c0.33,0.48,0.83,0.72,1.51,0.72c0.35,0,0.69-0.12,1.02-0.35c0.33-0.23,0.59-0.54,0.77-0.94
	C139.31,135.01,139.42,134.39,139.42,133.62L139.42,133.62z M143.89,138.3v-13.97h2.14v13.97H143.89L143.89,138.3z M151.16,125.85
	v3.04h2.04v1.71h-2.04v4.79c0,0.46,0.11,0.78,0.33,0.94c0.22,0.17,0.53,0.25,0.92,0.25h0.79v1.71h-1.29c-1.01,0-1.75-0.23-2.21-0.68
	c-0.46-0.46-0.69-1.13-0.69-2.01v-5h-1.62v-1.71h1.62v-3.04H151.16L151.16,125.85z M161.1,133.62v-4.73h2.14v9.41h-2.06v-1.25
	c-0.26,0.46-0.6,0.81-1.04,1.06c-0.51,0.28-1.05,0.42-1.6,0.42c-1.1,0-1.99-0.38-2.67-1.14c-0.67-0.76-1.01-1.77-1.01-3.04v-5.46
	H157v4.93c0,1,0.16,1.74,0.49,2.22c0.33,0.48,0.83,0.72,1.51,0.72c0.35,0,0.69-0.12,1.02-0.35c0.33-0.23,0.59-0.54,0.77-0.94
	C160.99,135.01,161.1,134.39,161.1,133.62L161.1,133.62z M165.57,138.3v-9.41h2.02v1.4c0.31-0.46,0.69-0.82,1.14-1.08
	c0.54-0.32,1.17-0.48,1.91-0.48h0.15v1.91h-0.23c-0.89,0-1.59,0.27-2.12,0.81c-0.49,0.53-0.73,1.35-0.73,2.46v4.39H165.57
	L165.57,138.3z M176.11,132.22c0.72,0,1.46,0,2.23,0c0-0.6-0.24-1.06-0.72-1.37c-0.48-0.31-1.17-0.46-2.07-0.46h-0.06
	c-0.85,0-1.75,0.2-2.71,0.6l-0.54-1.67c0.99-0.42,2.08-0.64,3.27-0.65h0.04c1.58,0,2.79,0.3,3.64,0.91c0.85,0.61,1.27,1.57,1.27,2.9
	v5.83h-2.04v-1.04c-0.4,0.4-0.89,0.71-1.47,0.93c-0.58,0.22-1.18,0.34-1.78,0.34c-1.12,0-2.02-0.3-2.72-0.89
	c-0.7-0.6-1.05-1.33-1.05-2.2c0-0.96,0.43-1.76,1.31-2.39C173.5,132.49,174.64,132.22,176.11,132.22L176.11,132.22z M175.54,136.83
	c0.55,0,1.1-0.14,1.64-0.41c0.54-0.27,0.93-0.58,1.17-0.94v-1.6c-0.7,0-1.34,0-1.9,0c-1.08,0-1.83,0.14-2.25,0.42
	c-0.42,0.31-0.64,0.68-0.64,1.12c0,0.41,0.18,0.75,0.53,1.01C174.44,136.7,174.92,136.83,175.54,136.83L175.54,136.83z M182.8,138.3
	v-13.97h2.14v13.97H182.8L182.8,138.3z M195.08,138.3h-2.19v-13.1h2.19v5.64h5.97v-5.64h2.19v13.1h-2.19v-5.64h-5.97V138.3
	L195.08,138.3z M207.18,132.85h5.23c-0.03-0.62-0.28-1.18-0.77-1.68c-0.49-0.51-1.11-0.76-1.87-0.76c-0.77,0-1.41,0.28-1.91,0.83
	C207.51,131.65,207.27,132.18,207.18,132.85L207.18,132.85z M207.22,134.53c0.13,0.58,0.4,1.05,0.81,1.42
	c0.6,0.55,1.4,0.83,2.39,0.83c1.04,0,2.01-0.39,2.92-1.15l0.63,1.58c-1.01,0.88-2.22,1.33-3.62,1.33c-1.59,0-2.88-0.45-3.88-1.36
	c-0.99-0.9-1.49-2.09-1.49-3.55c0-1.45,0.44-2.64,1.33-3.57c0.88-0.93,2.04-1.39,3.46-1.39c1.41,0,2.56,0.46,3.45,1.39
	c0.89,0.92,1.34,2.07,1.34,3.44c0,0.37-0.03,0.72-0.09,1.04H207.22L207.22,134.53z M216.25,138.3v-9.41h2.02v1.4
	c0.31-0.46,0.69-0.82,1.14-1.08c0.54-0.32,1.17-0.48,1.91-0.48h0.15v1.91h-0.23c-0.89,0-1.59,0.27-2.12,0.81
	c-0.49,0.53-0.73,1.35-0.73,2.46v4.39H216.25L216.25,138.3z M222.87,138.3v-9.41h2.16v9.41H222.87L222.87,138.3z M225.3,125.94
	c0,0.36-0.13,0.67-0.4,0.94c-0.27,0.27-0.59,0.4-0.96,0.4c-0.37,0-0.69-0.13-0.96-0.4c-0.27-0.27-0.4-0.58-0.4-0.94
	c0-0.37,0.14-0.69,0.4-0.96c0.27-0.27,0.59-0.4,0.96-0.4c0.37,0,0.69,0.13,0.96,0.4C225.16,125.25,225.3,125.57,225.3,125.94
	L225.3,125.94z M230.25,125.85v3.04h2.04v1.71h-2.04v4.79c0,0.46,0.11,0.78,0.33,0.94c0.22,0.17,0.53,0.25,0.92,0.25h0.79v1.71H231
	c-1.01,0-1.75-0.23-2.21-0.68c-0.46-0.46-0.69-1.13-0.69-2.01v-5h-1.62v-1.71h1.62v-3.04H230.25L230.25,125.85z M238.01,132.22
	c0.72,0,1.46,0,2.23,0c0-0.6-0.24-1.06-0.72-1.37c-0.48-0.31-1.17-0.46-2.07-0.46h-0.06c-0.85,0-1.75,0.2-2.71,0.6l-0.54-1.67
	c0.99-0.42,2.08-0.64,3.27-0.65h0.04c1.58,0,2.79,0.3,3.64,0.91c0.85,0.61,1.27,1.57,1.27,2.9v5.83h-2.04v-1.04
	c-0.4,0.4-0.89,0.71-1.47,0.93c-0.58,0.22-1.18,0.34-1.78,0.34c-1.12,0-2.02-0.3-2.72-0.89c-0.7-0.6-1.05-1.33-1.05-2.2
	c0-0.96,0.44-1.76,1.31-2.39C235.4,132.49,236.53,132.22,238.01,132.22L238.01,132.22z M237.43,136.83c0.55,0,1.1-0.14,1.64-0.41
	c0.54-0.27,0.93-0.58,1.17-0.94v-1.6c-0.7,0-1.34,0-1.91,0c-1.08,0-1.83,0.14-2.25,0.42c-0.42,0.31-0.64,0.68-0.64,1.12
	c0,0.41,0.18,0.75,0.53,1.01C236.33,136.7,236.82,136.83,237.43,136.83L237.43,136.83z M251.52,134.22c0.04-0.42,0.04-0.84,0-1.25
	c-0.08-0.71-0.34-1.3-0.79-1.77c-0.5-0.53-1.12-0.79-1.87-0.79c-0.82,0-1.47,0.3-1.95,0.91c-0.48,0.61-0.72,1.37-0.72,2.28
	c0,0.91,0.24,1.67,0.72,2.27c0.48,0.6,1.13,0.91,1.95,0.91c0.75,0,1.37-0.26,1.87-0.79C251.18,135.51,251.44,134.92,251.52,134.22
	L251.52,134.22z M248.56,142.05c-1.45,0-2.69-0.37-3.71-1.1l0.64-1.69c0.96,0.69,1.99,1.04,3.08,1.04c0.95,0,1.7-0.27,2.24-0.81
	c0.55-0.54,0.82-1.14,0.82-1.81v-0.58c-0.78,0.95-1.77,1.42-2.96,1.42c-1.37,0-2.49-0.49-3.34-1.47c-0.85-0.98-1.28-2.13-1.28-3.45
	c0-1.33,0.43-2.49,1.28-3.47c0.85-0.98,1.97-1.47,3.34-1.47c1.12,0,2.08,0.45,2.89,1.35v-1.12h2.14v7.81c0,1.78-0.45,3.12-1.34,4.01
	C251.45,141.6,250.19,142.05,248.56,142.05L248.56,142.05z M257.55,132.85h5.23c-0.03-0.62-0.28-1.18-0.77-1.68
	c-0.49-0.51-1.11-0.76-1.87-0.76c-0.77,0-1.41,0.28-1.91,0.83C257.87,131.65,257.64,132.18,257.55,132.85L257.55,132.85z
	 M257.59,134.53c0.13,0.58,0.4,1.05,0.81,1.42c0.6,0.55,1.4,0.83,2.39,0.83c1.04,0,2.01-0.39,2.92-1.15l0.64,1.58
	c-1.01,0.88-2.22,1.33-3.62,1.33c-1.59,0-2.88-0.45-3.88-1.36c-0.99-0.9-1.49-2.09-1.49-3.55c0-1.45,0.44-2.64,1.33-3.57
	c0.88-0.93,2.04-1.39,3.46-1.39c1.41,0,2.56,0.46,3.45,1.39c0.89,0.92,1.34,2.07,1.34,3.44c0,0.37-0.03,0.72-0.09,1.04H257.59
	L257.59,134.53z M274.62,132.62h3.79l-1.89-5.5L274.62,132.62L274.62,132.62z M278.01,125.19l4.58,13.1h-2.23l-1.33-3.85H274
	l-1.33,3.85h-2.25l4.58-13.1H278.01L278.01,125.19z M287.55,128.66c1.12,0,2.08,0.45,2.89,1.35v-5.68h2.14v13.97h-2.06v-1.19
	c-0.8,0.95-1.78,1.42-2.96,1.42c-1.37,0-2.49-0.49-3.34-1.47c-0.85-0.98-1.28-2.13-1.28-3.45c0-1.33,0.43-2.49,1.28-3.47
	C285.07,129.15,286.18,128.66,287.55,128.66L287.55,128.66z M290.42,134.2c0.04-0.41,0.04-0.81,0-1.21c-0.08-0.7-0.34-1.3-0.79-1.77
	c-0.5-0.53-1.12-0.79-1.87-0.79c-0.82,0-1.47,0.3-1.95,0.9c-0.48,0.6-0.72,1.36-0.72,2.27c0,0.91,0.24,1.66,0.72,2.26
	c0.48,0.6,1.13,0.89,1.95,0.89c0.74,0,1.37-0.26,1.87-0.79C290.08,135.49,290.34,134.9,290.42,134.2L290.42,134.2z M304.91,128.66
	c1.1,0,1.96,0.38,2.58,1.14c0.62,0.76,0.92,1.77,0.92,3.04v5.46h-2.12v-4.93c0-1-0.13-1.74-0.4-2.22c-0.27-0.48-0.71-0.72-1.33-0.72
	c-0.36,0-0.67,0.1-0.94,0.31c-0.27,0.21-0.49,0.51-0.65,0.91c-0.17,0.41-0.25,0.99-0.25,1.73v4.93h-2.12v-4.93
	c0-1-0.14-1.74-0.41-2.22c-0.27-0.48-0.71-0.72-1.32-0.72c-0.36,0-0.67,0.1-0.92,0.31c-0.26,0.21-0.47,0.51-0.65,0.91
	c-0.18,0.46-0.27,1.08-0.27,1.85v-0.02v4.83h-2.12v-9.41h2v1.25c0.53-0.99,1.34-1.48,2.44-1.48c1.18,0,2.04,0.57,2.6,1.71
	c0.32-0.56,0.71-0.99,1.16-1.28C303.57,128.8,304.17,128.66,304.91,128.66L304.91,128.66z M310.77,138.3v-9.41h2.15v9.41H310.77
	L310.77,138.3z M313.19,125.94c0,0.36-0.13,0.67-0.41,0.94c-0.27,0.27-0.59,0.4-0.96,0.4s-0.69-0.13-0.96-0.4
	c-0.27-0.27-0.41-0.58-0.41-0.94c0-0.37,0.14-0.69,0.41-0.96c0.27-0.27,0.59-0.4,0.96-0.4s0.69,0.13,0.96,0.4
	C313.06,125.25,313.19,125.57,313.19,125.94L313.19,125.94z M317.53,133.56v4.73h-2.14v-9.41h2.06v1.25
	c0.24-0.43,0.61-0.79,1.09-1.07c0.48-0.28,1-0.41,1.55-0.41c1.1,0,1.99,0.38,2.67,1.14c0.67,0.76,1.01,1.77,1.01,3.04v5.46h-2.14
	v-4.93c0-1-0.16-1.74-0.49-2.22c-0.33-0.48-0.83-0.72-1.51-0.72c-0.35,0-0.69,0.12-1.02,0.35c-0.33,0.23-0.59,0.55-0.77,0.94
	C317.63,132.18,317.53,132.79,317.53,133.56L317.53,133.56z M326.15,138.3v-9.41h2.15v9.41H326.15L326.15,138.3z M328.58,125.94
	c0,0.36-0.14,0.67-0.4,0.94c-0.27,0.27-0.59,0.4-0.96,0.4c-0.37,0-0.69-0.13-0.96-0.4c-0.27-0.27-0.4-0.58-0.4-0.94
	c0-0.37,0.14-0.69,0.4-0.96c0.27-0.27,0.59-0.4,0.96-0.4c0.37,0,0.69,0.13,0.96,0.4C328.44,125.25,328.58,125.57,328.58,125.94
	L328.58,125.94z M329.91,136.55l1.35-1.37c0.37,0.51,0.78,0.91,1.23,1.19c0.44,0.27,0.91,0.41,1.41,0.41c0.49,0,0.89-0.1,1.22-0.3
	c0.33-0.2,0.49-0.46,0.49-0.78c0-0.32-0.16-0.57-0.47-0.76c-0.31-0.19-0.69-0.35-1.14-0.51c-0.51-0.17-1.04-0.35-1.58-0.56
	c-0.72-0.26-1.25-0.59-1.59-1.01c-0.34-0.42-0.51-0.89-0.51-1.41c0-0.77,0.36-1.43,1.09-1.97c0.72-0.54,1.58-0.82,2.57-0.82
	c1.05,0,1.91,0.25,2.58,0.75c0.35,0.26,0.61,0.58,0.81,0.98l-1.31,1.27c-0.18-0.3-0.38-0.54-0.62-0.73
	c-0.42-0.36-0.94-0.54-1.56-0.54c-0.37,0-0.69,0.09-0.96,0.27c-0.27,0.18-0.4,0.4-0.4,0.65c0,0.27,0.15,0.5,0.45,0.68
	c0.3,0.19,0.75,0.37,1.34,0.55c0.22,0.06,0.46,0.14,0.73,0.23c0.91,0.3,1.6,0.68,2.08,1.15c0.47,0.47,0.71,1.04,0.71,1.71
	c0,0.78-0.38,1.46-1.14,2.03c-0.76,0.57-1.71,0.86-2.87,0.86c-0.99,0-1.85-0.23-2.6-0.69C330.72,137.54,330.28,137.11,329.91,136.55
	L329.91,136.55z M342.11,125.85v3.04h2.04v1.71h-2.04v4.79c0,0.46,0.11,0.78,0.33,0.94c0.22,0.17,0.53,0.25,0.92,0.25h0.79v1.71
	h-1.29c-1.01,0-1.75-0.23-2.21-0.68c-0.46-0.46-0.69-1.13-0.69-2.01v-5h-1.62v-1.71h1.62v-3.04H342.11L342.11,125.85z M345.81,138.3
	v-9.41h2.02v1.4c0.31-0.46,0.69-0.82,1.14-1.08c0.54-0.32,1.17-0.48,1.91-0.48h0.15v1.91h-0.23c-0.89,0-1.59,0.27-2.12,0.81
	c-0.49,0.53-0.73,1.35-0.73,2.46v4.39H345.81L345.81,138.3z M356.36,132.22c0.72,0,1.46,0,2.23,0c0-0.6-0.24-1.06-0.72-1.37
	c-0.48-0.31-1.17-0.46-2.07-0.46h-0.06c-0.85,0-1.75,0.2-2.71,0.6l-0.54-1.67c0.99-0.42,2.08-0.64,3.27-0.65h0.04
	c1.58,0,2.79,0.3,3.64,0.91c0.85,0.61,1.27,1.57,1.27,2.9v5.83h-2.04v-1.04c-0.4,0.4-0.89,0.71-1.47,0.93
	c-0.58,0.22-1.18,0.34-1.78,0.34c-1.12,0-2.02-0.3-2.72-0.89c-0.7-0.6-1.05-1.33-1.05-2.2c0-0.96,0.43-1.76,1.31-2.39
	C353.75,132.49,354.88,132.22,356.36,132.22L356.36,132.22z M355.78,136.83c0.55,0,1.1-0.14,1.64-0.41
	c0.54-0.27,0.93-0.58,1.17-0.94v-1.6c-0.7,0-1.34,0-1.9,0c-1.08,0-1.83,0.14-2.25,0.42c-0.42,0.31-0.64,0.68-0.64,1.12
	c0,0.41,0.18,0.75,0.53,1.01C354.68,136.7,355.17,136.83,355.78,136.83L355.78,136.83z M365.79,125.85v3.04h2.04v1.71h-2.04v4.79
	c0,0.46,0.11,0.78,0.33,0.94c0.22,0.17,0.53,0.25,0.92,0.25h0.79v1.71h-1.29c-1.01,0-1.75-0.23-2.21-0.68
	c-0.46-0.46-0.69-1.13-0.69-2.01v-5h-1.62v-1.71h1.62v-3.04H365.79L365.79,125.85z M369.55,138.3v-9.41h2.15v9.41H369.55
	L369.55,138.3z M371.97,125.94c0,0.36-0.14,0.67-0.4,0.94c-0.27,0.27-0.59,0.4-0.96,0.4c-0.37,0-0.69-0.13-0.96-0.4
	c-0.27-0.27-0.4-0.58-0.4-0.94c0-0.37,0.14-0.69,0.4-0.96c0.27-0.27,0.59-0.4,0.96-0.4c0.37,0,0.69,0.13,0.96,0.4
	C371.84,125.25,371.97,125.57,371.97,125.94L371.97,125.94z M378.5,138.53c-1.37,0-2.55-0.47-3.52-1.42s-1.46-2.12-1.46-3.5
	c0-1.4,0.49-2.57,1.46-3.52c0.97-0.95,2.15-1.42,3.52-1.42c1.39,0,2.56,0.47,3.53,1.42c0.97,0.95,1.45,2.12,1.45,3.52
	c0,1.39-0.48,2.55-1.45,3.5C381.06,138.05,379.89,138.53,378.5,138.53L378.5,138.53z M378.5,136.76c0.78,0,1.45-0.3,2-0.89
	c0.55-0.6,0.83-1.35,0.83-2.26c0-0.91-0.28-1.67-0.83-2.27c-0.55-0.6-1.22-0.9-2-0.9c-0.77,0-1.43,0.3-1.99,0.9
	c-0.56,0.6-0.84,1.36-0.84,2.27c0,0.91,0.28,1.66,0.84,2.26C377.07,136.46,377.73,136.76,378.5,136.76L378.5,136.76z M387.32,133.56
	v4.73h-2.14v-9.41h2.06v1.25c0.24-0.43,0.61-0.79,1.09-1.07c0.48-0.28,1-0.41,1.55-0.41c1.1,0,1.99,0.38,2.67,1.14
	c0.67,0.76,1.01,1.77,1.01,3.04v5.46h-2.14v-4.93c0-1-0.16-1.74-0.49-2.22c-0.33-0.48-0.83-0.72-1.51-0.72
	c-0.35,0-0.69,0.12-1.02,0.35c-0.33,0.23-0.59,0.55-0.77,0.94C387.42,132.18,387.32,132.79,387.32,133.56z"/>
</svg>
