<?xml version="1.0" encoding="utf-8"?>
<!-- Generator: Adobe Illustrator 26.3.1, SVG Export Plug-In . SVG Version: 6.00 Build 0)  -->
<svg version="1.1" id="Layer_1" xmlns="http://www.w3.org/2000/svg" xmlns:xlink="http://www.w3.org/1999/xlink" x="0px" y="0px"
	 viewBox="0 0 400 200" style="enable-background:new 0 0 400 200;" xml:space="preserve">
<style type="text/css">
	.st0{fill:none;stroke:#FFF4D7;stroke-width:2;stroke-miterlimit:10;}
	.st1{fill:#FFF4D7;}
</style>
<g>
	<path class="st0" d="M74.82,135.17c0,0-14.8,12.89-16.02,33.67c0,0,14.64-27.23,48.95-26.49
		C95.59,132.51,83.02,130.18,74.82,135.17z"/>
	<g>
		<path class="st1" d="M74.56,96.32H85.9v6.43l2.62-0.86c0.58-0.2,1-0.75,1-1.39v-4.17h9.14v-2.38H73.94L74.56,96.32z M42.51,81.46
			c0-0.4-0.33-0.73-0.73-0.73h-4.32l0.42,1.05h0.68c0.18,0,0.33,0.15,0.33,0.33v19.82l2.62-0.86c0.58-0.2,1-0.75,1-1.39v-9.18h3.31
			v-2.38h-3.31V81.46z M126.19,90.34h-3.58v-8.88c0-0.4-0.33-0.73-0.73-0.73h-4.31l0.43,1.05h0.67c0.18,0,0.33,0.15,0.33,0.33v18.11
			c-0.29,0.1-1.97,0.61-6.12,0.61h-2.45v-4.85c2.78-0.71,4.82-3.05,4.82-6.32c0-2.02-0.77-3.46-2.02-4.39h3.09v-2.34h-5.84v-2.02
			c0-0.4-0.33-0.73-0.73-0.73h-4.32l0.42,1.05h0.68c0.18,0,0.33,0.15,0.33,0.33v1.37h-6.54l0.61,2.34H104
			c-1.25,0.93-2.02,2.38-2.02,4.39c0,3.27,2.04,5.61,4.82,6.32v4.85h-6.92l0.63,2.38h12.48c3.22,0,5.14-0.46,6-0.73v6.48l2.62-0.86
			c0.58-0.2,1-0.75,1-1.4V92.72h3.58V90.34z M105.46,89.65c0-2.53,1.41-4.18,3.15-4.18c1.74,0,3.15,1.66,3.15,4.18
			c0,2.52-1.41,4.18-3.15,4.18C106.87,93.83,105.46,92.17,105.46,89.65z M149.78,80.72h-4.15l0.42,1.05h0.68
			c0.18,0,0.33,0.15,0.33,0.33v8.23h-2.19v-8.52c0-0.4-0.33-0.73-0.73-0.73h-3.98l0.42,1.05h0.68c0.18,0,0.33,0.14,0.33,0.33v26.08
			l2.29-0.75c0.58-0.2,1-0.75,1-1.4V92.72h2.19v16.23l2.45-0.81c0.58-0.2,1-0.75,1-1.39V81.46
			C150.52,81.05,150.19,80.72,149.78,80.72z M29.38,99.35c0-0.41-0.33-0.73-0.73-0.73h-4.32l0.43,1.05h0.68
			c0.18,0,0.33,0.15,0.33,0.33v6.22c0,1.13,0.91,2.04,2.04,2.04h15.24v-2.38H29.38V99.35z M188.86,99.35c0-0.41-0.33-0.73-0.74-0.73
			h-4.31l0.42,1.05h0.68c0.18,0,0.33,0.15,0.33,0.33v6.22c0,1.13,0.91,2.04,2.04,2.04h15.24v-2.38h-13.66V99.35z M180.43,81.83
			l0.42,1.05h0.68c0.19,0,0.33,0.15,0.33,0.33v9.25c0,1.12,0.92,2.04,2.04,2.04h8.47c3.22,0,5.14-0.46,6-0.73v8.16l2.62-0.86
			c0.58-0.2,1-0.75,1-1.39v-9.18h3.31v-2.38h-3.31v-6.65c0-0.4-0.33-0.73-0.73-0.73h-4.31l0.42,1.05h0.68
			c0.18,0,0.33,0.15,0.33,0.33v9.4c-0.29,0.1-1.98,0.61-6.13,0.61h-6.77v-7.9h8.25v-2.38L180.43,81.83z M76.26,81.42l0.42,1.05h0.68
			c0.18,0,0.33,0.15,0.33,0.33v6.35c0,1.13,0.91,2.04,2.04,2.04h15.93V82.4c0-0.55-0.45-0.99-0.99-0.99H76.26z M81.31,83.79h10.73
			v5.02H81.31V83.79z M81.7,99.58c0-0.4-0.33-0.73-0.73-0.73h-4.31l0.42,1.05h0.68c0.18,0,0.33,0.15,0.33,0.33v5.99
			c0,1.13,0.91,2.04,2.04,2.04h16.14v-2.38H81.7V99.58z M34.37,89.47c0-1.92-0.74-3.31-1.95-4.21h3.01v-2.34H29.6v-2.02
			c0-0.4-0.32-0.73-0.73-0.73h-4.32l0.42,1.05h0.68c0.18,0,0.33,0.15,0.33,0.33v1.37h-6.54l0.61,2.34h3.01
			c-1.2,0.9-1.95,2.28-1.95,4.21c0,3.84,2.96,6.37,6.62,6.37C31.41,95.84,34.37,93.31,34.37,89.47z M24.59,89.47
			c0-2.42,1.41-4,3.15-4c1.74,0,3.15,1.58,3.15,4c0,2.41-1.41,4-3.15,4C26.01,93.47,24.59,91.88,24.59,89.47z M68.77,88.26V82.4
			c0-0.55-0.44-0.99-0.99-0.99H49.72l0.62,2.38h14.82v4.95c0,1.34-0.45,2.3-0.6,2.58H46.78l0.62,2.38h9.85v4.78h-8.01l0.62,2.38
			h15.59v8.08l2.62-0.86c0.58-0.2,1-0.75,1-1.4l0-7.22c0-0.55-0.44-0.99-0.99-0.99h-7.21v-4.78h10.63v-2.38h-3.63
			C68.05,91.07,68.77,89.9,68.77,88.26z M134.57,90.96c0.61-1.65,1.12-3.61,1.43-5.7h3.38v-2.34h-12.3l0.61,2.34h4.58
			c-0.16,1.53-1.22,9.22-6.37,14.57l1.78,1.06c0,0,3.23-2.35,5.75-7.31c2.63,3.15,3.71,7.19,3.71,7.19l3.05-2.16
			C138.17,94.55,135.53,91.86,134.57,90.96z M176.48,80.72h-4.15l0.42,1.05h0.68c0.18,0,0.33,0.15,0.33,0.33v8.23h-2.19v-8.52
			c0-0.4-0.33-0.73-0.73-0.73h-3.98l0.42,1.05h0.68c0.18,0,0.33,0.14,0.33,0.33v26.08l2.29-0.75c0.58-0.2,1-0.75,1-1.4V92.72h2.19
			v16.23l2.46-0.81c0.58-0.2,1-0.75,1-1.39V81.46C177.21,81.05,176.88,80.72,176.48,80.72z M161.26,90.96
			c0.61-1.65,1.13-3.61,1.44-5.7h3.38v-2.34h-12.3l0.61,2.34h4.58c-0.16,1.53-1.22,9.22-6.38,14.57l1.79,1.06
			c0,0,3.22-2.35,5.74-7.31c2.64,3.15,3.72,7.19,3.72,7.19l3.04-2.16C164.87,94.55,162.22,91.86,161.26,90.96z"/>
		<path class="st1" d="M308.84,101.06c0,0.81-0.19,1.52-0.57,2.15c-0.4,0.67-0.9,1-1.47,1c-0.57,0-0.91-0.3-1-0.89
			c-0.03-0.22-0.05-0.66-0.05-1.32v-4.2h-1.46v5.34c0,0.66,0.12,1.2,0.37,1.63c0.35,0.6,0.91,0.91,1.7,0.91
			c0.68,0,1.25-0.22,1.73-0.67c0.3-0.29,0.55-0.67,0.75-1.14v1.65h1.46V97.8h-1.46V101.06z M313.75,99.35V97.8h-1.46v7.71h1.46
			v-3.27c0-1.11,0.23-1.92,0.72-2.41c0.37-0.41,0.94-0.62,1.7-0.62v-1.59c-0.67,0-1.24,0.22-1.7,0.65
			C314.15,98.55,313.91,98.91,313.75,99.35z M300.98,95.07l-1.46,0.9v1.82h-1.38v1.13h1.38v4.86c0,0.61,0.16,1.05,0.47,1.35
			c0.38,0.35,0.99,0.53,1.84,0.53c0.22,0,0.42-0.01,0.61-0.03c0.19-0.02,0.37-0.05,0.55-0.08v-1.12c-0.24,0.07-0.5,0.1-0.78,0.1
			c-0.41,0-0.72-0.11-0.92-0.32c-0.21-0.21-0.31-0.6-0.31-1.19v-4.1h2.14V97.8h-2.14V95.07z M295.3,105.51h1.46V94.49h-1.46V105.51z
			 M324.47,105.51h1.46V94.49h-1.46V105.51z M320,97.62c-1,0-1.76,0.23-2.25,0.7c-0.42,0.41-0.63,0.95-0.63,1.62h1.54
			c0-0.32,0.11-0.6,0.32-0.83c0.21-0.23,0.51-0.35,0.92-0.35c0.31,0,0.57,0.08,0.78,0.23c0.21,0.16,0.41,0.47,0.41,0.81v1.29
			c-0.61,0-1.14,0.04-1.6,0.13c-0.46,0.09-0.88,0.21-1.25,0.37c-0.9,0.44-1.36,1.11-1.36,2.02c0,0.62,0.19,1.12,0.57,1.5
			c0.38,0.38,0.92,0.57,1.62,0.57c0.52,0,0.98-0.14,1.38-0.42c0.29-0.21,0.5-0.45,0.65-0.71v0.97h1.46v-5.3
			c0-0.9-0.21-1.55-0.63-1.97C321.47,97.83,320.84,97.62,320,97.62z M321.07,102.5c0,0.48-0.17,0.95-0.52,1.39
			c-0.35,0.44-0.76,0.66-1.23,0.66c-0.23,0-0.44-0.1-0.6-0.3c-0.16-0.2-0.24-0.43-0.24-0.69c0-0.47,0.23-0.84,0.68-1.11
			c0.45-0.26,1-0.4,1.62-0.4h0.29V102.5z M286.36,77.97h-1.91l-3.76,4.91v-4.91h-1.59v11.01h1.59v-5.51l4.07,5.51l1.92,0l-4.35-5.75
			L286.36,77.97z M290.14,81.1c-1.15,0-2.01,0.36-2.57,1.06c-0.57,0.71-0.85,1.7-0.85,2.97c0,1.25,0.29,2.24,0.86,2.95
			c0.58,0.71,1.43,1.07,2.56,1.07c1.13,0,1.98-0.36,2.55-1.07c0.57-0.72,0.85-1.7,0.85-2.95c0-1.25-0.29-2.23-0.87-2.95
			C292.1,81.46,291.25,81.1,290.14,81.1z M291.62,87.03c-0.3,0.66-0.8,0.99-1.47,0.99c-0.29,0-0.54-0.05-0.75-0.16
			c-0.23-0.11-0.41-0.26-0.55-0.44c-0.33-0.47-0.5-1.23-0.5-2.3c0-0.79,0.11-1.43,0.31-1.92c0.29-0.64,0.79-0.97,1.49-0.97
			c0.56,0,0.99,0.19,1.28,0.59c0.33,0.46,0.5,1.23,0.5,2.31C291.92,85.9,291.82,86.53,291.62,87.03z M291.69,101.06
			c0,0.81-0.19,1.52-0.57,2.15c-0.41,0.67-0.9,1-1.47,1c-0.57,0-0.91-0.3-1-0.89c-0.03-0.22-0.05-0.66-0.05-1.32v-4.2h-1.46v5.34
			c0,0.66,0.13,1.2,0.37,1.63c0.35,0.6,0.92,0.91,1.7,0.91c0.68,0,1.26-0.22,1.73-0.67c0.3-0.29,0.55-0.67,0.75-1.14v1.65h1.45V97.8
			h-1.45V101.06z M296.5,82.83v-1.56h-1.45v7.71h1.45v-3.27c0-1.11,0.24-1.92,0.72-2.41c0.38-0.41,0.95-0.62,1.7-0.62V81.1
			c-0.67,0-1.24,0.22-1.7,0.65C296.9,82.03,296.67,82.39,296.5,82.83z M337.1,99.15h-4.32v-4.65h-1.59v11.01h1.59v-5.09h4.32v5.09
			h1.59V94.49h-1.59V99.15z M347.5,115.05c-0.34-0.6-0.91-0.91-1.7-0.91c-0.7,0-1.27,0.23-1.73,0.68c-0.27,0.27-0.52,0.65-0.75,1.15
			v-1.65h-1.46v7.71h1.46v-3.27c0-0.81,0.2-1.54,0.6-2.19c0.4-0.65,0.88-0.97,1.44-0.97c0.49,0,0.79,0.2,0.92,0.58
			c0.09,0.23,0.13,0.78,0.13,1.63v4.21h1.46v-5.35C347.88,116.03,347.75,115.48,347.5,115.05z M282.44,95.61
			c0.68,0,1.16,0.24,1.45,0.72c0.2,0.32,0.29,0.72,0.29,1.2h1.85c0-0.97-0.31-1.74-0.94-2.32c-0.62-0.58-1.49-0.87-2.6-0.87
			c-1.5,0-2.59,0.56-3.28,1.67c-0.59,0.93-0.88,2.22-0.88,3.87c0,2.03,0.43,3.54,1.29,4.52c0.75,0.85,1.79,1.27,3.09,1.27
			c0.3,0,0.58-0.02,0.85-0.06c0.27-0.04,0.57-0.11,0.9-0.19c0.44-0.13,0.81-0.26,1.13-0.39v-1.47c-0.41,0.26-0.71,0.42-0.88,0.49
			c-0.53,0.24-1.09,0.36-1.69,0.36c-1.08,0-1.86-0.45-2.34-1.35c-0.41-0.76-0.61-1.9-0.61-3.42c0-1.05,0.13-1.91,0.4-2.58
			C280.88,96.09,281.53,95.61,282.44,95.61z M309.61,81.1c-1.01,0-1.75,0.23-2.25,0.7c-0.43,0.41-0.64,0.95-0.64,1.62h1.54
			c0-0.33,0.1-0.6,0.32-0.84c0.21-0.23,0.51-0.35,0.92-0.35c0.31,0,0.57,0.08,0.78,0.24c0.21,0.16,0.4,0.47,0.4,0.81v1.29
			c-0.61,0-1.14,0.04-1.6,0.12c-0.46,0.09-0.88,0.21-1.25,0.37c-0.9,0.44-1.36,1.11-1.36,2.02c0,0.62,0.19,1.12,0.57,1.5
			c0.38,0.38,0.92,0.56,1.62,0.56c0.52,0,0.98-0.14,1.38-0.42c0.29-0.22,0.51-0.45,0.65-0.71v0.97h1.46v-5.29
			c0-0.9-0.22-1.55-0.63-1.97C311.09,81.31,310.45,81.1,309.61,81.1z M310.68,85.97c0,0.49-0.17,0.95-0.52,1.39
			c-0.35,0.45-0.76,0.67-1.23,0.67c-0.24,0-0.44-0.1-0.6-0.3c-0.16-0.2-0.24-0.43-0.24-0.69c0-0.48,0.22-0.84,0.68-1.11
			c0.45-0.27,0.99-0.4,1.62-0.4h0.29V85.97z M336.96,114.14c-1.15,0-2,0.35-2.57,1.06c-0.57,0.71-0.85,1.7-0.85,2.97
			c0,1.25,0.29,2.23,0.87,2.95c0.57,0.72,1.43,1.07,2.55,1.07c1.13,0,1.98-0.36,2.55-1.07c0.57-0.72,0.85-1.7,0.85-2.95
			c0-1.25-0.29-2.23-0.87-2.95C338.92,114.5,338.07,114.14,336.96,114.14z M338.43,120.07c-0.3,0.66-0.79,0.99-1.47,0.99
			c-0.28,0-0.53-0.05-0.75-0.16c-0.22-0.11-0.4-0.25-0.54-0.44c-0.34-0.46-0.5-1.23-0.5-2.29c0-0.79,0.1-1.43,0.31-1.92
			c0.29-0.65,0.79-0.97,1.49-0.97c0.56,0,0.99,0.19,1.28,0.58c0.33,0.46,0.5,1.23,0.5,2.31
			C338.74,118.94,338.64,119.58,338.43,120.07z M298.42,117.58c0,0.81-0.19,1.52-0.57,2.15c-0.41,0.67-0.9,1-1.47,1
			c-0.57,0-0.91-0.29-1.01-0.89c-0.03-0.21-0.05-0.66-0.05-1.32v-4.2h-1.45v5.34c0,0.66,0.12,1.2,0.37,1.63
			c0.34,0.61,0.91,0.91,1.7,0.91c0.68,0,1.26-0.23,1.73-0.67c0.3-0.29,0.55-0.67,0.75-1.14v1.65h1.46v-7.71h-1.46V117.58z
			 M320.41,114.14c-1,0-1.75,0.23-2.25,0.69c-0.43,0.41-0.64,0.95-0.64,1.62h1.54c0-0.32,0.11-0.6,0.32-0.83
			c0.21-0.24,0.51-0.35,0.91-0.35c0.32,0,0.57,0.08,0.78,0.23c0.2,0.16,0.41,0.47,0.41,0.8v1.29c-0.61,0-1.14,0.04-1.61,0.13
			c-0.47,0.09-0.88,0.21-1.25,0.37c-0.9,0.44-1.36,1.11-1.36,2.02c0,0.62,0.19,1.12,0.56,1.5c0.38,0.38,0.92,0.56,1.62,0.56
			c0.52,0,0.98-0.14,1.38-0.42c0.29-0.21,0.51-0.45,0.65-0.71v0.97h1.46v-5.3c0-0.9-0.21-1.55-0.63-1.97
			C321.89,114.35,321.25,114.14,320.41,114.14z M321.48,119.02c0,0.48-0.18,0.95-0.52,1.39c-0.34,0.44-0.75,0.67-1.23,0.67
			c-0.24,0-0.44-0.1-0.6-0.3c-0.17-0.2-0.24-0.44-0.24-0.69c0-0.47,0.23-0.85,0.68-1.11c0.45-0.26,0.99-0.4,1.62-0.4h0.3V119.02z
			 M373.36,98.87c-0.14-0.3-0.35-0.56-0.62-0.78c-0.39-0.31-0.86-0.47-1.41-0.47c-0.94,0-1.65,0.4-2.12,1.2
			c-0.42,0.71-0.63,1.66-0.63,2.84c0,1.12,0.19,2.01,0.57,2.67c0.45,0.79,1.15,1.18,2.09,1.18c0.58,0,1.09-0.17,1.52-0.5
			c0.3-0.25,0.51-0.52,0.64-0.81v1.04c0,0.69-0.1,1.21-0.29,1.55c-0.34,0.59-0.99,0.89-1.96,0.89c-0.39,0-0.82-0.08-1.3-0.23
			c-0.26-0.07-0.56-0.21-0.92-0.39v1.47c0.39,0.1,0.73,0.16,1.04,0.2c0.25,0.05,0.62,0.08,1.12,0.08h0.21
			c1.19,0,2.08-0.25,2.67-0.75c0.59-0.5,0.89-1.3,0.89-2.41V97.8h-1.45L373.36,98.87z M372.98,103.39c-0.32,0.66-0.75,0.99-1.3,0.99
			c-0.57,0-0.97-0.33-1.22-1c-0.17-0.46-0.25-1.04-0.25-1.75c0-0.75,0.09-1.38,0.27-1.88c0.26-0.66,0.66-0.98,1.22-0.98
			c0.59,0,1.03,0.31,1.32,0.92c0.23,0.48,0.35,1.07,0.35,1.8C373.37,102.2,373.24,102.83,372.98,103.39z M279.1,122.03h1.59v-5.08
			h4.08v-1.28h-4.08v-3.38h4.3v-1.27h-5.9V122.03z M305.9,114.14c-0.7,0-1.28,0.23-1.74,0.68c-0.27,0.27-0.51,0.65-0.74,1.15v-1.65
			h-1.45v7.71h1.45v-3.27c0-0.81,0.2-1.54,0.6-2.19c0.4-0.65,0.88-0.97,1.44-0.97c0.48,0,0.79,0.2,0.92,0.58
			c0.08,0.23,0.13,0.78,0.13,1.63v4.21h1.46v-5.35c0-0.66-0.12-1.2-0.37-1.63C307.26,114.44,306.69,114.14,305.9,114.14z
			 M327.01,111.59l-1.46,0.91v1.82h-1.38v1.14h1.38v4.86c0,0.6,0.16,1.05,0.47,1.34c0.38,0.35,0.99,0.53,1.84,0.53
			c0.22,0,0.42-0.01,0.61-0.03c0.19-0.02,0.37-0.05,0.54-0.08v-1.12c-0.24,0.07-0.5,0.09-0.78,0.09c-0.41,0-0.72-0.1-0.93-0.31
			c-0.2-0.21-0.31-0.61-0.31-1.19v-4.1h2.14v-1.14h-2.14V111.59z M330.44,112.67h1.67v-1.65h-1.67V112.67z M288.99,114.14
			c-1.15,0-2,0.35-2.57,1.06c-0.57,0.71-0.85,1.7-0.85,2.97c0,1.25,0.29,2.23,0.87,2.95c0.57,0.72,1.43,1.07,2.55,1.07
			c1.13,0,1.98-0.36,2.55-1.07c0.57-0.72,0.85-1.7,0.85-2.95c0-1.25-0.29-2.23-0.86-2.95C290.95,114.5,290.1,114.14,288.99,114.14z
			 M290.46,120.07c-0.3,0.66-0.79,0.99-1.47,0.99c-0.28,0-0.53-0.05-0.75-0.16c-0.23-0.11-0.4-0.25-0.55-0.44
			c-0.34-0.46-0.5-1.23-0.5-2.29c0-0.79,0.1-1.43,0.31-1.92c0.29-0.65,0.79-0.97,1.49-0.97c0.55,0,0.99,0.19,1.28,0.58
			c0.34,0.46,0.5,1.23,0.5,2.31C290.77,118.94,290.67,119.58,290.46,120.07z M314.17,115.39c-0.13-0.32-0.34-0.59-0.61-0.79
			c-0.42-0.3-0.9-0.45-1.45-0.45c-0.87,0-1.54,0.36-2.01,1.1c-0.47,0.73-0.71,1.75-0.71,3.06c0,1.19,0.21,2.11,0.62,2.78
			c0.48,0.74,1.15,1.11,2.03,1.11c0.46,0,0.89-0.11,1.28-0.33c0.39-0.23,0.69-0.56,0.89-1.01v1.18h1.46v-11.02h-1.46L314.17,115.39z
			 M313.81,120.09c-0.31,0.65-0.74,0.97-1.28,0.97c-0.6,0-1.03-0.34-1.28-1.02c-0.16-0.45-0.24-1.08-0.24-1.87
			c0-0.89,0.12-1.6,0.36-2.11c0.24-0.52,0.62-0.78,1.15-0.78c0.59,0,1.04,0.31,1.33,0.94c0.24,0.51,0.36,1.15,0.36,1.94
			C314.21,118.89,314.07,119.54,313.81,120.09z M364.6,97.62c-1,0-1.75,0.23-2.25,0.7c-0.42,0.41-0.63,0.95-0.63,1.62h1.54
			c0-0.32,0.11-0.6,0.32-0.83c0.21-0.23,0.51-0.35,0.91-0.35c0.32,0,0.57,0.08,0.78,0.23c0.2,0.16,0.4,0.47,0.4,0.81v1.29
			c-0.61,0-1.14,0.04-1.6,0.13c-0.47,0.09-0.88,0.21-1.25,0.37c-0.9,0.44-1.36,1.11-1.36,2.02c0,0.62,0.19,1.12,0.57,1.5
			c0.38,0.38,0.92,0.57,1.62,0.57c0.52,0,0.98-0.14,1.37-0.42c0.29-0.21,0.51-0.45,0.65-0.71v0.97h1.46v-5.3
			c0-0.9-0.21-1.55-0.63-1.97C366.07,97.83,365.44,97.62,364.6,97.62z M365.67,102.5c0,0.48-0.18,0.95-0.52,1.39
			c-0.35,0.44-0.75,0.66-1.23,0.66c-0.24,0-0.44-0.1-0.6-0.3c-0.16-0.2-0.24-0.43-0.24-0.69c0-0.47,0.22-0.84,0.68-1.11
			c0.45-0.26,0.99-0.4,1.62-0.4h0.29V102.5z M352.83,96.15h1.67v-1.65h-1.67V96.15z M352.93,105.51h1.46V97.8h-1.46V105.51z
			 M330.53,122.03H332v-7.71h-1.46V122.03z M358.62,95.07l-1.46,0.9v1.82h-1.37v1.13h1.37v4.86c0,0.61,0.16,1.05,0.47,1.35
			c0.38,0.35,0.99,0.53,1.85,0.53c0.21,0,0.42-0.01,0.61-0.03c0.19-0.02,0.37-0.05,0.54-0.08v-1.12c-0.24,0.07-0.5,0.1-0.77,0.1
			c-0.42,0-0.72-0.11-0.92-0.32c-0.21-0.21-0.31-0.6-0.31-1.19v-4.1h2.14V97.8h-2.14V95.07z M349.16,99.35V97.8h-1.45v7.71h1.45
			v-3.27c0-1.11,0.24-1.92,0.71-2.41c0.38-0.41,0.95-0.62,1.71-0.62v-1.59c-0.67,0-1.24,0.22-1.71,0.65
			C349.56,98.55,349.32,98.91,349.16,99.35z M302.69,81.1c-0.77,0-1.41,0.2-1.94,0.6c-0.8,0.6-1.2,1.62-1.2,3.05
			c0,1.48,0.35,2.59,1.04,3.35c0.66,0.7,1.59,1.05,2.79,1.05c0.51,0,1.21-0.07,1.93-0.25v-1.14c0,0-0.75,0.26-1.46,0.26
			c-0.96,0-1.82-0.41-2.34-1.2c-0.41-0.63-0.49-1.35-0.49-2.23h4.47v-0.39c0-0.94-0.24-1.69-0.72-2.25
			C304.28,81.38,303.59,81.1,302.69,81.1z M301.07,83.61c0-0.27,0.11-0.56,0.33-0.83c0.29-0.37,0.7-0.55,1.22-0.55
			c0.51,0,0.89,0.17,1.13,0.51c0.19,0.25,0.28,0.55,0.28,0.88H301.07z M343.43,97.62c-0.77,0-1.42,0.2-1.94,0.6
			c-0.8,0.61-1.2,1.62-1.2,3.06c0,1.47,0.34,2.59,1.03,3.35c0.66,0.7,1.59,1.05,2.79,1.05c0.5,0,1.21-0.08,1.93-0.26v-1.14
			c0,0-0.75,0.26-1.46,0.26c-0.96,0-1.83-0.41-2.35-1.2c-0.41-0.63-0.48-1.35-0.48-2.23h4.47v-0.39c0-0.94-0.24-1.69-0.72-2.25
			C345.01,97.9,344.32,97.62,343.43,97.62z M341.8,100.13c0-0.27,0.11-0.56,0.32-0.83c0.29-0.37,0.7-0.55,1.22-0.55
			c0.51,0,0.88,0.16,1.13,0.5c0.18,0.25,0.28,0.55,0.28,0.88H341.8z M379.45,97.62c-0.77,0-1.42,0.2-1.95,0.6
			c-0.8,0.61-1.2,1.62-1.2,3.06c0,1.47,0.35,2.59,1.03,3.35c0.66,0.7,1.59,1.05,2.79,1.05c0.5,0,1.2-0.08,1.92-0.26v-1.14
			c0,0-0.75,0.26-1.46,0.26c-0.96,0-1.83-0.41-2.35-1.2c-0.41-0.63-0.49-1.35-0.49-2.23h4.47v-0.39c0-0.94-0.24-1.69-0.72-2.25
			C381.03,97.9,380.35,97.62,379.45,97.62z M377.83,100.13c0-0.27,0.11-0.56,0.32-0.83c0.29-0.37,0.7-0.55,1.22-0.55
			c0.5,0,0.88,0.16,1.13,0.5c0.18,0.25,0.28,0.55,0.28,0.88H377.83z"/>
		<g>
			<defs>
				<path id="SVGID_1_" d="M147.31,156.69c0,0-23.45,0-37.11-12.26c-0.81-0.73-1.63-1.42-2.44-2.08
					c-12.16-9.84-24.73-12.17-32.93-7.18c12.88-12.05,29.11-16.44,44.88-16.44c21.71,0,38.82,8.47,46.16,12.12
					c16.69,8.32,22.27,8.3,22.27,8.3C176.63,148.38,163.12,155.63,147.31,156.69z"/>
			</defs>
			<clipPath id="SVGID_00000034800849786554567190000007357483270653457575_">
				<use xlink:href="#SVGID_1_"  style="overflow:visible;"/>
			</clipPath>
			<use xlink:href="#SVGID_1_"  style="overflow:visible;fill:none;stroke:#FFF4D7;stroke-width:2;stroke-miterlimit:10;"/>
		</g>
		<path class="st0" d="M222,103.83c-8.58,9.55-19.69,23.94-33.87,35.32c-11.5,9.23-25.01,16.48-40.82,17.54
			c25.03,0,41.79-4.09,47.51-5.61c35.06-9.34,57.96-32.77,57.96-32.77c1.38-18.75,4.67-32.16,10.08-44.16c0,0,0,0,0,0
			C249.22,80.37,234.66,89.74,222,103.83z"/>
		<path class="st0" d="M262.85,74.15c26.08-11.91,48.8-12.31,48.52-12.31c6.92-20.33,22.79-30.68,22.79-30.68
			S281.35,33.11,262.85,74.15z"/>
	</g>
</g>
</svg>
