<?xml version="1.0" encoding="utf-8"?>
<!-- Generator: Adobe Illustrator 26.3.1, SVG Export Plug-In . SVG Version: 6.00 Build 0)  -->
<svg version="1.1" id="Layer_1" xmlns="http://www.w3.org/2000/svg" xmlns:xlink="http://www.w3.org/1999/xlink" x="0px" y="0px"
	 viewBox="0 0 400 200" style="enable-background:new 0 0 400 200;" xml:space="preserve">
<style type="text/css">
	.st0{fill:#40305F;}
</style>
<path class="st0" d="M76.3,103.4c-7.3-4.9-16.6-2.9-21.5,4.5c-4.1,6.2-10.2,7-12.6,7c-7.8,0-13.1-5.5-14.7-11.1l0,0
	c0-0.1,0-0.1,0-0.2c0-0.1,0-0.1,0-0.2c-0.6-2.4-0.8-3.5-0.8-6c0-13.5,13.9-28.6,33.9-28.6c20.5,0,32.2,15.6,35.2,24.2
	c-0.1-0.2-0.1-0.3-0.2-0.5c-5.8-16.9-21.9-29.1-40.8-29.1c-23.8,0-43.1,19.3-43.1,43.1c0,21.3,15.4,39.5,36.6,39.5
	c17,0,28.4-9.5,33.6-22.6C84.8,116.3,82.8,107.8,76.3,103.4z"/>
<path class="st0" d="M96,93.9c-2.5-8.4-14.3-25.1-35.5-25.1c-20,0-33.9,15.1-33.9,28.6c0,2.5,0.1,3.6,0.8,6c-0.3-1-0.4-2.1-0.4-3.1
	c0-14.1,14.1-23.8,28.6-23.8c19.6,0,35.5,15.9,35.5,35.5c0,15.4-8.8,28.7-21.7,35.1v0c16.6-6,28.4-21.9,28.4-40.5
	C97.9,102.2,97.3,98.3,96,93.9z"/>
<path class="st0" d="M146,79.8h-19.5v6.3H146V79.8L146,79.8z M121.9,90.1V75.8h28.6v14.3L121.9,90.1L121.9,90.1z M153.3,93.9v4
	h-14.6v5.7h-4.6v-5.7h-14.8v-4H153.3L153.3,93.9z M126.6,100.9h-4.6v10.9H151v-4h-24.4V100.9L126.6,100.9z M168.7,79.1v-4h5v4h8.7v4
	H160v-4H168.7L168.7,79.1z M175.9,92c0-1.2-0.4-2.3-1.3-3.2c-0.9-0.9-2-1.3-3.3-1.3c-1.3,0-2.4,0.4-3.2,1.3
	c-0.9,0.9-1.3,1.9-1.3,3.2s0.4,2.3,1.3,3.2c0.9,0.9,2,1.3,3.2,1.3c1.3,0,2.4-0.4,3.3-1.3C175.4,94.3,175.9,93.2,175.9,92L175.9,92z
	 M180.3,92c0,1.1-0.2,2.2-0.7,3.2c-0.5,1-1.1,1.9-1.9,2.7c-1.1,1.1-2.5,1.8-4.1,2.2v4.7h9.7v4h-24v-4h9.7v-4.7
	c-1.7-0.4-3.1-1.2-4.1-2.2c-0.8-0.8-1.5-1.7-1.9-2.7s-0.7-2.1-0.7-3.2c0-1.1,0.2-2.2,0.7-3.2c0.5-1,1.1-1.9,1.9-2.7s1.8-1.4,2.9-1.8
	c1.1-0.4,2.3-0.6,3.5-0.6s2.4,0.2,3.5,0.6s2.1,1,2.9,1.8c0.8,0.8,1.5,1.7,1.9,2.7C180.1,89.8,180.3,90.9,180.3,92L180.3,92z
	 M190.7,112.4h-4.6v-37h4.6v15.6h4.8v4.3h-4.8V112.4L190.7,112.4z M200,81.7v-4h18.1v4h-7.5l8.3,24.8l-3.9,1.2l-5.8-17.8l-5.8,18.1
	l-4.1-1.2l8.4-25.1L200,81.7L200,81.7z M229.2,75.4h4.4v37.1h-4.4V95h-4.3v17.2h-4.3V75.4h4.3v15.4h4.3V75.4L229.2,75.4z
	 M240.7,82.4v-3.9h8.7v-3.6h4.9v3.6h8.3v3.9h-8.9l9.3,9.4l-3.1,2.8l-8-8.3l-7.9,9l-3.1-2.9l9.3-10L240.7,82.4L240.7,82.4z
	 M268.8,96.1h4.6V75.4h-4.6v8.3h-6.5v4h6.5V96.1L268.8,96.1z M270.3,104.6c0,1.3-0.3,2.4-0.8,3.5c-0.5,1.1-1.2,2.1-2,2.9
	c-0.9,0.8-1.9,1.5-3.1,2c-1.2,0.5-2.4,0.7-3.7,0.7c-1.3,0-2.5-0.2-3.8-0.7c-1.2-0.5-2.2-1.1-3.1-2c-0.9-0.8-1.5-1.8-2-2.9
	c-0.5-1.1-0.8-2.3-0.8-3.5s0.3-2.4,0.8-3.5c0.5-1.1,1.2-2.1,2-2.9c0.9-0.8,1.9-1.5,3.1-2c1.2-0.5,2.4-0.7,3.8-0.7
	c1.3,0,2.5,0.2,3.7,0.7s2.2,1.1,3.1,2c0.9,0.8,1.5,1.8,2,2.9C270,102.1,270.3,103.3,270.3,104.6L270.3,104.6z M265.8,104.5
	c0-1.4-0.5-2.6-1.5-3.6s-2.2-1.5-3.6-1.5c-1.4,0-2.6,0.5-3.6,1.5s-1.5,2.2-1.5,3.6s0.5,2.6,1.5,3.6c1,1,2.2,1.5,3.6,1.5
	s2.6-0.5,3.6-1.5C265.3,107.1,265.8,105.9,265.8,104.5z"/>
<path class="st0" d="M126.9,136.7c1.4,0,2.6-0.4,3.8-1.3l0.9,1.6c-1.2,1.1-2.7,1.6-4.7,1.6c-1.9,0-3.5-0.6-4.8-1.9s-2-2.9-2-4.8
	c0-1.9,0.7-3.5,2-4.8s2.9-1.9,4.8-1.9c1.9,0,3.4,0.5,4.6,1.6l-0.9,1.6c-1.1-0.9-2.4-1.3-3.7-1.3c-1.2,0-2.3,0.5-3.2,1.4
	c-0.9,1-1.3,2.2-1.3,3.6s0.4,2.6,1.3,3.5C124.6,136.2,125.7,136.7,126.9,136.7L126.9,136.7z M139.4,133.6v-4.7h2.1v9.4h-2.1v-1.3
	c-0.3,0.5-0.6,0.8-1,1.1c-0.5,0.3-1,0.4-1.6,0.4c-1.1,0-2-0.4-2.7-1.1c-0.7-0.8-1-1.8-1-3v-5.5h2.1v4.9c0,1,0.2,1.7,0.5,2.2
	s0.8,0.7,1.5,0.7c0.4,0,0.7-0.1,1-0.4c0.3-0.2,0.6-0.5,0.8-0.9C139.3,135,139.4,134.4,139.4,133.6L139.4,133.6z M143.9,138.3v-14
	h2.1v14H143.9L143.9,138.3z M151.2,125.8v3h2v1.7h-2v4.8c0,0.5,0.1,0.8,0.3,0.9c0.2,0.2,0.5,0.3,0.9,0.3h0.8v1.7h-1.3
	c-1,0-1.8-0.2-2.2-0.7c-0.5-0.5-0.7-1.1-0.7-2v-5h-1.6v-1.7h1.6v-3L151.2,125.8L151.2,125.8z M161.1,133.6v-4.7h2.1v9.4h-2.1v-1.3
	c-0.3,0.5-0.6,0.8-1,1.1c-0.5,0.3-1.1,0.4-1.6,0.4c-1.1,0-2-0.4-2.7-1.1c-0.7-0.8-1-1.8-1-3v-5.5h2.1v4.9c0,1,0.2,1.7,0.5,2.2
	s0.8,0.7,1.5,0.7c0.4,0,0.7-0.1,1-0.4c0.3-0.2,0.6-0.5,0.8-0.9C161,135,161.1,134.4,161.1,133.6L161.1,133.6z M165.6,138.3v-9.4h2
	v1.4c0.3-0.5,0.7-0.8,1.1-1.1c0.5-0.3,1.2-0.5,1.9-0.5h0.1v1.9h-0.2c-0.9,0-1.6,0.3-2.1,0.8c-0.5,0.5-0.7,1.4-0.7,2.5v4.4H165.6
	L165.6,138.3z M176.1,132.2c0.7,0,1.5,0,2.2,0c0-0.6-0.2-1.1-0.7-1.4s-1.2-0.5-2.1-0.5h-0.1c-0.9,0-1.8,0.2-2.7,0.6l-0.5-1.7
	c1-0.4,2.1-0.6,3.3-0.6h0c1.6,0,2.8,0.3,3.6,0.9s1.3,1.6,1.3,2.9v5.8h-2v-1c-0.4,0.4-0.9,0.7-1.5,0.9c-0.6,0.2-1.2,0.3-1.8,0.3
	c-1.1,0-2-0.3-2.7-0.9c-0.7-0.6-1.1-1.3-1.1-2.2c0-1,0.4-1.8,1.3-2.4C173.5,132.5,174.6,132.2,176.1,132.2L176.1,132.2z
	 M175.5,136.8c0.6,0,1.1-0.1,1.6-0.4s0.9-0.6,1.2-0.9v-1.6c-0.7,0-1.3,0-1.9,0c-1.1,0-1.8,0.1-2.3,0.4c-0.4,0.3-0.6,0.7-0.6,1.1
	c0,0.4,0.2,0.8,0.5,1C174.4,136.7,174.9,136.8,175.5,136.8L175.5,136.8z M182.8,138.3v-14h2.1v14H182.8L182.8,138.3z M195.1,138.3
	h-2.2v-13.1h2.2v5.6h6v-5.6h2.2v13.1h-2.2v-5.6h-6V138.3L195.1,138.3z M207.2,132.9h5.2c0-0.6-0.3-1.2-0.8-1.7
	c-0.5-0.5-1.1-0.8-1.9-0.8c-0.8,0-1.4,0.3-1.9,0.8C207.5,131.6,207.3,132.2,207.2,132.9L207.2,132.9z M207.2,134.5
	c0.1,0.6,0.4,1.1,0.8,1.4c0.6,0.6,1.4,0.8,2.4,0.8c1,0,2-0.4,2.9-1.1l0.6,1.6c-1,0.9-2.2,1.3-3.6,1.3c-1.6,0-2.9-0.4-3.9-1.4
	c-1-0.9-1.5-2.1-1.5-3.6c0-1.4,0.4-2.6,1.3-3.6c0.9-0.9,2-1.4,3.5-1.4c1.4,0,2.6,0.5,3.4,1.4c0.9,0.9,1.3,2.1,1.3,3.4
	c0,0.4,0,0.7-0.1,1L207.2,134.5L207.2,134.5z M216.3,138.3v-9.4h2v1.4c0.3-0.5,0.7-0.8,1.1-1.1c0.5-0.3,1.2-0.5,1.9-0.5h0.1v1.9
	h-0.2c-0.9,0-1.6,0.3-2.1,0.8c-0.5,0.5-0.7,1.4-0.7,2.5v4.4H216.3L216.3,138.3z M222.9,138.3v-9.4h2.2v9.4H222.9L222.9,138.3z
	 M225.3,125.9c0,0.4-0.1,0.7-0.4,0.9c-0.3,0.3-0.6,0.4-1,0.4c-0.4,0-0.7-0.1-1-0.4c-0.3-0.3-0.4-0.6-0.4-0.9c0-0.4,0.1-0.7,0.4-1
	c0.3-0.3,0.6-0.4,1-0.4c0.4,0,0.7,0.1,1,0.4C225.2,125.3,225.3,125.6,225.3,125.9L225.3,125.9z M230.3,125.8v3h2v1.7h-2v4.8
	c0,0.5,0.1,0.8,0.3,0.9c0.2,0.2,0.5,0.3,0.9,0.3h0.8v1.7H231c-1,0-1.8-0.2-2.2-0.7c-0.5-0.5-0.7-1.1-0.7-2v-5h-1.6v-1.7h1.6v-3
	L230.3,125.8L230.3,125.8z M238,132.2c0.7,0,1.5,0,2.2,0c0-0.6-0.2-1.1-0.7-1.4s-1.2-0.5-2.1-0.5h-0.1c-0.9,0-1.8,0.2-2.7,0.6
	l-0.5-1.7c1-0.4,2.1-0.6,3.3-0.6h0c1.6,0,2.8,0.3,3.6,0.9s1.3,1.6,1.3,2.9v5.8h-2v-1c-0.4,0.4-0.9,0.7-1.5,0.9
	c-0.6,0.2-1.2,0.3-1.8,0.3c-1.1,0-2-0.3-2.7-0.9c-0.7-0.6-1.1-1.3-1.1-2.2c0-1,0.4-1.8,1.3-2.4C235.4,132.5,236.5,132.2,238,132.2
	L238,132.2z M237.4,136.8c0.6,0,1.1-0.1,1.6-0.4s0.9-0.6,1.2-0.9v-1.6c-0.7,0-1.3,0-1.9,0c-1.1,0-1.8,0.1-2.3,0.4
	c-0.4,0.3-0.6,0.7-0.6,1.1c0,0.4,0.2,0.8,0.5,1C236.3,136.7,236.8,136.8,237.4,136.8L237.4,136.8z M251.5,134.2c0-0.4,0-0.8,0-1.3
	c-0.1-0.7-0.3-1.3-0.8-1.8c-0.5-0.5-1.1-0.8-1.9-0.8c-0.8,0-1.5,0.3-1.9,0.9s-0.7,1.4-0.7,2.3s0.2,1.7,0.7,2.3s1.1,0.9,1.9,0.9
	c0.8,0,1.4-0.3,1.9-0.8C251.2,135.5,251.4,134.9,251.5,134.2L251.5,134.2z M248.6,142.1c-1.4,0-2.7-0.4-3.7-1.1l0.6-1.7
	c1,0.7,2,1,3.1,1c0.9,0,1.7-0.3,2.2-0.8c0.6-0.5,0.8-1.1,0.8-1.8v-0.6c-0.8,0.9-1.8,1.4-3,1.4c-1.4,0-2.5-0.5-3.3-1.5
	c-0.9-1-1.3-2.1-1.3-3.4c0-1.3,0.4-2.5,1.3-3.5s2-1.5,3.3-1.5c1.1,0,2.1,0.4,2.9,1.4v-1.1h2.1v7.8c0,1.8-0.4,3.1-1.3,4
	C251.4,141.6,250.2,142.1,248.6,142.1L248.6,142.1z M257.5,132.9h5.2c0-0.6-0.3-1.2-0.8-1.7c-0.5-0.5-1.1-0.8-1.9-0.8
	c-0.8,0-1.4,0.3-1.9,0.8C257.9,131.6,257.6,132.2,257.5,132.9L257.5,132.9z M257.6,134.5c0.1,0.6,0.4,1.1,0.8,1.4
	c0.6,0.6,1.4,0.8,2.4,0.8c1,0,2-0.4,2.9-1.1l0.6,1.6c-1,0.9-2.2,1.3-3.6,1.3c-1.6,0-2.9-0.4-3.9-1.4c-1-0.9-1.5-2.1-1.5-3.6
	c0-1.4,0.4-2.6,1.3-3.6c0.9-0.9,2-1.4,3.5-1.4c1.4,0,2.6,0.5,3.5,1.4c0.9,0.9,1.3,2.1,1.3,3.4c0,0.4,0,0.7-0.1,1L257.6,134.5
	L257.6,134.5z M274.6,132.6h3.8l-1.9-5.5L274.6,132.6L274.6,132.6z M278,125.2l4.6,13.1h-2.2l-1.3-3.9h-5l-1.3,3.9h-2.3l4.6-13.1
	L278,125.2L278,125.2z M287.5,128.7c1.1,0,2.1,0.4,2.9,1.4v-5.7h2.1v14h-2.1v-1.2c-0.8,0.9-1.8,1.4-3,1.4c-1.4,0-2.5-0.5-3.3-1.5
	s-1.3-2.1-1.3-3.4c0-1.3,0.4-2.5,1.3-3.5C285.1,129.1,286.2,128.7,287.5,128.7L287.5,128.7z M290.4,134.2c0-0.4,0-0.8,0-1.2
	c-0.1-0.7-0.3-1.3-0.8-1.8c-0.5-0.5-1.1-0.8-1.9-0.8c-0.8,0-1.5,0.3-2,0.9c-0.5,0.6-0.7,1.4-0.7,2.3s0.2,1.7,0.7,2.3
	c0.5,0.6,1.1,0.9,2,0.9c0.7,0,1.4-0.3,1.9-0.8C290.1,135.5,290.3,134.9,290.4,134.2L290.4,134.2z M304.9,128.7c1.1,0,2,0.4,2.6,1.1
	s0.9,1.8,0.9,3v5.5h-2.1v-4.9c0-1-0.1-1.7-0.4-2.2s-0.7-0.7-1.3-0.7c-0.4,0-0.7,0.1-0.9,0.3c-0.3,0.2-0.5,0.5-0.6,0.9
	c-0.2,0.4-0.3,1-0.3,1.7v4.9h-2.1v-4.9c0-1-0.1-1.7-0.4-2.2s-0.7-0.7-1.3-0.7c-0.4,0-0.7,0.1-0.9,0.3c-0.3,0.2-0.5,0.5-0.6,0.9
	c-0.2,0.5-0.3,1.1-0.3,1.9v0v4.8h-2.1v-9.4h2v1.3c0.5-1,1.3-1.5,2.4-1.5c1.2,0,2,0.6,2.6,1.7c0.3-0.6,0.7-1,1.2-1.3
	C303.6,128.8,304.2,128.7,304.9,128.7L304.9,128.7z M310.8,138.3v-9.4h2.1v9.4H310.8L310.8,138.3z M313.2,125.9
	c0,0.4-0.1,0.7-0.4,0.9c-0.3,0.3-0.6,0.4-1,0.4s-0.7-0.1-1-0.4c-0.3-0.3-0.4-0.6-0.4-0.9c0-0.4,0.1-0.7,0.4-1s0.6-0.4,1-0.4
	s0.7,0.1,1,0.4C313.1,125.3,313.2,125.6,313.2,125.9L313.2,125.9z M317.5,133.6v4.7h-2.1v-9.4h2.1v1.3c0.2-0.4,0.6-0.8,1.1-1.1
	c0.5-0.3,1-0.4,1.5-0.4c1.1,0,2,0.4,2.7,1.1c0.7,0.8,1,1.8,1,3v5.5h-2.1v-4.9c0-1-0.2-1.7-0.5-2.2s-0.8-0.7-1.5-0.7
	c-0.4,0-0.7,0.1-1,0.4c-0.3,0.2-0.6,0.6-0.8,0.9C317.6,132.2,317.5,132.8,317.5,133.6L317.5,133.6z M326.1,138.3v-9.4h2.1v9.4H326.1
	L326.1,138.3z M328.6,125.9c0,0.4-0.1,0.7-0.4,0.9c-0.3,0.3-0.6,0.4-1,0.4s-0.7-0.1-1-0.4c-0.3-0.3-0.4-0.6-0.4-0.9
	c0-0.4,0.1-0.7,0.4-1c0.3-0.3,0.6-0.4,1-0.4s0.7,0.1,1,0.4C328.4,125.3,328.6,125.6,328.6,125.9L328.6,125.9z M329.9,136.6l1.4-1.4
	c0.4,0.5,0.8,0.9,1.2,1.2c0.4,0.3,0.9,0.4,1.4,0.4c0.5,0,0.9-0.1,1.2-0.3s0.5-0.5,0.5-0.8c0-0.3-0.2-0.6-0.5-0.8
	c-0.3-0.2-0.7-0.4-1.1-0.5c-0.5-0.2-1-0.4-1.6-0.6c-0.7-0.3-1.3-0.6-1.6-1s-0.5-0.9-0.5-1.4c0-0.8,0.4-1.4,1.1-2
	c0.7-0.5,1.6-0.8,2.6-0.8c1,0,1.9,0.3,2.6,0.8c0.4,0.3,0.6,0.6,0.8,1l-1.3,1.3c-0.2-0.3-0.4-0.5-0.6-0.7c-0.4-0.4-0.9-0.5-1.6-0.5
	c-0.4,0-0.7,0.1-1,0.3c-0.3,0.2-0.4,0.4-0.4,0.6c0,0.3,0.1,0.5,0.5,0.7c0.3,0.2,0.8,0.4,1.3,0.6c0.2,0.1,0.5,0.1,0.7,0.2
	c0.9,0.3,1.6,0.7,2.1,1.1c0.5,0.5,0.7,1,0.7,1.7c0,0.8-0.4,1.5-1.1,2c-0.8,0.6-1.7,0.9-2.9,0.9c-1,0-1.9-0.2-2.6-0.7
	C330.7,137.5,330.3,137.1,329.9,136.6L329.9,136.6z M342.1,125.8v3h2v1.7h-2v4.8c0,0.5,0.1,0.8,0.3,0.9c0.2,0.2,0.5,0.3,0.9,0.3h0.8
	v1.7h-1.3c-1,0-1.8-0.2-2.2-0.7c-0.5-0.5-0.7-1.1-0.7-2v-5h-1.6v-1.7h1.6v-3L342.1,125.8L342.1,125.8z M345.8,138.3v-9.4h2v1.4
	c0.3-0.5,0.7-0.8,1.1-1.1c0.5-0.3,1.2-0.5,1.9-0.5h0.1v1.9h-0.2c-0.9,0-1.6,0.3-2.1,0.8c-0.5,0.5-0.7,1.4-0.7,2.5v4.4H345.8
	L345.8,138.3z M356.4,132.2c0.7,0,1.5,0,2.2,0c0-0.6-0.2-1.1-0.7-1.4s-1.2-0.5-2.1-0.5h-0.1c-0.9,0-1.8,0.2-2.7,0.6l-0.5-1.7
	c1-0.4,2.1-0.6,3.3-0.6h0c1.6,0,2.8,0.3,3.6,0.9s1.3,1.6,1.3,2.9v5.8h-2v-1c-0.4,0.4-0.9,0.7-1.5,0.9c-0.6,0.2-1.2,0.3-1.8,0.3
	c-1.1,0-2-0.3-2.7-0.9c-0.7-0.6-1-1.3-1-2.2c0-1,0.4-1.8,1.3-2.4C353.8,132.5,354.9,132.2,356.4,132.2L356.4,132.2z M355.8,136.8
	c0.5,0,1.1-0.1,1.6-0.4s0.9-0.6,1.2-0.9v-1.6c-0.7,0-1.3,0-1.9,0c-1.1,0-1.8,0.1-2.3,0.4c-0.4,0.3-0.6,0.7-0.6,1.1
	c0,0.4,0.2,0.8,0.5,1C354.7,136.7,355.2,136.8,355.8,136.8L355.8,136.8z M365.8,125.8v3h2v1.7h-2v4.8c0,0.5,0.1,0.8,0.3,0.9
	c0.2,0.2,0.5,0.3,0.9,0.3h0.8v1.7h-1.3c-1,0-1.8-0.2-2.2-0.7c-0.5-0.5-0.7-1.1-0.7-2v-5H362v-1.7h1.6v-3L365.8,125.8L365.8,125.8z
	 M369.5,138.3v-9.4h2.1v9.4H369.5L369.5,138.3z M372,125.9c0,0.4-0.1,0.7-0.4,0.9c-0.3,0.3-0.6,0.4-1,0.4s-0.7-0.1-1-0.4
	c-0.3-0.3-0.4-0.6-0.4-0.9c0-0.4,0.1-0.7,0.4-1c0.3-0.3,0.6-0.4,1-0.4s0.7,0.1,1,0.4C371.8,125.3,372,125.6,372,125.9L372,125.9z
	 M378.5,138.5c-1.4,0-2.5-0.5-3.5-1.4s-1.5-2.1-1.5-3.5c0-1.4,0.5-2.6,1.5-3.5s2.1-1.4,3.5-1.4c1.4,0,2.6,0.5,3.5,1.4
	s1.5,2.1,1.5,3.5c0,1.4-0.5,2.6-1.5,3.5C381.1,138.1,379.9,138.5,378.5,138.5L378.5,138.5z M378.5,136.8c0.8,0,1.5-0.3,2-0.9
	c0.5-0.6,0.8-1.4,0.8-2.3c0-0.9-0.3-1.7-0.8-2.3s-1.2-0.9-2-0.9c-0.8,0-1.4,0.3-2,0.9c-0.6,0.6-0.8,1.4-0.8,2.3s0.3,1.7,0.8,2.3
	C377.1,136.5,377.7,136.8,378.5,136.8L378.5,136.8z M387.3,133.6v4.7h-2.1v-9.4h2.1v1.3c0.2-0.4,0.6-0.8,1.1-1.1
	c0.5-0.3,1-0.4,1.5-0.4c1.1,0,2,0.4,2.7,1.1c0.7,0.8,1,1.8,1,3v5.5h-2.1v-4.9c0-1-0.2-1.7-0.5-2.2s-0.8-0.7-1.5-0.7
	c-0.4,0-0.7,0.1-1,0.4c-0.3,0.2-0.6,0.6-0.8,0.9C387.4,132.2,387.3,132.8,387.3,133.6z"/>
</svg>
