<?xml version="1.0" encoding="utf-8"?>
<!-- Generator: Adobe Illustrator 26.3.1, SVG Export Plug-In . SVG Version: 6.00 Build 0)  -->
<svg version="1.1" id="Layer_1" xmlns="http://www.w3.org/2000/svg" xmlns:xlink="http://www.w3.org/1999/xlink" x="0px" y="0px"
	 viewBox="0 0 400 200" style="enable-background:new 0 0 400 200;" xml:space="preserve">
<style type="text/css">
	.st0{fill:#342D44;}
</style>
<g>
	<path class="st0" d="M80.48,132.22c-0.48-0.53-1.31-0.91-2.48-1.12c-0.85-0.11-1.87-0.16-3.04-0.16h-3.2
		c-0.27,0.05-0.56,0.12-0.88,0.2s-0.64,0.17-0.96,0.28c-0.32,0.11-0.61,0.2-0.88,0.28c-0.27,0.08-0.48,0.15-0.64,0.2
		c-0.91,0.43-1.82,0.68-2.72,0.76c-0.91,0.08-1.87,0.12-2.88,0.12l-15.85,0.24c-0.86,0-1.62-0.23-2.28-0.68
		c-0.67-0.45-1-1.16-1-2.12v-6.97h29.15c1.33,0,2.28-0.11,2.84-0.32c0.56-0.21,0.84-0.59,0.84-1.12c0-0.64-0.27-1.09-0.8-1.36
		c-0.53-0.27-1.2-0.43-2-0.48l1.6-8.09c0-0.16,0.05-0.33,0.16-0.52c0.11-0.19,0.21-0.36,0.32-0.52c0.11-0.21,0.24-0.43,0.4-0.64
		c0.16-0.21,0.29-0.45,0.4-0.72c0.32-0.37,0.45-0.84,0.4-1.4c-0.05-0.56-0.59-0.95-1.6-1.16c-0.8-0.16-1.64-0.25-2.52-0.28
		c-0.88-0.03-1.7-0.04-2.44-0.04c-0.27,0.05-0.49,0.12-0.68,0.2c-0.19,0.08-0.36,0.15-0.52,0.2l-0.56,0.32
		c-0.16,0.05-0.32,0.08-0.48,0.08c-0.91,0.11-2.31,0.2-4.2,0.28c-1.9,0.08-3.94,0.12-6.13,0.12c-2.14,0.05-4.24,0.09-6.33,0.12
		c-2.08,0.03-3.71,0.04-4.88,0.04c-1.5,0-3.07-0.04-4.72-0.12c-1.66-0.08-3.36-0.25-5.12-0.52c-1.12-0.16-1.92-0.17-2.4-0.04
		c-0.48,0.13-0.77,0.36-0.88,0.68c-0.05,0.27,0.05,0.59,0.32,0.96c0.27,0.37,0.61,0.67,1.04,0.88c0.75,0.48,1.69,0.95,2.84,1.4
		c1.15,0.45,2.09,0.76,2.84,0.92c0.75,0.21,1.4,0.32,1.96,0.32c0.56,0,1.11-0.08,1.64-0.24c0.21,0,0.47-0.04,0.76-0.12
		c0.29-0.08,0.57-0.17,0.84-0.28c0.21-0.05,0.43-0.12,0.64-0.2c0.21-0.08,0.37-0.15,0.48-0.2c1.28-0.11,2.88-0.2,4.8-0.28
		c1.92-0.08,3.92-0.15,6.01-0.2c2.14-0.05,4.24-0.09,6.33-0.12c2.08-0.03,3.98-0.04,5.69-0.04l-0.24,9.21
		c-1.5,0.05-3.43,0.09-5.81,0.12c-2.38,0.03-4.79,0.04-7.25,0.04c-2.51,0-4.89-0.01-7.13-0.04c-2.24-0.03-3.95-0.07-5.12-0.12
		c-0.64,0-1.32-0.04-2.04-0.12s-1.43-0.15-2.12-0.2c-0.75-0.11-1.5-0.2-2.24-0.28c-0.75-0.08-1.5-0.12-2.24-0.12
		c-1.5,0-2.4,0.41-2.72,1.24c-0.32,0.83,0.11,1.32,1.28,1.48c1.65,0.27,2.77,0.61,3.36,1.04c0.59,0.43,0.88,1.52,0.88,3.28v4.48
		c0,1.28,0.24,2.29,0.72,3.04c0.48,0.75,1.12,1.28,1.92,1.6c0.8,0.37,1.71,0.61,2.72,0.72c1.01,0.11,2.03,0.13,3.04,0.08l30.99-0.32
		c1.17,0,2.04-0.2,2.6-0.6c0.56-0.4,2.07-0.99,2.12-1.58C82.4,133.19,80.96,132.75,80.48,132.22z"/>
	<path class="st0" d="M76.32,65.2c-0.32-0.43-0.69-0.72-1.12-0.88c-0.75-0.21-1.63-0.43-2.64-0.64c-1.02-0.21-2.08-0.4-3.2-0.56
		c-1.07-0.16-2.12-0.31-3.16-0.44c-1.04-0.13-1.94-0.2-2.68-0.2c-0.48,0-0.92,0.13-1.32,0.4c-0.4,0.27-0.68,0.53-0.84,0.8
		c-0.16,0.32-0.16,0.63,0,0.92c0.16,0.29,0.56,0.47,1.2,0.52c1.12,0.21,2.28,0.55,3.48,1c1.2,0.45,2.23,0.95,3.08,1.48
		c0.64,0.43,1.03,0.96,1.16,1.6c0.13,0.64,0.2,1.76,0.2,3.36v4.72c-0.64,0.05-1.32,0.11-2.04,0.16c-0.72,0.05-1.48,0.11-2.28,0.16
		c-0.75,0.05-1.53,0.09-2.36,0.12c-0.83,0.03-1.67,0.04-2.52,0.04h-3.12c-0.53,0-1.07-0.01-1.6-0.04c-0.53-0.03-1.01-0.04-1.44-0.04
		v-3.04c0-0.48,0.01-1,0.04-1.56c0.03-0.56,0.12-1,0.28-1.32c0.16-0.64,0.11-1.17-0.16-1.6c-0.27-0.43-0.61-0.72-1.04-0.88
		c-0.59-0.16-1.29-0.32-2.12-0.48c-0.83-0.16-1.69-0.32-2.6-0.48c-0.85-0.11-1.69-0.21-2.52-0.32c-0.83-0.11-1.48-0.16-1.96-0.16
		c-1.07,0-1.76,0.4-2.08,1.2s0.08,1.28,1.2,1.44c0.96,0.16,1.88,0.43,2.76,0.8c0.88,0.37,1.56,0.75,2.04,1.12
		c0.27,0.32,0.49,0.75,0.68,1.28c0.19,0.53,0.28,1.04,0.28,1.52v5.61l-0.03,0c0,0.03,0.01,0.07,0.01,0.1c0,1.12,0.01,2.23-0.04,3.34
		l0.06,0v12.01L29.63,96.5V84.49l0.01,0c0-0.07,0-0.13,0.01-0.2c-0.01-0.04-0.01-0.08-0.01-0.12c0.01-0.31,0.03-0.61,0.03-0.91
		c0-0.31-0.03-0.62-0.02-0.93c0-0.06,0.01-0.12,0.01-0.17c-0.02-0.1-0.02-0.2-0.01-0.3c-0.01-0.02-0.01-0.04-0.01-0.06
		c0-0.23,0.02-0.46-0.01-0.69c0.01,0.06,0.02,0.12,0.02,0.18c-0.02-0.08,0-0.16,0-0.23l-0.02,0v-3.2c0-0.48,0.01-1.01,0.04-1.6
		c0.03-0.59,0.12-1.07,0.28-1.44c0.16-0.69,0.11-1.24-0.16-1.64c-0.27-0.4-0.64-0.68-1.12-0.84c-0.59-0.11-1.29-0.24-2.12-0.4
		c-0.83-0.16-1.67-0.32-2.52-0.48c-0.91-0.11-1.76-0.21-2.56-0.32c-0.8-0.11-1.44-0.16-1.92-0.16c-1.07,0-1.78,0.39-2.12,1.16
		c-0.35,0.77,0.07,1.24,1.24,1.4c0.96,0.16,1.87,0.43,2.72,0.8c0.85,0.37,1.55,0.75,2.08,1.12c0.32,0.32,0.56,0.76,0.72,1.32
		c0.16,0.56,0.24,1.11,0.24,1.64v17.94c0,2.56,0.16,4.4,0.48,5.53c0.32,1.12,0.93,1.68,1.84,1.68c0.59,0,1.07-0.19,1.44-0.56
		c0.37-0.37,0.67-0.8,0.88-1.28c0.21-0.43,0.35-0.83,0.4-1.2l0.16-0.56l20.26-0.24c0,0.43,0.15,1,0.44,1.72
		c0.29,0.72,0.76,1.08,1.4,1.08c1.23,0,2.07-0.63,2.52-1.88c0.45-1.25,0.71-2.76,0.76-4.52c0.27,0.11,0.6,0.21,1,0.32
		c0.4,0.11,0.76,0.19,1.08,0.24c1.33,0.32,2.39,0.47,3.16,0.44c0.77-0.03,1.4-0.12,1.88-0.28c0.11,0,0.36-0.07,0.76-0.2
		c0.4-0.13,0.87-0.25,1.4-0.36c0.53-0.16,1.08-0.29,1.64-0.4c0.56-0.11,1.11-0.21,1.64-0.32c0.16,0,0.37-0.01,0.64-0.04
		c0.27-0.03,0.53-0.07,0.8-0.12c0.27,0,0.52-0.01,0.76-0.04c0.24-0.03,0.47-0.07,0.68-0.12v0.24c0,0.85,0.04,1.84,0.12,2.96
		c0.08,1.12,0.2,2.19,0.36,3.2c0.16,1.01,0.39,1.87,0.68,2.56c0.29,0.69,0.68,1.01,1.16,0.96c0.43,0,0.83-0.37,1.2-1.12
		c0.37-0.75,0.69-1.73,0.96-2.96c0.21-1.17,0.4-2.51,0.56-4c0.16-1.49,0.24-3.02,0.24-4.56V72.4c0-0.96,0.04-1.88,0.12-2.76
		c0.08-0.88,0.28-1.8,0.6-2.76C76.69,66.18,76.64,65.62,76.32,65.2z M70.47,92.26c-0.64,0.05-1.32,0.11-2.04,0.16
		c-0.72,0.05-1.48,0.11-2.28,0.16c-0.8,0.05-1.62,0.09-2.44,0.12c-0.83,0.03-1.67,0.04-2.52,0.04h-3.04c-0.59,0-1.13-0.01-1.64-0.04
		c-0.51-0.03-0.97-0.04-1.4-0.04V81.13c0.11,0.05,0.24,0.11,0.4,0.16c0.16,0.05,0.35,0.11,0.56,0.16c0.16,0.05,0.33,0.11,0.52,0.16
		c0.19,0.05,0.39,0.08,0.6,0.08c1.33,0.32,2.39,0.47,3.16,0.44c0.77-0.03,1.43-0.12,1.96-0.28c0.21-0.05,0.91-0.24,2.08-0.56
		c1.17-0.32,2.27-0.56,3.28-0.72c0.21,0,0.44-0.01,0.68-0.04c0.24-0.03,0.49-0.07,0.76-0.12c0.21,0,0.44-0.01,0.68-0.04
		c0.24-0.03,0.47-0.07,0.68-0.12V92.26z"/>
	<path class="st0" d="M137.58,74.48v19.78c0,2.24-0.23,4.14-0.68,5.69c-0.45,1.55-1.32,2.32-2.6,2.32c-0.64,0-1.12-0.36-1.44-1.08
		c-0.32-0.72-0.48-1.32-0.48-1.8l-20.58,0.32l-0.16,0.56c-0.05,0.37-0.19,0.77-0.4,1.2c-0.16,0.48-0.43,0.91-0.8,1.28
		c-0.37,0.37-0.86,0.56-1.44,0.56c-0.96,0-1.6-0.56-1.92-1.68c-0.32-1.12-0.48-2.96-0.48-5.53V78.17c0-0.53-0.08-1.08-0.24-1.64
		c-0.16-0.56-0.4-1-0.72-1.32c-0.53-0.37-1.23-0.75-2.08-1.12c-0.86-0.37-1.76-0.64-2.72-0.8c-1.12-0.16-1.52-0.63-1.2-1.4
		c0.32-0.77,1.01-1.16,2.08-1.16c0.48,0,1.12,0.05,1.92,0.16c0.8,0.11,1.65,0.21,2.56,0.32c0.85,0.16,1.69,0.32,2.52,0.48
		c0.83,0.16,1.53,0.32,2.12,0.48c0.48,0.11,0.85,0.36,1.12,0.76c0.27,0.4,0.32,0.92,0.16,1.56c-0.16,0.43-0.25,0.93-0.28,1.52
		c-0.03,0.59-0.04,1.12-0.04,1.6v18.66l20.58-0.24V74.96c0-0.48-0.08-1-0.24-1.56c-0.16-0.56-0.4-1-0.72-1.32
		c-0.48-0.32-1.15-0.67-2-1.04c-0.85-0.37-1.76-0.64-2.72-0.8c-1.17-0.16-1.6-0.64-1.28-1.44c0.32-0.8,1.01-1.2,2.08-1.2
		c0.48,0,1.13,0.05,1.96,0.16c0.83,0.11,1.69,0.21,2.6,0.32c0.85,0.16,1.69,0.32,2.52,0.48c0.83,0.16,1.53,0.32,2.12,0.48
		c0.43,0.16,0.8,0.44,1.12,0.84c0.32,0.4,0.35,0.92,0.08,1.56c-0.11,0.37-0.19,0.84-0.24,1.4C137.61,73.4,137.58,73.95,137.58,74.48
		z M141.98,120.61c0.82,0.48,1.8,1,2.94,1.56c1.14,0.56,2.27,1.14,3.38,1.72c1.11,0.53,2.15,1.03,3.12,1.48
		c0.97,0.45,1.71,0.79,2.24,1c0.76,0.32,1.41,0.53,1.93,0.64c0.53,0.11,1.02,0.19,1.49,0.24c0.47,0.05,0.98,0.13,1.54,0.24
		c0.56,0.11,1.25,0.32,2.07,0.64c0.88,0.53,1.99,1.31,3.34,2.32c1.35,1.01,2.46,1.97,3.34,2.88c0.82,0.96,1.2,1.79,1.14,2.48
		c-0.06,0.69-0.41,1.23-1.06,1.6c-0.64,0.32-1.51,0.41-2.59,0.28c-1.09-0.13-2.24-0.57-3.47-1.32c-1.11-0.64-2.58-1.54-4.39-2.68
		c-1.82-1.15-3.75-2.34-5.8-3.56c-2.05-1.28-4.1-2.54-6.15-3.76c-2.05-1.23-3.84-2.29-5.36-3.2c-1.52,1.6-3.3,3.19-5.32,4.76
		c-2.02,1.57-4.15,3.03-6.37,4.36c-2.23,1.33-4.48,2.49-6.77,3.48c-2.29,0.99-4.42,1.69-6.42,2.12c-2.64,0.64-4.07,0.61-4.31-0.08
		c-0.23-0.69,0.29-1.28,1.58-1.76c2.52-0.85,5.08-1.96,7.69-3.32c2.61-1.36,5.05-2.9,7.34-4.6c2.28-1.66,4.29-3.44,6.02-5.37
		c1.73-1.92,2.97-3.84,3.74-5.77v-0.16c-1.41,0-2.68,0.03-3.82,0.08c-1.14,0.05-2.07,0.08-2.77,0.08c-0.41,0.05-0.79,0.12-1.14,0.2
		c-0.35,0.08-0.7,0.17-1.05,0.28c-0.35,0.16-0.7,0.29-1.06,0.4c-0.35,0.11-0.7,0.19-1.05,0.24c-0.35,0.11-0.67,0.19-0.97,0.24
		c-0.29,0.05-0.61,0.08-0.97,0.08c-0.35,0.05-0.73,0.07-1.14,0.04c-0.41-0.03-0.88-0.09-1.41-0.2c-0.94-0.16-2.17-0.45-3.69-0.88
		c-1.53-0.43-2.7-0.8-3.52-1.12c-1.76-0.69-2.5-1.41-2.24-2.16c0.26-0.75,1.39-1.04,3.38-0.88c1.93,0.21,4.17,0.37,6.72,0.48
		c2.55,0.11,4.88,0.13,6.99,0.08c1,0,2.5-0.01,4.53-0.04c2.02-0.03,4.09-0.07,6.2-0.12c2.11-0.05,4.06-0.12,5.85-0.2
		c1.79-0.08,2.97-0.2,3.56-0.36c0.23-0.05,0.51-0.13,0.84-0.24c0.32-0.11,0.63-0.21,0.92-0.32c0.35-0.11,0.7-0.2,1.05-0.28
		c0.35-0.08,0.73-0.15,1.14-0.2c1.46-0.16,2.99-0.24,4.57-0.24c1.58,0,2.96,0.08,4.13,0.24c1.11,0.16,1.95,0.49,2.5,1
		c0.56,0.51,0.84,1.08,0.84,1.72c-0.06,0.91-0.5,1.44-1.32,1.6c-0.82,0.16-1.79,0.24-2.9,0.24h-8.26c-1.58,0.05-3.19,0.09-4.83,0.12
		c-1.64,0.03-3.16,0.04-4.57,0.04c0.12,0.32,0.16,0.64,0.13,0.96c-0.03,0.32-0.13,0.72-0.31,1.2c-0.17,0.21-0.32,0.4-0.44,0.56
		l-0.35,0.48c-0.06,0.16-0.13,0.29-0.22,0.4C142.12,120.47,142.04,120.55,141.98,120.61z M129.14,102.67
		c2.08,0.83,4.19,1.46,6.34,1.87c2.15,0.41,4.54,0.84,7.18,1.28c1.53,0.25,2.6,0.65,3.21,1.19c0.61,0.54,0.85,1.03,0.72,1.5
		c-0.14,0.52-0.56,0.93-1.26,1.25c-0.7,0.32-1.61,0.41-2.73,0.28c-0.96-0.05-1.9-0.13-2.8-0.22c-0.9-0.1-1.75-0.21-2.54-0.34
		c-0.85-0.09-1.66-0.21-2.42-0.36c-0.76-0.15-1.45-0.33-2.06-0.55c-0.98-0.27-2.17-0.81-3.55-1.61c-1.38-0.8-2.49-1.65-3.31-2.54
		c-0.66-0.6-1-1.07-1.02-1.43c-0.02-0.36,0.17-0.61,0.57-0.76c0.39-0.1,0.92-0.1,1.59-0.02
		C127.73,102.29,128.42,102.44,129.14,102.67z M157.84,72.4v21.78c0,1.55-0.08,3.06-0.24,4.52c-0.16,1.47-0.37,2.82-0.64,4.04
		c-0.27,1.17-0.6,2.14-1,2.88c-0.4,0.75-0.84,1.12-1.32,1.12c-0.43,0.05-0.77-0.27-1.04-0.96c-0.27-0.69-0.48-1.55-0.64-2.56
		c-0.11-0.96-0.2-2-0.28-3.12c-0.08-1.12-0.12-2.13-0.12-3.04V72.72c0-1.65-0.07-2.82-0.2-3.48c-0.13-0.67-0.52-1.21-1.16-1.64
		c-0.85-0.53-1.88-1.03-3.08-1.48c-1.2-0.45-2.36-0.79-3.48-1c-0.64-0.05-1.04-0.23-1.2-0.52c-0.16-0.29-0.16-0.6,0-0.92
		c0.16-0.27,0.44-0.53,0.84-0.8c0.4-0.27,0.84-0.4,1.32-0.4c0.75,0,1.64,0.07,2.68,0.2c1.04,0.13,2.09,0.28,3.16,0.44
		c1.12,0.16,2.19,0.35,3.2,0.56c1.01,0.21,1.89,0.43,2.64,0.64c0.43,0.16,0.8,0.45,1.12,0.88c0.32,0.43,0.37,0.99,0.16,1.68
		c-0.32,0.96-0.52,1.88-0.6,2.76C157.88,70.52,157.84,71.44,157.84,72.4z"/>
	<path class="st0" d="M289.82,78.25c0.21-0.05,0.43-0.12,0.64-0.2c0.21-0.08,0.45-0.17,0.72-0.28c0.27-0.11,0.55-0.21,0.84-0.32
		c0.29-0.11,0.63-0.19,1-0.24c1.12-0.16,2.25-0.24,3.4-0.24s2.26,0.08,3.32,0.24c0.85,0.16,1.52,0.49,2,1
		c0.48,0.51,0.72,1.08,0.72,1.72c-0.05,0.86-0.41,1.38-1.08,1.56c-0.67,0.19-1.48,0.28-2.44,0.28h-5.36c-2.14,0-4.3,0.03-6.49,0.08
		c-2.19,0.05-4.23,0.11-6.13,0.16c-1.9,0.05-3.32,0.11-4.28,0.16c-0.32,0.05-0.64,0.12-0.96,0.2c-0.32,0.08-0.61,0.17-0.88,0.28
		c-0.27,0.16-0.55,0.31-0.84,0.44c-0.29,0.13-0.57,0.23-0.84,0.28c-0.27,0.11-0.52,0.19-0.76,0.24c-0.24,0.05-0.49,0.08-0.76,0.08
		c-0.27,0.05-0.56,0.07-0.88,0.04c-0.32-0.03-0.69-0.09-1.12-0.2c-0.64-0.16-1.56-0.48-2.76-0.96c-1.2-0.48-2.12-0.88-2.76-1.2
		c-1.34-0.64-1.91-1.33-1.72-2.08c0.19-0.75,1.05-1.04,2.6-0.88c1.6,0.21,3.38,0.37,5.33,0.48c1.95,0.11,3.8,0.13,5.57,0.08
		c0.75,0,1.83-0.01,3.24-0.04c1.41-0.03,2.84-0.07,4.28-0.12c1.44-0.05,2.76-0.12,3.96-0.2C288.58,78.53,289.39,78.41,289.82,78.25z
		 M283.5,109.56c-4.43,0-7.97-1.19-10.61-3.56c-2.64-2.37-3.96-5.35-3.96-8.93c0-3.52,1.31-6.5,3.92-8.93
		c2.61-2.43,6.16-3.64,10.65-3.64c4.38,0,7.9,1.21,10.57,3.64c2.67,2.43,4,5.4,4,8.93c0,3.58-1.35,6.55-4.04,8.93
		C291.33,108.37,287.82,109.56,283.5,109.56z M276.69,69.04c1.92,0.48,3.79,0.75,5.61,0.8c1.81,0.05,3.9,0.08,6.25,0.08
		c1.39,0,2.39,0.21,3,0.64c0.61,0.43,0.89,0.88,0.84,1.36c-0.05,0.48-0.39,0.93-1,1.36c-0.61,0.43-1.4,0.67-2.36,0.72
		c-0.8,0.11-1.57,0.19-2.32,0.24c-0.75,0.05-1.47,0.08-2.16,0.08c-0.7,0.05-1.36,0.07-2,0.04c-0.64-0.03-1.25-0.09-1.84-0.2
		c-0.91-0.11-2.03-0.41-3.36-0.92c-1.34-0.51-2.43-1.16-3.28-1.96c-1.28-1.01-1.49-1.72-0.64-2.12
		C274.26,68.76,275.35,68.72,276.69,69.04z M283.5,87.62c-2.88,0-5.19,0.94-6.93,2.8c-1.74,1.87-2.6,4.08-2.6,6.65
		c0,2.62,0.85,4.8,2.56,6.57c1.71,1.76,4.03,2.64,6.97,2.64c2.88,0,5.19-0.88,6.93-2.64c1.74-1.76,2.6-3.95,2.6-6.57
		c0-2.56-0.87-4.78-2.6-6.65C288.69,88.55,286.38,87.62,283.5,87.62z M306.32,110.36c4.59,0,8.42,1.27,11.49,3.8
		c3.07,2.54,4.6,5.94,4.6,10.21c0,4.22-1.52,7.57-4.56,10.05s-6.89,3.72-11.53,3.72c-4.59,0-8.4-1.24-11.41-3.72
		c-3.02-2.48-4.52-5.83-4.52-10.05c0-2.13,0.4-4.06,1.2-5.77c0.8-1.71,1.92-3.18,3.36-4.4c1.44-1.23,3.13-2.17,5.08-2.84
		C301.98,110.69,304.07,110.36,306.32,110.36z M306.32,113.8c-3.36,0-5.93,1.05-7.69,3.16c-1.76,2.11-2.64,4.58-2.64,7.41
		s0.89,5.24,2.68,7.25c1.79,2,4.34,3,7.65,3c3.2,0,5.73-1,7.57-3c1.84-2,2.76-4.42,2.76-7.25s-0.91-5.3-2.72-7.41
		C312.11,114.86,309.57,113.8,306.32,113.8z M324.33,72.4v28.03c0,3.31-0.23,6.22-0.68,8.73c-0.45,2.51-1.24,3.76-2.36,3.76
		c-0.43,0.05-0.77-0.23-1.04-0.84c-0.27-0.61-0.48-1.37-0.64-2.28c-0.16-0.91-0.27-1.91-0.32-3c-0.05-1.09-0.08-2.15-0.08-3.16V95.7
		l-10.01,0.16v1.12c0,3.2-0.24,5.82-0.72,7.85c-0.48,2.03-1.28,3.04-2.4,3.04c-0.43,0.05-0.77-0.17-1.04-0.68
		c-0.27-0.51-0.48-1.16-0.64-1.96c-0.16-0.85-0.27-1.79-0.32-2.8c-0.05-1.01-0.08-2.03-0.08-3.04V76.25c0-1.71-0.09-2.95-0.28-3.72
		c-0.19-0.77-0.55-1.37-1.08-1.8c-0.85-0.48-1.74-0.91-2.64-1.28c-0.91-0.37-1.81-0.64-2.72-0.8c-0.59-0.05-0.96-0.24-1.12-0.56
		c-0.16-0.32-0.16-0.64,0-0.96c0.11-0.32,0.36-0.6,0.76-0.84c0.4-0.24,0.87-0.36,1.4-0.36c1.39,0.11,3.11,0.31,5.16,0.6
		c2.05,0.29,3.8,0.68,5.24,1.16c0.37,0.21,0.68,0.53,0.92,0.96c0.24,0.43,0.28,0.96,0.12,1.6c-0.27,0.91-0.43,1.78-0.48,2.6
		c-0.05,0.83-0.08,1.72-0.08,2.68V92.1l10.01-0.16V72.72c0-1.65-0.08-2.84-0.24-3.56c-0.16-0.72-0.56-1.27-1.2-1.64
		c-0.96-0.53-1.94-1-2.92-1.4c-0.99-0.4-1.96-0.73-2.92-1c-0.64-0.05-1.04-0.23-1.2-0.52c-0.16-0.29-0.16-0.6,0-0.92
		c0.16-0.32,0.43-0.6,0.8-0.84c0.37-0.24,0.8-0.36,1.28-0.36c0.69,0,1.53,0.07,2.52,0.2c0.99,0.13,1.99,0.28,3,0.44
		c1.01,0.16,2,0.35,2.96,0.56c0.96,0.21,1.81,0.43,2.56,0.64c0.43,0.16,0.79,0.45,1.08,0.88c0.29,0.43,0.33,0.99,0.12,1.68
		c-0.32,0.96-0.52,1.88-0.6,2.76C324.37,70.52,324.33,71.44,324.33,72.4z"/>
	<path class="st0" d="M38.45,79.65c0,0-0.34,4.17-3.07,4.17c2.73,0,3.07,4.17,3.07,4.17s0.34-4.17,3.07-4.17
		C38.79,83.82,38.45,79.65,38.45,79.65z"/>
	<path class="st0" d="M121.88,79.65c0,0-0.34,4.17-3.07,4.17c2.73,0,3.07,4.17,3.07,4.17s0.34-4.17,3.07-4.17
		C122.22,83.82,121.88,79.65,121.88,79.65z"/>
	<g>
		<path class="st0" d="M212.14,81.13c-1.66-1.44-3.59-2.57-5.81-3.4c-2.22-0.83-4.63-1.24-7.25-1.24c-2.67,0-5.11,0.41-7.33,1.24
			c-2.22,0.83-4.12,1.96-5.73,3.4c-1.6,1.5-2.86,3.28-3.76,5.37c-0.91,2.08-1.36,4.4-1.36,6.97c0,2.56,0.44,4.89,1.32,6.97
			c0.88,2.08,2.12,3.84,3.72,5.29c1.6,1.5,3.52,2.63,5.77,3.4c2.24,0.77,4.7,1.16,7.37,1.16c2.67,0,5.12-0.39,7.37-1.16
			c2.24-0.77,4.16-1.91,5.77-3.4c1.6-1.44,2.86-3.2,3.76-5.29c0.91-2.08,1.36-4.4,1.36-6.97c0-2.56-0.47-4.88-1.4-6.97
			C215.01,84.41,213.74,82.63,212.14,81.13z"/>
		<path class="st0" d="M248.33,104.27c-1.12-0.16-2.47-0.24-4.04-0.24c-1.57,0-2.6,0.21-3.08,0.64c-0.69,0.75-1.69,1.26-3,1.52
			c-1.31,0.27-2.34,0.43-3.08,0.48V87.7h12.73c1.12,0,2.03-0.21,2.72-0.64c0.69-0.43,1.09-0.93,1.2-1.52
			c0.05-0.53-0.19-1.08-0.72-1.64c-0.54-0.56-1.44-0.97-2.72-1.24c-1.12-0.16-2.47-0.24-4.04-0.24c-1.57,0-2.6,0.21-3.08,0.64
			c-0.69,0.75-1.71,1.26-3.04,1.52c-1.34,0.27-2.35,0.43-3.04,0.48V72.32c0-0.91,0.04-1.8,0.12-2.68c0.08-0.88,0.28-1.8,0.6-2.76
			c0.16-0.69,0.09-1.25-0.2-1.68c-0.29-0.43-0.66-0.72-1.08-0.88c-0.75-0.21-1.63-0.43-2.64-0.64c-1.01-0.21-2.08-0.4-3.2-0.56
			c-1.07-0.16-2.12-0.31-3.16-0.44c-1.04-0.13-1.94-0.2-2.68-0.2c-0.48,0-0.92,0.13-1.32,0.4c-0.4,0.27-0.65,0.53-0.76,0.8
			c-0.16,0.32-0.17,0.63-0.04,0.92c0.13,0.29,0.49,0.47,1.08,0.52c1.07,0.21,2.23,0.55,3.48,1c1.25,0.45,2.33,0.95,3.24,1.48
			c0.59,0.43,0.95,0.97,1.08,1.64c0.13,0.67,0.2,1.83,0.2,3.48v52.05c0,1.44,0.01,3,0.04,4.68c0.03,1.68,0.12,3.24,0.28,4.68
			c0.11,1.44,0.31,2.63,0.6,3.56c0.29,0.93,0.68,1.37,1.16,1.32c0.64,0,1.16-0.49,1.56-1.48c0.4-0.99,0.73-2.34,1-4.04
			c0.21-1.71,0.37-3.7,0.48-5.97c0.11-2.27,0.16-4.68,0.16-7.25v-10.97h12.73c1.12,0,2.03-0.21,2.72-0.64
			c0.69-0.43,1.09-0.93,1.2-1.52c0.05-0.53-0.19-1.08-0.72-1.64C250.52,104.95,249.61,104.54,248.33,104.27z"/>
	</g>
</g>
<g>
	<path class="st0" d="M361.96,81.34c-0.51,0-0.93,0.19-1.24,0.57c-0.31,0.38-0.47,0.86-0.47,1.44c0,0.57,0.16,1.05,0.47,1.44
		c0.31,0.39,0.73,0.58,1.24,0.58c0.5,0,0.91-0.19,1.22-0.58c0.31-0.39,0.46-0.87,0.46-1.44c0-0.55-0.15-1.02-0.45-1.41
		C362.89,81.54,362.48,81.34,361.96,81.34z"/>
	<path class="st0" d="M358.97,123.01c-0.33,0.38-0.5,0.86-0.5,1.44c0,0.56,0.17,1.04,0.5,1.43c0.33,0.39,0.78,0.59,1.34,0.59
		c0.54,0,0.97-0.19,1.3-0.58c0.33-0.39,0.5-0.87,0.5-1.44c0-0.54-0.16-1-0.49-1.4c-0.32-0.4-0.76-0.6-1.31-0.6
		C359.74,122.45,359.3,122.64,358.97,123.01z"/>
	<path class="st0" d="M373.85,81.45l-1.23-15.03l-10.25-5.45l-15.99,5.59l-2.87,34.44l2.73,30.06l14.89,5.19l13.12-3.69l2.46-27.88
		L373.85,81.45z M353.23,80.47c0.47-0.27,0.97-0.64,1.52-1.09c0.54-0.45,1.08-0.97,1.62-1.55c0.54-0.58,1.05-1.22,1.55-1.91
		c0.5-0.69,0.93-1.41,1.31-2.17c-0.21,0.01-0.4,0.02-0.59,0.03c-0.19,0.01-0.37,0.02-0.54,0.03c-0.17,0.02-0.33,0.04-0.47,0.05
		c-0.14,0.01-0.27,0.02-0.39,0.02c-0.09,0.01-0.18,0.03-0.26,0.04c-0.09,0.02-0.16,0.04-0.23,0.06c-0.07,0.01-0.13,0.02-0.19,0.03
		l-0.07,0.02c-0.13,0.06-0.25,0.12-0.36,0.19c-0.11,0.07-0.25,0.11-0.41,0.12c-0.16,0.01-0.37-0.04-0.62-0.14
		c-0.25-0.11-0.57-0.32-0.96-0.63c-0.34-0.24-0.49-0.44-0.44-0.6c0.05-0.16,0.32-0.22,0.8-0.17c0.05,0.01,0.14,0.02,0.27,0.03
		c0.13,0.01,0.28,0.02,0.45,0.03c0.17,0.02,0.36,0.04,0.56,0.04c0.2,0.01,0.4,0.01,0.59,0.01c0.65,0,1.21-0.01,1.69-0.03
		c0.47-0.02,0.83-0.08,1.07-0.2c0.08-0.04,0.23-0.07,0.45-0.09c0.22-0.01,0.45-0.02,0.69-0.02c0.23,0,0.44,0.01,0.63,0.02
		c0.19,0.01,0.29,0.02,0.32,0.02c0.26,0.1,0.37,0.29,0.33,0.56c-0.04,0.27-0.19,0.61-0.45,1.02c0.09,0,0.19,0,0.31,0.01
		c0.11,0.01,0.23,0.01,0.34,0.01h1.06c0.14,0,0.26-0.01,0.38-0.02c0.13,0,0.24,0,0.35-0.01c0.11-0.01,0.23-0.02,0.35-0.03v-1.49
		c0-0.25-0.03-0.47-0.09-0.65c-0.06-0.18-0.16-0.32-0.3-0.43c-0.18-0.14-0.39-0.25-0.63-0.33c-0.24-0.09-0.49-0.15-0.74-0.2
		c-0.09-0.01-0.15-0.06-0.18-0.14c-0.03-0.08-0.03-0.17-0.01-0.26c0.02-0.08,0.07-0.16,0.15-0.23c0.08-0.07,0.18-0.11,0.31-0.11
		c0.22,0,0.47,0.01,0.75,0.04c0.28,0.03,0.58,0.06,0.89,0.09c0.3,0.05,0.59,0.09,0.87,0.14c0.29,0.05,0.54,0.1,0.75,0.15
		c0.09,0.03,0.15,0.11,0.19,0.22c0.03,0.11,0.03,0.23,0,0.34c-0.06,0.17-0.1,0.35-0.12,0.53c-0.02,0.18-0.03,0.36-0.03,0.53v5.31
		c0,1.11-0.12,1.91-0.35,2.42c-0.23,0.5-0.48,0.75-0.73,0.75c-0.22,0.02-0.39-0.14-0.52-0.49c-0.13-0.35-0.2-0.99-0.21-1.91v-0.2
		c-0.09,0-0.18,0-0.26,0.01c-0.08,0.01-0.15,0.01-0.22,0.01c-0.08,0-0.15,0-0.21,0.01c-0.06,0.01-0.13,0.01-0.2,0.01
		c-0.2,0.01-0.43,0.05-0.67,0.11c-0.24,0.06-0.43,0.12-0.57,0.18c-0.1,0.05-0.21,0.08-0.32,0.09c-0.11,0.02-0.25,0-0.42-0.06
		c-0.14-0.03-0.32-0.12-0.56-0.25c-0.23-0.13-0.47-0.29-0.69-0.49c-0.2-0.17-0.29-0.32-0.26-0.45c0.03-0.13,0.19-0.19,0.46-0.16
		c0.17,0.02,0.46,0.04,0.87,0.05c0.41,0.01,0.81,0.02,1.18,0.02h0.46c0.16,0,0.32-0.01,0.48-0.02c0.16,0,0.31,0,0.46-0.01
		c0.15-0.01,0.3-0.01,0.44-0.03v-2.14c-0.08,0-0.14,0-0.19,0.01s-0.09,0.01-0.14,0.01c-0.03,0-0.07,0-0.11,0.01
		c-0.04,0.01-0.09,0.01-0.15,0.01c-0.2,0.01-0.43,0.05-0.67,0.11c-0.24,0.06-0.43,0.12-0.56,0.18c-0.1,0.05-0.21,0.08-0.33,0.09
		c-0.11,0.02-0.26,0-0.43-0.06c-0.07-0.02-0.18-0.07-0.33-0.13c-0.15-0.06-0.29-0.14-0.43-0.23c-0.37,0.59-0.79,1.17-1.28,1.74
		c-0.49,0.56-1.02,1.1-1.58,1.6c-0.56,0.49-1.14,0.93-1.73,1.33c-0.59,0.39-1.17,0.71-1.73,0.93c-0.26,0.11-0.48,0.18-0.66,0.19
		c-0.18,0.01-0.31-0.01-0.39-0.05c-0.09-0.05-0.13-0.11-0.13-0.2C353.07,80.62,353.13,80.54,353.23,80.47z M365.54,83.5
		c0,0.92-0.33,1.67-1,2.23c-0.67,0.56-1.53,0.84-2.58,0.84c-0.54,0-1.02-0.07-1.46-0.21c-0.44-0.14-0.82-0.35-1.14-0.63
		c-0.32-0.26-0.57-0.58-0.74-0.96c-0.18-0.38-0.27-0.8-0.27-1.27c0-0.45,0.09-0.86,0.27-1.23c0.18-0.38,0.43-0.7,0.74-0.98
		c0.32-0.26,0.7-0.47,1.14-0.63c0.44-0.15,0.93-0.23,1.46-0.23c1.05,0,1.91,0.28,2.58,0.84C365.21,81.84,365.54,82.58,365.54,83.5z
		 M367.64,118.75c-0.16,0.1-0.38,0.15-0.64,0.15c-0.2,0-0.42,0-0.68-0.01c-0.26-0.01-0.53-0.01-0.83-0.01
		c-0.29-0.01-0.59-0.02-0.92-0.03c-0.33-0.01-0.65-0.01-0.99-0.01c-0.33,0-0.69,0-1.08,0.01c-0.39,0.01-0.79,0.01-1.2,0.01v0.48
		c0,0.55-0.05,1.01-0.15,1.38c-0.1,0.37-0.23,0.65-0.39,0.83c0.96,0.09,1.74,0.41,2.33,0.95c0.59,0.54,0.89,1.24,0.89,2.1
		c0,0.95-0.34,1.69-1.02,2.24c-0.68,0.55-1.57,0.82-2.66,0.82c-0.55,0-1.05-0.07-1.52-0.22c-0.46-0.15-0.85-0.35-1.17-0.62
		c-0.33-0.27-0.59-0.6-0.77-0.98c-0.18-0.38-0.27-0.79-0.27-1.25c0-0.86,0.3-1.56,0.89-2.1c0.59-0.54,1.37-0.86,2.33-0.95
		c-0.11-0.14-0.2-0.33-0.27-0.59c-0.07-0.26-0.1-0.56-0.1-0.9v-1.15c-0.54,0.01-1.02,0.03-1.45,0.04c-0.43,0.02-0.81,0.04-1.14,0.06
		c-0.1,0.01-0.2,0.03-0.28,0.05c-0.09,0.02-0.17,0.05-0.25,0.07c-0.07,0.02-0.14,0.05-0.21,0.08c-0.07,0.03-0.14,0.05-0.21,0.08
		c-0.17,0.07-0.36,0.12-0.56,0.16c-0.21,0.04-0.45,0.01-0.72-0.09c-0.22-0.07-0.48-0.17-0.79-0.3c-0.31-0.13-0.62-0.28-0.93-0.45
		c-0.41-0.24-0.58-0.46-0.5-0.65c0.08-0.19,0.34-0.26,0.79-0.2c0.38,0.06,0.84,0.1,1.4,0.14c0.56,0.03,1.23,0.05,2,0.05
		c0.63,0,1.24,0,1.82,0.01c0.59,0.01,1.14,0.01,1.65,0.01c0.51,0,0.98,0,1.4-0.01c0.42-0.01,0.79-0.01,1.11-0.03h0.09
		c0-0.1,0.01-0.21,0.03-0.32c0.02-0.11,0.04-0.23,0.06-0.35c0.02-0.11,0.05-0.23,0.08-0.35c0.03-0.12,0.05-0.24,0.08-0.37
		c0.03-0.2,0.07-0.44,0.11-0.69c0.04-0.26,0.08-0.52,0.11-0.78c0.03-0.25,0.06-0.49,0.09-0.73c0.02-0.23,0.04-0.43,0.05-0.59
		c-0.34,0.01-0.72,0.03-1.13,0.04c-0.41,0.02-0.83,0.03-1.25,0.04c-0.42,0.02-0.84,0.04-1.24,0.06c-0.41,0.02-0.76,0.03-1.07,0.04
		c-0.18,0.01-0.36,0.05-0.53,0.11c-0.17,0.06-0.32,0.12-0.43,0.18c-0.15,0.05-0.3,0.07-0.46,0.08c-0.16,0.01-0.37-0.03-0.62-0.11
		c-0.17-0.06-0.39-0.15-0.66-0.28c-0.27-0.13-0.56-0.3-0.86-0.51c-0.22-0.14-0.32-0.29-0.3-0.46c0.02-0.17,0.2-0.25,0.56-0.24
		c0.08,0.01,0.21,0.02,0.39,0.03c0.18,0.01,0.38,0.02,0.6,0.03c0.22,0.02,0.44,0.04,0.68,0.05c0.24,0.01,0.46,0.02,0.67,0.02
		c0.43,0.02,0.9,0.03,1.39,0.03c0.49-0.01,0.96-0.01,1.42-0.03c0.47-0.01,0.89-0.03,1.28-0.04c0.38-0.02,0.69-0.04,0.93-0.08
		c0.04,0,0.09,0,0.12-0.01c0.03-0.01,0.07-0.01,0.1-0.03c0.03,0,0.06,0,0.08-0.01c0.02-0.01,0.05-0.01,0.07-0.03l0.14-0.07
		c0.02-0.01,0.05-0.02,0.08-0.03c0.03-0.01,0.06-0.02,0.09-0.03c0.26-0.02,0.57-0.03,0.92-0.03s0.62,0.02,0.81,0.05
		c0.24,0.07,0.38,0.17,0.42,0.29c0.04,0.13,0.04,0.27,0.01,0.43c-0.02,0.07-0.05,0.13-0.07,0.2c-0.02,0.06-0.04,0.12-0.07,0.18
		c-0.03,0.07-0.06,0.14-0.08,0.2c-0.02,0.06-0.03,0.12-0.04,0.18c-0.09,0.42-0.19,0.86-0.31,1.32c-0.11,0.46-0.24,0.88-0.38,1.27
		c-0.03,0.09-0.07,0.19-0.1,0.28c-0.03,0.1-0.07,0.2-0.1,0.3c-0.03,0.1-0.07,0.2-0.11,0.31c-0.04,0.1-0.08,0.2-0.11,0.31
		c0.01,0,0.03,0,0.04-0.01c0.02-0.01,0.04-0.01,0.06-0.01c0.1-0.05,0.23-0.1,0.39-0.17c0.16-0.07,0.31-0.11,0.44-0.12
		c0.35-0.02,0.73-0.03,1.11-0.01c0.39,0.02,0.74,0.06,1.05,0.13c0.23,0.06,0.41,0.14,0.55,0.25c0.14,0.11,0.2,0.25,0.19,0.42
		C367.9,118.49,367.81,118.65,367.64,118.75z M361.92,102.98c-0.37,0.01-0.74,0.02-1.12,0.03c-0.38,0.02-0.75,0.05-1.11,0.07
		c-0.37,0.02-0.69,0.05-0.98,0.07c-0.1,0.01-0.19,0.03-0.27,0.05l-0.24,0.07c-0.08,0.02-0.15,0.05-0.22,0.09s-0.14,0.06-0.21,0.09
		c-0.13,0.03-0.26,0.06-0.4,0.09c-0.14,0.02-0.31,0-0.51-0.07c-0.2-0.05-0.44-0.13-0.69-0.25c-0.26-0.12-0.55-0.29-0.88-0.51
		c-0.33-0.2-0.45-0.4-0.37-0.59c0.09-0.19,0.34-0.24,0.76-0.16c0.22,0.03,0.52,0.07,0.91,0.09c0.39,0.03,0.79,0.04,1.22,0.04h2.59
		c0.41-0.01,0.8-0.03,1.17-0.05c0.37-0.02,0.69-0.06,0.97-0.12c0.03,0,0.07-0.01,0.11-0.03c0.04-0.02,0.08-0.04,0.13-0.05
		c0.05-0.02,0.09-0.04,0.14-0.06c0.04-0.02,0.1-0.03,0.15-0.03c0.13,0,0.26,0,0.39-0.01c0.14-0.01,0.27-0.01,0.39-0.01h0.36
		c0.11,0,0.21,0.01,0.29,0.02c0.23,0.06,0.37,0.15,0.44,0.28c0.06,0.13,0.07,0.27,0.03,0.42c-0.03,0.11-0.07,0.23-0.09,0.36
		c-0.03,0.13-0.04,0.25-0.04,0.38v1.34c0,0.82-0.12,1.47-0.35,1.95c-0.23,0.48-0.49,0.73-0.76,0.74c-0.22,0.02-0.4-0.15-0.55-0.53
		c-0.15-0.38-0.22-0.88-0.22-1.51v-2.23C362.63,102.95,362.29,102.96,361.92,102.98z M367.8,100.36c-0.16,0.1-0.38,0.15-0.65,0.15
		c-0.19,0-0.42,0-0.67-0.01c-0.25-0.01-0.53-0.01-0.82-0.01c-0.29-0.01-0.59-0.02-0.92-0.03c-0.33-0.01-0.65-0.01-0.99-0.01
		c-0.55,0-1.15,0.01-1.81,0.02l-1.99,0.03c-0.65,0.01-1.27,0.03-1.85,0.05c-0.58,0.02-1.06,0.05-1.44,0.07
		c-0.1,0.01-0.2,0.03-0.28,0.05c-0.09,0.02-0.17,0.05-0.25,0.07c-0.08,0.02-0.15,0.05-0.22,0.08c-0.07,0.03-0.14,0.05-0.2,0.08
		c-0.17,0.07-0.36,0.12-0.57,0.16c-0.2,0.04-0.44,0.01-0.72-0.09c-0.22-0.07-0.48-0.17-0.79-0.3c-0.31-0.13-0.62-0.28-0.93-0.45
		c-0.41-0.24-0.58-0.46-0.5-0.65c0.08-0.19,0.34-0.26,0.79-0.2c0.38,0.06,0.84,0.1,1.4,0.14c0.56,0.03,1.22,0.05,1.99,0.05
		c0.48,0,0.96,0,1.43,0.01c0.47,0.01,0.95,0.01,1.43,0.01v-2.09l-1.32,0.03c-0.03,0.15-0.15,0.31-0.36,0.49
		c-0.2,0.18-0.42,0.27-0.63,0.28c-0.2,0.01-0.4-0.11-0.63-0.36c-0.22-0.25-0.34-0.66-0.35-1.22v-3.15
		c-0.01-0.15-0.04-0.27-0.08-0.37c-0.05-0.1-0.1-0.18-0.17-0.25c-0.1-0.07-0.23-0.13-0.37-0.18c-0.14-0.05-0.28-0.09-0.42-0.11
		c-0.08-0.01-0.14-0.06-0.18-0.14c-0.04-0.08-0.05-0.16-0.04-0.24c0-0.09,0.03-0.17,0.09-0.24c0.06-0.07,0.15-0.11,0.27-0.12
		c0.18,0,0.4,0,0.66,0.01c0.26,0.01,0.52,0.03,0.78,0.06c0.26,0.02,0.52,0.05,0.76,0.09c0.25,0.04,0.45,0.08,0.62,0.13
		c0.07,0.03,0.12,0.11,0.15,0.22c0.03,0.11,0.03,0.23-0.01,0.34c-0.05,0.14-0.08,0.26-0.09,0.38c-0.01,0.12-0.02,0.23-0.02,0.33
		v0.15l4.54-0.09v-0.46c0-0.2-0.03-0.37-0.09-0.5c-0.06-0.13-0.13-0.24-0.22-0.32c-0.1-0.08-0.24-0.14-0.4-0.19
		c-0.17-0.04-0.33-0.09-0.5-0.12c-0.08-0.01-0.14-0.06-0.18-0.14c-0.04-0.08-0.05-0.16-0.04-0.24c0-0.09,0.03-0.17,0.09-0.24
		c0.06-0.07,0.15-0.11,0.27-0.12c0.18,0,0.41,0.01,0.69,0.02c0.27,0.01,0.55,0.03,0.84,0.05c0.28,0.03,0.56,0.07,0.81,0.11
		c0.26,0.04,0.47,0.08,0.64,0.13c0.07,0.03,0.12,0.11,0.15,0.22c0.03,0.11,0.03,0.23-0.01,0.34c-0.03,0.14-0.06,0.26-0.09,0.38
		c-0.02,0.12-0.03,0.24-0.03,0.37v3.44c0,0.51-0.13,0.93-0.38,1.23c-0.25,0.31-0.5,0.47-0.74,0.5c-0.22,0.01-0.4-0.04-0.55-0.17
		c-0.15-0.13-0.24-0.27-0.27-0.45l-1.25,0.03v2.11c0.4,0,0.75,0,1.04-0.01c0.3-0.01,0.55-0.01,0.77-0.03
		c0.34-0.01,0.63-0.03,0.85-0.05c0.22-0.02,0.38-0.06,0.49-0.1c0.05-0.01,0.11-0.03,0.18-0.07c0.07-0.03,0.14-0.06,0.21-0.09
		c0.08-0.02,0.16-0.04,0.23-0.07c0.08-0.02,0.15-0.04,0.21-0.05c0.37-0.02,0.74-0.03,1.12-0.01c0.38,0.02,0.73,0.06,1.05,0.13
		c0.23,0.06,0.41,0.14,0.55,0.25c0.14,0.11,0.19,0.25,0.17,0.42C368.06,100.09,367.96,100.25,367.8,100.36z"/>
	<polygon class="st0" points="362.46,94.6 357.92,94.67 357.92,96.45 362.46,96.38 	"/>
</g>
</svg>
