<?xml version="1.0" encoding="utf-8"?>
<!-- Generator: Adobe Illustrator 26.3.1, SVG Export Plug-In . SVG Version: 6.00 Build 0)  -->
<svg version="1.1" id="map_x5F_sun" xmlns="http://www.w3.org/2000/svg" xmlns:xlink="http://www.w3.org/1999/xlink" x="0px"
	 y="0px" viewBox="0 0 1920 900" style="enable-background:new 0 0 1920 900;" xml:space="preserve">
<style type="text/css">
	.st0{fill:url(#SVGID_1_);}
	.st1{fill:url(#SVGID_00000147206197155167961880000002199099368581913216_);}
	.st2{fill:#CCCCCC;}
	.st3{fill:url(#SVGID_00000008846735822951409250000016564416297807069098_);}
	.st4{fill:#B3BDF4;}
	.st5{opacity:0.19;}
	.st6{opacity:0.32;fill:url(#SVGID_00000022546183238215174020000017100815592256356259_);}
	.st7{opacity:0.32;fill:url(#SVGID_00000066502144202694532250000008164919736110162859_);}
	.st8{opacity:0.32;fill:url(#SVGID_00000121238415939729861880000003724658860420855189_);}
	.st9{opacity:0.32;fill:url(#SVGID_00000127003738072252354470000011785206982643712650_);}
	.st10{opacity:0.32;fill:url(#SVGID_00000023982831103389661720000016402191694675544978_);}
	.st11{opacity:0.32;fill:url(#SVGID_00000036968795198564093720000009846738454528220810_);}
	.st12{opacity:0.32;fill:url(#SVGID_00000155852270363869340690000005195043410207471806_);}
	.st13{opacity:0.32;fill:url(#SVGID_00000172418741621710452340000015253852874185807774_);}
	.st14{opacity:0.32;fill:url(#SVGID_00000078764271501592085880000016537448995955735217_);}
	.st15{opacity:0.32;fill:url(#SVGID_00000007399678200459911590000017064730739185378224_);}
	.st16{opacity:0.32;fill:url(#SVGID_00000160877994008355508970000008853694215252465304_);}
	.st17{fill:#3A2534;}
	.st18{fill:#C78A89;}
	.st19{fill:#B27D7D;}
	.st20{fill:#FFDF5A;}
	.st21{fill:#DBB721;}
	.st22{fill:#CE2925;}
	.st23{fill:#EA4747;}
	.st24{fill:#E23D3D;}
	.st25{fill:#4C49E8;}
	.st26{fill:#4141D8;}
</style>
<g>
	<g id="길">
		<g>
			<linearGradient id="SVGID_1_" gradientUnits="userSpaceOnUse" x1="1135.0223" y1="699.1255" x2="1097.1074" y2="630.8787">
				<stop  offset="0" style="stop-color:#FFFFFF;stop-opacity:0"/>
				<stop  offset="1" style="stop-color:#BABABA"/>
			</linearGradient>
			<path class="st0" d="M1139.54,656.72l41.62-24.05c0,0,5.53-3.21,0.98-6.35c-4.55-3.14-156.5-89.31-156.5-89.31l-53.15,28.36
				l157.18,90.65C1129.68,656.02,1134.47,659.9,1139.54,656.72z"/>
			
				<linearGradient id="SVGID_00000116947562243732985140000013103899040903968642_" gradientUnits="userSpaceOnUse" x1="1065.4396" y1="188.2699" x2="1109.7999" y2="197.3695">
				<stop  offset="0" style="stop-color:#FFFFFF;stop-opacity:0"/>
				<stop  offset="1" style="stop-color:#B3B3B3"/>
			</linearGradient>
			<path style="fill:url(#SVGID_00000116947562243732985140000013103899040903968642_);" d="M1165.32,206.56l-69.85-40.53
				c0,0-6.59-4.92-13.1-0.84c-6.51,4.08-21.74,12.58-21.74,12.58s-5.03,4.4-0.18,7.45s77.97,47.57,77.97,47.57
				s19.64-18.85,13.04-14.35S1165.32,206.56,1165.32,206.56z"/>
			<path class="st2" d="M1136.61,189.73c-6.64-3.87-34.65,16.83-34.65,16.83s4.89,2.98,0,0c-3.34-2.03,36.11,26.01,36.46,26.23
				l26.63,16.52l35.79,22.32l8.72,4.65l-163.63,94.83l-170.15-104.1c-3.05-2.08-10.31-6.61-16.36-3.03
				c-8,4.73-41.39,22.97-41.39,22.97L645.1,399.91l0.14,0.1l-90.17,52.25l0,0l-24.71,13.56c0,0-6.02,4.12,0.14,8.55
				c5.29,3.81,94.51,66.4,119.8,84.13l0.03,0.34l0.82,0.26c0.83,0.58,1.59,1.12,2.26,1.58L496.34,665.75
				c-0.6-0.02,25.48,13.04,33.4,17.99l155.81-90.21c1.4,0.09,3.51,0.66,6.51,2.57c6.29,3.99,123.89,71.53,123.89,71.53
				s4.27,4.7,14.08,0c9.82-4.7,154.85-89.66,154.85-89.66l4.9-2.62c0,0,90.6-7.27,51.62-29.39l-27.37-16.94l-9.89-7.55
				c-1.32-1.1-3-2.42-5.15-4.04c-10.76-6.25,157.8-97.98,157.8-97.98s9.83-10.36-2.03-18.07c-11.86-7.72-45.13-25.12-45.13-25.12
				s-4.23-2.46,0-5.99c4.23-3.53,129.98-75.55,129.98-75.55l26.8-15.86l0.29-13.95C1266.71,264.9,1148.49,196.66,1136.61,189.73z
				 M1062.2,422.34c-30.64,18.33-95.13,56.25-95.13,56.25l-35.46,22.62l53.28,29.61c0,0,3.04,1.57,2.17,5.04
				c-42.23,24.14-158.84,90.66-158.84,90.66s-3.82,3.47-11.14,0.13c-6.78-3.09-70.72-39.87-80.25-45.35l-49.65-29l0,0l0,0
				l-0.02-0.01l-3.45-2.16l-0.01,0.01l-6.75-4.2l-91.77-62.17c0,0-19.2-10.25-9.7-15.39c4.52-2.45,7.98-4.3,10.58-5.68l0.19,0.06
				l4.87-2.73c1.42-0.74,1.97-1.02,1.97-1.02l-0.12-0.02l75.76-42.5h0l192.39-121.16l5.59-3.34
				c37.44,23.53,187.81,118.02,193.73,121.71C1067.2,417.93,1062.21,422.33,1062.2,422.34z"/>
			
				<linearGradient id="SVGID_00000042722185209427716570000014090483950819339191_" gradientUnits="userSpaceOnUse" x1="452.726" y1="713.9415" x2="514.9064" y2="672.9934">
				<stop  offset="0" style="stop-color:#FFFFFF;stop-opacity:0"/>
				<stop  offset="1" style="stop-color:#A3A3A3"/>
			</linearGradient>
			<path style="fill:url(#SVGID_00000042722185209427716570000014090483950819339191_);" d="M498.58,663.24l-42.6,27.93
				c-1.79,1.17-1.76,3.81,0.06,4.93c0.42,0.26,0.86,0.53,1.29,0.81c2.22,1.41,20.12,12.02,25.76,15.36c1.03,0.61,2.31,0.53,3.26-0.2
				c1.39-1.07,3.41-2.6,4.71-3.55c1.74-1.27,28.01-17.91,38.29-24.42c1.86-1.18,1.8-3.9-0.1-5l-27.61-15.95
				C500.69,662.6,499.51,662.63,498.58,663.24z"/>
		</g>
		<path class="st4" d="M1202.54,418.48l78.66,45.09c0,0,15.38,9.32,31.47,0.32c16.08-9,172.74-100.1,172.74-100.1
			s14.98-9.77,0.7-18.2s-157.71-90.61-157.71-90.61l-205.39,118.58L1202.54,418.48z"/>
		<path class="st4" d="M609.41,404.23L468.17,321.5c0,0-16.34-9.3-0.52-18.47C483.47,293.87,719.9,158,719.9,158
			s13.73-10.21,31.47,0l136,78.32L609.41,404.23z"/>
	</g>
	<g id="그림자" class="st5">
		
			<linearGradient id="SVGID_00000057864839192586151620000004246631362461927839_" gradientUnits="userSpaceOnUse" x1="1045.7279" y1="702.6894" x2="922.8837" y2="569.2289">
			<stop  offset="0" style="stop-color:#FFFFFF;stop-opacity:0"/>
			<stop  offset="1" style="stop-color:#000000"/>
		</linearGradient>
		<polygon style="opacity:0.32;fill:url(#SVGID_00000057864839192586151620000004246631362461927839_);" points="824.34,623.77 
			979.41,729.89 1129.19,631.77 980.39,533.51 		"/>
		
			<linearGradient id="SVGID_00000003090306946487240470000009781449158891671709_" gradientUnits="userSpaceOnUse" x1="822.1586" y1="849.5894" x2="728.8879" y2="747.2191">
			<stop  offset="0" style="stop-color:#FFFFFF;stop-opacity:0"/>
			<stop  offset="1" style="stop-color:#000000"/>
		</linearGradient>
		<polygon style="opacity:0.32;fill:url(#SVGID_00000003090306946487240470000009781449158891671709_);" points="691.14,777.76 
			796.05,847.43 854.02,812.59 756.93,735.71 		"/>
		
			<linearGradient id="SVGID_00000143595902280454982370000003849781774688861057_" gradientUnits="userSpaceOnUse" x1="1457.6674" y1="414.3892" x2="1381.8376" y2="362.825">
			<stop  offset="0" style="stop-color:#FFFFFF;stop-opacity:0"/>
			<stop  offset="1" style="stop-color:#000000"/>
		</linearGradient>
		<polygon style="opacity:0.32;fill:url(#SVGID_00000143595902280454982370000003849781774688861057_);" points="1327.96,398.55 
			1413.79,440.77 1512.37,379.22 1431.24,338.92 		"/>
		
			<linearGradient id="SVGID_00000077325041036198771800000003436039577123775678_" gradientUnits="userSpaceOnUse" x1="1264.6389" y1="421.6873" x2="1231.2738" y2="385.2891">
			<stop  offset="0" style="stop-color:#FFFFFF;stop-opacity:0"/>
			<stop  offset="1" style="stop-color:#000000"/>
		</linearGradient>
		<polygon style="opacity:0.32;fill:url(#SVGID_00000077325041036198771800000003436039577123775678_);" points="1276.15,376.52 
			1303.59,391.91 1227.2,432.58 1187.14,409.42 		"/>
		
			<linearGradient id="SVGID_00000015313376077537400810000007204383273733607614_" gradientUnits="userSpaceOnUse" x1="1156.1722" y1="361.7019" x2="1106.8829" y2="318.479">
			<stop  offset="0" style="stop-color:#FFFFFF;stop-opacity:0"/>
			<stop  offset="1" style="stop-color:#000000"/>
		</linearGradient>
		<polygon style="opacity:0.32;fill:url(#SVGID_00000015313376077537400810000007204383273733607614_);" points="1055.67,351.87 
			1114.54,391.2 1211.36,331.8 1156.62,291.6 		"/>
		
			<linearGradient id="SVGID_00000011029403723817058020000009909882067462020246_" gradientUnits="userSpaceOnUse" x1="753.2577" y1="339.5583" x2="713.8262" y2="304.6766">
			<stop  offset="0" style="stop-color:#FFFFFF;stop-opacity:0"/>
			<stop  offset="1" style="stop-color:#000000"/>
		</linearGradient>
		<polygon style="opacity:0.32;fill:url(#SVGID_00000011029403723817058020000009909882067462020246_);" points="599.37,357.23 
			647.62,400.51 858.33,279.3 811.99,237.11 		"/>
		
			<linearGradient id="SVGID_00000140713617291701595050000002482893780733075843_" gradientUnits="userSpaceOnUse" x1="1075.2285" y1="475.3833" x2="1015.323" y2="425.3356">
			<stop  offset="0" style="stop-color:#FFFFFF;stop-opacity:0"/>
			<stop  offset="1" style="stop-color:#000000"/>
		</linearGradient>
		<polygon style="opacity:0.32;fill:url(#SVGID_00000140713617291701595050000002482893780733075843_);" points="997.72,442.8 
			1054.07,483.03 1093.55,458.52 1037.31,419.94 		"/>
		
			<linearGradient id="SVGID_00000049936082348989087110000004662674790788731281_" gradientUnits="userSpaceOnUse" x1="1208.4393" y1="527.6308" x2="1152.3253" y2="498.0572">
			<stop  offset="0" style="stop-color:#FFFFFF;stop-opacity:0"/>
			<stop  offset="1" style="stop-color:#000000"/>
		</linearGradient>
		<polygon style="opacity:0.32;fill:url(#SVGID_00000049936082348989087110000004662674790788731281_);" points="1151.86,504.06 
			1208.16,530.84 1216.31,525.53 1167.55,501.16 		"/>
		
			<linearGradient id="SVGID_00000133513939120281466620000009040040775635589803_" gradientUnits="userSpaceOnUse" x1="1144.5988" y1="647.0195" x2="1069.5273" y2="584.0808">
			<stop  offset="0" style="stop-color:#FFFFFF;stop-opacity:0"/>
			<stop  offset="1" style="stop-color:#000000"/>
		</linearGradient>
		<polygon style="opacity:0.32;fill:url(#SVGID_00000133513939120281466620000009040040775635589803_);" points="1098.31,575.42 
			1176.4,614.72 1087.3,650.36 1011.9,594.73 		"/>
		
			<linearGradient id="SVGID_00000065066858234246282370000018267850005261034936_" gradientUnits="userSpaceOnUse" x1="1127.1843" y1="197.6279" x2="1073.3452" y2="161.2296">
			<stop  offset="0" style="stop-color:#FFFFFF;stop-opacity:0"/>
			<stop  offset="1" style="stop-color:#000000"/>
		</linearGradient>
		<polygon style="opacity:0.32;fill:url(#SVGID_00000065066858234246282370000018267850005261034936_);" points="1068.07,166.12 
			1130.21,205.06 1139.06,197.2 1077.42,160.7 		"/>
		
			<linearGradient id="SVGID_00000033342399930156593420000005375349013273497993_" gradientUnits="userSpaceOnUse" x1="1253.1501" y1="311.1379" x2="1184.9033" y2="270.9481">
			<stop  offset="0" style="stop-color:#FFFFFF;stop-opacity:0"/>
			<stop  offset="1" style="stop-color:#000000"/>
		</linearGradient>
		<polygon style="opacity:0.32;fill:url(#SVGID_00000033342399930156593420000005375349013273497993_);" points="1176.13,273.63 
			1254.31,320.08 1262.55,312.15 1191.49,266.57 		"/>
	</g>
	<g id="조형물">
		<g>
			<path class="st17" d="M556.6,408.07v13.57c0,0,2.88,3.91,5.3,0v-13.57H556.6z"/>
			<path class="st18" d="M575.92,396.47c-2.33,6.4-8.67,11.6-16.43,11.6c-7.46,0-14.08-4.81-16.43-11.6
				c-2-5.79-0.87-12.99,3.87-17.39c4.68-4.35,10.77-4.02,13.53-3.87c2.9,0.16,9.4,0.51,13.53,5.8
				C579.05,387.47,576.2,395.72,575.92,396.47z"/>
			<path class="st19" d="M572.26,379.39c0,0-4.06,17.92-24.83,23.8c0,0,10.96,13.45,26.02,0c1.09-0.97,4.94-5.35,4.8-11.58
				c-0.1-4.51-2.3-7.84-2.97-8.82C574.23,381.24,573.11,380.13,572.26,379.39z"/>
			<path class="st18" d="M571.81,372.18c-1.78,4.89-6.63,8.86-12.55,8.86c-5.7,0-10.76-3.67-12.55-8.86
				c-1.53-4.42-0.67-9.92,2.95-13.28c3.57-3.32,8.22-3.07,10.33-2.95c2.22,0.12,7.18,0.39,10.33,4.43
				C574.19,365.31,572.02,371.61,571.81,372.18z"/>
			<path class="st19" d="M568.25,358.38c0,0-3.1,13.69-18.96,18.17c0,0,8.37,10.28,19.87,0
				C569.16,376.56,577.99,368.2,568.25,358.38z"/>
		</g>
		<g>
			<path class="st17" d="M968.44,605.08v13.57c0,0,2.88,3.91,5.3,0v-13.57H968.44z"/>
			<path class="st18" d="M987.76,593.48c-2.33,6.4-8.67,11.6-16.43,11.6c-7.46,0-14.08-4.81-16.43-11.6
				c-2-5.79-0.87-12.99,3.87-17.39c4.68-4.35,10.77-4.02,13.53-3.87c2.9,0.16,9.4,0.51,13.53,5.8
				C990.89,584.48,988.04,592.73,987.76,593.48z"/>
			<path class="st19" d="M984.1,576.4c0,0-4.06,17.92-24.83,23.8c0,0,10.96,13.46,26.02,0c1.09-0.97,4.94-5.35,4.8-11.58
				c-0.1-4.51-2.3-7.84-2.97-8.82C986.07,578.25,984.95,577.14,984.1,576.4z"/>
			<path class="st18" d="M983.65,569.19c-1.78,4.89-6.63,8.86-12.55,8.86c-5.7,0-10.76-3.67-12.55-8.86
				c-1.53-4.42-0.67-9.92,2.95-13.28c3.57-3.32,8.22-3.07,10.33-2.95c2.22,0.12,7.18,0.39,10.33,4.43
				C986.03,562.32,983.86,568.62,983.65,569.19z"/>
			<path class="st19" d="M980.09,555.39c0,0-3.1,13.69-18.96,18.17c0,0,8.37,10.28,19.87,0C981,573.57,989.83,565.21,980.09,555.39z
				"/>
		</g>
		<g>
			<path class="st17" d="M888.25,214.03v13.57c0,0,2.88,3.91,5.3,0v-13.57H888.25z"/>
			<path class="st20" d="M907.57,202.43c-2.33,6.4-8.67,11.6-16.43,11.6c-7.46,0-14.08-4.81-16.43-11.6
				c-2-5.79-0.87-12.99,3.87-17.39c4.68-4.35,10.77-4.02,13.53-3.87c2.9,0.16,9.4,0.51,13.53,5.8
				C910.7,193.43,907.85,201.68,907.57,202.43z"/>
			<path class="st21" d="M903.91,185.35c0,0-4.06,17.92-24.83,23.8c0,0,10.96,13.45,26.02,0c1.09-0.97,4.94-5.35,4.8-11.58
				c-0.1-4.51-2.3-7.84-2.97-8.82C905.88,187.2,904.76,186.09,903.91,185.35z"/>
			<path class="st20" d="M903.46,178.14c-1.78,4.89-6.63,8.86-12.55,8.86c-5.7,0-10.76-3.67-12.55-8.86
				c-1.53-4.42-0.67-9.92,2.95-13.28c3.57-3.32,8.22-3.07,10.33-2.95c2.22,0.12,7.18,0.39,10.33,4.43
				C905.84,171.27,903.67,177.57,903.46,178.14z"/>
			<path class="st21" d="M899.9,164.34c0,0-3.1,13.69-18.96,18.17c0,0,8.37,10.28,19.87,0C900.81,182.52,909.64,174.16,899.9,164.34
				z"/>
		</g>
		<g>
			<path class="st17" d="M1469.38,395.2v13.57c0,0,2.88,3.91,5.3,0V395.2H1469.38z"/>
			<path class="st20" d="M1488.7,383.6c-2.33,6.4-8.67,11.6-16.43,11.6c-7.46,0-14.08-4.81-16.43-11.6
				c-2-5.79-0.87-12.99,3.87-17.39c4.68-4.35,10.77-4.02,13.53-3.87c2.9,0.16,9.4,0.51,13.53,5.8
				C1491.83,374.6,1488.98,382.85,1488.7,383.6z"/>
			<path class="st21" d="M1485.04,366.52c0,0-4.06,17.92-24.83,23.8c0,0,10.96,13.45,26.02,0c1.09-0.97,4.94-5.35,4.8-11.58
				c-0.1-4.51-2.3-7.84-2.97-8.82C1487.01,368.37,1485.89,367.26,1485.04,366.52z"/>
			<path class="st20" d="M1484.59,359.31c-1.78,4.89-6.63,8.86-12.55,8.86c-5.69,0-10.76-3.67-12.55-8.86
				c-1.53-4.42-0.67-9.92,2.95-13.28c3.57-3.32,8.22-3.07,10.33-2.95c2.22,0.12,7.18,0.39,10.33,4.43
				C1486.97,352.44,1484.8,358.74,1484.59,359.31z"/>
			<path class="st21" d="M1481.03,345.51c0,0-3.1,13.69-18.96,18.17c0,0,8.37,10.28,19.87,0
				C1481.94,363.69,1490.77,355.33,1481.03,345.51z"/>
		</g>
		<g>
			<polygon class="st22" points="945.83,149.87 938.61,153.1 947.52,159.04 958.41,154.09 950.59,148.03 			"/>
			<path class="st17" d="M916.83,211.51c0,0,1.12,0.99,2.04,0c0.93-0.99,0-74.48,0-74.48l24.69,13.1c0,0,0,4.95,3.96,2.97
				c0,0,3.96-4.95-2.97-4.95l-24.75-12.87c0,0-2.97-2.49-2.97,0.74C916.83,139.24,916.83,211.51,916.83,211.51z"/>
			<polygon class="st23" points="947.52,159.04 947.52,178.17 958.41,173.16 958.41,154.09 			"/>
			<polygon class="st24" points="938.61,153.1 938.61,172.9 947.52,178.17 947.52,159.04 			"/>
			<polygon class="st25" points="947.52,177.85 947.52,196.98 958.41,191.97 958.41,172.9 			"/>
			<polygon class="st26" points="938.61,171.91 938.61,191.71 947.52,196.98 947.52,177.85 			"/>
		</g>
		<g>
			<polygon class="st22" points="1521.02,324.11 1513.8,327.34 1522.71,333.28 1533.6,328.33 1525.78,322.27 			"/>
			<path class="st17" d="M1492.02,385.75c0,0,1.12,0.99,2.04,0c0.93-0.99,0-74.48,0-74.48l24.69,13.1c0,0,0,4.95,3.96,2.97
				c0,0,3.96-4.95-2.97-4.95l-24.75-12.87c0,0-2.97-2.49-2.97,0.74S1492.02,385.75,1492.02,385.75z"/>
			<polygon class="st23" points="1522.71,333.28 1522.71,352.41 1533.6,347.4 1533.6,328.33 			"/>
			<polygon class="st24" points="1513.8,327.34 1513.8,347.14 1522.71,352.41 1522.71,333.28 			"/>
			<polygon class="st25" points="1522.71,352.09 1522.71,371.22 1533.6,366.21 1533.6,347.14 			"/>
			<polygon class="st26" points="1513.8,346.15 1513.8,365.95 1522.71,371.22 1522.71,352.09 			"/>
		</g>
		<g>
			<polygon class="st22" points="1158.1,547.64 1165.32,550.87 1156.41,556.81 1145.52,551.86 1153.34,545.8 			"/>
			<path class="st17" d="M1181.16,609.28c0,0,1.12,0.99,2.04,0c0.93-0.99,0-74.48,0-74.48s-2.04-4.23-2.04-1.01
				C1181.16,537.01,1181.16,609.28,1181.16,609.28z"/>
			<path class="st17" d="M1181.23,534.8l-24.69,13.1c0,0,0,4.95-3.96,2.97c0,0-3.96-4.95,2.97-4.95l24.75-12.87
				c0,0,2.97-2.49,2.97,0.74C1183.28,537.01,1181.23,534.8,1181.23,534.8z"/>
			<polygon class="st23" points="1156.41,556.81 1156.41,575.94 1145.52,570.93 1145.52,551.86 			"/>
			<polygon class="st24" points="1165.32,550.87 1165.32,570.67 1156.41,575.94 1156.41,556.81 			"/>
			<polygon class="st25" points="1156.41,575.62 1156.41,594.75 1145.52,589.74 1145.52,570.67 			"/>
			<polygon class="st26" points="1165.32,569.68 1165.32,589.48 1156.41,594.75 1156.41,575.62 			"/>
		</g>
		<g>
			<polygon class="st22" points="770.02,615.95 777.24,619.18 768.33,625.12 757.44,620.17 765.26,614.11 			"/>
			<path class="st17" d="M793.08,677.59c0,0,1.12,0.99,2.04,0c0.93-0.99,0-74.48,0-74.48s-2.04-4.23-2.04-1.01
				C793.08,605.32,793.08,677.59,793.08,677.59z"/>
			<path class="st17" d="M793.15,603.11l-24.69,13.1c0,0,0,4.95-3.96,2.97c0,0-3.96-4.95,2.97-4.95l24.75-12.87
				c0,0,2.97-2.49,2.97,0.74C795.2,605.32,793.15,603.11,793.15,603.11z"/>
			<polygon class="st23" points="768.33,625.12 768.33,644.25 757.44,639.24 757.44,620.17 			"/>
			<polygon class="st24" points="777.24,619.18 777.24,638.98 768.33,644.25 768.33,625.12 			"/>
			<polygon class="st25" points="768.33,643.93 768.33,663.06 757.44,658.05 757.44,638.98 			"/>
			<polygon class="st26" points="777.24,637.99 777.24,657.79 768.33,663.06 768.33,643.93 			"/>
		</g>
	</g>
</g>
</svg>
