<?xml version="1.0" encoding="utf-8"?>
<!-- Generator: Adobe Illustrator 26.3.1, SVG Export Plug-In . SVG Version: 6.00 Build 0)  -->
<svg version="1.1" id="map_x5F_sun" xmlns="http://www.w3.org/2000/svg" xmlns:xlink="http://www.w3.org/1999/xlink" x="0px"
	 y="0px" viewBox="0 0 1920 900" style="enable-background:new 0 0 1920 900;" xml:space="preserve">
<style type="text/css">
	.st0{fill:#4F3244;}
	.st1{fill:#3A2534;}
	.st2{fill:#A06E6E;}
	.st3{fill:#C9C3B5;}
	.st4{fill:#473140;}
	.st5{fill:#BCB6AA;}
	.st6{fill:#E2DED5;}
	.st7{clip-path:url(#SVGID_00000124132637649103123350000015705934623710681481_);fill:#E2DED5;}
	.st8{fill:#B27D7D;}
	.st9{fill:#C78A89;}
	.st10{fill:#A57676;}
</style>
<g>
	<g id="사정전">
		<polygon class="st0" points="1033.19,419.51 893.23,340.62 893.23,272.6 1033.19,351.73 		"/>
		<polygon class="st1" points="1038.31,348.02 1033.19,351.73 893.23,272.6 900.71,268.29 		"/>
		<ellipse class="st2" cx="1011.88" cy="349.64" rx="5.02" ry="5.81"/>
		<ellipse class="st3" cx="920.39" cy="300.6" rx="5.02" ry="5.81"/>
		<polygon class="st4" points="1033.19,431.34 1038.31,428.39 1038.31,348.02 1033.19,351.73 		"/>
		<polygon class="st3" points="1033.19,419.51 995.68,441.17 857.38,361.32 893.23,340.62 		"/>
		<polygon class="st5" points="995.68,453 1033.19,431.34 1033.19,419.51 995.68,441.17 		"/>
		<polygon class="st6" points="995.68,441.17 995.68,453 857.38,373.15 857.38,361.32 		"/>
		<g>
			<defs>
				<polygon id="SVGID_1_" points="1033.19,419.51 893.23,340.62 893.23,272.6 1033.19,351.73 				"/>
			</defs>
			<clipPath id="SVGID_00000147195617889007464920000009969350436427775662_">
				<use xlink:href="#SVGID_1_"  style="overflow:visible;"/>
			</clipPath>
			<path style="clip-path:url(#SVGID_00000147195617889007464920000009969350436427775662_);fill:#E2DED5;" d="M1036.69,406.56
				c1.57-6.31,1.43-12.82-0.19-18.96c0.1-0.25,0.15-0.54,0.1-0.86c-1.3-8.94-4.17-18.36-12.08-23.63
				c-5.71-3.81-13.51-3.92-18.71,0.39c-1.6-6.85-5.6-13.52-12.21-16.39c-5.18-2.25-11.37-1.86-15.9,1.31
				c0.61-8.39,0.52-17.16-4.12-24.47c-1.12-1.77-2.49-3.48-4.15-4.77c-1-0.78-2.07-1.21-3.19-1.37c-5.01-1.63-10.64-0.42-15,2.42
				c-4.05,2.64-7.08,6.47-9.54,10.58c-0.43,0.36-0.85,0.72-1.28,1.08c-1.27-6.08-3.26-12.26-8.76-15.79
				c-2.73-1.76-5.98-2.35-9.15-1.62c-2.82,0.65-5.31,2.2-7.63,3.91c-1.55-5.88-4.04-12.26-9.95-14.71
				c-6.31-2.62-14.03,1.45-15.68,8.01c-0.22,0.89,0.3,1.54,0.97,1.78c-0.42,1.67-0.1,3.52,1.14,4.81c-0.53,2.35-0.86,4.75-1.05,7.15
				c-0.4,5.16,0.04,10.34,0.49,15.49c0.19,2.17,1.19,3.98,3.27,4.86c1.75,0.74,3.82,0.49,5.33-0.67c0.22,0.21,0.46,0.41,0.72,0.6
				c8.18,5.9,16.36,11.8,24.55,17.7c7.82,5.64,15.53,11.55,23.93,16.31c4.23,2.39,8.66,4.4,12.97,6.62
				c4.38,2.25,8.63,4.76,12.87,7.28c8.63,5.15,17.26,10.31,25.89,15.47l29.32,17.51c3.34,2,8.21-0.53,8-4.59
				C1037.37,416.86,1037.05,411.71,1036.69,406.56z"/>
		</g>
		<polygon class="st4" points="979.34,352.46 982.83,350.49 982.83,391.25 979.34,393.26 		"/>
		<path class="st1" d="M982.83,350.49"/>
		<polygon class="st1" points="982.83,350.49 979.34,352.46 927.54,321.8 931.19,319.38 		"/>
		<path class="st0" d="M927.54,321.8v42.48l51.8,28.98v-40.8L927.54,321.8z M943.08,367.81l-11.78-6.49v-34.1l11.78,6.75V367.81z
			 M975.96,386.86l-11.78-6.49v-34.1l11.78,6.75V386.86z"/>
		<g>
			<path class="st8" d="M916.47,372.01v17.74l22.14-12.79v-17.74L916.47,372.01z M936.96,366.1l-18.83,11.32v-5.41l18.83-10.97
				V366.1z"/>
			<polygon class="st2" points="938.62,367.05 960.93,379.93 940.44,392.26 916.48,380.63 			"/>
			<polyline class="st9" points="940.44,391.76 916.48,377.93 916.48,389.76 940.44,403.59 			"/>
			<polygon class="st10" points="938.62,367.05 938.62,348.88 962.58,363.14 962.58,380.89 			"/>
			<path class="st8" d="M940.44,385.84v17.74l22.14-12.79v-17.74L940.44,385.84z M960.93,379.93l-18.83,11.32v-5.41l18.83-10.97
				V379.93z"/>
			<polygon class="st8" points="962.58,363.14 965.77,361.04 965.77,388.96 962.58,390.8 			"/>
			<polygon class="st2" points="965.77,361.04 941.61,346.65 938.62,348.88 962.58,363.14 			"/>
			<polygon class="st10" points="944.86,352.73 944.86,348.07 956.51,354.72 956.51,359.68 			"/>
			<polygon class="st8" points="956.51,354.72 959.53,352.73 959.53,357.56 956.51,359.68 			"/>
			<polygon class="st2" points="959.53,352.73 956.51,354.72 944.86,348.07 948.07,346.27 			"/>
			<polygon class="st10" points="962.58,363.14 962.58,360.24 961.31,359.51 961.31,362.41 			"/>
			<polygon class="st8" points="962.58,360.24 962.58,363.14 965.77,361.04 965.77,358.27 			"/>
			<polygon class="st2" points="961.31,359.51 962.58,360.24 965.77,358.27 964.62,357.53 			"/>
			<polygon class="st10" points="939.89,349.64 939.89,346.74 938.62,346 938.62,348.9 			"/>
			<polygon class="st8" points="939.89,346.74 939.89,349.64 943.08,347.54 943.08,344.76 			"/>
			<polygon class="st2" points="938.62,346 939.89,346.74 943.08,344.76 941.93,344.03 			"/>
		</g>
		<path class="st0" d="M979.34,352.46v40.8c0,0,7.05,16.69,7.21,17.31c0.16,0.62,0-45.01,0-45.01L979.34,352.46z"/>
		<polygon class="st4" points="986.55,410.57 990.12,409.8 990.12,364.88 986.55,365.56 		"/>
		<polygon class="st1" points="986.55,365.56 990.12,364.88 982.83,350.49 979.34,352.46 		"/>
		<polygon class="st0" points="927.54,321.8 915.38,320.39 915.38,362.15 927.54,364.28 		"/>
		<polygon class="st1" points="915.38,320.39 927.54,321.8 931.19,319.38 918.13,317.5 		"/>
	</g>
</g>
</svg>
