<?xml version="1.0" encoding="utf-8"?>
<!-- Generator: Adobe Illustrator 26.3.1, SVG Export Plug-In . SVG Version: 6.00 Build 0)  -->
<svg version="1.1" id="map_x5F_sun" xmlns="http://www.w3.org/2000/svg" xmlns:xlink="http://www.w3.org/1999/xlink" x="0px"
	 y="0px" viewBox="0 0 1920 900" style="enable-background:new 0 0 1920 900;" xml:space="preserve">
<style type="text/css">
	.st0{fill:#4F3244;}
	.st1{fill:#473140;}
	.st2{fill:#422C3D;}
	.st3{fill:#3A2534;}
</style>
<g>
	<g id="소주방">
		<g>
			<path class="st0" d="M993.54,502.92c0,0-29.86,82.17,20.29,107.56c0,0,15.5,4.2,30.33,0c0,0,41.82-41.65,8.94-107.38
				L993.54,502.92z"/>
			<path class="st1" d="M1036.09,510.1c0,0,17.86,59.59,0,102.24l8.07-1.87c0,0,41.29-41.35,8.94-107.38L1036.09,510.1z"/>
			<path class="st2" d="M996.58,491.84c0,0-4.54,3.77-5.43,9.38c6.91,5.19,13.3,7.52,17.28,8.65c18.96,5.36,35.39-1.97,40.31-4.25
				c3.51-1.63,6.22-3.28,7.92-4.4c-1.7-3.6-3.37-6.78-5.82-8.17C1047.87,491.36,996.58,491.84,996.58,491.84z"/>
			<ellipse class="st3" cx="1023.61" cy="493.05" rx="27.23" ry="10.05"/>
		</g>
		<g>
			<path class="st0" d="M1061.48,524.42c0,0-18.94,52.12,12.87,68.23c0,0,9.83,2.67,19.24,0c0,0,26.53-26.42,5.67-68.11
				L1061.48,524.42z"/>
			<path class="st1" d="M1088.47,528.98c0,0,11.33,37.8,0,64.86l5.12-1.19c0,0,26.19-26.23,5.67-68.11L1088.47,528.98z"/>
			<path class="st2" d="M1063.4,517.39c0,0-2.88,2.39-3.45,5.95c4.39,3.29,8.44,4.77,10.96,5.49c12.03,3.4,22.45-1.25,25.57-2.7
				c2.23-1.03,3.94-2.08,5.02-2.79c-1.08-2.29-2.14-4.3-3.69-5.18C1095.94,517.09,1063.4,517.39,1063.4,517.39z"/>
			<ellipse class="st3" cx="1080.55" cy="518.16" rx="17.27" ry="6.37"/>
		</g>
		<g>
			<path class="st0" d="M1041.53,542.93c0,0-18.94,52.12,12.87,68.23c0,0,9.83,2.67,19.24,0c0,0,26.53-26.42,5.67-68.11
				L1041.53,542.93z"/>
			<path class="st1" d="M1068.52,547.49c0,0,11.33,37.8,0,64.86l5.12-1.19c0,0,26.19-26.23,5.67-68.11L1068.52,547.49z"/>
			<path class="st2" d="M1043.46,535.9c0,0-2.88,2.39-3.45,5.95c4.39,3.29,8.44,4.77,10.96,5.49c12.03,3.4,22.45-1.25,25.57-2.7
				c2.23-1.03,3.94-2.08,5.02-2.79c-1.08-2.29-2.14-4.3-3.69-5.18C1075.99,535.6,1043.46,535.9,1043.46,535.9z"/>
			<ellipse class="st3" cx="1060.61" cy="536.67" rx="17.27" ry="6.37"/>
		</g>
	</g>
</g>
</svg>
