<?xml version="1.0" encoding="utf-8"?>
<!-- Generator: Adobe Illustrator 26.3.1, SVG Export Plug-In . SVG Version: 6.00 Build 0)  -->
<svg version="1.1" id="map_x5F_sun" xmlns="http://www.w3.org/2000/svg" xmlns:xlink="http://www.w3.org/1999/xlink" x="0px"
	 y="0px" viewBox="0 0 1920 900" style="enable-background:new 0 0 1920 900;" xml:space="preserve">
<style type="text/css">
	.st0{fill:#473140;}
	.st1{fill:#E5E1D6;}
	.st2{fill:#F4F2ED;}
	.st3{fill:#A59E92;}
	.st4{fill:#DBD7CC;}
	.st5{fill:#E2DED5;}
	.st6{fill:#EAE6DA;}
	.st7{fill:#B27D7D;}
	.st8{fill:#C5BCB5;}
	.st9{fill:#E2E1DC;}
	.st10{fill:#4F3244;}
	.st11{fill:#E7E7DD;}
	.st12{fill:#D1C9B8;}
	.st13{clip-path:url(#SVGID_00000129884684056860473130000014218460576031234697_);}
	.st14{fill:none;stroke:#FFFFFF;stroke-width:0.5;stroke-miterlimit:10;}
	.st15{fill:#F4F2E9;}
	.st16{fill:#3A2534;}
	.st17{clip-path:url(#SVGID_00000000941923136347521350000004349743043814200255_);}
	.st18{fill:none;stroke:#C4BFB8;stroke-width:2;stroke-miterlimit:10;}
	.st19{fill:#2D1928;stroke:#8D8599;stroke-width:4;stroke-miterlimit:10;}
	.st20{fill:#6A6572;}
	
		.st21{clip-path:url(#SVGID_00000008839239664410863290000000787483495983755187_);fill:none;stroke:#FFFFFF;stroke-width:0.5;stroke-miterlimit:10;}
	.st22{fill:#33664A;}
	.st23{fill:#C78A89;}
	.st24{fill:#D3D3D3;}
	.st25{fill:#DFDDD0;}
	.st26{fill:#A06E6E;}
	.st27{fill:#CECECE;}
	.st28{fill:#FFFFFF;}
	.st29{font-family:'YetR-HM';}
	.st30{font-size:9.1445px;}
</style>
<g>
	<g id="광화문">
		<polygon class="st0" points="643.74,505.83 667.12,535.37 689.29,541.69 608.01,579.95 		"/>
		<polygon class="st0" points="537.27,456.33 536.12,455.61 536.05,455.61 536.06,454.31 534.7,450 533.68,454.74 533.68,455.65 
			532.47,456.33 533.68,456.9 533.68,461.22 535.99,460.72 536.03,457.13 		"/>
		<polygon class="st1" points="689.29,790.36 702.92,782.49 659.62,702.29 647.88,709.07 		"/>
		<polygon class="st2" points="659.62,702.29 620.96,660.94 609.14,667.57 647.88,709.07 		"/>
		<polygon class="st3" points="620.96,660.94 671.58,632.54 671.64,660.63 638.39,679.58 		"/>
		<polygon class="st4" points="671.64,660.63 691.97,683.61 691.97,654.92 671.45,632.61 		"/>
		<polygon class="st5" points="659.62,702.29 691.97,683.61 671.64,660.63 638.39,679.58 		"/>
		<polygon class="st6" points="691.97,683.61 741.67,760.12 702.92,782.49 659.62,702.29 		"/>
		<polygon class="st2" points="671.45,632.61 683.69,625.75 713.05,671.8 702.92,677.34 		"/>
		<polygon class="st1" points="713.05,671.8 757.48,752.37 747.94,758.4 702.92,677.34 		"/>
		<polygon class="st7" points="609.14,648.45 683.69,607.3 683.69,617.53 609.46,658.19 		"/>
		<g>
			<polygon class="st8" points="609.14,667.57 609.46,658.19 683.69,617.53 683.69,625.75 			"/>
			<polygon class="st8" points="608.01,597.38 652.02,572.78 652.02,556.91 608.01,579.95 			"/>
		</g>
		<g>
			<polygon class="st9" points="465.66,584.73 465.66,575.17 609.46,658.19 609.14,667.57 			"/>
			<polygon class="st9" points="608.01,579.95 487.35,525.17 487.35,541.29 608.01,597.38 			"/>
		</g>
		<g>
			<g>
				<polygon class="st10" points="608.01,597.38 487.35,541.29 450.27,560.68 609.14,648.45 				"/>
				<polygon class="st10" points="536.06,459.97 501.47,501.05 457.38,513 608.01,579.95 643.74,505.83 				"/>
			</g>
		</g>
		<polygon class="st4" points="747.94,758.4 741.67,760.12 691.97,683.61 691.36,660.63 702.92,677.34 		"/>
		<polygon class="st11" points="647.88,709.07 609.14,667.57 465.66,584.73 429.56,590.23 374.55,608.64 464.6,660.63 
			609.14,744.09 689.29,790.36 		"/>
		<polygon class="st12" points="464.6,577.15 428.43,584.73 374.55,608.64 429.56,590.23 465.66,584.73 465.66,577.15 		"/>
		<g>
			<defs>
				<polygon id="SVGID_1_" points="536.06,459.97 501.47,501.05 457.38,513 608.01,579.95 643.74,505.83 				"/>
			</defs>
			<clipPath id="SVGID_00000141425988715869815850000017438183766778632109_">
				<use xlink:href="#SVGID_1_"  style="overflow:visible;"/>
			</clipPath>
			<g style="clip-path:url(#SVGID_00000141425988715869815850000017438183766778632109_);">
				<rect x="271.24" y="338.1" class="st14" width="589.83" height="442.37"/>
				<line class="st14" x1="538.39" y1="460.96" x2="484.76" y2="525.17"/>
				<line class="st14" x1="535.5" y1="460.96" x2="481.87" y2="525.17"/>
				<line class="st14" x1="531.91" y1="460.96" x2="478.28" y2="525.17"/>
				<line class="st14" x1="528.87" y1="460.96" x2="475.24" y2="525.17"/>
				<line class="st14" x1="525.83" y1="460.96" x2="472.2" y2="525.17"/>
				<line class="st14" x1="522.79" y1="460.96" x2="469.16" y2="525.17"/>
				<line class="st14" x1="519.75" y1="460.96" x2="466.12" y2="525.17"/>
				<line class="st14" x1="516.71" y1="460.96" x2="463.08" y2="525.17"/>
				<line class="st14" x1="513.67" y1="460.96" x2="460.04" y2="525.17"/>
				<line class="st14" x1="510.63" y1="460.96" x2="457" y2="525.17"/>
				<line class="st14" x1="507.6" y1="460.96" x2="453.97" y2="525.17"/>
				<line class="st14" x1="504.56" y1="460.96" x2="450.93" y2="525.17"/>
				<line class="st14" x1="541.09" y1="462.11" x2="487.35" y2="526.32"/>
				<line class="st14" x1="543.9" y1="463.3" x2="488.83" y2="529.24"/>
				<line class="st14" x1="546.6" y1="464.45" x2="491.42" y2="530.39"/>
				<line class="st14" x1="549.22" y1="465.86" x2="492.89" y2="533.3"/>
				<line class="st14" x1="552.1" y1="466.8" x2="495.48" y2="534.45"/>
				<line class="st14" x1="554.66" y1="468.29" x2="496.96" y2="537.37"/>
				<line class="st14" x1="557.94" y1="468.74" x2="499.55" y2="538.52"/>
				<line class="st14" x1="560.36" y1="470.39" x2="501.03" y2="541.44"/>
				<line class="st14" x1="563.11" y1="471.49" x2="503.61" y2="542.58"/>
				<line class="st14" x1="565.91" y1="472.68" x2="505.09" y2="545.5"/>
				<line class="st14" x1="568.66" y1="473.78" x2="507.68" y2="546.65"/>
				<line class="st14" x1="571.72" y1="474.66" x2="509.16" y2="549.57"/>
				<line class="st14" x1="574.98" y1="475.15" x2="511.74" y2="550.72"/>
				<line class="st14" x1="577.42" y1="476.76" x2="513.22" y2="553.63"/>
				<line class="st14" x1="580.69" y1="477.25" x2="515.81" y2="554.78"/>
				<line class="st14" x1="583.33" y1="478.62" x2="517.29" y2="557.7"/>
				<line class="st14" x1="585.81" y1="480.06" x2="519.87" y2="558.85"/>
				<line class="st14" x1="589.29" y1="480.41" x2="521.35" y2="561.76"/>
				<line class="st14" x1="591.87" y1="481.74" x2="523.94" y2="562.91"/>
				<line class="st14" x1="594.67" y1="482.92" x2="525.42" y2="565.83"/>
				<line class="st14" x1="598.68" y1="482.52" x2="528" y2="566.98"/>
				<line class="st14" x1="603.76" y1="480.96" x2="529.48" y2="569.89"/>
				<line class="st14" x1="605.82" y1="482.92" x2="532.07" y2="571.04"/>
				<line class="st14" x1="607.51" y1="485.41" x2="533.55" y2="573.96"/>
				<line class="st14" x1="610.2" y1="486.6" x2="536.14" y2="575.11"/>
				<line class="st14" x1="612.2" y1="488.71" x2="537.61" y2="578.02"/>
				<line class="st14" x1="615.64" y1="489.03" x2="540.2" y2="579.17"/>
				<line class="st14" x1="620.62" y1="487.57" x2="541.68" y2="582.09"/>
				<line class="st14" x1="620.62" y1="492" x2="544.27" y2="583.24"/>
				<line class="st14" x1="622.4" y1="494.38" x2="545.75" y2="586.16"/>
				<line class="st14" x1="624.99" y1="495.7" x2="548.33" y2="587.3"/>
				<line class="st14" x1="627.67" y1="497" x2="549.81" y2="590.22"/>
				<line class="st14" x1="629.18" y1="499.63" x2="552.4" y2="591.37"/>
				<line class="st14" x1="632.94" y1="499.63" x2="553.88" y2="594.29"/>
				<line class="st14" x1="637.26" y1="498.88" x2="556.46" y2="595.44"/>
				<line class="st14" x1="640.76" y1="499.19" x2="557.94" y2="598.35"/>
				<line class="st14" x1="642.32" y1="501.76" x2="560.53" y2="599.5"/>
				<line class="st14" x1="646.24" y1="501.57" x2="562.01" y2="602.42"/>
				<line class="st14" x1="646.7" y1="505.45" x2="564.59" y2="603.57"/>
				<line class="st14" x1="636.93" y1="521.65" x2="566.07" y2="606.48"/>
				<line class="st14" x1="640.76" y1="521.48" x2="568.66" y2="607.63"/>
				<line class="st14" x1="630.02" y1="538.85" x2="570.14" y2="610.55"/>
				<line class="st14" x1="626.46" y1="547.48" x2="572.72" y2="611.7"/>
			</g>
			<use xlink:href="#SVGID_1_"  style="overflow:visible;fill:none;stroke:#FFFFFF;stroke-width:0.5;stroke-miterlimit:10;"/>
		</g>
		<g>
			<polygon class="st15" points="536.06,459.97 536.06,457.58 643.74,503.51 643.74,505.83 			"/>
			<polygon class="st15" points="643.74,505.83 608.01,579.95 608.01,577.15 643.74,503.51 			"/>
			<polygon class="st15" points="643.74,503.51 667,533.01 667.12,535.37 643.74,505.83 			"/>
			<polygon class="st15" points="667,533.01 689.29,541.69 667.12,535.37 			"/>
			<polygon class="st15" points="536.06,457.58 501.22,497.7 501.47,501.05 536.06,459.97 			"/>
			<polygon class="st15" points="501.22,497.7 457.38,513 501.47,501.05 			"/>
			<polygon class="st15" points="457.38,513 608.01,579.95 608.01,577.15 458.79,512.51 			"/>
			<polygon class="st15" points="608.01,579.95 689.29,541.69 686.57,540.92 609.36,577.15 			"/>
		</g>
		<g>
			<polygon class="st16" points="608.01,597.38 609.14,648.45 702.92,597.38 652.02,572.78 			"/>
			<polygon class="st16" points="667.12,535.37 619.5,556.13 609.36,577.15 686.57,540.92 			"/>
		</g>
		<polygon class="st16" points="507.76,490.17 485.17,503.3 501.22,497.7 		"/>
		<polygon class="st7" points="611.06,578.52 608.01,579.95 608.01,597.38 612.52,594.87 612.52,577.83 		"/>
		<polygon class="st2" points="615.42,674.3 689.29,631.71 683.69,625.75 609.14,667.57 		"/>
		<g>
			<defs>
				<polygon id="SVGID_00000144325405448304671550000003224470662376811172_" points="647.88,709.07 609.14,667.57 465.66,584.73 
					429.56,590.23 374.55,608.64 464.6,660.63 609.14,744.09 689.29,790.36 				"/>
			</defs>
			<clipPath id="SVGID_00000137830575786969235630000002036431848708720536_">
				<use xlink:href="#SVGID_00000144325405448304671550000003224470662376811172_"  style="overflow:visible;"/>
			</clipPath>
			<g style="clip-path:url(#SVGID_00000137830575786969235630000002036431848708720536_);">
				<g>
					<polyline class="st18" points="457.38,585.99 618.27,677.34 618.27,683.21 					"/>
					<polyline class="st18" points="450.27,587.08 630.02,689.93 630.02,695.63 					"/>
					<line class="st18" x1="443.69" y1="588.08" x2="641.55" y2="702.29"/>
					<line class="st18" x1="437.69" y1="588.99" x2="649.22" y2="711.69"/>
					<line class="st18" x1="432.04" y1="589.97" x2="653.52" y2="720.26"/>
					<line class="st18" x1="425.52" y1="591.25" x2="657.38" y2="729.67"/>
					<polyline class="st18" points="664.15,747.63 664.15,741 432.04,599.27 421.6,592.9 421.6,598.49 					"/>
					<polyline class="st18" points="415.71,594.87 669.01,750.62 669.01,758.99 					"/>
					<line class="st18" x1="409.95" y1="596.79" x2="675.33" y2="762.95"/>
					<line class="st18" x1="404.33" y1="598.68" x2="680.5" y2="773.1"/>
					<line class="st18" x1="399.01" y1="600.46" x2="686.37" y2="784.62"/>
					<line class="st18" x1="391.69" y1="602.91" x2="640.08" y2="761.95"/>
					<line class="st18" x1="384.24" y1="605.4" x2="514.6" y2="689.5"/>
				</g>
				<line class="st18" x1="465.66" y1="584.73" x2="465.66" y2="590.7"/>
				<line class="st18" x1="476.95" y1="591.25" x2="476.95" y2="596.79"/>
				<line class="st18" x1="489.81" y1="598.68" x2="489.81" y2="604.41"/>
				<line class="st18" x1="502.57" y1="606.04" x2="502.57" y2="611.36"/>
				<line class="st18" x1="517.22" y1="614.5" x2="517.22" y2="619.97"/>
				<line class="st18" x1="536.69" y1="625.74" x2="536.69" y2="631.02"/>
				<line class="st18" x1="552.84" y1="635.07" x2="552.84" y2="640.2"/>
				<line class="st18" x1="568.62" y1="644.17" x2="568.62" y2="649.15"/>
				<line class="st18" x1="589.87" y1="656.44" x2="589.87" y2="661.22"/>
				<line class="st18" x1="607.06" y1="666.37" x2="607.06" y2="670.98"/>
				<line class="st18" x1="526.69" y1="619.97" x2="526.69" y2="625.35"/>
				<line class="st18" x1="459.28" y1="587.08" x2="459.28" y2="592.24"/>
				<line class="st18" x1="473" y1="594.87" x2="473" y2="600.46"/>
				<line class="st18" x1="495.14" y1="607.44" x2="495.14" y2="612.75"/>
				<line class="st18" x1="507.58" y1="614.5" x2="507.58" y2="619.87"/>
				<line class="st18" x1="518.82" y1="620.88" x2="518.82" y2="626.3"/>
				<line class="st18" x1="530.49" y1="627.51" x2="530.49" y2="632.98"/>
				<line class="st18" x1="542.87" y1="634.54" x2="542.87" y2="640.07"/>
				<line class="st18" x1="559.08" y1="643.74" x2="559.08" y2="649.15"/>
				<line class="st18" x1="567.06" y1="648.27" x2="567.06" y2="653.91"/>
				<line class="st18" x1="586.63" y1="659.38" x2="586.63" y2="665.11"/>
				<line class="st18" x1="603.7" y1="669.08" x2="603.7" y2="674.88"/>
				<line class="st18" x1="451.38" y1="587.71" x2="451.38" y2="592.52"/>
				<line class="st18" x1="463.88" y1="594.87" x2="463.88" y2="599.73"/>
				<line class="st18" x1="479.11" y1="603.58" x2="479.11" y2="608.52"/>
				<line class="st18" x1="498.19" y1="614.5" x2="498.19" y2="619.53"/>
				<line class="st18" x1="511.37" y1="622.66" x2="511.37" y2="627.14"/>
				<line class="st18" x1="524.4" y1="629.5" x2="524.4" y2="634.54"/>
				<line class="st18" x1="538.62" y1="637.63" x2="538.62" y2="642.87"/>
				<line class="st18" x1="552.84" y1="645.77" x2="552.84" y2="651.08"/>
				<line class="st18" x1="575.67" y1="658.83" x2="575.67" y2="664.26"/>
				<line class="st18" x1="582.59" y1="662.79" x2="582.59" y2="668.25"/>
				<line class="st18" x1="598.64" y1="671.98" x2="598.43" y2="677.4"/>
				<line class="st18" x1="614.22" y1="680.89" x2="614.22" y2="686.51"/>
				<line class="st18" x1="637.26" y1="699.81" x2="637.26" y2="704.76"/>
				<line class="st18" x1="622.38" y1="691.22" x2="622.38" y2="696.13"/>
				<line class="st18" x1="603.7" y1="680.44" x2="603.7" y2="685.29"/>
				<line class="st18" x1="585.72" y1="670.06" x2="585.72" y2="674.88"/>
				<line class="st18" x1="567.22" y1="659.38" x2="567.22" y2="664.26"/>
				<line class="st18" x1="549.5" y1="649.15" x2="549.5" y2="653.85"/>
				<line class="st18" x1="533.76" y1="640.07" x2="533.76" y2="644.72"/>
				<line class="st18" x1="518.82" y1="631.44" x2="518.82" y2="636.05"/>
				<line class="st18" x1="504.41" y1="622.66" x2="504.41" y2="627.69"/>
				<line class="st18" x1="489.47" y1="614.5" x2="489.47" y2="618.65"/>
				<line class="st18" x1="471.99" y1="604.41" x2="471.67" y2="608.7"/>
				<line class="st18" x1="456.36" y1="595.39" x2="456.36" y2="599.82"/>
				<line class="st18" x1="445.8" y1="589.29" x2="445.8" y2="593.69"/>
				<line class="st18" x1="440.63" y1="590.7" x2="440.36" y2="594.87"/>
				<line class="st18" x1="450.27" y1="596.28" x2="450.27" y2="600.7"/>
				<line class="st18" x1="459.28" y1="601.54" x2="459.28" y2="605.4"/>
				<line class="st18" x1="475.36" y1="610.84" x2="475.36" y2="615.46"/>
				<line class="st18" x1="486.88" y1="617.52" x2="486.88" y2="622.23"/>
				<line class="st18" x1="498.19" y1="623.59" x2="498.19" y2="628.89"/>
				<line class="st18" x1="511.37" y1="631.73" x2="511.37" y2="636.64"/>
				<line class="st18" x1="526.06" y1="640.25" x2="525.89" y2="645.18"/>
				<line class="st18" x1="544.74" y1="651.09" x2="544.74" y2="656.44"/>
				<line class="st18" x1="561.44" y1="661.22" x2="561.44" y2="666.1"/>
				<line class="st18" x1="573.49" y1="668.25" x2="573.49" y2="673.18"/>
				<line class="st18" x1="591.66" y1="678.3" x2="591.66" y2="683.87"/>
				<line class="st18" x1="611.96" y1="690.08" x2="612.5" y2="696.13"/>
				<line class="st18" x1="626.76" y1="698.67" x2="626.76" y2="704.52"/>
				<line class="st18" x1="640.86" y1="706.85" x2="640.86" y2="712.81"/>
				<line class="st18" x1="433.27" y1="590.7" x2="433.27" y2="595.88"/>
				<line class="st18" x1="445.8" y1="598.07" x2="445.99" y2="603.47"/>
				<line class="st18" x1="457.38" y1="604.88" x2="457.38" y2="610.27"/>
				<line class="st18" x1="470.76" y1="612.75" x2="470.76" y2="618.26"/>
				<line class="st18" x1="482.87" y1="619.87" x2="482.87" y2="625.49"/>
				<line class="st18" x1="503.02" y1="631.73" x2="503.21" y2="637.63"/>
				<line class="st18" x1="515.88" y1="639.3" x2="515.86" y2="645.18"/>
				<line class="st18" x1="529.74" y1="647.45" x2="529.74" y2="653.85"/>
				<line class="st18" x1="548.26" y1="658.34" x2="548.26" y2="664.52"/>
				<line class="st18" x1="565.83" y1="668.67" x2="565.83" y2="674.88"/>
				<line class="st18" x1="586.93" y1="681.09" x2="586.93" y2="687.61"/>
				<line class="st18" x1="599.74" y1="688.62" x2="599.74" y2="695.63"/>
				<line class="st18" x1="618.27" y1="699.52" x2="618.27" y2="706.32"/>
				<line class="st18" x1="634.48" y1="709.06" x2="634.48" y2="716"/>
				<line class="st18" x1="649.9" y1="718.13" x2="649.9" y2="725.21"/>
				<line class="st18" x1="657.38" y1="730.47" x2="657.38" y2="736.87"/>
				<line class="st18" x1="640.08" y1="719.34" x2="640.08" y2="726.3"/>
				<line class="st18" x1="651.24" y1="733.67" x2="651.24" y2="739.69"/>
				<line class="st18" x1="656.27" y1="742.79" x2="656.27" y2="751.02"/>
				<line class="st18" x1="641.55" y1="727.2" x2="641.55" y2="733.73"/>
				<line class="st18" x1="631.28" y1="721.46" x2="631.28" y2="727.42"/>
				<line class="st18" x1="626.76" y1="711.69" x2="626.7" y2="718.13"/>
				<line class="st18" x1="607.06" y1="698.67" x2="607.06" y2="706.14"/>
				<line class="st18" x1="615.96" y1="711.58" x2="615.96" y2="718"/>
				<line class="st18" x1="592.98" y1="691.22" x2="592.98" y2="697.54"/>
				<line class="st18" x1="576.79" y1="681.56" x2="576.79" y2="687.55"/>
				<line class="st18" x1="558.63" y1="670.72" x2="558.63" y2="676.57"/>
				<line class="st18" x1="541.45" y1="660.46" x2="541.48" y2="666.1"/>
				<line class="st18" x1="522.51" y1="649.15" x2="522.51" y2="654.51"/>
				<line class="st18" x1="533.76" y1="655.12" x2="533.76" y2="661.22"/>
				<line class="st18" x1="504.41" y1="638.35" x2="504.41" y2="643.46"/>
				<line class="st18" x1="493.32" y1="631.73" x2="493.24" y2="636.64"/>
				<line class="st18" x1="478.16" y1="622.68" x2="478.16" y2="627.43"/>
				<line class="st18" x1="463.14" y1="613.71" x2="463.14" y2="618.26"/>
				<line class="st18" x1="449.42" y1="606.04" x2="449.42" y2="609.88"/>
				<line class="st18" x1="437.69" y1="598.68" x2="437.69" y2="602.72"/>
				<line class="st18" x1="428.27" y1="592.9" x2="428.27" y2="597.3"/>
				<line class="st18" x1="431.07" y1="598.68" x2="431.23" y2="604.41"/>
				<line class="st18" x1="443.69" y1="606.56" x2="443.69" y2="612.07"/>
				<line class="st18" x1="457.38" y1="615.46" x2="457.38" y2="620.88"/>
				<line class="st18" x1="469.64" y1="622.23" x2="469.64" y2="628.38"/>
				<line class="st18" x1="484.04" y1="631.02" x2="483.65" y2="636.64"/>
				<line class="st18" x1="497.59" y1="639.3" x2="497.54" y2="645.18"/>
				<line class="st18" x1="512.28" y1="648.27" x2="512.28" y2="654.51"/>
				<line class="st18" x1="524.94" y1="655.99" x2="524.94" y2="662.03"/>
				<line class="st18" x1="538.62" y1="664.52" x2="538.62" y2="670.44"/>
				<line class="st18" x1="550.78" y1="671.78" x2="550.78" y2="678.3"/>
				<line class="st18" x1="563.14" y1="679.87" x2="563.14" y2="685.29"/>
				<line class="st18" x1="578.92" y1="688.96" x2="578.92" y2="695.22"/>
				<line class="st18" x1="598.64" y1="701" x2="598.53" y2="707.28"/>
				<line class="st18" x1="671.49" y1="760.55" x2="671.49" y2="767.41"/>
				<line class="st18" x1="676.5" y1="770.57" x2="676.5" y2="778.3"/>
				<line class="st18" x1="662.14" y1="769.09" x2="662.14" y2="774.68"/>
				<line class="st18" x1="656.87" y1="758.17" x2="656.87" y2="765.71"/>
				<line class="st18" x1="649.22" y1="746.6" x2="649.22" y2="753.34"/>
				<line class="st18" x1="642.99" y1="734.62" x2="642.99" y2="742.7"/>
				<line class="st18" x1="627.68" y1="725.21" x2="627.68" y2="733.12"/>
				<line class="st18" x1="631.78" y1="735.69" x2="631.78" y2="742.33"/>
				<line class="st18" x1="624.6" y1="737.79" x2="624.6" y2="745.03"/>
				<line class="st18" x1="614.65" y1="738.66" x2="615.1" y2="745.96"/>
				<line class="st18" x1="637.56" y1="753.34" x2="637.9" y2="760.55"/>
				<line class="st18" x1="610.93" y1="729.16" x2="610.93" y2="736.28"/>
				<line class="st18" x1="616.8" y1="726.3" x2="616.8" y2="732.72"/>
				<line class="st18" x1="610.74" y1="714.79" x2="610.93" y2="722.63"/>
				<line class="st18" x1="594.04" y1="704.52" x2="594.04" y2="712.05"/>
				<line class="st18" x1="587.67" y1="708.07" x2="587.67" y2="714.47"/>
				<line class="st18" x1="596.06" y1="719.77" x2="596.06" y2="726.75"/>
				<line class="st18" x1="589.87" y1="722.78" x2="589.87" y2="729.8"/>
				<line class="st18" x1="572.55" y1="718.71" x2="572.55" y2="722.96"/>
				<line class="st18" x1="586.93" y1="727.91" x2="586.93" y2="731.26"/>
				<line class="st18" x1="569.06" y1="709.44" x2="569.06" y2="716.48"/>
				<line class="st18" x1="576.79" y1="707.6" x2="576.79" y2="714.39"/>
				<line class="st18" x1="571.25" y1="697.79" x2="571.25" y2="704.1"/>
				<line class="st18" x1="567.22" y1="688.03" x2="567.16" y2="695.22"/>
				<line class="st18" x1="568.38" y1="702.29" x2="568.47" y2="709.06"/>
				<line class="st18" x1="555.61" y1="707.6" x2="555.61" y2="713.18"/>
				<line class="st18" x1="552.25" y1="698.67" x2="552.25" y2="706.14"/>
				<line class="st18" x1="548.13" y1="689.5" x2="548.13" y2="696.03"/>
				<line class="st18" x1="544.97" y1="681.09" x2="545.14" y2="687.61"/>
				<line class="st18" x1="542.62" y1="673.18" x2="542.36" y2="679.7"/>
				<line class="st18" x1="517.22" y1="657.28" x2="517.22" y2="664.26"/>
				<line class="st18" x1="528.03" y1="664.26" x2="528.03" y2="670.72"/>
				<line class="st18" x1="520.64" y1="666.1" x2="520.64" y2="672.13"/>
				<line class="st18" x1="528.03" y1="676.93" x2="528.03" y2="683.14"/>
				<line class="st18" x1="536.69" y1="682.27" x2="536.31" y2="688.45"/>
				<line class="st18" x1="518.33" y1="676.93" x2="518.33" y2="683.99"/>
				<line class="st18" x1="531.49" y1="685.36" x2="531.49" y2="692.42"/>
				<line class="st18" x1="524.4" y1="688.03" x2="524.4" y2="695.16"/>
				<line class="st18" x1="501.45" y1="673.18" x2="501.45" y2="681.01"/>
				<line class="st18" x1="507.58" y1="670.26" x2="507.56" y2="677.1"/>
				<line class="st18" x1="499.86" y1="659.01" x2="499.86" y2="665.09"/>
				<line class="st18" x1="504.51" y1="655.99" x2="504.51" y2="661.95"/>
				<line class="st18" x1="500.86" y1="647.22" x2="500.95" y2="653.77"/>
				<line class="st18" x1="491.31" y1="641.35" x2="491.31" y2="647.73"/>
				<line class="st18" x1="485.59" y1="644.15" x2="485.59" y2="650"/>
				<line class="st18" x1="489.47" y1="652.45" x2="489.81" y2="658.65"/>
				<line class="st18" x1="484.3" y1="655.12" x2="484.3" y2="662.2"/>
				<line class="st18" x1="488.81" y1="665.09" x2="488.81" y2="672.86"/>
				<line class="st18" x1="471.67" y1="661.95" x2="471.83" y2="664.81"/>
				<line class="st18" x1="467.41" y1="651.39" x2="467.41" y2="659.06"/>
				<line class="st18" x1="473.86" y1="648.43" x2="473.86" y2="655.22"/>
				<line class="st18" x1="476.95" y1="644.72" x2="476.95" y2="650.49"/>
				<line class="st18" x1="472.65" y1="636.05" x2="472.65" y2="641.83"/>
				<line class="st18" x1="478.16" y1="633.74" x2="478.16" y2="639.5"/>
				<line class="st18" x1="462.42" y1="623.59" x2="462.42" y2="629.65"/>
				<line class="st18" x1="465.75" y1="631.73" x2="465.75" y2="637.63"/>
				<line class="st18" x1="459.99" y1="633.83" x2="459.99" y2="639.54"/>
				<line class="st18" x1="465.66" y1="643.17" x2="465.78" y2="650.34"/>
				<line class="st18" x1="452.47" y1="641.83" x2="452.47" y2="649.42"/>
				<line class="st18" x1="437.69" y1="632.36" x2="437.69" y2="639.54"/>
				<line class="st18" x1="448.26" y1="632.02" x2="448.26" y2="639.13"/>
				<line class="st18" x1="444.2" y1="623.86" x2="444.2" y2="629.42"/>
				<line class="st18" x1="449.42" y1="621.5" x2="449.42" y2="627.43"/>
				<line class="st18" x1="447.64" y1="614.5" x2="447.64" y2="620.39"/>
				<line class="st18" x1="438.21" y1="608.7" x2="438.23" y2="614.5"/>
				<line class="st18" x1="427.15" y1="601.9" x2="426.95" y2="607.44"/>
				<line class="st18" x1="418.02" y1="596.28" x2="418.02" y2="601.84"/>
				<line class="st18" x1="410.76" y1="597.3" x2="410.74" y2="602.72"/>
				<line class="st18" x1="423.7" y1="605.4" x2="423.7" y2="610.84"/>
				<line class="st18" x1="435.44" y1="612.75" x2="435.34" y2="618.26"/>
				<line class="st18" x1="428.27" y1="613.8" x2="428.78" y2="619.53"/>
				<line class="st18" x1="414.97" y1="605.4" x2="415.22" y2="610.84"/>
				<line class="st18" x1="404.94" y1="599.06" x2="404.94" y2="604.26"/>
				<line class="st18" x1="396.3" y1="601.36" x2="396.3" y2="605.86"/>
				<line class="st18" x1="393.23" y1="603.89" x2="393.23" y2="611.2"/>
				<line class="st18" x1="386.75" y1="607.02" x2="386.75" y2="615.69"/>
				<line class="st18" x1="397.26" y1="613.8" x2="397.26" y2="621.76"/>
				<line class="st18" x1="404.33" y1="610.84" x2="404.33" y2="618.36"/>
				<line class="st18" x1="409.9" y1="607.44" x2="409.95" y2="614.6"/>
				<line class="st18" x1="419.69" y1="613.71" x2="419.69" y2="620.83"/>
				<line class="st18" x1="432.99" y1="622.23" x2="433.1" y2="629.42"/>
				<line class="st18" x1="423.7" y1="623.4" x2="423.7" y2="630.24"/>
				<line class="st18" x1="411.03" y1="622.68" x2="411.03" y2="629.7"/>
				<line class="st18" x1="426.95" y1="632.95" x2="426.95" y2="638.35"/>
				<line class="st18" x1="442.33" y1="642.87" x2="442.33" y2="648.27"/>
				<line class="st18" x1="458.33" y1="653.2" x2="458.33" y2="658.17"/>
			</g>
		</g>
		<path class="st19" d="M494.39,676.88l35.81,20.67V656.2c0,0-12.02-33.36-34.44-16.79L494.39,676.88z"/>
		<polygon class="st20" points="492.97,677.15 496.83,674.94 529.33,692.64 529.33,698.15 		"/>
		<polyline class="st20" points="495.28,676.03 496.62,639.87 498.21,638.83 496.75,675.75 		"/>
		<polygon class="st7" points="650.69,559.86 650.69,573.52 652.57,572.78 652.57,558.98 		"/>
		<g>
			<defs>
				<polygon id="SVGID_00000159471587391974141300000001338931842382455212_" points="608.01,597.38 487.35,541.29 450.27,560.68 
					609.14,648.45 				"/>
			</defs>
			<clipPath id="SVGID_00000149368650078441588930000012820967874593104570_">
				<use xlink:href="#SVGID_00000159471587391974141300000001338931842382455212_"  style="overflow:visible;"/>
			</clipPath>
			
				<line style="clip-path:url(#SVGID_00000149368650078441588930000012820967874593104570_);fill:none;stroke:#FFFFFF;stroke-width:0.5;stroke-miterlimit:10;" x1="519.85" y1="533.5" x2="466.22" y2="597.72"/>
			
				<line style="clip-path:url(#SVGID_00000149368650078441588930000012820967874593104570_);fill:none;stroke:#FFFFFF;stroke-width:0.5;stroke-miterlimit:10;" x1="516.96" y1="533.5" x2="463.33" y2="597.72"/>
			
				<line style="clip-path:url(#SVGID_00000149368650078441588930000012820967874593104570_);fill:none;stroke:#FFFFFF;stroke-width:0.5;stroke-miterlimit:10;" x1="513.36" y1="533.5" x2="459.73" y2="597.72"/>
			
				<line style="clip-path:url(#SVGID_00000149368650078441588930000012820967874593104570_);fill:none;stroke:#FFFFFF;stroke-width:0.5;stroke-miterlimit:10;" x1="510.32" y1="533.5" x2="456.69" y2="597.72"/>
			
				<line style="clip-path:url(#SVGID_00000149368650078441588930000012820967874593104570_);fill:none;stroke:#FFFFFF;stroke-width:0.5;stroke-miterlimit:10;" x1="507.28" y1="533.5" x2="453.65" y2="597.72"/>
			
				<line style="clip-path:url(#SVGID_00000149368650078441588930000012820967874593104570_);fill:none;stroke:#FFFFFF;stroke-width:0.5;stroke-miterlimit:10;" x1="504.24" y1="533.5" x2="450.61" y2="597.72"/>
			
				<line style="clip-path:url(#SVGID_00000149368650078441588930000012820967874593104570_);fill:none;stroke:#FFFFFF;stroke-width:0.5;stroke-miterlimit:10;" x1="501.21" y1="533.5" x2="447.58" y2="597.72"/>
			
				<line style="clip-path:url(#SVGID_00000149368650078441588930000012820967874593104570_);fill:none;stroke:#FFFFFF;stroke-width:0.5;stroke-miterlimit:10;" x1="498.17" y1="533.5" x2="444.54" y2="597.72"/>
			
				<line style="clip-path:url(#SVGID_00000149368650078441588930000012820967874593104570_);fill:none;stroke:#FFFFFF;stroke-width:0.5;stroke-miterlimit:10;" x1="495.13" y1="533.5" x2="441.5" y2="597.72"/>
			
				<line style="clip-path:url(#SVGID_00000149368650078441588930000012820967874593104570_);fill:none;stroke:#FFFFFF;stroke-width:0.5;stroke-miterlimit:10;" x1="492.09" y1="533.5" x2="438.46" y2="597.72"/>
			
				<line style="clip-path:url(#SVGID_00000149368650078441588930000012820967874593104570_);fill:none;stroke:#FFFFFF;stroke-width:0.5;stroke-miterlimit:10;" x1="489.05" y1="533.5" x2="435.42" y2="597.72"/>
			
				<line style="clip-path:url(#SVGID_00000149368650078441588930000012820967874593104570_);fill:none;stroke:#FFFFFF;stroke-width:0.5;stroke-miterlimit:10;" x1="486.01" y1="533.5" x2="432.38" y2="597.72"/>
			
				<line style="clip-path:url(#SVGID_00000149368650078441588930000012820967874593104570_);fill:none;stroke:#FFFFFF;stroke-width:0.5;stroke-miterlimit:10;" x1="484.27" y1="531.76" x2="430.64" y2="595.98"/>
			
				<line style="clip-path:url(#SVGID_00000149368650078441588930000012820967874593104570_);fill:none;stroke:#FFFFFF;stroke-width:0.5;stroke-miterlimit:10;" x1="482.53" y1="530.02" x2="428.9" y2="594.24"/>
			
				<line style="clip-path:url(#SVGID_00000149368650078441588930000012820967874593104570_);fill:none;stroke:#FFFFFF;stroke-width:0.5;stroke-miterlimit:10;" x1="480.79" y1="528.28" x2="427.16" y2="592.5"/>
			
				<line style="clip-path:url(#SVGID_00000149368650078441588930000012820967874593104570_);fill:none;stroke:#FFFFFF;stroke-width:0.5;stroke-miterlimit:10;" x1="522.54" y1="534.65" x2="468.8" y2="598.87"/>
			
				<line style="clip-path:url(#SVGID_00000149368650078441588930000012820967874593104570_);fill:none;stroke:#FFFFFF;stroke-width:0.5;stroke-miterlimit:10;" x1="525.35" y1="535.85" x2="470.28" y2="601.78"/>
			
				<line style="clip-path:url(#SVGID_00000149368650078441588930000012820967874593104570_);fill:none;stroke:#FFFFFF;stroke-width:0.5;stroke-miterlimit:10;" x1="528.05" y1="536.99" x2="472.87" y2="602.93"/>
			
				<line style="clip-path:url(#SVGID_00000149368650078441588930000012820967874593104570_);fill:none;stroke:#FFFFFF;stroke-width:0.5;stroke-miterlimit:10;" x1="530.68" y1="538.41" x2="474.35" y2="605.85"/>
			
				<line style="clip-path:url(#SVGID_00000149368650078441588930000012820967874593104570_);fill:none;stroke:#FFFFFF;stroke-width:0.5;stroke-miterlimit:10;" x1="533.56" y1="539.34" x2="476.94" y2="607"/>
			
				<line style="clip-path:url(#SVGID_00000149368650078441588930000012820967874593104570_);fill:none;stroke:#FFFFFF;stroke-width:0.5;stroke-miterlimit:10;" x1="536.11" y1="540.83" x2="478.42" y2="609.91"/>
			
				<line style="clip-path:url(#SVGID_00000149368650078441588930000012820967874593104570_);fill:none;stroke:#FFFFFF;stroke-width:0.5;stroke-miterlimit:10;" x1="539.4" y1="541.28" x2="481" y2="611.06"/>
			
				<line style="clip-path:url(#SVGID_00000149368650078441588930000012820967874593104570_);fill:none;stroke:#FFFFFF;stroke-width:0.5;stroke-miterlimit:10;" x1="541.82" y1="542.93" x2="482.48" y2="613.98"/>
			
				<line style="clip-path:url(#SVGID_00000149368650078441588930000012820967874593104570_);fill:none;stroke:#FFFFFF;stroke-width:0.5;stroke-miterlimit:10;" x1="544.57" y1="544.03" x2="485.07" y2="615.13"/>
			
				<line style="clip-path:url(#SVGID_00000149368650078441588930000012820967874593104570_);fill:none;stroke:#FFFFFF;stroke-width:0.5;stroke-miterlimit:10;" x1="547.37" y1="545.22" x2="486.55" y2="618.04"/>
			
				<line style="clip-path:url(#SVGID_00000149368650078441588930000012820967874593104570_);fill:none;stroke:#FFFFFF;stroke-width:0.5;stroke-miterlimit:10;" x1="550.11" y1="546.32" x2="489.13" y2="619.19"/>
			
				<line style="clip-path:url(#SVGID_00000149368650078441588930000012820967874593104570_);fill:none;stroke:#FFFFFF;stroke-width:0.5;stroke-miterlimit:10;" x1="553.17" y1="547.2" x2="490.61" y2="622.11"/>
			
				<line style="clip-path:url(#SVGID_00000149368650078441588930000012820967874593104570_);fill:none;stroke:#FFFFFF;stroke-width:0.5;stroke-miterlimit:10;" x1="556.44" y1="547.69" x2="493.2" y2="623.26"/>
			
				<line style="clip-path:url(#SVGID_00000149368650078441588930000012820967874593104570_);fill:none;stroke:#FFFFFF;stroke-width:0.5;stroke-miterlimit:10;" x1="558.88" y1="549.31" x2="494.68" y2="626.17"/>
			
				<line style="clip-path:url(#SVGID_00000149368650078441588930000012820967874593104570_);fill:none;stroke:#FFFFFF;stroke-width:0.5;stroke-miterlimit:10;" x1="562.15" y1="549.79" x2="497.26" y2="627.32"/>
			
				<line style="clip-path:url(#SVGID_00000149368650078441588930000012820967874593104570_);fill:none;stroke:#FFFFFF;stroke-width:0.5;stroke-miterlimit:10;" x1="564.79" y1="551.16" x2="498.74" y2="630.24"/>
			
				<line style="clip-path:url(#SVGID_00000149368650078441588930000012820967874593104570_);fill:none;stroke:#FFFFFF;stroke-width:0.5;stroke-miterlimit:10;" x1="567.26" y1="552.6" x2="501.33" y2="631.39"/>
			
				<line style="clip-path:url(#SVGID_00000149368650078441588930000012820967874593104570_);fill:none;stroke:#FFFFFF;stroke-width:0.5;stroke-miterlimit:10;" x1="570.75" y1="552.96" x2="502.81" y2="634.3"/>
			
				<line style="clip-path:url(#SVGID_00000149368650078441588930000012820967874593104570_);fill:none;stroke:#FFFFFF;stroke-width:0.5;stroke-miterlimit:10;" x1="573.33" y1="554.28" x2="505.39" y2="635.45"/>
			
				<line style="clip-path:url(#SVGID_00000149368650078441588930000012820967874593104570_);fill:none;stroke:#FFFFFF;stroke-width:0.5;stroke-miterlimit:10;" x1="576.12" y1="555.46" x2="506.87" y2="638.37"/>
			
				<line style="clip-path:url(#SVGID_00000149368650078441588930000012820967874593104570_);fill:none;stroke:#FFFFFF;stroke-width:0.5;stroke-miterlimit:10;" x1="580.14" y1="555.06" x2="509.46" y2="639.52"/>
			
				<line style="clip-path:url(#SVGID_00000149368650078441588930000012820967874593104570_);fill:none;stroke:#FFFFFF;stroke-width:0.5;stroke-miterlimit:10;" x1="585.22" y1="553.5" x2="510.94" y2="642.44"/>
			
				<line style="clip-path:url(#SVGID_00000149368650078441588930000012820967874593104570_);fill:none;stroke:#FFFFFF;stroke-width:0.5;stroke-miterlimit:10;" x1="587.28" y1="555.46" x2="513.52" y2="643.59"/>
			
				<line style="clip-path:url(#SVGID_00000149368650078441588930000012820967874593104570_);fill:none;stroke:#FFFFFF;stroke-width:0.5;stroke-miterlimit:10;" x1="588.96" y1="557.95" x2="515" y2="646.5"/>
			
				<line style="clip-path:url(#SVGID_00000149368650078441588930000012820967874593104570_);fill:none;stroke:#FFFFFF;stroke-width:0.5;stroke-miterlimit:10;" x1="591.66" y1="559.15" x2="517.59" y2="647.65"/>
			
				<line style="clip-path:url(#SVGID_00000149368650078441588930000012820967874593104570_);fill:none;stroke:#FFFFFF;stroke-width:0.5;stroke-miterlimit:10;" x1="593.66" y1="561.26" x2="519.07" y2="650.57"/>
			
				<line style="clip-path:url(#SVGID_00000149368650078441588930000012820967874593104570_);fill:none;stroke:#FFFFFF;stroke-width:0.5;stroke-miterlimit:10;" x1="597.09" y1="561.57" x2="521.66" y2="651.72"/>
			
				<line style="clip-path:url(#SVGID_00000149368650078441588930000012820967874593104570_);fill:none;stroke:#FFFFFF;stroke-width:0.5;stroke-miterlimit:10;" x1="602.08" y1="560.11" x2="523.14" y2="654.63"/>
			
				<line style="clip-path:url(#SVGID_00000149368650078441588930000012820967874593104570_);fill:none;stroke:#FFFFFF;stroke-width:0.5;stroke-miterlimit:10;" x1="602.08" y1="564.54" x2="525.72" y2="655.78"/>
			
				<line style="clip-path:url(#SVGID_00000149368650078441588930000012820967874593104570_);fill:none;stroke:#FFFFFF;stroke-width:0.5;stroke-miterlimit:10;" x1="603.85" y1="566.92" x2="527.2" y2="658.7"/>
			
				<line style="clip-path:url(#SVGID_00000149368650078441588930000012820967874593104570_);fill:none;stroke:#FFFFFF;stroke-width:0.5;stroke-miterlimit:10;" x1="606.45" y1="568.24" x2="529.79" y2="659.85"/>
			
				<line style="clip-path:url(#SVGID_00000149368650078441588930000012820967874593104570_);fill:none;stroke:#FFFFFF;stroke-width:0.5;stroke-miterlimit:10;" x1="609.12" y1="569.54" x2="531.27" y2="662.76"/>
			
				<line style="clip-path:url(#SVGID_00000149368650078441588930000012820967874593104570_);fill:none;stroke:#FFFFFF;stroke-width:0.5;stroke-miterlimit:10;" x1="610.63" y1="572.17" x2="533.85" y2="663.91"/>
			
				<line style="clip-path:url(#SVGID_00000149368650078441588930000012820967874593104570_);fill:none;stroke:#FFFFFF;stroke-width:0.5;stroke-miterlimit:10;" x1="614.39" y1="572.17" x2="535.33" y2="666.83"/>
			
				<line style="clip-path:url(#SVGID_00000149368650078441588930000012820967874593104570_);fill:none;stroke:#FFFFFF;stroke-width:0.5;stroke-miterlimit:10;" x1="618.72" y1="571.43" x2="537.92" y2="667.98"/>
			
				<line style="clip-path:url(#SVGID_00000149368650078441588930000012820967874593104570_);fill:none;stroke:#FFFFFF;stroke-width:0.5;stroke-miterlimit:10;" x1="622.21" y1="571.73" x2="539.4" y2="670.89"/>
			
				<line style="clip-path:url(#SVGID_00000149368650078441588930000012820967874593104570_);fill:none;stroke:#FFFFFF;stroke-width:0.5;stroke-miterlimit:10;" x1="623.78" y1="574.31" x2="541.98" y2="672.04"/>
			
				<line style="clip-path:url(#SVGID_00000149368650078441588930000012820967874593104570_);fill:none;stroke:#FFFFFF;stroke-width:0.5;stroke-miterlimit:10;" x1="627.69" y1="574.11" x2="543.46" y2="674.96"/>
			
				<line style="clip-path:url(#SVGID_00000149368650078441588930000012820967874593104570_);fill:none;stroke:#FFFFFF;stroke-width:0.5;stroke-miterlimit:10;" x1="628.16" y1="578" x2="546.05" y2="676.11"/>
			
				<line style="clip-path:url(#SVGID_00000149368650078441588930000012820967874593104570_);fill:none;stroke:#FFFFFF;stroke-width:0.5;stroke-miterlimit:10;" x1="618.38" y1="594.19" x2="547.53" y2="679.02"/>
			
				<line style="clip-path:url(#SVGID_00000149368650078441588930000012820967874593104570_);fill:none;stroke:#FFFFFF;stroke-width:0.5;stroke-miterlimit:10;" x1="622.21" y1="594.02" x2="550.11" y2="680.17"/>
			
				<line style="clip-path:url(#SVGID_00000149368650078441588930000012820967874593104570_);fill:none;stroke:#FFFFFF;stroke-width:0.5;stroke-miterlimit:10;" x1="611.47" y1="611.39" x2="551.59" y2="683.09"/>
			
				<line style="clip-path:url(#SVGID_00000149368650078441588930000012820967874593104570_);fill:none;stroke:#FFFFFF;stroke-width:0.5;stroke-miterlimit:10;" x1="611.47" y1="616.34" x2="557.73" y2="680.55"/>
			
				<line style="clip-path:url(#SVGID_00000149368650078441588930000012820967874593104570_);fill:none;stroke:#FFFFFF;stroke-width:0.5;stroke-miterlimit:10;" x1="613.78" y1="618.65" x2="560.04" y2="682.86"/>
			
				<line style="clip-path:url(#SVGID_00000149368650078441588930000012820967874593104570_);fill:none;stroke:#FFFFFF;stroke-width:0.5;stroke-miterlimit:10;" x1="616.09" y1="620.96" x2="562.35" y2="685.17"/>
			
				<line style="clip-path:url(#SVGID_00000149368650078441588930000012820967874593104570_);fill:none;stroke:#FFFFFF;stroke-width:0.5;stroke-miterlimit:10;" x1="618.4" y1="623.27" x2="564.66" y2="687.48"/>
			
				<line style="clip-path:url(#SVGID_00000149368650078441588930000012820967874593104570_);fill:none;stroke:#FFFFFF;stroke-width:0.5;stroke-miterlimit:10;" x1="620.71" y1="625.58" x2="566.97" y2="689.79"/>
			
				<line style="clip-path:url(#SVGID_00000149368650078441588930000012820967874593104570_);fill:none;stroke:#FFFFFF;stroke-width:0.5;stroke-miterlimit:10;" x1="623.02" y1="627.89" x2="569.28" y2="692.1"/>
			
				<use xlink:href="#SVGID_00000159471587391974141300000001338931842382455212_"  style="overflow:visible;fill:none;stroke:#FFFFFF;stroke-width:0.5;stroke-miterlimit:10;"/>
		</g>
		<polygon class="st0" points="646.23,503.51 645.08,502.8 645.1,501.49 643.74,497.18 642.71,501.92 642.71,502.79 641.43,503.51 
			642.71,504.12 642.71,508.4 645.03,507.9 645.07,504.26 		"/>
		<polygon class="st22" points="465.66,575.17 609.46,658.19 609.46,656.81 465.66,573.86 		"/>
		<polygon class="st7" points="509.65,551.66 512.76,553.1 512.76,537.62 509.65,536.23 		"/>
		<g>
			<polygon class="st23" points="465.66,575.17 465.66,565.6 609.14,648.45 609.46,658.19 			"/>
			<polygon class="st23" points="603.71,578.04 603.71,595.38 608.01,597.38 608.01,579.95 			"/>
			<polygon class="st23" points="487.35,526.32 487.35,541.29 490.78,542.88 490.91,527.9 			"/>
			<polygon class="st23" points="505.49,534.38 505.49,549.72 509.65,551.66 509.65,536.23 			"/>
			<polygon class="st23" points="568.04,562.19 567.54,578.57 572.53,580.89 573.18,564.47 			"/>
		</g>
		<polygon class="st7" points="575.74,565.6 575.1,582.08 572.53,580.89 573.18,564.47 		"/>
		<polygon class="st24" points="555.45,565.6 555.7,565.3 555.7,556.7 555.5,556.61 		"/>
		<polygon class="st7" points="629.22,569.97 629.22,585.53 634.94,582.33 634.94,567.28 		"/>
		<polygon class="st25" points="513.31,538.02 513.41,552.83 566.93,577.76 567.54,562.12 		"/>
		<g>
			<polygon class="st26" points="512.76,537.62 512.76,553.1 513.41,553.4 513.31,537.86 			"/>
			<polygon class="st26" points="612.93,577.64 612.93,594.63 612.52,594.87 612.52,577.83 			"/>
			<polygon class="st26" points="603.25,577.83 603.25,595.17 603.71,595.38 603.71,578.04 			"/>
			<polygon class="st26" points="490.91,527.9 490.78,542.88 491.4,543.17 491.4,528.12 			"/>
			<polygon class="st26" points="612.93,593.49 650.69,572.78 650.69,573.52 612.93,594.63 			"/>
			<polyline class="st26" points="490.91,542.19 603.48,594.63 603.71,595.38 490.78,542.88 490.78,541.73 			"/>
			<polygon class="st26" points="609.14,667.57 609.36,665.69 683.69,624.3 683.69,625.75 			"/>
			<polygon class="st26" points="465.66,584.73 609.14,667.57 609.36,665.69 465.66,583.34 			"/>
			<polygon class="st26" points="609.46,656.81 609.46,658.19 683.69,617.53 683.69,616.03 			"/>
			<polygon class="st26" points="567.54,561.96 566.93,578.28 567.54,578.57 568.04,562.19 			"/>
			<polygon class="st26" points="634.94,567.28 634.94,582.33 635.65,581.93 635.65,566.94 			"/>
		</g>
		<polygon class="st27" points="607.4,597.1 608.41,648.04 609.14,648.45 610.27,647.83 608.83,596.93 608.01,597.38 		"/>
		<polygon class="st27" points="652.57,572.78 702.92,597.38 701.91,597.94 652.57,573.52 652.02,572.99 		"/>
		<polygon class="st27" points="487.35,541.29 449.83,560.36 450.81,560.98 488,541.59 		"/>
		<g>
			<polygon class="st28" points="527.4,544.12 527.4,553.21 555.45,565.6 555.5,556.61 			"/>
			<text transform="matrix(0.8841 0.3842 0.0352 0.9994 529.5939 552.2626)" class="st29 st30">景福宮</text>
		</g>
	</g>
</g>
</svg>
