<?xml version="1.0" encoding="utf-8"?>
<!-- Generator: Adobe Illustrator 26.3.1, SVG Export Plug-In . SVG Version: 6.00 Build 0)  -->
<svg version="1.1" id="map_x5F_sun" xmlns="http://www.w3.org/2000/svg" xmlns:xlink="http://www.w3.org/1999/xlink" x="0px"
	 y="0px" viewBox="0 0 1920 900" style="enable-background:new 0 0 1920 900;" xml:space="preserve">
<style type="text/css">
	.st0{fill:#C9C3B5;}
	.st1{fill:#C5BCB5;}
	.st2{fill:#E2E1DC;}
	.st3{fill:#B27D7D;}
	.st4{fill:#C78A89;}
	.st5{fill:#473140;}
	.st6{fill:#4F3244;}
	.st7{clip-path:url(#SVGID_00000066482023496249414430000005254300242362996647_);}
	.st8{fill:none;stroke:#FFFFFF;stroke-width:0.5;stroke-miterlimit:10;}
	.st9{fill:#3A2534;}
	.st10{fill:#D3D3D3;}
	.st11{fill:#DFDDD0;}
	.st12{fill:#4C483D;}
	.st13{fill:#FFFFFF;}
	.st14{font-family:'YetR-HM';}
	.st15{font-size:12.7099px;}
	.st16{fill:#CCC9BA;}
	.st17{fill:#BAB6A6;}
	.st18{fill:#A06E6E;}
	.st19{fill:#A09C8D;}
	.st20{fill:#AAA79D;}
	
		.st21{clip-path:url(#SVGID_00000113329533235281757440000005011885771755337400_);fill:none;stroke:#FFFFFF;stroke-width:0.5;stroke-miterlimit:10;}
	.st22{fill:#F4F2E9;}
	.st23{fill:#BCB6AA;}
	.st24{fill:#E2DED5;}
	.st25{fill:#281523;}
	.st26{clip-path:url(#SVGID_00000045607430483982895570000000027911221604716468_);}
	.st27{fill:none;stroke:#C4BFB8;stroke-width:2;stroke-miterlimit:10;}
	.st28{fill:#D8D4CB;}
</style>
<g>
	<g id="근정전">
		<polygon class="st0" points="653.76,422.73 587.27,461.12 829.13,600.76 997.38,503.62 750.21,360.92 		"/>
		<polygon class="st1" points="844.51,573.42 946.26,513.68 946.26,424.75 844.51,480.11 		"/>
		<polygon class="st2" points="667.81,491.3 829.13,582.16 828.82,491.66 667.89,403.81 		"/>
		<polygon class="st3" points="828.82,491.66 828.82,587.62 844.51,579.54 844.51,483.12 		"/>
		<polygon class="st3" points="945.7,431.23 945.7,519.49 934.21,526.13 934.21,432.02 		"/>
		<polygon class="st4" points="820.08,486.83 820.08,583.26 828.82,587.62 828.82,491.66 		"/>
		<polygon class="st5" points="885.95,299.48 918.45,340.54 949.27,349.33 836.3,402.51 		"/>
		<polygon class="st5" points="737.97,230.69 736.37,229.69 736.27,229.69 736.29,227.88 734.4,221.89 732.98,228.47 732.98,229.75 
			731.3,230.69 732.98,231.48 732.98,237.48 736.19,236.79 736.25,231.8 		"/>
		<g>
			<polygon class="st1" points="836.3,426.74 897.46,392.54 897.46,370.49 836.3,402.51 			"/>
		</g>
		<g>
			<polygon class="st2" points="836.3,402.51 668.59,326.37 668.59,348.77 836.3,426.74 			"/>
		</g>
		<polygon class="st6" points="736.29,235.74 688.21,292.84 626.93,309.45 836.3,402.51 885.95,299.48 		"/>
		<g>
			<defs>
				<polygon id="SVGID_1_" points="736.29,235.74 688.21,292.84 626.93,309.45 836.3,402.51 885.95,299.48 				"/>
			</defs>
			<clipPath id="SVGID_00000168109164128667061430000013132381708484238252_">
				<use xlink:href="#SVGID_1_"  style="overflow:visible;"/>
			</clipPath>
			<g style="clip-path:url(#SVGID_00000168109164128667061430000013132381708484238252_);">
				<line class="st8" x1="739.53" y1="237.12" x2="664.99" y2="326.37"/>
				<line class="st8" x1="735.51" y1="237.12" x2="660.97" y2="326.37"/>
				<line class="st8" x1="730.52" y1="237.12" x2="655.97" y2="326.37"/>
				<line class="st8" x1="726.29" y1="237.12" x2="651.75" y2="326.37"/>
				<line class="st8" x1="722.07" y1="237.12" x2="647.53" y2="326.37"/>
				<line class="st8" x1="717.84" y1="237.12" x2="643.3" y2="326.37"/>
				<line class="st8" x1="713.62" y1="237.12" x2="639.08" y2="326.37"/>
				<line class="st8" x1="709.4" y1="237.12" x2="634.86" y2="326.37"/>
				<line class="st8" x1="705.17" y1="237.12" x2="630.63" y2="326.37"/>
				<line class="st8" x1="700.95" y1="237.12" x2="626.41" y2="326.37"/>
				<line class="st8" x1="696.73" y1="237.12" x2="622.18" y2="326.37"/>
				<line class="st8" x1="692.5" y1="237.12" x2="617.96" y2="326.37"/>
				<line class="st8" x1="743.28" y1="238.72" x2="668.59" y2="327.97"/>
				<line class="st8" x1="747.18" y1="240.38" x2="670.64" y2="332.02"/>
				<line class="st8" x1="750.93" y1="241.98" x2="674.24" y2="333.62"/>
				<line class="st8" x1="754.58" y1="243.94" x2="676.29" y2="337.67"/>
				<line class="st8" x1="758.58" y1="245.24" x2="679.89" y2="339.27"/>
				<line class="st8" x1="762.13" y1="247.31" x2="681.94" y2="343.32"/>
				<line class="st8" x1="766.7" y1="247.94" x2="685.54" y2="344.92"/>
				<line class="st8" x1="770.07" y1="250.22" x2="687.59" y2="348.97"/>
				<line class="st8" x1="773.89" y1="251.75" x2="691.19" y2="350.57"/>
				<line class="st8" x1="777.78" y1="253.41" x2="693.24" y2="354.62"/>
				<line class="st8" x1="781.6" y1="254.94" x2="696.84" y2="356.22"/>
				<line class="st8" x1="785.85" y1="256.17" x2="698.9" y2="360.28"/>
				<line class="st8" x1="790.39" y1="256.84" x2="702.49" y2="361.87"/>
				<line class="st8" x1="793.78" y1="259.09" x2="704.55" y2="365.93"/>
				<line class="st8" x1="798.32" y1="259.76" x2="708.14" y2="367.52"/>
				<line class="st8" x1="801.99" y1="261.67" x2="710.2" y2="371.58"/>
				<line class="st8" x1="805.44" y1="263.67" x2="713.79" y2="373.17"/>
				<line class="st8" x1="810.28" y1="264.16" x2="715.85" y2="377.23"/>
				<line class="st8" x1="813.86" y1="266" x2="719.44" y2="378.82"/>
				<line class="st8" x1="817.74" y1="267.64" x2="721.5" y2="382.88"/>
				<line class="st8" x1="823.33" y1="267.09" x2="725.09" y2="384.48"/>
				<line class="st8" x1="830.39" y1="264.92" x2="727.15" y2="388.53"/>
				<line class="st8" x1="833.25" y1="267.64" x2="730.74" y2="390.13"/>
				<line class="st8" x1="835.59" y1="271.1" x2="732.8" y2="394.18"/>
				<line class="st8" x1="839.34" y1="272.76" x2="736.39" y2="395.78"/>
				<line class="st8" x1="842.12" y1="275.7" x2="738.45" y2="399.83"/>
				<line class="st8" x1="846.89" y1="276.14" x2="742.04" y2="401.43"/>
				<line class="st8" x1="853.82" y1="274.11" x2="744.1" y2="405.48"/>
				<line class="st8" x1="853.82" y1="280.26" x2="747.69" y2="407.08"/>
				<line class="st8" x1="856.29" y1="283.57" x2="749.75" y2="411.13"/>
				<line class="st8" x1="859.9" y1="285.41" x2="753.34" y2="412.73"/>
				<line class="st8" x1="863.61" y1="287.22" x2="755.4" y2="416.78"/>
				<line class="st8" x1="865.71" y1="290.86" x2="759" y2="418.38"/>
				<line class="st8" x1="870.93" y1="290.86" x2="761.05" y2="422.43"/>
				<line class="st8" x1="876.95" y1="289.83" x2="764.65" y2="424.03"/>
				<line class="st8" x1="881.81" y1="290.26" x2="766.7" y2="428.08"/>
				<line class="st8" x1="883.98" y1="293.84" x2="770.3" y2="429.68"/>
				<line class="st8" x1="889.42" y1="293.56" x2="772.35" y2="433.73"/>
				<line class="st8" x1="890.07" y1="298.96" x2="775.95" y2="435.33"/>
				<line class="st8" x1="876.48" y1="321.47" x2="778" y2="439.38"/>
				<line class="st8" x1="881.81" y1="321.24" x2="781.6" y2="440.98"/>
				<line class="st8" x1="866.88" y1="345.38" x2="783.65" y2="445.03"/>
				<line class="st8" x1="861.94" y1="357.38" x2="787.25" y2="446.63"/>
			</g>
			<use xlink:href="#SVGID_1_"  style="overflow:visible;fill:none;stroke:#FFFFFF;stroke-width:0.5;stroke-miterlimit:10;"/>
		</g>
		<g>
			<polygon class="st9" points="836.3,426.74 837.87,497.71 968.21,426.74 897.46,392.54 			"/>
			<polygon class="st9" points="918.45,340.54 852.26,369.39 838.17,398.61 945.49,348.25 			"/>
		</g>
		<polygon class="st9" points="696.96,277.72 665.56,295.97 687.87,288.19 		"/>
		<polygon class="st3" points="840.53,400.52 836.3,402.51 836.3,426.74 842.56,423.24 842.56,399.56 		"/>
		<polygon class="st3" points="895.61,374.59 895.61,393.57 898.22,392.54 898.22,373.36 		"/>
		<polygon class="st5" points="889.41,296.27 887.82,295.27 887.84,293.46 885.95,287.47 884.52,294.05 884.52,295.26 
			882.74,296.27 884.52,297.1 884.52,303.06 887.74,302.37 887.8,297.3 		"/>
		<polygon class="st3" points="699.58,363.18 703.91,365.19 703.91,343.67 699.58,341.74 		"/>
		<g>
			<polygon class="st4" points="830.31,399.85 830.31,423.96 836.3,426.74 836.3,402.51 			"/>
			<polygon class="st4" points="668.59,327.97 668.59,348.77 673.35,350.98 673.53,330.17 			"/>
			<polygon class="st4" points="693.8,339.17 693.8,360.49 699.58,363.18 699.58,341.74 			"/>
			<polygon class="st4" points="780.74,377.81 780.04,400.58 786.98,403.81 787.88,380.99 			"/>
		</g>
		<polygon class="st3" points="791.43,382.57 790.55,405.47 786.98,403.81 787.88,380.99 		"/>
		<polygon class="st10" points="763.24,382.57 763.59,382.15 763.59,370.19 763.31,370.07 		"/>
		<polygon class="st3" points="865.78,388.63 865.78,410.25 873.72,405.81 873.72,384.89 		"/>
		<polygon class="st11" points="704.67,344.22 704.8,364.81 779.19,399.46 780.04,377.72 		"/>
		<g>
			<polygon class="st12" points="724.25,352.71 724.25,365.34 763.24,382.57 763.31,370.07 			"/>
			<text transform="matrix(0.8841 0.3842 0.0352 0.9994 727.3012 364.022)" class="st13 st14 st15">景福宮</text>
		</g>
		<polygon class="st16" points="706.41,344.78 706.41,363.18 703.91,365.19 703.91,343.67 		"/>
		<polygon class="st17" points="780.14,397.47 706.41,363.18 703.91,365.19 780.04,400.58 		"/>
		<polygon class="st3" points="673.35,350.98 675.72,352.09 675.72,331.14 673.53,330.17 		"/>
		<polygon class="st16" points="675.72,331.14 675.72,352.09 678.12,350.98 678.12,332.21 		"/>
		<polygon class="st17" points="678.12,350.21 693.8,357.5 693.8,360.49 675.72,352.09 		"/>
		<line class="st18" x1="675.72" y1="351.05" x2="675.72" y2="352.09"/>
		<polygon class="st16" points="790.55,405.47 792.8,403.81 793.56,383.51 791.43,382.57 		"/>
		<polygon class="st17" points="792.8,403.81 830.31,420.95 830.31,423.96 790.55,405.47 		"/>
		<polygon class="st18" points="863.11,389.89 863.11,411.75 865.78,410.25 865.78,388.63 		"/>
		<polygon class="st18" points="895.61,374.59 895.61,393.57 893.57,394.71 893.57,375.55 		"/>
		<polygon class="st19" points="842.56,420.85 861.12,410.88 863.11,411.75 842.56,423.24 		"/>
		<polygon class="st19" points="873.72,403.81 891.83,393.57 893.57,394.71 873.72,405.81 		"/>
		<polygon class="st20" points="861.12,410.88 861.12,390.82 863.11,389.89 863.11,411.75 		"/>
		<polygon class="st20" points="893.57,375.55 893.57,394.71 891.83,393.57 891.83,376.37 		"/>
		<polygon class="st6" points="836.3,426.74 668.59,348.77 617.04,375.72 837.87,497.71 		"/>
		<g>
			<defs>
				<polygon id="SVGID_00000098202182214346653950000013536391095812733086_" points="836.3,426.74 668.59,348.77 617.04,375.72 
					837.87,497.71 				"/>
			</defs>
			<clipPath id="SVGID_00000057849807361052656280000016547785825388716947_">
				<use xlink:href="#SVGID_00000098202182214346653950000013536391095812733086_"  style="overflow:visible;"/>
			</clipPath>
			
				<line style="clip-path:url(#SVGID_00000057849807361052656280000016547785825388716947_);fill:none;stroke:#FFFFFF;stroke-width:0.5;stroke-miterlimit:10;" x1="713.76" y1="337.95" x2="639.22" y2="427.2"/>
			
				<line style="clip-path:url(#SVGID_00000057849807361052656280000016547785825388716947_);fill:none;stroke:#FFFFFF;stroke-width:0.5;stroke-miterlimit:10;" x1="709.74" y1="337.95" x2="635.19" y2="427.2"/>
			
				<line style="clip-path:url(#SVGID_00000057849807361052656280000016547785825388716947_);fill:none;stroke:#FFFFFF;stroke-width:0.5;stroke-miterlimit:10;" x1="704.74" y1="337.95" x2="630.2" y2="427.2"/>
			
				<line style="clip-path:url(#SVGID_00000057849807361052656280000016547785825388716947_);fill:none;stroke:#FFFFFF;stroke-width:0.5;stroke-miterlimit:10;" x1="700.52" y1="337.95" x2="625.97" y2="427.2"/>
			
				<line style="clip-path:url(#SVGID_00000057849807361052656280000016547785825388716947_);fill:none;stroke:#FFFFFF;stroke-width:0.5;stroke-miterlimit:10;" x1="696.29" y1="337.95" x2="621.75" y2="427.2"/>
			
				<line style="clip-path:url(#SVGID_00000057849807361052656280000016547785825388716947_);fill:none;stroke:#FFFFFF;stroke-width:0.5;stroke-miterlimit:10;" x1="692.07" y1="337.95" x2="617.53" y2="427.2"/>
			
				<line style="clip-path:url(#SVGID_00000057849807361052656280000016547785825388716947_);fill:none;stroke:#FFFFFF;stroke-width:0.5;stroke-miterlimit:10;" x1="687.84" y1="337.95" x2="613.3" y2="427.2"/>
			
				<line style="clip-path:url(#SVGID_00000057849807361052656280000016547785825388716947_);fill:none;stroke:#FFFFFF;stroke-width:0.5;stroke-miterlimit:10;" x1="683.62" y1="337.95" x2="609.08" y2="427.2"/>
			
				<line style="clip-path:url(#SVGID_00000057849807361052656280000016547785825388716947_);fill:none;stroke:#FFFFFF;stroke-width:0.5;stroke-miterlimit:10;" x1="679.4" y1="337.95" x2="604.86" y2="427.2"/>
			
				<line style="clip-path:url(#SVGID_00000057849807361052656280000016547785825388716947_);fill:none;stroke:#FFFFFF;stroke-width:0.5;stroke-miterlimit:10;" x1="675.17" y1="337.95" x2="600.63" y2="427.2"/>
			
				<line style="clip-path:url(#SVGID_00000057849807361052656280000016547785825388716947_);fill:none;stroke:#FFFFFF;stroke-width:0.5;stroke-miterlimit:10;" x1="670.95" y1="337.95" x2="596.41" y2="427.2"/>
			
				<line style="clip-path:url(#SVGID_00000057849807361052656280000016547785825388716947_);fill:none;stroke:#FFFFFF;stroke-width:0.5;stroke-miterlimit:10;" x1="666.73" y1="337.95" x2="592.19" y2="427.2"/>
			
				<line style="clip-path:url(#SVGID_00000057849807361052656280000016547785825388716947_);fill:none;stroke:#FFFFFF;stroke-width:0.5;stroke-miterlimit:10;" x1="664.31" y1="335.53" x2="589.77" y2="424.78"/>
			
				<line style="clip-path:url(#SVGID_00000057849807361052656280000016547785825388716947_);fill:none;stroke:#FFFFFF;stroke-width:0.5;stroke-miterlimit:10;" x1="661.89" y1="333.11" x2="587.35" y2="422.36"/>
			
				<line style="clip-path:url(#SVGID_00000057849807361052656280000016547785825388716947_);fill:none;stroke:#FFFFFF;stroke-width:0.5;stroke-miterlimit:10;" x1="659.47" y1="330.69" x2="584.93" y2="419.95"/>
			
				<line style="clip-path:url(#SVGID_00000057849807361052656280000016547785825388716947_);fill:none;stroke:#FFFFFF;stroke-width:0.5;stroke-miterlimit:10;" x1="717.5" y1="339.54" x2="642.81" y2="428.8"/>
			
				<line style="clip-path:url(#SVGID_00000057849807361052656280000016547785825388716947_);fill:none;stroke:#FFFFFF;stroke-width:0.5;stroke-miterlimit:10;" x1="721.41" y1="341.2" x2="644.87" y2="432.85"/>
			
				<line style="clip-path:url(#SVGID_00000057849807361052656280000016547785825388716947_);fill:none;stroke:#FFFFFF;stroke-width:0.5;stroke-miterlimit:10;" x1="725.16" y1="342.8" x2="648.46" y2="434.45"/>
			
				<line style="clip-path:url(#SVGID_00000057849807361052656280000016547785825388716947_);fill:none;stroke:#FFFFFF;stroke-width:0.5;stroke-miterlimit:10;" x1="728.8" y1="344.76" x2="650.52" y2="438.5"/>
			
				<line style="clip-path:url(#SVGID_00000057849807361052656280000016547785825388716947_);fill:none;stroke:#FFFFFF;stroke-width:0.5;stroke-miterlimit:10;" x1="732.81" y1="346.06" x2="654.11" y2="440.1"/>
			
				<line style="clip-path:url(#SVGID_00000057849807361052656280000016547785825388716947_);fill:none;stroke:#FFFFFF;stroke-width:0.5;stroke-miterlimit:10;" x1="736.36" y1="348.13" x2="656.17" y2="444.15"/>
			
				<line style="clip-path:url(#SVGID_00000057849807361052656280000016547785825388716947_);fill:none;stroke:#FFFFFF;stroke-width:0.5;stroke-miterlimit:10;" x1="740.93" y1="348.76" x2="659.76" y2="445.75"/>
			
				<line style="clip-path:url(#SVGID_00000057849807361052656280000016547785825388716947_);fill:none;stroke:#FFFFFF;stroke-width:0.5;stroke-miterlimit:10;" x1="744.29" y1="351.05" x2="661.82" y2="449.8"/>
			
				<line style="clip-path:url(#SVGID_00000057849807361052656280000016547785825388716947_);fill:none;stroke:#FFFFFF;stroke-width:0.5;stroke-miterlimit:10;" x1="748.11" y1="352.58" x2="665.41" y2="451.4"/>
			
				<line style="clip-path:url(#SVGID_00000057849807361052656280000016547785825388716947_);fill:none;stroke:#FFFFFF;stroke-width:0.5;stroke-miterlimit:10;" x1="752" y1="354.24" x2="667.47" y2="455.45"/>
			
				<line style="clip-path:url(#SVGID_00000057849807361052656280000016547785825388716947_);fill:none;stroke:#FFFFFF;stroke-width:0.5;stroke-miterlimit:10;" x1="755.82" y1="355.77" x2="671.06" y2="457.05"/>
			
				<line style="clip-path:url(#SVGID_00000057849807361052656280000016547785825388716947_);fill:none;stroke:#FFFFFF;stroke-width:0.5;stroke-miterlimit:10;" x1="760.07" y1="356.99" x2="673.12" y2="461.1"/>
			
				<line style="clip-path:url(#SVGID_00000057849807361052656280000016547785825388716947_);fill:none;stroke:#FFFFFF;stroke-width:0.5;stroke-miterlimit:10;" x1="764.61" y1="357.67" x2="676.71" y2="462.7"/>
			
				<line style="clip-path:url(#SVGID_00000057849807361052656280000016547785825388716947_);fill:none;stroke:#FFFFFF;stroke-width:0.5;stroke-miterlimit:10;" x1="768" y1="359.91" x2="678.77" y2="466.75"/>
			
				<line style="clip-path:url(#SVGID_00000057849807361052656280000016547785825388716947_);fill:none;stroke:#FFFFFF;stroke-width:0.5;stroke-miterlimit:10;" x1="772.55" y1="360.59" x2="682.36" y2="468.35"/>
			
				<line style="clip-path:url(#SVGID_00000057849807361052656280000016547785825388716947_);fill:none;stroke:#FFFFFF;stroke-width:0.5;stroke-miterlimit:10;" x1="776.22" y1="362.49" x2="684.42" y2="472.4"/>
			
				<line style="clip-path:url(#SVGID_00000057849807361052656280000016547785825388716947_);fill:none;stroke:#FFFFFF;stroke-width:0.5;stroke-miterlimit:10;" x1="779.66" y1="364.49" x2="688.02" y2="474"/>
			
				<line style="clip-path:url(#SVGID_00000057849807361052656280000016547785825388716947_);fill:none;stroke:#FFFFFF;stroke-width:0.5;stroke-miterlimit:10;" x1="784.5" y1="364.99" x2="690.07" y2="478.05"/>
			
				<line style="clip-path:url(#SVGID_00000057849807361052656280000016547785825388716947_);fill:none;stroke:#FFFFFF;stroke-width:0.5;stroke-miterlimit:10;" x1="788.09" y1="366.83" x2="693.67" y2="479.65"/>
			
				<line style="clip-path:url(#SVGID_00000057849807361052656280000016547785825388716947_);fill:none;stroke:#FFFFFF;stroke-width:0.5;stroke-miterlimit:10;" x1="791.97" y1="368.46" x2="695.72" y2="483.7"/>
			
				<line style="clip-path:url(#SVGID_00000057849807361052656280000016547785825388716947_);fill:none;stroke:#FFFFFF;stroke-width:0.5;stroke-miterlimit:10;" x1="797.55" y1="367.91" x2="699.32" y2="485.3"/>
			
				<line style="clip-path:url(#SVGID_00000057849807361052656280000016547785825388716947_);fill:none;stroke:#FFFFFF;stroke-width:0.5;stroke-miterlimit:10;" x1="804.61" y1="365.74" x2="701.37" y2="489.35"/>
			
				<line style="clip-path:url(#SVGID_00000057849807361052656280000016547785825388716947_);fill:none;stroke:#FFFFFF;stroke-width:0.5;stroke-miterlimit:10;" x1="807.47" y1="368.46" x2="704.97" y2="490.95"/>
			
				<line style="clip-path:url(#SVGID_00000057849807361052656280000016547785825388716947_);fill:none;stroke:#FFFFFF;stroke-width:0.5;stroke-miterlimit:10;" x1="809.82" y1="371.93" x2="707.02" y2="495"/>
			
				<line style="clip-path:url(#SVGID_00000057849807361052656280000016547785825388716947_);fill:none;stroke:#FFFFFF;stroke-width:0.5;stroke-miterlimit:10;" x1="813.56" y1="373.59" x2="710.62" y2="496.6"/>
			
				<line style="clip-path:url(#SVGID_00000057849807361052656280000016547785825388716947_);fill:none;stroke:#FFFFFF;stroke-width:0.5;stroke-miterlimit:10;" x1="816.35" y1="376.52" x2="712.67" y2="500.66"/>
			
				<line style="clip-path:url(#SVGID_00000057849807361052656280000016547785825388716947_);fill:none;stroke:#FFFFFF;stroke-width:0.5;stroke-miterlimit:10;" x1="821.12" y1="376.96" x2="716.27" y2="502.25"/>
			
				<line style="clip-path:url(#SVGID_00000057849807361052656280000016547785825388716947_);fill:none;stroke:#FFFFFF;stroke-width:0.5;stroke-miterlimit:10;" x1="828.04" y1="374.93" x2="718.32" y2="506.31"/>
			
				<line style="clip-path:url(#SVGID_00000057849807361052656280000016547785825388716947_);fill:none;stroke:#FFFFFF;stroke-width:0.5;stroke-miterlimit:10;" x1="828.04" y1="381.09" x2="721.92" y2="507.9"/>
			
				<line style="clip-path:url(#SVGID_00000057849807361052656280000016547785825388716947_);fill:none;stroke:#FFFFFF;stroke-width:0.5;stroke-miterlimit:10;" x1="830.51" y1="384.39" x2="723.97" y2="511.96"/>
			
				<line style="clip-path:url(#SVGID_00000057849807361052656280000016547785825388716947_);fill:none;stroke:#FFFFFF;stroke-width:0.5;stroke-miterlimit:10;" x1="834.12" y1="386.23" x2="727.57" y2="513.55"/>
			
				<line style="clip-path:url(#SVGID_00000057849807361052656280000016547785825388716947_);fill:none;stroke:#FFFFFF;stroke-width:0.5;stroke-miterlimit:10;" x1="837.83" y1="388.04" x2="729.63" y2="517.61"/>
			
				<line style="clip-path:url(#SVGID_00000057849807361052656280000016547785825388716947_);fill:none;stroke:#FFFFFF;stroke-width:0.5;stroke-miterlimit:10;" x1="839.93" y1="391.69" x2="733.22" y2="519.2"/>
			
				<line style="clip-path:url(#SVGID_00000057849807361052656280000016547785825388716947_);fill:none;stroke:#FFFFFF;stroke-width:0.5;stroke-miterlimit:10;" x1="845.16" y1="391.69" x2="735.28" y2="523.26"/>
			
				<line style="clip-path:url(#SVGID_00000057849807361052656280000016547785825388716947_);fill:none;stroke:#FFFFFF;stroke-width:0.5;stroke-miterlimit:10;" x1="851.18" y1="390.66" x2="738.87" y2="524.85"/>
			
				<line style="clip-path:url(#SVGID_00000057849807361052656280000016547785825388716947_);fill:none;stroke:#FFFFFF;stroke-width:0.5;stroke-miterlimit:10;" x1="856.03" y1="391.09" x2="740.93" y2="528.91"/>
			
				<line style="clip-path:url(#SVGID_00000057849807361052656280000016547785825388716947_);fill:none;stroke:#FFFFFF;stroke-width:0.5;stroke-miterlimit:10;" x1="858.2" y1="394.66" x2="744.52" y2="530.51"/>
			
				<line style="clip-path:url(#SVGID_00000057849807361052656280000016547785825388716947_);fill:none;stroke:#FFFFFF;stroke-width:0.5;stroke-miterlimit:10;" x1="863.65" y1="394.39" x2="746.58" y2="534.56"/>
			
				<line style="clip-path:url(#SVGID_00000057849807361052656280000016547785825388716947_);fill:none;stroke:#FFFFFF;stroke-width:0.5;stroke-miterlimit:10;" x1="864.29" y1="399.79" x2="750.17" y2="536.16"/>
			
				<line style="clip-path:url(#SVGID_00000057849807361052656280000016547785825388716947_);fill:none;stroke:#FFFFFF;stroke-width:0.5;stroke-miterlimit:10;" x1="850.71" y1="422.3" x2="752.23" y2="540.21"/>
			
				<line style="clip-path:url(#SVGID_00000057849807361052656280000016547785825388716947_);fill:none;stroke:#FFFFFF;stroke-width:0.5;stroke-miterlimit:10;" x1="856.03" y1="422.06" x2="755.82" y2="541.81"/>
			
				<line style="clip-path:url(#SVGID_00000057849807361052656280000016547785825388716947_);fill:none;stroke:#FFFFFF;stroke-width:0.5;stroke-miterlimit:10;" x1="841.1" y1="446.21" x2="757.88" y2="545.86"/>
			
				<line style="clip-path:url(#SVGID_00000057849807361052656280000016547785825388716947_);fill:none;stroke:#FFFFFF;stroke-width:0.5;stroke-miterlimit:10;" x1="841.1" y1="453.08" x2="766.41" y2="542.33"/>
			
				<line style="clip-path:url(#SVGID_00000057849807361052656280000016547785825388716947_);fill:none;stroke:#FFFFFF;stroke-width:0.5;stroke-miterlimit:10;" x1="844.31" y1="456.29" x2="769.62" y2="545.54"/>
			
				<line style="clip-path:url(#SVGID_00000057849807361052656280000016547785825388716947_);fill:none;stroke:#FFFFFF;stroke-width:0.5;stroke-miterlimit:10;" x1="847.53" y1="459.5" x2="772.83" y2="548.76"/>
			
				<line style="clip-path:url(#SVGID_00000057849807361052656280000016547785825388716947_);fill:none;stroke:#FFFFFF;stroke-width:0.5;stroke-miterlimit:10;" x1="850.74" y1="462.71" x2="776.04" y2="551.97"/>
			
				<line style="clip-path:url(#SVGID_00000057849807361052656280000016547785825388716947_);fill:none;stroke:#FFFFFF;stroke-width:0.5;stroke-miterlimit:10;" x1="853.95" y1="465.93" x2="779.26" y2="555.18"/>
			
				<line style="clip-path:url(#SVGID_00000057849807361052656280000016547785825388716947_);fill:none;stroke:#FFFFFF;stroke-width:0.5;stroke-miterlimit:10;" x1="857.16" y1="469.14" x2="782.47" y2="558.39"/>
			
				<use xlink:href="#SVGID_00000098202182214346653950000013536391095812733086_"  style="overflow:visible;fill:none;stroke:#FFFFFF;stroke-width:0.5;stroke-miterlimit:10;"/>
		</g>
		<g>
			<polygon class="st22" points="835.45,426.34 836.85,497.15 837.87,497.71 839.43,496.86 837.44,426.1 836.3,426.74 			"/>
			<polygon class="st22" points="898.22,392.54 968.21,426.74 966.81,427.5 898.22,393.57 897.46,392.84 			"/>
			<g>
				<g>
					<g>
						<g>
							<polygon class="st22" points="736.29,235.74 736.29,232.43 885.95,296.27 885.95,299.48 							"/>
						</g>
						<g>
							<polygon class="st22" points="885.95,299.48 836.3,402.51 836.3,398.61 885.95,296.27 							"/>
						</g>
						<g>
							<polygon class="st22" points="885.95,296.27 918.28,337.26 918.45,340.54 885.95,299.48 							"/>
						</g>
						<g>
							<polygon class="st22" points="918.28,337.26 949.27,349.33 918.45,340.54 							"/>
						</g>
						<g>
							<polygon class="st22" points="736.29,232.43 687.87,288.19 688.21,292.84 736.29,235.74 							"/>
						</g>
						<g>
							<polygon class="st22" points="687.87,288.19 626.93,309.45 688.21,292.84 							"/>
						</g>
						<g>
							<polygon class="st22" points="626.93,309.45 836.3,402.51 836.3,398.61 628.89,308.77 							"/>
						</g>
						<g>
							<polygon class="st22" points="836.3,402.51 949.27,349.33 945.49,348.25 838.17,398.61 							"/>
						</g>
					</g>
					<polygon class="st22" points="668.59,348.77 616.43,375.28 617.8,376.14 669.5,349.19 					"/>
				</g>
			</g>
		</g>
		<polygon class="st4" points="653.76,396 653.76,487.37 664.28,493.44 664.28,401.81 		"/>
		<polygon class="st4" points="700.53,421.84 700.53,514.37 711.36,520.63 711.36,427.79 		"/>
		<polygon class="st4" points="760.98,455.23 760.98,549.16 771.29,555.23 771.29,460.93 		"/>
		<polygon class="st3" points="664.28,493.44 667.81,491.3 667.89,403.81 664.28,401.81 		"/>
		<polygon class="st3" points="711.36,427.79 711.36,520.63 714.3,518.74 714.3,429.44 		"/>
		<polygon class="st3" points="771.29,460.93 771.29,555.23 774.36,553 774.36,462.63 		"/>
		<polygon class="st18" points="934.21,526.13 929.12,523.04 929.12,448.02 934.21,445.12 		"/>
		<polygon class="st23" points="829.13,600.76 829.13,637.37 997.38,540.05 997.38,503.62 		"/>
		<polygon class="st24" points="587.27,461.12 587.27,497.71 829.13,637.37 829.13,600.76 		"/>
		<polygon class="st4" points="664.28,411.75 829.13,503.62 828.85,492.98 664.28,401.81 		"/>
		<polygon class="st6" points="673.79,428.56 673.79,484.01 695.42,495.8 695.42,441.15 		"/>
		<polygon class="st6" points="726.82,456.69 726.82,512.13 748.45,523.92 748.45,469.27 		"/>
		<polygon class="st5" points="851.28,497.03 851.28,555.45 877.61,542.29 877.61,483.12 		"/>
		<polygon class="st9" points="673.79,484.01 677.49,482.34 695.42,491.78 695.42,495.8 		"/>
		<polygon class="st25" points="673.79,428.56 673.79,484.01 677.49,482.34 677.49,430.72 		"/>
		<polygon class="st6" points="784.87,487.01 784.87,542.45 806.5,554.24 806.5,499.59 		"/>
		<polygon class="st9" points="784.87,542.45 788.57,540.78 806.5,550.22 806.5,554.24 		"/>
		<polygon class="st25" points="784.87,487.01 784.87,542.45 788.57,540.78 788.57,489.16 		"/>
		<polygon class="st9" points="748.45,523.92 726.82,512.13 730.71,509.82 748.4,519.29 		"/>
		<polygon class="st25" points="726.82,456.69 726.82,512.13 730.71,509.82 730.71,458.95 		"/>
		<polygon class="st9" points="875.38,540.78 851.28,551.88 851.28,555.45 877.61,542.29 		"/>
		<polygon class="st25" points="877.61,542.29 877.61,483.12 875.38,484.3 875.38,540.78 		"/>
		<polygon class="st5" points="894.59,475.45 894.59,533.87 920.92,520.71 920.92,461.54 		"/>
		<polygon class="st9" points="918.69,519.2 894.59,530.3 894.59,533.87 920.92,520.71 		"/>
		<polygon class="st25" points="920.92,520.71 920.92,461.54 918.69,462.72 918.69,519.2 		"/>
		<g>
			<defs>
				<polygon id="SVGID_00000127737348161037821800000014142719907476123794_" points="587.27,461.12 587.27,497.71 829.13,637.37 
					829.13,600.76 				"/>
			</defs>
			<clipPath id="SVGID_00000088122892415164912140000010694010090599355023_">
				<use xlink:href="#SVGID_00000127737348161037821800000014142719907476123794_"  style="overflow:visible;"/>
			</clipPath>
			<g style="clip-path:url(#SVGID_00000088122892415164912140000010694010090599355023_);">
				<line class="st27" x1="587.27" y1="470.15" x2="829.13" y2="611.39"/>
				<line class="st27" x1="587.27" y1="480.84" x2="829.13" y2="623.1"/>
				<line class="st27" x1="587.27" y1="491.42" x2="829.13" y2="631.47"/>
				<line class="st27" x1="598.15" y1="467.41" x2="598.15" y2="476.5"/>
				<line class="st27" x1="624.01" y1="482.34" x2="624.01" y2="491.61"/>
				<line class="st27" x1="637.81" y1="490.3" x2="637.81" y2="499.67"/>
				<line class="st27" x1="659.02" y1="502.55" x2="659.02" y2="512.05"/>
				<line class="st27" x1="684.6" y1="517.32" x2="684.6" y2="526.99"/>
				<line class="st27" x1="756.44" y1="558.79" x2="756.44" y2="568.94"/>
				<line class="st27" x1="776.7" y1="570.49" x2="776.7" y2="580.78"/>
				<line class="st27" x1="809.25" y1="589.28" x2="809.25" y2="599.78"/>
				<line class="st27" x1="790.55" y1="589.28" x2="790.55" y2="600.42"/>
				<line class="st27" x1="816.19" y1="603.84" x2="816.19" y2="615.5"/>
				<line class="st27" x1="763.05" y1="573.42" x2="763.05" y2="584.24"/>
				<line class="st27" x1="677.49" y1="522.84" x2="677.61" y2="533.98"/>
				<line class="st27" x1="661.16" y1="513.3" x2="661.16" y2="524.3"/>
				<line class="st27" x1="641.84" y1="502.02" x2="641.84" y2="512.94"/>
				<line class="st27" x1="615.84" y1="486.83" x2="615.84" y2="497.64"/>
				<line class="st27" x1="600.98" y1="478.16" x2="600.98" y2="488.91"/>
				<line class="st27" x1="589.82" y1="482.34" x2="589.82" y2="492.9"/>
				<line class="st27" x1="605.26" y1="491.42" x2="605.26" y2="501.84"/>
				<line class="st27" x1="626.93" y1="504.17" x2="627.52" y2="514.73"/>
				<line class="st27" x1="647.38" y1="516.87" x2="647.38" y2="526.23"/>
				<line class="st27" x1="667.44" y1="527.99" x2="667.44" y2="537.84"/>
				<line class="st27" x1="759.51" y1="582.16" x2="759.51" y2="591.16"/>
				<line class="st27" x1="780.14" y1="594.85" x2="780.04" y2="603.04"/>
				<line class="st27" x1="800.71" y1="606.39" x2="800.71" y2="615.01"/>
				<line class="st27" x1="814.68" y1="623.1" x2="814.68" y2="629.03"/>
				<line class="st27" x1="783.96" y1="605.31" x2="784.15" y2="611.39"/>
				<line class="st27" x1="765.34" y1="594.53" x2="765.34" y2="600.53"/>
				<line class="st27" x1="651.15" y1="528.41" x2="651.15" y2="534.59"/>
				<line class="st27" x1="617.04" y1="508.66" x2="616.75" y2="514.73"/>
				<line class="st27" x1="594.83" y1="495.8" x2="594.83" y2="502.08"/>
			</g>
		</g>
		<g>
			<polygon class="st0" points="735.72,556.6 741.76,550.04 685.79,517.72 679.63,523.88 			"/>
			<polygon class="st28" points="679.63,523.88 679.63,529.86 735.72,562.53 735.72,556.6 			"/>
			<polygon class="st0" points="735.72,562.53 728.56,569.31 671.62,535.83 679.63,529.86 			"/>
			<polygon class="st28" points="671.62,535.83 671.62,545.97 728.56,579.04 728.56,569.31 			"/>
			<polygon class="st0" points="728.56,579.04 720.73,586.46 663.39,553.36 671.62,545.97 			"/>
			<polygon class="st28" points="663.39,553.36 663.39,563.86 720.68,597.23 720.73,586.46 			"/>
			<polygon class="st23" points="741.76,550.04 741.83,586.67 720.68,597.23 720.73,586.46 728.56,579.04 728.56,569.31 
				735.72,562.53 735.72,556.6 			"/>
		</g>
	</g>
</g>
</svg>
