<?xml version="1.0" encoding="utf-8"?>
<!-- Generator: Adobe Illustrator 26.3.1, SVG Export Plug-In . SVG Version: 6.00 Build 0)  -->
<svg version="1.1" id="map_x5F_sun" xmlns="http://www.w3.org/2000/svg" xmlns:xlink="http://www.w3.org/1999/xlink" x="0px"
	 y="0px" viewBox="0 0 1920 900" style="enable-background:new 0 0 1920 900;" xml:space="preserve">
<style type="text/css">
	.st0{fill:#3A2534;}
	.st1{fill:#C9C3B5;}
	.st2{fill:#C78A89;}
	.st3{fill:#E2E1DC;}
	.st4{fill:#473140;}
	.st5{fill:#4F3244;}
	
		.st6{clip-path:url(#SVGID_00000039845764842784468030000002003573658820897454_);fill:none;stroke:#FFFFFF;stroke-width:0.5;stroke-miterlimit:10;}
	.st7{fill:#F4F2E9;}
	.st8{fill:#C5BCB5;}
	.st9{fill:#B27D7D;}
	.st10{fill:#2D1928;stroke:#8D8599;stroke-width:4;stroke-miterlimit:10;}
	.st11{fill:#BCB6AA;}
	.st12{fill:#E2DED5;}
	.st13{fill:none;stroke:#C4BFB8;stroke-width:2;stroke-miterlimit:10;}
	.st14{clip-path:url(#SVGID_00000132771940801894078160000006970859966974567868_);}
	.st15{fill:#4C483D;}
	.st16{fill:#FFFFFF;}
	.st17{font-family:'YetR-HM';}
	.st18{font-size:8.3514px;}
</style>
<g>
	<g id="강녕전">
		<path class="st0" d="M943.76,192.36l-2.2,0.21c0,0-0.17-3.6,0.97-4.44l-0.16-0.73l-0.56,0.05l0.73-0.59l0.33-0.64l0.37,0.66
			l0.68,0.24l-0.63,0.19l0.12,0.77L943.76,192.36z"/>
		<g>
			<polygon class="st1" points="933.22,233.26 894.82,256.09 1058.2,351.87 1159.37,292.8 1123.27,271.8 			"/>
			<path class="st2" d="M1058.24,251.46"/>
			<polygon class="st3" points="933.22,201.15 933.22,260.48 1058.02,332.54 1058.21,260.59 			"/>
			<g>
				<polygon class="st4" points="1092.84,192.69 1114.49,220.03 1135.02,225.89 1059.77,261.31 				"/>
				<polygon class="st4" points="994.28,146.86 993.21,146.19 993.15,146.19 993.16,144.99 991.9,141 990.95,145.39 990.95,146.23 
					989.83,146.86 990.95,147.39 990.95,151.39 993.09,150.92 993.13,147.6 				"/>
				<polygon class="st5" points="993.16,150.23 961.13,188.26 920.31,199.33 1059.77,261.31 1092.84,192.69 				"/>
				<g>
					<defs>
						<polygon id="SVGID_1_" points="993.16,150.23 961.13,188.26 920.31,199.33 1059.77,261.31 1092.84,192.69 						"/>
					</defs>
					<clipPath id="SVGID_00000047739711644990132190000007704618433920227203_">
						<use xlink:href="#SVGID_1_"  style="overflow:visible;"/>
					</clipPath>
					
						<rect x="747.98" y="37.4" style="clip-path:url(#SVGID_00000047739711644990132190000007704618433920227203_);fill:none;stroke:#FFFFFF;stroke-width:0.5;stroke-miterlimit:10;" width="546.06" height="409.55"/>
					
						<line style="clip-path:url(#SVGID_00000047739711644990132190000007704618433920227203_);fill:none;stroke:#FFFFFF;stroke-width:0.5;stroke-miterlimit:10;" x1="995.32" y1="151.15" x2="945.67" y2="210.6"/>
					
						<line style="clip-path:url(#SVGID_00000047739711644990132190000007704618433920227203_);fill:none;stroke:#FFFFFF;stroke-width:0.5;stroke-miterlimit:10;" x1="992.64" y1="151.15" x2="942.99" y2="210.6"/>
					
						<line style="clip-path:url(#SVGID_00000047739711644990132190000007704618433920227203_);fill:none;stroke:#FFFFFF;stroke-width:0.5;stroke-miterlimit:10;" x1="989.31" y1="151.15" x2="939.66" y2="210.6"/>
					
						<line style="clip-path:url(#SVGID_00000047739711644990132190000007704618433920227203_);fill:none;stroke:#FFFFFF;stroke-width:0.5;stroke-miterlimit:10;" x1="986.5" y1="151.15" x2="936.85" y2="210.6"/>
					
						<line style="clip-path:url(#SVGID_00000047739711644990132190000007704618433920227203_);fill:none;stroke:#FFFFFF;stroke-width:0.5;stroke-miterlimit:10;" x1="983.69" y1="151.15" x2="934.03" y2="210.6"/>
					
						<line style="clip-path:url(#SVGID_00000047739711644990132190000007704618433920227203_);fill:none;stroke:#FFFFFF;stroke-width:0.5;stroke-miterlimit:10;" x1="980.87" y1="151.15" x2="931.22" y2="210.6"/>
					
						<line style="clip-path:url(#SVGID_00000047739711644990132190000007704618433920227203_);fill:none;stroke:#FFFFFF;stroke-width:0.5;stroke-miterlimit:10;" x1="978.06" y1="151.15" x2="928.41" y2="210.6"/>
					
						<line style="clip-path:url(#SVGID_00000047739711644990132190000007704618433920227203_);fill:none;stroke:#FFFFFF;stroke-width:0.5;stroke-miterlimit:10;" x1="975.24" y1="151.15" x2="925.59" y2="210.6"/>
					
						<line style="clip-path:url(#SVGID_00000047739711644990132190000007704618433920227203_);fill:none;stroke:#FFFFFF;stroke-width:0.5;stroke-miterlimit:10;" x1="972.43" y1="151.15" x2="922.78" y2="210.6"/>
					
						<line style="clip-path:url(#SVGID_00000047739711644990132190000007704618433920227203_);fill:none;stroke:#FFFFFF;stroke-width:0.5;stroke-miterlimit:10;" x1="969.62" y1="151.15" x2="919.97" y2="210.6"/>
					
						<line style="clip-path:url(#SVGID_00000047739711644990132190000007704618433920227203_);fill:none;stroke:#FFFFFF;stroke-width:0.5;stroke-miterlimit:10;" x1="966.8" y1="151.15" x2="917.15" y2="210.6"/>
					
						<line style="clip-path:url(#SVGID_00000047739711644990132190000007704618433920227203_);fill:none;stroke:#FFFFFF;stroke-width:0.5;stroke-miterlimit:10;" x1="963.99" y1="151.15" x2="914.34" y2="210.6"/>
					
						<line style="clip-path:url(#SVGID_00000047739711644990132190000007704618433920227203_);fill:none;stroke:#FFFFFF;stroke-width:0.5;stroke-miterlimit:10;" x1="997.81" y1="152.21" x2="948.06" y2="211.66"/>
					
						<line style="clip-path:url(#SVGID_00000047739711644990132190000007704618433920227203_);fill:none;stroke:#FFFFFF;stroke-width:0.5;stroke-miterlimit:10;" x1="1000.41" y1="153.32" x2="949.43" y2="214.36"/>
					
						<line style="clip-path:url(#SVGID_00000047739711644990132190000007704618433920227203_);fill:none;stroke:#FFFFFF;stroke-width:0.5;stroke-miterlimit:10;" x1="1002.91" y1="154.38" x2="951.83" y2="215.42"/>
					
						<line style="clip-path:url(#SVGID_00000047739711644990132190000007704618433920227203_);fill:none;stroke:#FFFFFF;stroke-width:0.5;stroke-miterlimit:10;" x1="1005.34" y1="155.69" x2="953.2" y2="218.12"/>
					
						<line style="clip-path:url(#SVGID_00000047739711644990132190000007704618433920227203_);fill:none;stroke:#FFFFFF;stroke-width:0.5;stroke-miterlimit:10;" x1="1008.01" y1="156.55" x2="955.59" y2="219.19"/>
					
						<line style="clip-path:url(#SVGID_00000047739711644990132190000007704618433920227203_);fill:none;stroke:#FFFFFF;stroke-width:0.5;stroke-miterlimit:10;" x1="1010.37" y1="157.93" x2="956.96" y2="221.89"/>
					
						<line style="clip-path:url(#SVGID_00000047739711644990132190000007704618433920227203_);fill:none;stroke:#FFFFFF;stroke-width:0.5;stroke-miterlimit:10;" x1="1013.42" y1="158.35" x2="959.35" y2="222.95"/>
					
						<line style="clip-path:url(#SVGID_00000047739711644990132190000007704618433920227203_);fill:none;stroke:#FFFFFF;stroke-width:0.5;stroke-miterlimit:10;" x1="1015.66" y1="159.87" x2="960.72" y2="225.65"/>
					
						<line style="clip-path:url(#SVGID_00000047739711644990132190000007704618433920227203_);fill:none;stroke:#FFFFFF;stroke-width:0.5;stroke-miterlimit:10;" x1="1018.2" y1="160.89" x2="963.12" y2="226.71"/>
					
						<line style="clip-path:url(#SVGID_00000047739711644990132190000007704618433920227203_);fill:none;stroke:#FFFFFF;stroke-width:0.5;stroke-miterlimit:10;" x1="1020.79" y1="162" x2="964.49" y2="229.41"/>
					
						<line style="clip-path:url(#SVGID_00000047739711644990132190000007704618433920227203_);fill:none;stroke:#FFFFFF;stroke-width:0.5;stroke-miterlimit:10;" x1="1023.34" y1="163.02" x2="966.88" y2="230.48"/>
					
						<line style="clip-path:url(#SVGID_00000047739711644990132190000007704618433920227203_);fill:none;stroke:#FFFFFF;stroke-width:0.5;stroke-miterlimit:10;" x1="1026.17" y1="163.83" x2="968.25" y2="233.18"/>
					
						<line style="clip-path:url(#SVGID_00000047739711644990132190000007704618433920227203_);fill:none;stroke:#FFFFFF;stroke-width:0.5;stroke-miterlimit:10;" x1="1029.19" y1="164.28" x2="970.64" y2="234.24"/>
					
						<line style="clip-path:url(#SVGID_00000047739711644990132190000007704618433920227203_);fill:none;stroke:#FFFFFF;stroke-width:0.5;stroke-miterlimit:10;" x1="1031.45" y1="165.78" x2="972.01" y2="236.94"/>
					
						<line style="clip-path:url(#SVGID_00000047739711644990132190000007704618433920227203_);fill:none;stroke:#FFFFFF;stroke-width:0.5;stroke-miterlimit:10;" x1="1034.48" y1="166.23" x2="974.41" y2="238.01"/>
					
						<line style="clip-path:url(#SVGID_00000047739711644990132190000007704618433920227203_);fill:none;stroke:#FFFFFF;stroke-width:0.5;stroke-miterlimit:10;" x1="1036.92" y1="167.5" x2="975.78" y2="240.71"/>
					
						<line style="clip-path:url(#SVGID_00000047739711644990132190000007704618433920227203_);fill:none;stroke:#FFFFFF;stroke-width:0.5;stroke-miterlimit:10;" x1="1039.22" y1="168.83" x2="978.17" y2="241.77"/>
					
						<line style="clip-path:url(#SVGID_00000047739711644990132190000007704618433920227203_);fill:none;stroke:#FFFFFF;stroke-width:0.5;stroke-miterlimit:10;" x1="1042.44" y1="169.16" x2="979.54" y2="244.47"/>
					
						<line style="clip-path:url(#SVGID_00000047739711644990132190000007704618433920227203_);fill:none;stroke:#FFFFFF;stroke-width:0.5;stroke-miterlimit:10;" x1="1044.83" y1="170.38" x2="981.94" y2="245.53"/>
					
						<line style="clip-path:url(#SVGID_00000047739711644990132190000007704618433920227203_);fill:none;stroke:#FFFFFF;stroke-width:0.5;stroke-miterlimit:10;" x1="1047.41" y1="171.47" x2="983.31" y2="248.23"/>
					
						<line style="clip-path:url(#SVGID_00000047739711644990132190000007704618433920227203_);fill:none;stroke:#FFFFFF;stroke-width:0.5;stroke-miterlimit:10;" x1="1051.13" y1="171.11" x2="985.7" y2="249.3"/>
					
						<line style="clip-path:url(#SVGID_00000047739711644990132190000007704618433920227203_);fill:none;stroke:#FFFFFF;stroke-width:0.5;stroke-miterlimit:10;" x1="1055.84" y1="169.66" x2="987.07" y2="252"/>
					
						<line style="clip-path:url(#SVGID_00000047739711644990132190000007704618433920227203_);fill:none;stroke:#FFFFFF;stroke-width:0.5;stroke-miterlimit:10;" x1="1057.74" y1="171.47" x2="989.46" y2="253.06"/>
					
						<line style="clip-path:url(#SVGID_00000047739711644990132190000007704618433920227203_);fill:none;stroke:#FFFFFF;stroke-width:0.5;stroke-miterlimit:10;" x1="1059.3" y1="173.78" x2="990.83" y2="255.76"/>
					
						<line style="clip-path:url(#SVGID_00000047739711644990132190000007704618433920227203_);fill:none;stroke:#FFFFFF;stroke-width:0.5;stroke-miterlimit:10;" x1="1061.8" y1="174.89" x2="993.23" y2="256.82"/>
					
						<line style="clip-path:url(#SVGID_00000047739711644990132190000007704618433920227203_);fill:none;stroke:#FFFFFF;stroke-width:0.5;stroke-miterlimit:10;" x1="1063.65" y1="176.84" x2="994.6" y2="259.52"/>
					
						<line style="clip-path:url(#SVGID_00000047739711644990132190000007704618433920227203_);fill:none;stroke:#FFFFFF;stroke-width:0.5;stroke-miterlimit:10;" x1="1066.83" y1="177.14" x2="996.99" y2="260.59"/>
					
						<line style="clip-path:url(#SVGID_00000047739711644990132190000007704618433920227203_);fill:none;stroke:#FFFFFF;stroke-width:0.5;stroke-miterlimit:10;" x1="1071.44" y1="175.78" x2="998.36" y2="263.29"/>
					
						<line style="clip-path:url(#SVGID_00000047739711644990132190000007704618433920227203_);fill:none;stroke:#FFFFFF;stroke-width:0.5;stroke-miterlimit:10;" x1="1071.44" y1="179.88" x2="1000.75" y2="264.35"/>
					
						<line style="clip-path:url(#SVGID_00000047739711644990132190000007704618433920227203_);fill:none;stroke:#FFFFFF;stroke-width:0.5;stroke-miterlimit:10;" x1="1073.09" y1="182.08" x2="1002.12" y2="267.05"/>
					
						<line style="clip-path:url(#SVGID_00000047739711644990132190000007704618433920227203_);fill:none;stroke:#FFFFFF;stroke-width:0.5;stroke-miterlimit:10;" x1="1075.49" y1="183.31" x2="1004.52" y2="268.12"/>
					
						<line style="clip-path:url(#SVGID_00000047739711644990132190000007704618433920227203_);fill:none;stroke:#FFFFFF;stroke-width:0.5;stroke-miterlimit:10;" x1="1077.97" y1="184.51" x2="1005.89" y2="270.82"/>
					
						<line style="clip-path:url(#SVGID_00000047739711644990132190000007704618433920227203_);fill:none;stroke:#FFFFFF;stroke-width:0.5;stroke-miterlimit:10;" x1="1079.36" y1="186.94" x2="1008.28" y2="271.88"/>
					
						<line style="clip-path:url(#SVGID_00000047739711644990132190000007704618433920227203_);fill:none;stroke:#FFFFFF;stroke-width:0.5;stroke-miterlimit:10;" x1="1082.84" y1="186.94" x2="1009.65" y2="274.58"/>
					
						<line style="clip-path:url(#SVGID_00000047739711644990132190000007704618433920227203_);fill:none;stroke:#FFFFFF;stroke-width:0.5;stroke-miterlimit:10;" x1="1086.85" y1="186.26" x2="1012.05" y2="275.64"/>
					
						<line style="clip-path:url(#SVGID_00000047739711644990132190000007704618433920227203_);fill:none;stroke:#FFFFFF;stroke-width:0.5;stroke-miterlimit:10;" x1="1090.09" y1="186.54" x2="1013.42" y2="278.34"/>
					
						<line style="clip-path:url(#SVGID_00000047739711644990132190000007704618433920227203_);fill:none;stroke:#FFFFFF;stroke-width:0.5;stroke-miterlimit:10;" x1="1091.53" y1="188.92" x2="1015.81" y2="279.41"/>
					
						<line style="clip-path:url(#SVGID_00000047739711644990132190000007704618433920227203_);fill:none;stroke:#FFFFFF;stroke-width:0.5;stroke-miterlimit:10;" x1="1095.16" y1="188.74" x2="1017.18" y2="282.11"/>
					
						<line style="clip-path:url(#SVGID_00000047739711644990132190000007704618433920227203_);fill:none;stroke:#FFFFFF;stroke-width:0.5;stroke-miterlimit:10;" x1="1095.59" y1="192.34" x2="1019.57" y2="283.17"/>
					
						<line style="clip-path:url(#SVGID_00000047739711644990132190000007704618433920227203_);fill:none;stroke:#FFFFFF;stroke-width:0.5;stroke-miterlimit:10;" x1="1086.54" y1="207.33" x2="1020.94" y2="285.87"/>
					
						<line style="clip-path:url(#SVGID_00000047739711644990132190000007704618433920227203_);fill:none;stroke:#FFFFFF;stroke-width:0.5;stroke-miterlimit:10;" x1="1090.09" y1="207.17" x2="1023.34" y2="286.93"/>
					
						<line style="clip-path:url(#SVGID_00000047739711644990132190000007704618433920227203_);fill:none;stroke:#FFFFFF;stroke-width:0.5;stroke-miterlimit:10;" x1="1080.14" y1="223.26" x2="1024.71" y2="289.63"/>
					
						<line style="clip-path:url(#SVGID_00000047739711644990132190000007704618433920227203_);fill:none;stroke:#FFFFFF;stroke-width:0.5;stroke-miterlimit:10;" x1="1076.85" y1="231.25" x2="1027.1" y2="290.7"/>
					<use xlink:href="#SVGID_1_"  style="overflow:visible;fill:none;stroke:#FFFFFF;stroke-width:0.5;stroke-miterlimit:10;"/>
				</g>
				<polygon class="st7" points="993.16,150.23 993.16,148.02 1092.84,190.54 1092.84,192.69 				"/>
				<polygon class="st7" points="1092.84,192.69 1059.77,261.31 1059.77,258.71 1092.84,190.54 				"/>
				<polygon class="st7" points="1092.84,190.54 1114.38,217.85 1114.49,220.03 1092.84,192.69 				"/>
				<polygon class="st7" points="1114.38,217.85 1135.02,225.89 1114.49,220.03 				"/>
				<polygon class="st7" points="993.16,148.02 960.9,185.16 961.13,188.26 993.16,150.23 				"/>
				<polygon class="st7" points="960.9,185.16 920.31,199.33 961.13,188.26 				"/>
				<polygon class="st7" points="920.31,199.33 1059.77,261.31 1059.77,258.71 921.62,198.87 				"/>
				<polygon class="st7" points="1059.77,261.31 1135.02,225.89 1132.5,225.17 1061.02,258.71 				"/>
				<polygon class="st0" points="1114.49,220.03 1070.4,239.25 1061.02,258.71 1132.5,225.17 				"/>
				<polygon class="st0" points="966.96,178.19 946.04,190.35 960.9,185.16 				"/>
				<polygon class="st4" points="1095.15,190.54 1094.09,189.88 1094.1,188.67 1092.84,184.68 1091.9,189.07 1091.9,189.87 
					1090.71,190.54 1091.9,191.1 1091.9,195.07 1094.04,194.61 1094.08,191.23 				"/>
			</g>
			<polygon class="st8" points="1058.21,260.59 1058.02,332.54 1125.22,292.93 1124.7,230.57 			"/>
			<polygon class="st2" points="933.22,205.29 933.22,260.48 938.87,263.74 938.87,207.74 			"/>
			<polygon class="st2" points="1058.21,260.59 1058.21,332.54 1051.67,328.87 1051.67,257.7 			"/>
			<polygon class="st2" points="955.67,215.04 955.67,273.44 960.9,276.47 960.9,217.37 			"/>
			<polygon class="st2" points="1027.67,247.04 1027.67,315.01 1032.77,317.96 1032.77,249.17 			"/>
			<polygon class="st9" points="1058.21,332.54 1063.67,329.21 1063.67,258.2 1058.21,260.59 			"/>
			<polygon class="st9" points="1124.7,230.57 1125.28,293.01 1121.27,295.37 1121.27,232.12 			"/>
			<polygon class="st2" points="933.22,205.06 933.22,211.65 1058.02,266.84 1058.21,260.59 			"/>
			<polygon class="st10" points="969.71,281.55 969.71,239.37 1008.47,259.59 1008.47,303.93 			"/>
			<polygon class="st9" points="1058.21,260.59 1058.2,266.51 1124.74,235.36 1124.7,230.57 			"/>
			<polygon class="st9" points="1091.04,250.69 1091.04,313.04 1097.78,309.06 1097.78,247.32 			"/>
			<polygon class="st5" points="1037.27,264.23 1037.27,320.55 1046.87,326.1 1046.87,269.51 			"/>
			<polygon class="st5" points="941.27,265.13 951.53,271.05 951.53,224.6 941.27,219.87 			"/>
			<polygon class="st5" points="1067.62,268.31 1067.62,326.88 1087.67,315.06 1087.67,258.71 			"/>
			<polygon class="st5" points="1102.07,306.58 1118.87,296.67 1118.87,245.3 1102.07,253.2 			"/>
			<polygon class="st11" points="1058.2,351.87 1058.2,364 1158.82,303.93 1159.37,292.8 			"/>
			<polygon class="st12" points="1058.2,351.87 1058.2,364 894.82,267.94 894.82,256.09 			"/>
			<line class="st13" x1="1058.87" y1="356.8" x2="1058.87" y2="361.18"/>
			<g>
				<defs>
					<polygon id="SVGID_00000126314047585705194250000015418815695520052376_" points="1058.2,351.87 1058.2,364 894.82,267.94 
						894.82,256.09 					"/>
				</defs>
				<clipPath id="SVGID_00000112594573313235648500000001462945398053017023_">
					<use xlink:href="#SVGID_00000126314047585705194250000015418815695520052376_"  style="overflow:visible;"/>
				</clipPath>
				<g style="clip-path:url(#SVGID_00000112594573313235648500000001462945398053017023_);">
					<line class="st13" x1="894.82" y1="260.48" x2="1058.21" y2="356.82"/>
					<line class="st13" x1="894.82" y1="264.07" x2="1058.21" y2="360.41"/>
					<line class="st13" x1="903.72" y1="261.31" x2="903.72" y2="265.62"/>
					<line class="st13" x1="912.6" y1="266.51" x2="912.6" y2="270.67"/>
					<line class="st13" x1="925.63" y1="274.16" x2="925.63" y2="278.27"/>
					<line class="st13" x1="938.02" y1="281.42" x2="938.02" y2="285.95"/>
					<line class="st13" x1="946.4" y1="286.33" x2="946.4" y2="290.89"/>
					<line class="st13" x1="955.67" y1="291.76" x2="955.67" y2="296.36"/>
					<line class="st13" x1="969.71" y1="300" x2="969.71" y2="304.38"/>
					<line class="st13" x1="975.11" y1="303.19" x2="975.11" y2="307.82"/>
					<line class="st13" x1="988.14" y1="310.83" x2="988.14" y2="314.95"/>
					<line class="st13" x1="1000.53" y1="318.09" x2="1000.53" y2="322.62"/>
					<line class="st13" x1="1008.91" y1="323" x2="1008.91" y2="327.57"/>
					<line class="st13" x1="1018.18" y1="328.43" x2="1018.18" y2="333.03"/>
					<line class="st13" x1="1032.22" y1="336.67" x2="1032.22" y2="341.49"/>
					<line class="st13" x1="1042.07" y1="342.33" x2="1042.07" y2="347.3"/>
					<line class="st13" x1="1054.07" y1="349.39" x2="1054.07" y2="354.37"/>
					<line class="st13" x1="908.52" y1="268.71" x2="908.52" y2="272.15"/>
					<line class="st13" x1="917.4" y1="273.92" x2="917.4" y2="277.31"/>
					<line class="st13" x1="930.43" y1="281.56" x2="930.43" y2="285.07"/>
					<line class="st13" x1="942.82" y1="288.82" x2="942.82" y2="292.38"/>
					<line class="st13" x1="951.2" y1="293.73" x2="951.2" y2="297.51"/>
					<line class="st13" x1="960.47" y1="299.16" x2="960.47" y2="302.78"/>
					<line class="st13" x1="974.51" y1="307.4" x2="974.51" y2="311.06"/>
					<line class="st13" x1="979.91" y1="310.59" x2="979.91" y2="314.24"/>
					<line class="st13" x1="992.94" y1="318.23" x2="992.94" y2="321.93"/>
					<line class="st13" x1="1005.33" y1="325.49" x2="1005.33" y2="329.23"/>
					<line class="st13" x1="1013.71" y1="330.4" x2="1013.71" y2="334.67"/>
					<line class="st13" x1="1022.98" y1="335.84" x2="1022.98" y2="339.63"/>
					<line class="st13" x1="1037.02" y1="344.07" x2="1037.02" y2="348.04"/>
					<line class="st13" x1="1046.87" y1="349.74" x2="1046.87" y2="353.54"/>
					<line class="st13" x1="898.88" y1="266.47" x2="898.88" y2="270.43"/>
					<line class="st13" x1="907.77" y1="271.68" x2="907.77" y2="275.84"/>
					<line class="st13" x1="920.8" y1="279.32" x2="920.8" y2="283.44"/>
					<line class="st13" x1="933.18" y1="286.58" x2="933.18" y2="290.6"/>
					<line class="st13" x1="941.56" y1="291.49" x2="941.56" y2="295.43"/>
					<line class="st13" x1="950.83" y1="296.93" x2="950.83" y2="300.9"/>
					<line class="st13" x1="964.88" y1="305.16" x2="964.88" y2="309.11"/>
					<line class="st13" x1="970.28" y1="308.71" x2="970.28" y2="312.46"/>
					<line class="st13" x1="983.31" y1="315.99" x2="983.31" y2="320.11"/>
					<line class="st13" x1="995.69" y1="323.54" x2="995.69" y2="327.21"/>
					<line class="st13" x1="1004.07" y1="328.45" x2="1004.07" y2="332.46"/>
					<line class="st13" x1="1013.34" y1="333.6" x2="1013.34" y2="338.19"/>
					<line class="st13" x1="1027.39" y1="342.4" x2="1027.39" y2="346.79"/>
					<line class="st13" x1="1037.23" y1="348.07" x2="1037.23" y2="352.45"/>
					<line class="st13" x1="1049.23" y1="355.13" x2="1049.23" y2="359.51"/>
				</g>
			</g>
			<g>
				<polygon class="st15" points="980.69,226.14 980.69,234.44 1006.31,245.76 1006.35,237.55 				"/>
				<text transform="matrix(0.8841 0.3842 0.0352 0.9994 982.6874 233.5725)" class="st16 st17 st18">康寧殿</text>
			</g>
		</g>
		<path class="st0" d="M1114.38,220.25c0,0,4.68,1.68,6.24,1.62l0.68-1.62c0,0-1.3,0.52-1.43,0c-0.13-0.52-0.39-0.78,0.22-1.21
			c0.61-0.43,1.21,0,1.21,0s1.08-0.91,0.35-1.78c-0.74-0.87-4.2,0-4.2,0l-2.21-1.91c0,0-1.78,1.17-0.13,3.9L1114.38,220.25z"/>
		<path class="st0" d="M1122.73,223.49l4.03,0.74l-0.43-2.9c0,0,0.87-1.52-0.22-1.82l-0.69,1.21
			C1125.41,220.72,1123.38,221.02,1122.73,223.49z"/>
		<path class="st0" d="M1129.37,224.97h2.21c0,0-0.17-3.6-1.39-4.33l0.09-0.74h0.56l-0.78-0.52l-0.39-0.61l-0.3,0.69l-0.65,0.3
			l0.65,0.13l-0.04,0.78L1129.37,224.97z"/>
		<path class="st0" d="M1069.61,242.23c0,0-2.12,4.49-3.27,5.56l-1.62-0.66c0,0,1.29-0.55,1.01-1.01c-0.28-0.46-0.28-0.83-1.01-0.7
			s-0.86,0.86-0.86,0.86s-1.41,0.12-1.5-1.01s2.97-2.97,2.97-2.97l0.21-2.91c0,0,2.08-0.43,2.85,2.67L1069.61,242.23z"/>
		<path class="st0" d="M1066,250.43l-2.33,3.37l-1.75-2.36c0,0-1.68-0.46-1.13-1.44l1.35,0.37
			C1062.14,250.37,1063.79,249.14,1066,250.43z"/>
		<path class="st0" d="M1063.34,256.64l-1.56,1.56c0,0-2.42-2.67-2.08-4.04l-0.58-0.46l-0.4,0.4l0.18-0.92l-0.15-0.7l0.7,0.28
			l0.67-0.25l-0.37,0.55l0.58,0.52L1063.34,256.64z"/>
		<path class="st0" d="M957.49,185.96c0,0-4.5,2.11-6.06,2.2l-0.83-1.55c0,0,1.34,0.4,1.42-0.13c0.08-0.53,0.31-0.81-0.33-1.19
			c-0.64-0.37-1.21,0.11-1.21,0.11s-1.16-0.8-0.51-1.74s4.18-0.4,4.18-0.4l2.02-2.11c0,0,1.88,1,0.5,3.87L957.49,185.96z"/>
		<path class="st0" d="M949.78,188.96l-3.86,1.36l-0.03-2.93c0,0-1.09-1.36-0.07-1.83l0.87,1.09
			C946.69,186.64,948.75,186.62,949.78,188.96z"/>
	</g>
</g>
</svg>
