<?xml version="1.0" encoding="utf-8"?>
<!-- Generator: Adobe Illustrator 26.3.1, SVG Export Plug-In . SVG Version: 6.00 Build 0)  -->
<svg version="1.1" id="map_x5F_sun" xmlns="http://www.w3.org/2000/svg" xmlns:xlink="http://www.w3.org/1999/xlink" x="0px"
	 y="0px" viewBox="0 0 1920 900" style="enable-background:new 0 0 1920 900;" xml:space="preserve">
<style type="text/css">
	.st0{fill:#C9C3B5;}
	.st1{fill:#BCB6AA;}
	.st2{fill:#D8D4CB;}
	.st3{fill:#E2E1DC;}
	.st4{fill:#C5BCB5;}
	.st5{fill:#A87979;}
	.st6{fill:#A06E6E;}
	.st7{fill:#473140;}
	.st8{fill:#4F3244;}
	.st9{clip-path:url(#SVGID_00000020380477187164401810000010779397945653295237_);}
	.st10{fill:none;stroke:#FFFFFF;stroke-width:0.5;stroke-miterlimit:10;}
	.st11{fill:#3A2534;}
	.st12{fill:#CC9393;}
	.st13{fill:#B27D7D;}
	.st14{clip-path:url(#SVGID_00000135662283055983819500000010403412959034244750_);}
	.st15{fill:none;stroke:#C4BFB8;stroke-width:2;stroke-miterlimit:10;}
	.st16{clip-path:url(#SVGID_00000008136798664767863060000001501596272710497173_);}
	.st17{clip-path:url(#SVGID_00000072240158918039220440000005902759197479728573_);}
	.st18{clip-path:url(#SVGID_00000136401735465886779200000005782949468211874713_);}
	.st19{clip-path:url(#SVGID_00000047036853529909971630000010565758561461426570_);}
	.st20{fill:none;stroke:#AFAAA5;stroke-width:2;stroke-miterlimit:10;}
	.st21{clip-path:url(#SVGID_00000153670501324062933390000017727924972583271307_);}
	.st22{clip-path:url(#SVGID_00000016777390772235262390000018212582786925289918_);}
	.st23{clip-path:url(#SVGID_00000062897843801979127440000009360572110111647647_);}
	.st24{fill:#D3CEC5;}
</style>
<g>
	<g id="향원정">
		<g>
			<polygon class="st0" points="1215.81,315.63 1340.6,387.2 1455,321.15 1330.2,247.07 			"/>
			<polygon class="st1" points="1340.6,405.21 1340.6,387.2 1455,321.15 1455,339.17 			"/>
			<polygon class="st2" points="1340.6,405.21 1340.6,387.2 1215.81,315.63 1215.81,333.16 			"/>
			<polygon class="st3" points="1336.8,322.31 1337.03,365.05 1271.28,327.02 1271.33,286.44 			"/>
			<polygon class="st3" points="1336.8,281.35 1336.32,323.05 1271.33,285.54 1271.33,245.47 			"/>
			<polygon class="st4" points="1336.8,281.35 1397.05,246.6 1397.07,293.55 1337.03,328.23 			"/>
			<path class="st3" d="M1345.8,347.28"/>
			<polygon class="st5" points="1271.33,245.47 1271.33,285.54 1336.8,323.03 1336.8,282.81 1332.89,280.6 1332.89,315.26 
				1275,283.14 1275,247.9 			"/>
			<polygon class="st6" points="1336.8,282.81 1336.8,322.31 1397.03,288.7 1397.07,246.94 1393.52,249.14 1393.52,285.52 
				1341.52,314.46 1341.52,279.52 			"/>
			<path class="st7" d="M1402.27,243.72l-64.24,39.79l-5.14-84.54c5.64,6.09,11.27,12.19,16.91,18.28
				C1367.29,226.07,1384.78,234.89,1402.27,243.72z"/>
			<path class="st8" d="M1338.03,283.51l-73.63-41.6c13.75-6.53,27.49-13.05,41.24-19.58c9.08-7.79,18.17-15.57,27.25-23.36
				L1338.03,283.51"/>
			<g>
				<defs>
					<path id="SVGID_1_" d="M1338.03,283.51l-73.63-41.6c13.75-6.53,27.49-13.05,41.24-19.58c9.08-7.79,9.08-7.79,9.08-7.79
						l19.69,9.44"/>
				</defs>
				<clipPath id="SVGID_00000082348556034402437870000017970442193124364979_">
					<use xlink:href="#SVGID_1_"  style="overflow:visible;"/>
				</clipPath>
				<g style="clip-path:url(#SVGID_00000082348556034402437870000017970442193124364979_);">
					<line class="st10" x1="1305.42" y1="186.2" x2="1260.07" y2="240.49"/>
					<line class="st10" x1="1302.98" y1="186.2" x2="1257.63" y2="240.49"/>
					<line class="st10" x1="1299.94" y1="186.2" x2="1254.59" y2="240.49"/>
					<line class="st10" x1="1297.37" y1="186.2" x2="1252.02" y2="240.49"/>
					<line class="st10" x1="1294.8" y1="186.2" x2="1249.45" y2="240.49"/>
					<line class="st10" x1="1292.23" y1="186.2" x2="1246.88" y2="240.49"/>
					<line class="st10" x1="1289.66" y1="186.2" x2="1244.31" y2="240.49"/>
					<line class="st10" x1="1287.09" y1="186.2" x2="1241.74" y2="240.49"/>
					<line class="st10" x1="1284.52" y1="186.2" x2="1239.17" y2="240.49"/>
					<line class="st10" x1="1281.95" y1="186.2" x2="1236.6" y2="240.49"/>
					<line class="st10" x1="1279.38" y1="186.2" x2="1234.03" y2="240.49"/>
					<line class="st10" x1="1276.81" y1="186.2" x2="1231.46" y2="240.49"/>
					<line class="st10" x1="1307.7" y1="187.17" x2="1262.26" y2="241.47"/>
					<line class="st10" x1="1310.08" y1="188.18" x2="1263.51" y2="243.93"/>
					<line class="st10" x1="1312.36" y1="189.15" x2="1265.7" y2="244.9"/>
					<line class="st10" x1="1314.58" y1="190.34" x2="1266.95" y2="247.37"/>
					<line class="st10" x1="1317.01" y1="191.13" x2="1269.14" y2="248.34"/>
					<line class="st10" x1="1319.18" y1="192.39" x2="1270.39" y2="250.81"/>
					<line class="st10" x1="1321.95" y1="192.78" x2="1272.57" y2="251.78"/>
					<line class="st10" x1="1324" y1="194.17" x2="1273.83" y2="254.25"/>
					<line class="st10" x1="1326.32" y1="195.1" x2="1276.01" y2="255.22"/>
					<line class="st10" x1="1328.69" y1="196.11" x2="1277.26" y2="257.68"/>
					<line class="st10" x1="1331.02" y1="197.04" x2="1279.45" y2="258.66"/>
					<line class="st10" x1="1333.6" y1="197.78" x2="1280.7" y2="261.12"/>
					<line class="st10" x1="1336.36" y1="198.19" x2="1282.89" y2="262.09"/>
					<line class="st10" x1="1338.43" y1="199.56" x2="1284.14" y2="264.56"/>
					<line class="st10" x1="1341.19" y1="199.97" x2="1286.33" y2="265.53"/>
					<line class="st10" x1="1343.42" y1="201.13" x2="1287.58" y2="268"/>
					<line class="st10" x1="1345.52" y1="202.34" x2="1289.76" y2="268.97"/>
					<line class="st10" x1="1348.46" y1="202.65" x2="1291.01" y2="271.43"/>
					<line class="st10" x1="1350.65" y1="203.76" x2="1293.2" y2="272.41"/>
					<line class="st10" x1="1353.01" y1="204.76" x2="1294.45" y2="274.87"/>
					<line class="st10" x1="1356.41" y1="204.43" x2="1296.64" y2="275.84"/>
					<line class="st10" x1="1360.7" y1="203.11" x2="1297.89" y2="278.31"/>
					<line class="st10" x1="1362.44" y1="204.76" x2="1300.08" y2="279.28"/>
					<line class="st10" x1="1363.87" y1="206.87" x2="1301.33" y2="281.75"/>
					<line class="st10" x1="1366.15" y1="207.88" x2="1303.51" y2="282.72"/>
					<line class="st10" x1="1367.84" y1="209.67" x2="1304.77" y2="285.19"/>
					<line class="st10" x1="1370.74" y1="209.93" x2="1306.95" y2="286.16"/>
					<line class="st10" x1="1374.96" y1="208.7" x2="1308.2" y2="288.62"/>
					<line class="st10" x1="1374.96" y1="212.44" x2="1310.39" y2="289.6"/>
					<line class="st10" x1="1376.46" y1="214.45" x2="1311.64" y2="292.06"/>
					<line class="st10" x1="1378.65" y1="215.57" x2="1313.83" y2="293.03"/>
					<line class="st10" x1="1380.91" y1="216.67" x2="1315.08" y2="295.5"/>
					<line class="st10" x1="1382.19" y1="218.89" x2="1317.27" y2="296.47"/>
					<line class="st10" x1="1385.37" y1="218.89" x2="1318.52" y2="298.94"/>
					<line class="st10" x1="1389.03" y1="218.26" x2="1320.7" y2="299.91"/>
					<line class="st10" x1="1391.98" y1="218.52" x2="1321.95" y2="302.37"/>
					<line class="st10" x1="1393.3" y1="220.7" x2="1324.14" y2="303.35"/>
					<line class="st10" x1="1396.62" y1="220.53" x2="1325.39" y2="305.81"/>
					<line class="st10" x1="1397.01" y1="223.82" x2="1327.58" y2="306.78"/>
					<line class="st10" x1="1388.74" y1="237.51" x2="1328.83" y2="309.25"/>
					<line class="st10" x1="1391.98" y1="237.37" x2="1331.02" y2="310.22"/>
					<line class="st10" x1="1382.9" y1="252.06" x2="1332.27" y2="312.69"/>
					<line class="st10" x1="1379.9" y1="259.36" x2="1334.45" y2="313.66"/>
				</g>
				<use xlink:href="#SVGID_1_"  style="overflow:visible;fill:none;stroke:#FFFFFF;stroke-width:0.5;stroke-miterlimit:10;"/>
			</g>
			<polygon class="st11" points="1402.27,243.72 1349.79,217.25 1334.41,223.98 1338.03,283.51 			"/>
			<polygon class="st5" points="1275,287.66 1271.28,286.05 1271.28,326.54 1337.03,363.58 1337.03,318.96 1332.89,316.77 
				1332.89,355.45 1275.7,323.72 			"/>
			<polygon class="st6" points="1337.03,363.17 1397.03,328.53 1397.03,288.7 1392.76,291.09 1392.76,325.66 1340.73,355.9 
				1340.6,317.76 1337.03,318.96 			"/>
			<polygon class="st12" points="1278.21,252.59 1278.21,280.29 1286.29,285.31 1286.29,257.11 			"/>
			<polygon class="st12" points="1292.13,260.07 1292.13,287.77 1300.21,292.79 1300.21,264.58 			"/>
			<polygon class="st12" points="1319.54,275.17 1319.54,302.87 1327.63,307.89 1327.63,279.68 			"/>
			<polygon class="st12" points="1305.83,267.96 1305.83,295.66 1313.92,300.68 1313.92,272.47 			"/>
			<polygon class="st13" points="1344.75,281.92 1344.75,308.8 1352.55,304.54 1352.55,277.44 			"/>
			<polygon class="st13" points="1357.5,274.81 1357.5,301.69 1365.3,297.43 1365.3,270.33 			"/>
			<polygon class="st13" points="1369.66,268.08 1369.66,294.96 1377.46,290.7 1377.46,263.6 			"/>
			<polygon class="st13" points="1382.13,261.39 1382.13,288.27 1389.93,284.01 1389.93,256.91 			"/>
			<g>
				<polygon class="st8" points="1337.03,307.35 1337.03,331.37 1330.15,327.39 1330.15,303.33 				"/>
				<polygon class="st7" points="1337.03,331.37 1343.15,327.83 1343.15,303.82 1337.03,307.35 				"/>
				<path class="st8" d="M1335.35,296.31c0,0,0.84,1.54-3.52,4.5c-4.36,2.96,0.92,6.53,0.92,6.53s1.4,1.68,4.28,0
					C1339.92,305.67,1335.35,296.31,1335.35,296.31z"/>
				<path class="st7" d="M1335.35,296.31c0,0,7.8,2.82,7.8,7.51s-6.12,3.53-6.12,3.53S1338.87,303.5,1335.35,296.31z"/>
			</g>
			<g>
				<polygon class="st8" points="1406.58,266.22 1406.58,290.23 1399.69,286.26 1399.69,262.2 				"/>
				<polygon class="st7" points="1406.58,290.23 1412.69,286.7 1412.69,262.68 1406.58,266.22 				"/>
				<path class="st8" d="M1404.89,255.18c0,0,0.84,1.54-3.52,4.5c-4.36,2.96,0.92,6.53,0.92,6.53s1.4,1.68,4.28,0
					C1409.46,264.53,1404.89,255.18,1404.89,255.18z"/>
				<path class="st7" d="M1404.89,255.18c0,0,7.8,2.82,7.8,7.51c0,4.68-6.12,3.53-6.12,3.53S1408.41,262.37,1404.89,255.18z"/>
			</g>
			<g>
				<polygon class="st8" points="1406.58,308.42 1406.58,332.44 1399.69,328.47 1399.69,304.41 				"/>
				<polygon class="st7" points="1406.58,332.44 1412.69,328.91 1412.69,304.89 1406.58,308.42 				"/>
				<path class="st8" d="M1404.89,297.39c0,0,0.84,1.54-3.52,4.5c-4.36,2.96,0.92,6.53,0.92,6.53s1.4,1.68,4.28,0
					C1409.46,306.74,1404.89,297.39,1404.89,297.39z"/>
				<path class="st7" d="M1404.89,297.39c0,0,7.8,2.82,7.8,7.51s-6.12,3.53-6.12,3.53S1408.41,304.58,1404.89,297.39z"/>
			</g>
			<g>
				<polygon class="st8" points="1337.21,348.39 1337.21,372.4 1330.33,368.43 1330.33,344.37 				"/>
				<polygon class="st7" points="1337.21,372.4 1343.33,368.87 1343.33,344.85 1337.21,348.39 				"/>
				<path class="st8" d="M1335.53,337.35c0,0,0.84,1.54-3.52,4.5c-4.36,2.96,0.92,6.53,0.92,6.53s1.4,1.68,4.28,0
					C1340.09,346.7,1335.53,337.35,1335.53,337.35z"/>
				<path class="st7" d="M1335.53,337.35c0,0,7.8,2.82,7.8,7.51s-6.12,3.53-6.12,3.53S1339.04,344.54,1335.53,337.35z"/>
			</g>
			<g>
				<polygon class="st8" points="1262.89,264.49 1262.89,288.5 1256.01,284.53 1256.01,260.47 				"/>
				<polygon class="st7" points="1262.89,288.5 1269,284.97 1269,260.95 1262.89,264.49 				"/>
				<path class="st8" d="M1261.2,253.45c0,0,0.84,1.54-3.52,4.5c-4.36,2.96,0.92,6.53,0.92,6.53s1.4,1.68,4.28,0
					C1265.77,262.8,1261.2,253.45,1261.2,253.45z"/>
				<path class="st7" d="M1261.2,253.45c0,0,7.8,2.82,7.8,7.51c0,4.68-6.12,3.53-6.12,3.53S1264.72,260.64,1261.2,253.45z"/>
			</g>
			<g>
				<polygon class="st8" points="1262.12,305.22 1262.12,329.24 1255.24,325.27 1255.24,301.21 				"/>
				<polygon class="st7" points="1262.12,329.24 1268.24,325.71 1268.24,301.69 1262.12,305.22 				"/>
				<path class="st8" d="M1260.44,294.19c0,0,0.84,1.54-3.52,4.5c-4.36,2.96,0.92,6.53,0.92,6.53s1.4,1.68,4.28,0
					C1265.01,303.54,1260.44,294.19,1260.44,294.19z"/>
				<path class="st7" d="M1260.44,294.19c0,0,7.8,2.82,7.8,7.51c0,4.68-6.12,3.53-6.12,3.53S1263.96,301.38,1260.44,294.19z"/>
			</g>
			<g>
				<defs>
					<polygon id="SVGID_00000150104253448583004670000007308396857571030185_" points="1278.21,252.59 1278.21,280.29 
						1286.29,285.31 1286.29,257.11 					"/>
				</defs>
				<clipPath id="SVGID_00000093174717143714727500000003226658401617020566_">
					<use xlink:href="#SVGID_00000150104253448583004670000007308396857571030185_"  style="overflow:visible;"/>
				</clipPath>
				<g style="clip-path:url(#SVGID_00000093174717143714727500000003226658401617020566_);">
					<line class="st15" x1="1281.96" y1="253.09" x2="1281.96" y2="283.43"/>
					<line class="st15" x1="1277.15" y1="266.76" x2="1287.4" y2="271.53"/>
				</g>
			</g>
			<g>
				<defs>
					<polygon id="SVGID_00000005985427229696906870000002403238104131185309_" points="1292.13,260.07 1292.13,287.77 
						1300.21,292.79 1300.21,264.58 					"/>
				</defs>
				<clipPath id="SVGID_00000164472668421551530120000010138440432896562571_">
					<use xlink:href="#SVGID_00000005985427229696906870000002403238104131185309_"  style="overflow:visible;"/>
				</clipPath>
				<g style="clip-path:url(#SVGID_00000164472668421551530120000010138440432896562571_);">
					<line class="st15" x1="1295.88" y1="260.56" x2="1295.88" y2="290.9"/>
					<line class="st15" x1="1291.07" y1="274.23" x2="1301.31" y2="279"/>
				</g>
			</g>
			<g>
				<defs>
					<polygon id="SVGID_00000007409678787531678800000000217144519011109800_" points="1305.83,267.96 1305.83,295.66 
						1313.92,300.68 1313.92,272.47 					"/>
				</defs>
				<clipPath id="SVGID_00000166664001030191464970000001799035856152063110_">
					<use xlink:href="#SVGID_00000007409678787531678800000000217144519011109800_"  style="overflow:visible;"/>
				</clipPath>
				<g style="clip-path:url(#SVGID_00000166664001030191464970000001799035856152063110_);">
					<line class="st15" x1="1309.59" y1="268.45" x2="1309.59" y2="298.79"/>
					<line class="st15" x1="1304.78" y1="282.12" x2="1315.02" y2="286.89"/>
				</g>
			</g>
			<g>
				<defs>
					<polygon id="SVGID_00000016037834531702849890000017901493572292759715_" points="1319.54,275.17 1319.54,302.87 
						1327.63,307.89 1327.63,279.68 					"/>
				</defs>
				<clipPath id="SVGID_00000055696464515284340960000013116519606746728865_">
					<use xlink:href="#SVGID_00000016037834531702849890000017901493572292759715_"  style="overflow:visible;"/>
				</clipPath>
				<g style="clip-path:url(#SVGID_00000055696464515284340960000013116519606746728865_);">
					<line class="st15" x1="1323.3" y1="275.67" x2="1323.3" y2="306"/>
					<line class="st15" x1="1318.49" y1="289.33" x2="1328.73" y2="294.1"/>
				</g>
			</g>
			<polygon class="st11" points="1314.72,214.54 1334.41,223.98 1332.89,198.69 			"/>
			<polygon class="st7" points="1337.07,194 1335.12,192.78 1335.15,190.56 1332.83,183.21 1331.08,191.29 1331.08,192.77 
				1328.89,194 1331.08,195.03 1333.09,202.34 1335.02,201.48 1335.09,195.27 			"/>
			<g>
				<defs>
					<polygon id="SVGID_00000122685293039571424890000011386803553751996590_" points="1344.75,281.92 1344.75,308.8 
						1352.55,304.54 1352.55,277.44 					"/>
				</defs>
				<clipPath id="SVGID_00000011028864353493840780000015571792032424313784_">
					<use xlink:href="#SVGID_00000122685293039571424890000011386803553751996590_"  style="overflow:visible;"/>
				</clipPath>
				<g style="clip-path:url(#SVGID_00000011028864353493840780000015571792032424313784_);">
					<line class="st20" x1="1344.75" y1="295.97" x2="1352.55" y2="292.38"/>
					<line class="st20" x1="1348.65" y1="279.68" x2="1348.65" y2="307.49"/>
				</g>
			</g>
			<g>
				<defs>
					<polygon id="SVGID_00000176022900413021664820000017146412933331407263_" points="1357.5,274.81 1357.5,301.69 1365.3,297.43 
						1365.3,270.33 					"/>
				</defs>
				<clipPath id="SVGID_00000171678016818241422460000001066556948235693453_">
					<use xlink:href="#SVGID_00000176022900413021664820000017146412933331407263_"  style="overflow:visible;"/>
				</clipPath>
				<g style="clip-path:url(#SVGID_00000171678016818241422460000001066556948235693453_);">
					<line class="st20" x1="1357.5" y1="288.86" x2="1365.3" y2="285.27"/>
					<line class="st20" x1="1361.4" y1="272.57" x2="1361.4" y2="300.38"/>
				</g>
			</g>
			<g>
				<defs>
					<polygon id="SVGID_00000013875014110670786340000008316770965026593160_" points="1369.66,268.08 1369.66,294.96 
						1377.46,290.7 1377.46,263.6 					"/>
				</defs>
				<clipPath id="SVGID_00000145747146744867279700000002225185854416828836_">
					<use xlink:href="#SVGID_00000013875014110670786340000008316770965026593160_"  style="overflow:visible;"/>
				</clipPath>
				<g style="clip-path:url(#SVGID_00000145747146744867279700000002225185854416828836_);">
					<line class="st20" x1="1369.66" y1="282.13" x2="1377.46" y2="278.54"/>
					<line class="st20" x1="1373.56" y1="265.84" x2="1373.56" y2="293.65"/>
				</g>
			</g>
			<g>
				<defs>
					<polygon id="SVGID_00000001640046516316709680000011526870738700632218_" points="1382.13,261.39 1382.13,288.27 
						1389.93,284.01 1389.93,256.91 					"/>
				</defs>
				<clipPath id="SVGID_00000131338222038741567050000002692286076313437100_">
					<use xlink:href="#SVGID_00000001640046516316709680000011526870738700632218_"  style="overflow:visible;"/>
				</clipPath>
				<g style="clip-path:url(#SVGID_00000131338222038741567050000002692286076313437100_);">
					<line class="st20" x1="1382.13" y1="275.44" x2="1389.93" y2="271.85"/>
					<line class="st20" x1="1386.03" y1="259.15" x2="1386.03" y2="286.96"/>
				</g>
			</g>
			<polygon class="st11" points="1273.1,286.57 1329.78,319.03 1329.78,326.4 1269.65,291.94 1270.28,284.7 			"/>
			<path class="st8" d="M1262.88,269.87v18.63l71.88,41.78v-19.65L1262.88,269.87z M1276.02,295.46l-5.2-3.03v-15.5l5.2,3V295.46z
				 M1283.17,299.53l-5.2-3.03v-15.5l5.2,3V299.53z M1290.32,303.61l-5.2-3.03v-15.5l5.2,3V303.61z M1297.47,307.68l-5.2-3.03v-15.5
				l5.2,3V307.68z M1304.62,311.75l-5.2-3.03v-15.5l5.2,3V311.75z M1311.77,315.82l-5.2-3.03v-15.5l5.2,3V315.82z M1318.92,319.9
				l-5.2-3.03v-15.5l5.2,3V319.9z M1326.07,323.97l-5.2-3.03v-15.5l5.2,3V323.97z"/>
			<polygon class="st11" points="1397.8,287.41 1397.8,295.5 1343.15,327.83 1343.15,318.77 1392.47,290.23 			"/>
			<path class="st7" d="M1340.1,309.43v19.65l66.92-39.02v-17.73L1340.1,309.43z M1348.74,322.66l-4.57,2.64v-15.61l4.57-2.77
				V322.66z M1356.54,318.18l-4.57,2.64v-15.61l4.57-2.77V318.18z M1364.34,313.7l-4.57,2.64v-15.61l4.57-2.77V313.7z
				 M1372.14,309.23l-4.57,2.64v-15.61l4.57-2.77V309.23z M1379.94,304.75l-4.57,2.64v-15.61l4.57-2.77V304.75z M1387.74,300.27
				l-4.57,2.64V287.3l4.57-2.77V300.27z M1395.54,295.8l-4.57,2.64v-15.61l4.57-2.77V295.8z"/>
			<polygon class="st7" points="1399.65,264.61 1397.06,262.68 1397.07,277.85 1399.69,276.4 			"/>
			<polygon class="st7" points="1270.82,282.66 1271.33,282.36 1271.33,277.23 1270.82,276.93 			"/>
			<polygon class="st7" points="1271.33,260.83 1271.33,274.66 1269,273.34 1269,262.82 			"/>
			<polygon class="st11" points="1271.33,285.39 1270.82,285.06 1270.82,282.66 1271.33,282.36 			"/>
			<polygon class="st11" points="1328.37,364.97 1328.37,358.7 1271.67,326.77 1271.67,332.8 			"/>
			<path class="st8" d="M1258.52,311l-0.36,15.92l79.04,45.48l-0.4-18.03L1258.52,311z M1273.77,333.93l-2.1-1.13v-13.66l2.1,1.21
				V333.93z M1278.74,336.75l-2.1-1.13v-13.66l2.1,1.21V336.75z M1283.7,339.57l-2.1-1.13v-13.66l2.1,1.21V339.57z M1288.66,342.39
				l-2.1-1.13V327.6l2.1,1.21V342.39z M1293.63,345.22l-2.1-1.13v-13.66l2.1,1.21V345.22z M1298.59,348.04l-2.1-1.13v-13.66
				l2.1,1.21V348.04z M1303.55,350.86l-2.1-1.13v-13.66l2.1,1.21V350.86z M1308.52,353.68l-2.1-1.13v-13.66l2.1,1.21V353.68z
				 M1313.48,356.5l-2.1-1.13v-13.66l2.1,1.21V356.5z M1318.44,359.32l-2.1-1.13v-13.66l2.1,1.21V359.32z M1323.41,362.14l-2.1-1.13
				v-13.66l2.1,1.21V362.14z M1328.37,364.97l-2.1-1.13v-13.66l2.1,1.21V364.97z"/>
			<polygon class="st11" points="1345.8,365.26 1398.29,335.19 1398.29,327.83 1345.8,358.1 			"/>
			<path class="st7" d="M1340.6,352.42v18.01l65.91-38.06v-18.01L1340.6,352.42z M1347.79,364.02l-1.98,1.24v-13.35l1.98-1.3V364.02
				z M1351.99,361.62l-1.98,1.24V349.5l1.98-1.3V361.62z M1356.2,359.22l-1.98,1.24V347.1l1.98-1.3V359.22z M1360.41,356.82
				l-1.98,1.24V344.7l1.98-1.3V356.82z M1364.62,354.41l-1.98,1.24v-13.35l1.98-1.3V354.41z M1368.83,352.01l-1.98,1.24v-13.35
				l1.98-1.3V352.01z M1373.04,349.61l-1.98,1.24v-13.35l1.98-1.3V349.61z M1377.25,347.2l-1.98,1.24v-13.35l1.98-1.3V347.2z
				 M1381.45,344.8l-1.98,1.24v-13.35l1.98-1.3V344.8z M1385.66,342.4l-1.98,1.24v-13.35l1.98-1.3V342.4z M1389.87,340l-1.98,1.24
				v-13.35l1.98-1.3V340z M1394.08,337.59l-1.98,1.24v-13.35l1.98-1.3V337.59z M1398.29,335.19l-1.98,1.24v-13.35l1.98-1.3V335.19z"
				/>
			<polygon class="st7" points="1399.69,304.41 1397.06,303.33 1397.03,319.84 1399.65,318.32 			"/>
			<polygon class="st11" points="1398.29,321.77 1397.03,322.6 1397.03,328.53 1398.29,327.83 			"/>
			<polygon class="st8" points="1268.17,302.49 1271.28,300.08 1271.33,318.1 1268.17,316.35 			"/>
		</g>
		<g>
			<polygon class="st1" points="1276.41,351.71 1276.15,376.52 1270.99,379.35 1270.32,353.06 			"/>
			<polygon class="st1" points="1263.98,352.3 1263.98,380.29 1258.81,383.49 1258.15,353.82 			"/>
			<polygon class="st1" points="1250.02,358.21 1250.02,386.2 1244.86,389.4 1244.19,359.73 			"/>
			<polygon class="st1" points="1236.07,364.12 1236.07,392.11 1230.9,395.31 1230.24,365.64 			"/>
			<polygon class="st1" points="1222.12,372.52 1222.12,397.75 1216.95,400.64 1216.29,373.89 			"/>
			<polygon class="st1" points="1208.16,377.85 1208.16,403.08 1203,405.97 1202.33,379.22 			"/>
			<polygon class="st2" points="1196.43,401.46 1203.13,405.84 1203.13,357.57 1196.43,352.47 			"/>
			<polygon class="st2" points="1211.29,396.13 1217.35,400.51 1217.35,352.24 1211.29,347.14 			"/>
			<polygon class="st2" points="1225.23,390.8 1231.56,395.18 1231.56,346.91 1225.23,341.81 			"/>
			<polygon class="st2" points="1239.16,384.54 1244.84,388.92 1244.84,340.65 1239.16,335.55 			"/>
			<polygon class="st2" points="1258.81,383.49 1253.41,380.43 1253.41,353.52 1258.21,356.7 			"/>
			<polygon class="st2" points="1270.99,379.35 1270.32,353.06 1265.35,351.71 1266.1,375.98 			"/>
			<path class="st24" d="M1244.79,332.19c-38.73-8.86-92.95,57.72-92.95,57.72l35.3,19.51c23.82-44.37,90.79-58.22,90.79-58.22
				L1244.79,332.19z"/>
		</g>
	</g>
</g>
</svg>
