<?xml version="1.0" encoding="utf-8"?>
<!-- Generator: Adobe Illustrator 26.3.1, SVG Export Plug-In . SVG Version: 6.00 Build 0)  -->
<svg version="1.1" id="map_x5F_sun" xmlns="http://www.w3.org/2000/svg" xmlns:xlink="http://www.w3.org/1999/xlink" x="0px"
	 y="0px" viewBox="0 0 1920 900" style="enable-background:new 0 0 1920 900;" xml:space="preserve">
<style type="text/css">
	.st0{fill:#A59E92;}
	.st1{fill:#E2E1DC;}
	.st2{fill:#C5BCB5;}
	.st3{fill:#434A51;}
	.st4{fill:#B27D7D;}
	.st5{fill:#C78A89;}
	.st6{fill:#FFFFFF;}
	.st7{fill:#B28484;}
	.st8{fill:#DBD7CC;}
	.st9{font-family:'YetR-HM';}
	.st10{font-size:7.0351px;}
	.st11{fill:#3A2534;}
	.st12{fill:#4F3244;}
	.st13{clip-path:url(#SVGID_00000101068575730651807050000003531287862388193469_);}
	.st14{fill:none;stroke:#FFFFFF;stroke-width:0.5;stroke-miterlimit:10;}
	.st15{clip-path:url(#SVGID_00000150095880306074058490000008128583400008730798_);}
	.st16{fill:#473140;}
	.st17{fill:#F4F2E9;}
	.st18{fill:#A06E6E;}
	.st19{fill:#E5E1D6;}
	.st20{fill:#EAE6DC;}
	.st21{fill:#DBD8D1;}
	.st22{fill:#F4F0E3;}
</style>
<g>
	<g id="경회루">
		<polygon class="st0" points="815.05,246.08 613.93,361.63 514.06,296.05 726.76,181.17 		"/>
		<polygon class="st1" points="613.29,261.14 744.13,185.6 728.63,180.14 613.29,243.54 		"/>
		<polygon class="st2" points="613.29,261.14 564.83,233.17 591.76,217.62 613.29,243.54 		"/>
		<path class="st3" d="M567.97,218.51"/>
		<g>
			<polygon class="st4" points="609.47,241.43 609.47,258.94 613.29,261.14 613.29,243.54 			"/>
			<polygon class="st4" points="564.83,216.38 564.83,233.17 567.97,234.98 567.97,218.51 			"/>
			<polygon class="st4" points="613.29,247.15 564.83,219.75 564.83,216.38 613.29,243.54 			"/>
		</g>
		<g>
			<polygon class="st5" points="613.29,243.54 613.29,261.14 619.82,257.38 619.82,239.95 			"/>
			<polygon class="st5" points="740.45,173.64 740.45,187.73 744.13,185.6 744.13,171.61 			"/>
			<polygon class="st5" points="613.29,247.15 744.13,176.2 744.13,171.61 613.29,243.54 			"/>
			<polygon class="st5" points="649.86,223.44 649.86,240.03 655.19,236.95 655.19,220.51 			"/>
			<polygon class="st5" points="709.3,190.76 709.3,205.72 713.64,203.21 713.64,188.38 			"/>
		</g>
		<polygon class="st6" points="669.66,213.09 669.66,219.04 693.96,205.72 693.96,199.73 		"/>
		<polygon class="st7" points="548.58,316.45 558.27,311.16 558.27,274.14 548.58,267.77 		"/>
		<polygon class="st8" points="790.88,240.03 748.98,216.38 767.95,205.19 809.44,229.38 		"/>
		<g>
			<polygon class="st5" points="603.6,300.31 603.6,359.7 616.42,353.82 616.42,292.91 			"/>
			<polygon class="st5" points="776.77,200.33 776.77,248.37 766.17,254.63 766.17,206.45 			"/>
		</g>
		<g>
			<polygon class="st4" points="596.22,296.05 597.04,346.19 603.6,351.03 603.6,300.31 			"/>
			<polygon class="st4" points="538.89,262.95 538.89,310.94 548.58,316.45 548.58,267.77 			"/>
			<polygon class="st4" points="766.17,254.63 758.67,250.55 758.67,210.78 766.17,206.45 			"/>
		</g>
		<polygon class="st8" points="514.06,296.05 538.89,282.64 538.89,304.1 533.25,307.36 		"/>
		<polygon class="st8" points="558.27,292.65 574.52,283.53 558.27,274.14 		"/>
		<text transform="matrix(0.7989 -0.435 0.0232 0.9997 673.4426 215.2601)" class="st9 st10">慶會樓</text>
		<polygon class="st11" points="557.19,212.56 693.96,139.85 690.83,149.23 613.29,192.29 		"/>
		<g>
			<polygon class="st12" points="613.29,243.54 756.55,164.79 690.83,149.23 613.29,192.29 			"/>
			<polygon class="st12" points="613.29,261.14 603.6,300.31 787.75,194 744.13,185.6 			"/>
		</g>
		<g>
			<defs>
				<polygon id="SVGID_1_" points="613.29,243.54 756.55,164.79 690.83,149.23 613.29,192.29 				"/>
			</defs>
			<clipPath id="SVGID_00000016076731232150740160000012441793580845206948_">
				<use xlink:href="#SVGID_1_"  style="overflow:visible;"/>
			</clipPath>
			<g style="clip-path:url(#SVGID_00000016076731232150740160000012441793580845206948_);">
				<line class="st14" x1="599.53" y1="190.29" x2="636.42" y2="290.92"/>
				<line class="st14" x1="597.68" y1="193.5" x2="634.56" y2="294.13"/>
				<line class="st14" x1="595.37" y1="197.49" x2="632.26" y2="298.11"/>
				<line class="st14" x1="593.43" y1="200.86" x2="630.31" y2="301.49"/>
				<line class="st14" x1="591.48" y1="204.23" x2="628.37" y2="304.86"/>
				<line class="st14" x1="589.53" y1="207.6" x2="626.42" y2="308.23"/>
				<line class="st14" x1="587.59" y1="210.97" x2="624.48" y2="311.6"/>
				<line class="st14" x1="585.64" y1="214.34" x2="622.53" y2="314.97"/>
				<line class="st14" x1="583.69" y1="217.72" x2="620.58" y2="318.34"/>
				<line class="st14" x1="581.75" y1="221.09" x2="618.64" y2="321.71"/>
				<line class="st14" x1="579.8" y1="224.46" x2="616.69" y2="325.08"/>
				<line class="st14" x1="577.86" y1="227.83" x2="614.74" y2="328.46"/>
				<line class="st14" x1="602.53" y1="188.03" x2="639.35" y2="288.78"/>
				<line class="st14" x1="605.65" y1="185.69" x2="643.53" y2="289.01"/>
				<line class="st14" x1="608.66" y1="183.43" x2="646.46" y2="286.88"/>
				<line class="st14" x1="611.9" y1="181.42" x2="650.65" y2="287.1"/>
				<line class="st14" x1="614.78" y1="178.82" x2="653.58" y2="284.97"/>
				<line class="st14" x1="618.08" y1="176.94" x2="657.76" y2="285.2"/>
				<line class="st14" x1="620.68" y1="173.59" x2="660.69" y2="283.07"/>
				<line class="st14" x1="624.06" y1="171.95" x2="664.87" y2="283.29"/>
				<line class="st14" x1="627.04" y1="169.61" x2="667.8" y2="281.16"/>
				<line class="st14" x1="630.16" y1="167.27" x2="671.99" y2="281.39"/>
				<line class="st14" x1="633.14" y1="164.93" x2="674.92" y2="279.25"/>
				<line class="st14" x1="636.07" y1="162.1" x2="679.1" y2="279.48"/>
				<line class="st14" x1="638.7" y1="158.79" x2="682.03" y2="277.35"/>
				<line class="st14" x1="642.06" y1="157.12" x2="686.22" y2="277.57"/>
				<line class="st14" x1="644.69" y1="153.8" x2="689.15" y2="275.44"/>
				<line class="st14" x1="647.9" y1="151.75" x2="693.33" y2="275.67"/>
				<line class="st14" x1="651.09" y1="149.92" x2="696.26" y2="273.53"/>
				<line class="st14" x1="653.71" y1="146.28" x2="700.44" y2="273.76"/>
				<line class="st14" x1="656.83" y1="144.27" x2="703.38" y2="271.63"/>
				<line class="st14" x1="659.93" y1="141.92" x2="707.56" y2="271.85"/>
				<line class="st14" x1="662.06" y1="137.21" x2="710.49" y2="269.72"/>
				<line class="st14" x1="663.58" y1="130.58" x2="714.67" y2="269.95"/>
				<line class="st14" x1="667.07" y1="129.55" x2="717.6" y2="267.82"/>
				<line class="st14" x1="670.92" y1="129.27" x2="721.79" y2="268.04"/>
				<line class="st14" x1="673.97" y1="127.05" x2="724.72" y2="265.91"/>
				<line class="st14" x1="677.6" y1="126.18" x2="728.9" y2="266.14"/>
				<line class="st14" x1="680.15" y1="122.58" x2="731.83" y2="264"/>
				<line class="st14" x1="681.72" y1="116.11" x2="736.01" y2="264.23"/>
				<line class="st14" x1="686.63" y1="118.95" x2="738.95" y2="262.1"/>
				<line class="st14" x1="690.41" y1="118.5" x2="743.13" y2="262.32"/>
				<line class="st14" x1="693.54" y1="116.47" x2="746.06" y2="260.19"/>
				<line class="st14" x1="696.69" y1="114.34" x2="750.24" y2="260.42"/>
				<line class="st14" x1="700.57" y1="114.34" x2="753.17" y2="258.28"/>
				<line class="st14" x1="702.98" y1="110.17" x2="757.36" y2="258.51"/>
				<line class="st14" x1="704.93" y1="104.89" x2="760.29" y2="256.38"/>
				<line class="st14" x1="707.51" y1="101.21" x2="764.47" y2="256.6"/>
				<line class="st14" x1="711.36" y1="101.13" x2="767.4" y2="254.47"/>
				<line class="st14" x1="713.65" y1="96.66" x2="771.59" y2="254.7"/>
				<line class="st14" x1="718.26" y1="98.63" x2="774.52" y2="252.57"/>
				<line class="st14" x1="729.97" y1="119.85" x2="778.7" y2="252.79"/>
				<line class="st14" x1="732.23" y1="115.49" x2="781.63" y2="250.66"/>
				<line class="st14" x1="744.63" y1="138.53" x2="785.81" y2="250.89"/>
				<line class="st14" x1="751.93" y1="148" x2="788.75" y2="248.75"/>
				<line class="st14" x1="756.11" y1="148" x2="792.93" y2="248.75"/>
				<line class="st14" x1="760.29" y1="148" x2="797.11" y2="248.75"/>
				<line class="st14" x1="764.47" y1="148" x2="801.29" y2="248.75"/>
				<line class="st14" x1="768.65" y1="148" x2="805.47" y2="248.75"/>
			</g>
			<use xlink:href="#SVGID_1_"  style="overflow:visible;fill:none;stroke:#FFFFFF;stroke-width:0.5;stroke-miterlimit:10;"/>
		</g>
		<g>
			<defs>
				<polygon id="SVGID_00000147219774155774833830000006984865753865124505_" points="613.29,261.14 603.6,300.31 787.75,194 
					744.13,185.6 				"/>
			</defs>
			<clipPath id="SVGID_00000166665700437032782780000010565466176549680023_">
				<use xlink:href="#SVGID_00000147219774155774833830000006984865753865124505_"  style="overflow:visible;"/>
			</clipPath>
			<g style="clip-path:url(#SVGID_00000166665700437032782780000010565466176549680023_);">
				<line class="st14" x1="599.53" y1="190.29" x2="636.42" y2="290.92"/>
				<line class="st14" x1="597.68" y1="193.5" x2="634.56" y2="294.13"/>
				<line class="st14" x1="595.37" y1="197.49" x2="632.26" y2="298.11"/>
				<line class="st14" x1="593.43" y1="200.86" x2="630.31" y2="301.49"/>
				<line class="st14" x1="591.48" y1="204.23" x2="628.37" y2="304.86"/>
				<line class="st14" x1="589.53" y1="207.6" x2="626.42" y2="308.23"/>
				<line class="st14" x1="587.59" y1="210.97" x2="624.48" y2="311.6"/>
				<line class="st14" x1="585.64" y1="214.34" x2="622.53" y2="314.97"/>
				<line class="st14" x1="583.69" y1="217.72" x2="620.58" y2="318.34"/>
				<line class="st14" x1="581.75" y1="221.09" x2="618.64" y2="321.71"/>
				<line class="st14" x1="579.8" y1="224.46" x2="616.69" y2="325.08"/>
				<line class="st14" x1="577.86" y1="227.83" x2="614.74" y2="328.46"/>
				<line class="st14" x1="602.53" y1="188.03" x2="639.35" y2="288.78"/>
				<line class="st14" x1="605.65" y1="185.69" x2="643.53" y2="289.01"/>
				<line class="st14" x1="608.66" y1="183.43" x2="646.46" y2="286.88"/>
				<line class="st14" x1="611.9" y1="181.42" x2="650.65" y2="287.1"/>
				<line class="st14" x1="614.78" y1="178.82" x2="653.58" y2="284.97"/>
				<line class="st14" x1="618.08" y1="176.94" x2="657.76" y2="285.2"/>
				<line class="st14" x1="620.68" y1="173.59" x2="660.69" y2="283.07"/>
				<line class="st14" x1="624.06" y1="171.95" x2="664.87" y2="283.29"/>
				<line class="st14" x1="627.04" y1="169.61" x2="667.8" y2="281.16"/>
				<line class="st14" x1="630.16" y1="167.27" x2="671.99" y2="281.39"/>
				<line class="st14" x1="633.14" y1="164.93" x2="674.92" y2="279.25"/>
				<line class="st14" x1="636.07" y1="162.1" x2="679.1" y2="279.48"/>
				<line class="st14" x1="638.7" y1="158.79" x2="682.03" y2="277.35"/>
				<line class="st14" x1="642.06" y1="157.12" x2="686.22" y2="277.57"/>
				<line class="st14" x1="644.69" y1="153.8" x2="689.15" y2="275.44"/>
				<line class="st14" x1="647.9" y1="151.75" x2="693.33" y2="275.67"/>
				<line class="st14" x1="651.09" y1="149.92" x2="696.26" y2="273.53"/>
				<line class="st14" x1="653.71" y1="146.28" x2="700.44" y2="273.76"/>
				<line class="st14" x1="656.83" y1="144.27" x2="703.38" y2="271.63"/>
				<line class="st14" x1="659.93" y1="141.92" x2="707.56" y2="271.85"/>
				<line class="st14" x1="662.06" y1="137.21" x2="710.49" y2="269.72"/>
				<line class="st14" x1="663.58" y1="130.58" x2="714.67" y2="269.95"/>
				<line class="st14" x1="667.07" y1="129.55" x2="717.6" y2="267.82"/>
				<line class="st14" x1="670.92" y1="129.27" x2="721.79" y2="268.04"/>
				<line class="st14" x1="673.97" y1="127.05" x2="724.72" y2="265.91"/>
				<line class="st14" x1="677.6" y1="126.18" x2="728.9" y2="266.14"/>
				<line class="st14" x1="680.15" y1="122.58" x2="731.83" y2="264"/>
				<line class="st14" x1="681.72" y1="116.11" x2="736.01" y2="264.23"/>
				<line class="st14" x1="686.63" y1="118.95" x2="738.95" y2="262.1"/>
				<line class="st14" x1="690.41" y1="118.5" x2="743.13" y2="262.32"/>
				<line class="st14" x1="693.54" y1="116.47" x2="746.06" y2="260.19"/>
				<line class="st14" x1="696.69" y1="114.34" x2="750.24" y2="260.42"/>
				<line class="st14" x1="700.57" y1="114.34" x2="753.17" y2="258.28"/>
				<line class="st14" x1="702.98" y1="110.17" x2="757.36" y2="258.51"/>
				<line class="st14" x1="704.93" y1="104.89" x2="760.29" y2="256.38"/>
				<line class="st14" x1="707.51" y1="101.21" x2="764.47" y2="256.6"/>
				<line class="st14" x1="711.36" y1="101.13" x2="767.4" y2="254.47"/>
				<line class="st14" x1="713.65" y1="96.66" x2="771.59" y2="254.7"/>
				<line class="st14" x1="718.26" y1="98.63" x2="774.52" y2="252.57"/>
				<line class="st14" x1="729.97" y1="119.85" x2="778.7" y2="252.79"/>
				<line class="st14" x1="732.23" y1="115.49" x2="781.63" y2="250.66"/>
				<line class="st14" x1="744.63" y1="138.53" x2="785.81" y2="250.89"/>
				<line class="st14" x1="751.93" y1="148" x2="788.75" y2="248.75"/>
				<line class="st14" x1="756.11" y1="148" x2="792.93" y2="248.75"/>
				<line class="st14" x1="760.29" y1="148" x2="797.11" y2="248.75"/>
				<line class="st14" x1="764.47" y1="148" x2="801.29" y2="248.75"/>
				<line class="st14" x1="768.65" y1="148" x2="805.47" y2="248.75"/>
			</g>
			
				<use xlink:href="#SVGID_00000147219774155774833830000006984865753865124505_"  style="overflow:visible;fill:none;stroke:#FFFFFF;stroke-width:0.5;stroke-miterlimit:10;"/>
		</g>
		<g>
			<polygon class="st16" points="613.06,191.7 557.19,212.56 613.29,243.54 			"/>
			<polygon class="st16" points="693.96,139.85 756.55,164.79 690.83,149.23 			"/>
			<polygon class="st16" points="564.83,233.17 613.29,261.14 603.6,300.31 526.06,255.55 			"/>
		</g>
		<g>
			<polygon class="st17" points="613.29,192.29 613.29,190.02 690.83,147.17 690.83,149.23 			"/>
			<polygon class="st17" points="613.29,190.02 611.56,191.78 612.43,242.92 613.29,243.54 			"/>
			<polygon class="st17" points="613.29,190.02 557.19,212.56 613.29,191.78 			"/>
			<polygon class="st17" points="690.83,147.17 756.55,164.79 690.83,149.23 			"/>
			<polygon class="st17" points="693.96,139.85 690.83,149.23 690.83,147.17 693.25,140.23 			"/>
			<polygon class="st17" points="693.96,139.85 756.55,164.79 758.06,164.79 693.96,139 			"/>
			<polygon class="st17" points="758.06,164.79 612.43,245.63 613.29,243.54 756.55,164.79 			"/>
			<polygon class="st17" points="613.29,243.54 557.19,212.56 555.39,213.25 612.43,245.63 			"/>
			<polygon class="st17" points="557.19,212.56 693.96,139.85 693.96,139 554.51,212.56 555.39,213.25 			"/>
		</g>
		<polygon class="st18" points="570.56,222.99 570.56,236.47 567.97,234.98 567.97,221.52 		"/>
		<polygon class="st4" points="647.17,228.79 647.17,241.59 649.86,240.03 649.86,227.32 		"/>
		<polygon class="st4" points="707.09,196.29 707.09,206.99 709.3,205.72 709.3,195.09 		"/>
		<polygon class="st4" points="740.45,178.2 740.45,187.73 738.09,189.09 738.09,179.48 		"/>
		<polygon class="st17" points="564.83,233.17 564.83,231.77 524.74,255 526.06,255.55 		"/>
		<polygon class="st17" points="526.06,255.55 524.74,255 524.08,255.27 603.6,302.06 603.6,300.31 		"/>
		<polygon class="st17" points="603.6,300.31 603.6,302.06 789.79,194.35 787.75,194 		"/>
		<polygon class="st17" points="613.29,261.14 612.33,260.59 602.77,299.83 603.6,300.31 		"/>
		<polygon class="st17" points="789.79,194.35 789.79,192.88 744.13,184.4 744.13,185.6 		"/>
		<polygon class="st19" points="603.6,348.83 514.06,296.05 514.06,315.77 603.6,367.46 		"/>
		<g>
			<polygon class="st20" points="597.14,371.05 597.14,337.48 603.56,333.78 603.56,367.43 			"/>
			<polygon class="st21" points="597.14,337.48 592.3,334.68 592.3,368.25 597.14,371.05 			"/>
			<path class="st21" d="M597.14,324.37c0,0-7.41,5.67-4.85,10.31c2.56,4.64,6.36,3.62,6.36,3.62l0.52-12.01L597.14,324.37z"/>
			<path class="st20" d="M597.14,324.37c0,0,2.05,2.85,0.73,5.19c-0.84,1.5-2.42,2.91-2.48,4.85c-0.04,1.37,0.45,3.05,1.75,3.89
				c2.2,1.44,5.63-0.12,6.25-1.86c0.33-0.92,0.16-2.68,0.16-2.68l0,0C603.56,333.78,603.61,325.4,597.14,324.37z"/>
		</g>
		<g>
			<polygon class="st20" points="513.53,322.9 513.53,289.33 519.94,285.63 519.94,319.28 			"/>
			<polygon class="st21" points="513.53,289.33 508.68,286.53 508.68,320.11 513.53,322.9 			"/>
			<path class="st21" d="M513.53,276.23c0,0-7.41,5.67-4.85,10.31c2.56,4.64,6.36,3.62,6.36,3.62l0.52-12.01L513.53,276.23z"/>
			<path class="st20" d="M513.53,276.23c0,0,2.05,2.85,0.73,5.19c-0.84,1.5-2.42,2.91-2.48,4.85c-0.04,1.37,0.45,3.05,1.75,3.89
				c2.2,1.44,5.63-0.12,6.25-1.86c0.33-0.92,0.16-2.68,0.16-2.68l0,0C519.94,285.63,520,277.25,513.53,276.23z"/>
		</g>
		<g>
			<path class="st21" d="M810.14,206.63c0,0-7.67,5.67-5.01,10.31s6.58,3.62,6.58,3.62l0.54-12.01L810.14,206.63z"/>
			<path class="st20" d="M810.14,206.63c0,0,2.12,2.85,0.75,5.19c-0.87,1.5-2.5,2.91-2.56,4.85c-0.04,1.37,0.46,3.05,1.81,3.89
				c2.28,1.44,5.83-0.12,6.47-1.86c0.34-0.92,0.17-2.68,0.17-2.68l0,0C816.78,216.03,816.83,207.66,810.14,206.63z"/>
			<polygon class="st20" points="816.6,247.07 816.6,217.3 809.44,220.56 809.44,251.33 			"/>
			<polygon class="st21" points="809.44,229.38 809.44,220.56 805.37,217.39 805.37,227.01 			"/>
		</g>
		<polygon class="st4" points="567.97,230.27 613.29,256.39 613.29,261.14 567.97,234.98 		"/>
		<polygon class="st5" points="613.29,256.39 744.13,182.16 744.13,185.6 613.29,261.14 		"/>
		<polygon class="st18" points="567.97,230.27 569.68,229.38 609.47,251.99 609.47,254.19 		"/>
		<polygon class="st18" points="619.82,251.29 647.17,235.62 649.86,235.64 619.82,252.69 		"/>
		<polygon class="st18" points="655.19,232.62 709.3,201.92 707.09,201.62 655.19,230.99 		"/>
		<polygon class="st18" points="740.39,184.28 738.09,184.28 713.64,198.17 713.64,199.46 		"/>
		<path class="st22" d="M603.6,348.83v18.63l205.84-116.17v-21.91L603.6,348.83z M620.43,355.05l-6.5,3.74v-12.11l6.5-3.85V355.05z
			 M638.46,344.48l-6.5,3.74v-12.11l6.5-3.85V344.48z M656.49,333.91l-6.5,3.74v-12.11l6.5-3.85V333.91z M674.53,324.14l-6.5,3.74
			v-12.11l6.5-3.85V324.14z M692.56,314.23l-6.5,3.74v-12.11l6.5-3.85V314.23z M710.59,303.8l-6.5,3.74v-12.11l6.5-3.85V303.8z
			 M728.62,294.19l-6.5,3.74v-12.11l6.5-3.85V294.19z M746.65,283.91l-6.5,3.74v-12.11l6.5-3.85V283.91z M764.68,273.11l-6.5,3.74
			v-12.11l6.5-3.85V273.11z M782.71,262.47l-6.5,3.74V254.1l6.5-3.85V262.47z M800.74,252.26l-6.5,3.74v-12.11l6.5-3.85V252.26z"/>
		<g>
			<polygon class="st20" points="679.82,330.7 679.82,297.12 686.23,293.42 686.23,327.08 			"/>
			<polygon class="st21" points="679.82,297.12 674.97,294.33 674.97,327.9 679.82,330.7 			"/>
			<path class="st21" d="M679.82,284.02c0,0-7.41,5.67-4.85,10.31c2.56,4.64,6.36,3.62,6.36,3.62l0.52-12.01L679.82,284.02z"/>
			<path class="st20" d="M679.82,284.02c0,0,2.05,2.85,0.73,5.19c-0.84,1.5-2.42,2.91-2.48,4.85c-0.04,1.37,0.45,3.05,1.75,3.89
				c2.2,1.44,5.63-0.12,6.25-1.86c0.33-0.92,0.16-2.68,0.16-2.68l0,0C686.23,293.42,686.29,285.05,679.82,284.02z"/>
		</g>
		<g>
			<polygon class="st20" points="752.8,289.55 752.8,255.98 759.21,252.27 759.21,285.93 			"/>
			<polygon class="st21" points="752.8,255.98 747.95,253.18 747.95,286.75 752.8,289.55 			"/>
			<path class="st21" d="M752.8,242.87c0,0-7.41,5.67-4.85,10.31c2.56,4.64,6.36,3.62,6.36,3.62l0.52-12.01L752.8,242.87z"/>
			<path class="st20" d="M752.8,242.87c0,0,2.05,2.85,0.73,5.19c-0.84,1.5-2.42,2.91-2.48,4.85c-0.04,1.37,0.45,3.05,1.75,3.89
				c2.2,1.44,5.63-0.12,6.25-1.86c0.33-0.92,0.16-2.68,0.16-2.68l0,0C759.21,252.27,759.27,243.9,752.8,242.87z"/>
		</g>
		<polygon class="st8" points="795.82,242.96 800.74,245.63 800.74,240.04 		"/>
	</g>
</g>
</svg>
