<?xml version="1.0" encoding="utf-8"?>
<!-- Generator: Adobe Illustrator 26.3.1, SVG Export Plug-In . SVG Version: 6.00 Build 0)  -->
<svg version="1.1" id="map_x5F_sun" xmlns="http://www.w3.org/2000/svg" xmlns:xlink="http://www.w3.org/1999/xlink" x="0px"
	 y="0px" viewBox="0 0 1920 900" style="enable-background:new 0 0 1920 900;" xml:space="preserve">
<style type="text/css">
	.st0{fill:url(#SVGID_1_);}
	.st1{fill:url(#SVGID_00000124860030431639592890000009801915036768314525_);}
	.st2{fill:#CCCCCC;}
	.st3{fill:url(#SVGID_00000008862698122042200330000000676088217479609004_);}
	.st4{fill:#B3BDF4;}
	.st5{opacity:0.19;}
	.st6{opacity:0.32;fill:url(#SVGID_00000049909522145372819110000015537703223133635500_);enable-background:new    ;}
	.st7{opacity:0.32;fill:url(#SVGID_00000116924395053808390050000016538971994128204426_);enable-background:new    ;}
	.st8{opacity:0.32;fill:url(#SVGID_00000128461600026594993280000007667603241920353930_);enable-background:new    ;}
	.st9{opacity:0.32;fill:url(#SVGID_00000046315184210509637750000018392275990574083218_);enable-background:new    ;}
	.st10{opacity:0.32;fill:url(#SVGID_00000044165857927898550570000017857070507355848325_);enable-background:new    ;}
	.st11{opacity:0.32;fill:url(#SVGID_00000083771615927484871730000010180815107100268988_);enable-background:new    ;}
	.st12{opacity:0.32;fill:url(#SVGID_00000167381277383717360400000007524438621460166579_);enable-background:new    ;}
	.st13{opacity:0.32;fill:url(#SVGID_00000059278952937688874000000015187151564533699990_);enable-background:new    ;}
	.st14{opacity:0.32;fill:url(#SVGID_00000028308838964439140370000016277423088400245665_);enable-background:new    ;}
	.st15{opacity:0.32;fill:url(#SVGID_00000085936169293804402540000016968309965513023914_);enable-background:new    ;}
	.st16{opacity:0.32;fill:url(#SVGID_00000159450722662601671150000012636942914917103534_);enable-background:new    ;}
	.st17{fill:#E5E1D6;}
	.st18{fill:#C78A89;}
	.st19{fill:#B27D7D;}
	.st20{fill:#FFDF5A;}
	.st21{fill:#DBB721;}
	.st22{fill:#CE2925;}
	.st23{fill:#3A2534;}
	.st24{fill:#EA4747;}
	.st25{fill:#E23D3D;}
	.st26{fill:#4C49E8;}
	.st27{fill:#4141D8;}
</style>
<g>
	<g id="길">
		<g>
			
				<linearGradient id="SVGID_1_" gradientUnits="userSpaceOnUse" x1="1152.349" y1="174.8912" x2="1110.6427" y2="249.9627" gradientTransform="matrix(1 0 0 -1 0 897.8898)">
				<stop  offset="0" style="stop-color:#FFFFFF;stop-opacity:0"/>
				<stop  offset="1" style="stop-color:#BABABA"/>
			</linearGradient>
			<path class="st0" d="M1157.32,676.36l45.79-26.46c0,0,6.09-3.53,1.08-6.98s-172.14-98.24-172.14-98.24l-58.47,31.2l172.9,99.71
				C1146.48,675.59,1151.74,679.85,1157.32,676.36z"/>
			
				<linearGradient id="SVGID_00000157275415180373622150000009152135494993698222_" gradientUnits="userSpaceOnUse" x1="1075.8094" y1="736.835" x2="1124.6058" y2="726.8254" gradientTransform="matrix(1 0 0 -1 0 897.8898)">
				<stop  offset="0" style="stop-color:#FFFFFF;stop-opacity:0"/>
				<stop  offset="1" style="stop-color:#B3B3B3"/>
			</linearGradient>
			<path style="fill:url(#SVGID_00000157275415180373622150000009152135494993698222_);" d="M1185.68,181.18l-76.84-44.59
				c0,0-7.25-5.41-14.41-0.93c-7.16,4.49-23.92,13.84-23.92,13.84s-5.53,4.84-0.2,8.2s85.77,52.33,85.77,52.33
				s21.6-20.73,14.35-15.78S1185.68,181.18,1185.68,181.18z"/>
			<path class="st2" d="M1154.1,162.67c-7.3-4.26-38.11,18.51-38.11,18.51s5.38,3.28,0,0c-3.67-2.24,39.72,28.61,40.1,28.85
				l29.3,18.17l39.37,24.55l9.59,5.11l-180,104.32l-187.17-114.5c-3.35-2.29-11.34-7.27-18-3.33c-8.8,5.21-45.53,25.27-45.53,25.27
				L613.44,393.86l0.15,0.11l-99.18,57.48l0,0l-27.18,14.92c0,0-6.62,4.53,0.16,9.41c5.82,4.19,103.96,73.04,131.78,92.55l0.03,0.37
				l0.9,0.28c0.92,0.64,1.75,1.23,2.48,1.74L449.8,686.29c-0.66-0.03,28.03,14.35,36.74,19.79l171.39-99.23
				c1.54,0.1,3.86,0.73,7.16,2.83c6.92,4.39,136.28,78.68,136.28,78.68s4.69,5.17,15.49,0c10.8-5.18,170.34-98.62,170.34-98.62
				l5.39-2.88c0,0,99.66-7.99,56.79-32.33l-30.1-18.63l-10.88-8.31c-1.45-1.2-3.3-2.67-5.67-4.44
				c-11.84-6.87,173.58-107.78,173.58-107.78s10.81-11.39-2.24-19.88s-49.65-27.64-49.65-27.64s-4.66-2.71,0-6.59
				s142.98-83.11,142.98-83.11l29.48-17.45l0.32-15.35C1297.2,245.35,1167.17,170.29,1154.1,162.67z M1072.25,418.54
				c-33.71,20.16-104.65,61.88-104.65,61.88l-39,24.88l58.6,32.58c0,0,3.35,1.73,2.39,5.54c-46.46,26.55-174.72,99.73-174.72,99.73
				s-4.2,3.82-12.25,0.15c-7.45-3.4-77.79-43.85-88.28-49.89l-54.62-31.9l0,0l0,0l-0.02-0.01l-3.79-2.38l-0.01,0.01l-7.42-4.62
				L547.53,486.1c0,0-21.12-11.27-10.67-16.93c4.98-2.69,8.78-4.73,11.64-6.25l0.21,0.07l5.36-3.01c1.56-0.81,2.17-1.12,2.17-1.12
				l-0.14-0.02l83.34-46.75l0,0l211.62-133.27l6.15-3.67c41.18,25.88,206.59,129.82,213.1,133.88
				C1077.75,413.68,1072.26,418.53,1072.25,418.54z"/>
			
				<linearGradient id="SVGID_00000078725098817463967580000002320262447160190649_" gradientUnits="userSpaceOnUse" x1="401.8233" y1="158.5956" x2="470.2218" y2="203.6385" gradientTransform="matrix(1 0 0 -1 0 897.8898)">
				<stop  offset="0" style="stop-color:#FFFFFF;stop-opacity:0"/>
				<stop  offset="1" style="stop-color:#A3A3A3"/>
			</linearGradient>
			<path style="fill:url(#SVGID_00000078725098817463967580000002320262447160190649_);" d="M452.27,683.52l-46.87,30.73
				c-1.97,1.29-1.93,4.19,0.07,5.42c0.47,0.29,0.94,0.59,1.42,0.89c2.44,1.55,22.13,13.22,28.33,16.9c1.13,0.67,2.54,0.58,3.59-0.22
				c1.53-1.17,3.75-2.86,5.19-3.91c1.91-1.4,30.81-19.7,42.12-26.86c2.04-1.29,1.98-4.29-0.11-5.5l-30.37-17.55
				C454.59,682.82,453.28,682.85,452.27,683.52z"/>
		</g>
		<path class="st4" d="M1226.62,414.29l86.53,49.6c0,0,16.92,10.26,34.61,0.36c17.69-9.9,190.02-110.11,190.02-110.11
			s16.48-10.75,0.77-20.02c-15.71-9.28-173.48-99.67-173.48-99.67l-225.93,130.44L1226.62,414.29z"/>
		<path class="st4" d="M574.18,398.61l-155.36-91c0,0-17.97-10.23-0.57-20.31s277.47-159.54,277.47-159.54s15.11-11.23,34.61,0
			l149.6,86.15L574.18,398.61z"/>
	</g>
	<g id="그림자" class="st5">
		
			<linearGradient id="SVGID_00000065052933629475638700000008497792212701068973_" gradientUnits="userSpaceOnUse" x1="1054.1271" y1="170.9723" x2="918.9984" y2="317.7787" gradientTransform="matrix(1 0 0 -1 0 897.8898)">
			<stop  offset="0" style="stop-color:#FFFFFF;stop-opacity:0"/>
			<stop  offset="1" style="stop-color:#000000"/>
		</linearGradient>
		
			<polygon style="opacity:0.32;fill:url(#SVGID_00000065052933629475638700000008497792212701068973_);enable-background:new    ;" points="
			810.61,640.1 981.17,756.84 1145.93,648.91 982.25,540.82 		"/>
		
			<linearGradient id="SVGID_00000147216979259246278120000007506461726571576743_" gradientUnits="userSpaceOnUse" x1="805.2014" y1="11.3829" x2="702.6036" y2="123.9901" gradientTransform="matrix(1 0 0 -1 0 897.8898)">
			<stop  offset="0" style="stop-color:#FFFFFF;stop-opacity:0"/>
			<stop  offset="1" style="stop-color:#000000"/>
		</linearGradient>
		
			<polygon style="opacity:0.32;fill:url(#SVGID_00000147216979259246278120000007506461726571576743_);enable-background:new    ;" points="
			661.08,807.49 776.48,884.13 840.25,845.81 733.45,761.24 		"/>
		
			<linearGradient id="SVGID_00000173844293318524774980000009420032996792321708_" gradientUnits="userSpaceOnUse" x1="1507.2596" y1="488.1017" x2="1423.8469" y2="544.8224" gradientTransform="matrix(1 0 0 -1 0 897.8898)">
			<stop  offset="0" style="stop-color:#FFFFFF;stop-opacity:0"/>
			<stop  offset="1" style="stop-color:#000000"/>
		</linearGradient>
		
			<polygon style="opacity:0.32;fill:url(#SVGID_00000173844293318524774980000009420032996792321708_);enable-background:new    ;" points="
			1364.58,392.37 1459,438.81 1567.43,371.1 1478.19,326.78 		"/>
		
			<linearGradient id="SVGID_00000115479186578458544910000002847020731864681907_" gradientUnits="userSpaceOnUse" x1="1294.9287" y1="480.074" x2="1258.2271" y2="520.1122" gradientTransform="matrix(1 0 0 -1 0 897.8898)">
			<stop  offset="0" style="stop-color:#FFFFFF;stop-opacity:0"/>
			<stop  offset="1" style="stop-color:#000000"/>
		</linearGradient>
		
			<polygon style="opacity:0.32;fill:url(#SVGID_00000115479186578458544910000002847020731864681907_);enable-background:new    ;" points="
			1307.59,368.13 1337.78,385.06 1253.74,429.8 1209.68,404.32 		"/>
		
			<linearGradient id="SVGID_00000031898143238985649890000005390489224365158060_" gradientUnits="userSpaceOnUse" x1="1175.6149" y1="546.0576" x2="1121.3966" y2="593.6029" gradientTransform="matrix(1 0 0 -1 0 897.8898)">
			<stop  offset="0" style="stop-color:#FFFFFF;stop-opacity:0"/>
			<stop  offset="1" style="stop-color:#000000"/>
		</linearGradient>
		
			<polygon style="opacity:0.32;fill:url(#SVGID_00000031898143238985649890000005390489224365158060_);enable-background:new    ;" points="
			1065.06,341.01 1129.82,384.28 1236.32,318.94 1176.1,274.72 		"/>
		
			<linearGradient id="SVGID_00000176030099104850423270000015755732631125742509_" gradientUnits="userSpaceOnUse" x1="732.41" y1="570.4167" x2="689.0353" y2="608.7867" gradientTransform="matrix(1 0 0 -1 0 897.8898)">
			<stop  offset="0" style="stop-color:#FFFFFF;stop-opacity:0"/>
			<stop  offset="1" style="stop-color:#000000"/>
		</linearGradient>
		
			<polygon style="opacity:0.32;fill:url(#SVGID_00000176030099104850423270000015755732631125742509_);enable-background:new    ;" points="
			563.13,346.91 616.21,394.52 847.99,261.19 797.01,214.78 		"/>
		
			<linearGradient id="SVGID_00000016792789356310529300000012353784476230164149_" gradientUnits="userSpaceOnUse" x1="1086.578" y1="421.0095" x2="1020.6818" y2="476.0619" gradientTransform="matrix(1 0 0 -1 0 897.8898)">
			<stop  offset="0" style="stop-color:#FFFFFF;stop-opacity:0"/>
			<stop  offset="1" style="stop-color:#000000"/>
		</linearGradient>
		
			<polygon style="opacity:0.32;fill:url(#SVGID_00000016792789356310529300000012353784476230164149_);enable-background:new    ;" points="
			1001.31,441.03 1063.3,485.3 1106.73,458.33 1044.87,415.89 		"/>
		
			<linearGradient id="SVGID_00000170274625140882989190000012616755664401245368_" gradientUnits="userSpaceOnUse" x1="1233.1079" y1="363.5342" x2="1171.3824" y2="396.0652" gradientTransform="matrix(1 0 0 -1 0 897.8898)">
			<stop  offset="0" style="stop-color:#FFFFFF;stop-opacity:0"/>
			<stop  offset="1" style="stop-color:#000000"/>
		</linearGradient>
		
			<polygon style="opacity:0.32;fill:url(#SVGID_00000170274625140882989190000012616755664401245368_);enable-background:new    ;" points="
			1170.87,508.42 1232.8,537.89 1241.76,532.05 1188.13,505.24 		"/>
		
			<linearGradient id="SVGID_00000009556060626201054850000009524610428219005878_" gradientUnits="userSpaceOnUse" x1="1162.8823" y1="232.2059" x2="1080.3037" y2="301.4386" gradientTransform="matrix(1 0 0 -1 0 897.8898)">
			<stop  offset="0" style="stop-color:#FFFFFF;stop-opacity:0"/>
			<stop  offset="1" style="stop-color:#000000"/>
		</linearGradient>
		
			<polygon style="opacity:0.32;fill:url(#SVGID_00000009556060626201054850000009524610428219005878_);enable-background:new    ;" points="
			1111.96,586.92 1197.87,630.15 1099.85,669.35 1016.91,608.17 		"/>
		
			<linearGradient id="SVGID_00000147901179973477011570000005042723135104678042_" gradientUnits="userSpaceOnUse" x1="1143.7274" y1="726.5377" x2="1084.5044" y2="766.5757" gradientTransform="matrix(1 0 0 -1 0 897.8898)">
			<stop  offset="0" style="stop-color:#FFFFFF;stop-opacity:0"/>
			<stop  offset="1" style="stop-color:#000000"/>
		</linearGradient>
		
			<polygon style="opacity:0.32;fill:url(#SVGID_00000147901179973477011570000005042723135104678042_);enable-background:new    ;" points="
			1078.71,136.7 1147.06,179.52 1156.79,170.88 1088.98,130.73 		"/>
		
			<linearGradient id="SVGID_00000039102147132550631520000000375227932392968613_" gradientUnits="userSpaceOnUse" x1="1282.2889" y1="601.6752" x2="1207.2175" y2="645.8839" gradientTransform="matrix(1 0 0 -1 0 897.8898)">
			<stop  offset="0" style="stop-color:#FFFFFF;stop-opacity:0"/>
			<stop  offset="1" style="stop-color:#000000"/>
		</linearGradient>
		
			<polygon style="opacity:0.32;fill:url(#SVGID_00000039102147132550631520000000375227932392968613_);enable-background:new    ;" points="
			1197.57,254.95 1283.56,306.05 1292.63,297.32 1214.47,247.19 		"/>
	</g>
	<g id="조형물">
		<g>
			<path class="st17" d="M516.08,402.84v14.93c0,0,3.17,4.3,5.83,0v-14.93H516.08z"/>
			<path class="st18" d="M537.34,390.08c-2.56,7.04-9.54,12.75-18.07,12.75c-8.2,0-15.49-5.29-18.07-12.75
				c-2.2-6.37-0.96-14.29,4.25-19.13c5.14-4.78,11.85-4.42,14.88-4.25c3.19,0.17,10.34,0.57,14.88,6.38
				C540.78,380.18,537.64,389.25,537.34,390.08z"/>
			<path class="st19" d="M533.32,371.29c0,0-4.47,19.72-27.31,26.17c0,0,12.05,14.8,28.62,0c1.19-1.07,5.43-5.89,5.28-12.74
				c-0.11-4.96-2.53-8.62-3.26-9.7C535.48,373.32,534.25,372.1,533.32,371.29z"/>
			<path class="st18" d="M532.81,363.36c-1.95,5.38-7.29,9.74-13.8,9.74c-6.26,0-11.83-4.04-13.8-9.74
				c-1.68-4.86-0.73-10.91,3.25-14.61c3.93-3.65,9.05-3.37,11.37-3.25c2.44,0.13,7.89,0.43,11.37,4.87
				C535.43,355.8,533.04,362.73,532.81,363.36z"/>
			<path class="st19" d="M528.9,348.18c0,0-3.41,15.06-20.86,19.99c0,0,9.2,11.3,21.86,0C529.9,368.17,539.61,358.98,528.9,348.18z"
				/>
		</g>
		<g>
			<path class="st17" d="M969.11,619.55v14.93c0,0,3.17,4.3,5.83,0v-14.93H969.11z"/>
			<path class="st18" d="M990.37,606.79c-2.56,7.04-9.54,12.75-18.07,12.75c-8.2,0-15.49-5.29-18.07-12.75
				c-2.2-6.37-0.96-14.29,4.25-19.13c5.14-4.78,11.85-4.42,14.88-4.25c3.19,0.17,10.34,0.57,14.88,6.38
				C993.8,596.89,990.67,605.96,990.37,606.79z"/>
			<path class="st19" d="M986.34,588c0,0-4.47,19.72-27.31,26.17c0,0,12.05,14.8,28.62,0c1.19-1.07,5.43-5.89,5.28-12.74
				c-0.11-4.96-2.53-8.62-3.26-9.7C988.51,590.03,987.27,588.81,986.34,588z"/>
			<path class="st18" d="M985.84,580.07c-1.96,5.38-7.29,9.74-13.8,9.74c-6.26,0-11.83-4.04-13.8-9.74
				c-1.68-4.86-0.73-10.91,3.25-14.61c3.93-3.65,9.05-3.37,11.37-3.25c2.44,0.13,7.89,0.43,11.37,4.87
				C988.46,572.51,986.07,579.44,985.84,580.07z"/>
			<path class="st19" d="M981.93,564.89c0,0-3.41,15.06-20.86,19.99c0,0,9.2,11.3,21.86,0
				C982.92,584.88,992.63,575.69,981.93,564.89z"/>
		</g>
		<g>
			<path class="st17" d="M880.9,189.39v14.93c0,0,3.17,4.3,5.83,0v-14.93L880.9,189.39L880.9,189.39z"/>
			<path class="st20" d="M902.16,176.64c-2.56,7.04-9.54,12.75-18.07,12.75c-8.2,0-15.49-5.29-18.07-12.75
				c-2.2-6.37-0.96-14.29,4.25-19.13c5.14-4.78,11.85-4.42,14.88-4.25c3.19,0.17,10.34,0.57,14.88,6.38
				C905.59,166.74,902.46,175.81,902.16,176.64z"/>
			<path class="st21" d="M898.13,157.85c0,0-4.47,19.72-27.31,26.17c0,0,12.05,14.8,28.62,0c1.19-1.07,5.43-5.89,5.28-12.74
				c-0.11-4.96-2.53-8.62-3.26-9.7C900.3,159.88,899.06,158.66,898.13,157.85z"/>
			<path class="st20" d="M897.63,149.92c-1.95,5.38-7.29,9.74-13.8,9.74c-6.26,0-11.83-4.04-13.8-9.74
				c-1.68-4.86-0.73-10.91,3.25-14.61c3.93-3.65,9.05-3.37,11.37-3.25c2.44,0.13,7.89,0.43,11.37,4.87
				C900.25,142.36,897.86,149.28,897.63,149.92z"/>
			<path class="st21" d="M893.72,134.74c0,0-3.41,15.06-20.86,19.99c0,0,9.2,11.3,21.86,0
				C894.72,154.73,904.42,145.53,893.72,134.74z"/>
		</g>
		<g>
			<path class="st17" d="M1520.14,388.68v14.93c0,0,3.17,4.3,5.83,0v-14.93H1520.14z"/>
			<path class="st20" d="M1541.4,375.92c-2.56,7.04-9.54,12.75-18.07,12.75c-8.2,0-15.49-5.29-18.07-12.75
				c-2.2-6.37-0.96-14.29,4.25-19.13c5.14-4.78,11.85-4.42,14.88-4.25c3.19,0.17,10.34,0.57,14.88,6.38
				C1544.83,366.02,1541.7,375.09,1541.4,375.92z"/>
			<path class="st21" d="M1537.37,357.14c0,0-4.47,19.72-27.31,26.17c0,0,12.05,14.8,28.62,0c1.19-1.07,5.43-5.89,5.28-12.74
				c-0.11-4.96-2.53-8.62-3.26-9.7C1539.54,359.16,1538.31,357.94,1537.37,357.14z"/>
			<path class="st20" d="M1536.87,349.2c-1.95,5.38-7.29,9.74-13.8,9.74c-6.26,0-11.83-4.04-13.8-9.74
				c-1.68-4.86-0.73-10.91,3.25-14.61c3.93-3.65,9.05-3.37,11.37-3.25c2.44,0.13,7.89,0.43,11.37,4.87
				C1539.49,341.64,1537.1,348.57,1536.87,349.2z"/>
			<path class="st21" d="M1532.96,334.02c0,0-3.41,15.06-20.86,19.99c0,0,9.2,11.3,21.86,0
				C1533.96,354.01,1543.67,344.82,1532.96,334.02z"/>
		</g>
		<g>
			<polygon class="st22" points="944.24,118.82 936.3,122.37 946.1,128.91 958.08,123.46 949.48,116.8 			"/>
			<path class="st23" d="M912.34,186.63c0,0,1.23,1.09,2.25,0s0-81.93,0-81.93l27.16,14.41c0,0,0,5.45,4.36,3.27
				c0,0,4.36-5.44-3.27-5.44l-27.23-14.16c0,0-3.27-2.73-3.27,0.81S912.34,186.63,912.34,186.63z"/>
			<polygon class="st24" points="946.1,128.91 946.1,149.95 958.08,144.44 958.08,123.46 			"/>
			<polygon class="st25" points="936.3,122.37 936.3,144.15 946.1,149.95 946.1,128.91 			"/>
			<polygon class="st26" points="946.1,149.6 946.1,170.64 958.08,165.13 958.08,144.15 			"/>
			<polygon class="st27" points="936.3,143.07 936.3,164.85 946.1,170.64 946.1,149.6 			"/>
		</g>
		<g>
			<polygon class="st22" points="1576.95,310.48 1569.01,314.04 1578.81,320.57 1590.79,315.13 1582.19,308.46 			"/>
			<path class="st23" d="M1545.05,378.29c0,0,1.23,1.09,2.25,0s0-81.93,0-81.93l27.16,14.41c0,0,0,5.45,4.36,3.27
				c0,0,4.36-5.44-3.27-5.44l-27.22-14.16c0,0-3.27-2.73-3.27,0.81C1545.05,298.79,1545.05,378.29,1545.05,378.29z"/>
			<polygon class="st24" points="1578.81,320.57 1578.81,341.61 1590.79,336.1 1590.79,315.13 			"/>
			<polygon class="st25" points="1569.01,314.04 1569.01,335.82 1578.81,341.61 1578.81,320.57 			"/>
			<polygon class="st26" points="1578.81,341.26 1578.81,362.3 1590.79,356.79 1590.79,335.82 			"/>
			<polygon class="st27" points="1569.01,334.73 1569.01,356.51 1578.81,362.3 1578.81,341.26 			"/>
		</g>
		<g>
			<polygon class="st22" points="1177.74,556.37 1185.68,559.92 1175.88,566.45 1163.9,561.01 1172.5,554.34 			"/>
			<path class="st23" d="M1203.1,624.17c0,0,1.23,1.09,2.25,0s0-81.93,0-81.93s-2.25-4.66-2.25-1.11S1203.1,624.17,1203.1,624.17z"
				/>
			<path class="st23" d="M1203.18,542.24l-27.16,14.41c0,0,0,5.45-4.36,3.27c0,0-4.36-5.45,3.27-5.45l27.22-14.16
				c0,0,3.27-2.73,3.27,0.81S1203.18,542.24,1203.18,542.24z"/>
			<polygon class="st24" points="1175.88,566.45 1175.88,587.49 1163.9,581.98 1163.9,561.01 			"/>
			<polygon class="st25" points="1185.68,559.92 1185.68,581.7 1175.88,587.49 1175.88,566.45 			"/>
			<polygon class="st26" points="1175.88,587.15 1175.88,608.18 1163.9,602.67 1163.9,581.7 			"/>
			<polygon class="st27" points="1185.68,580.61 1185.68,602.39 1175.88,608.18 1175.88,587.15 			"/>
		</g>
		<g>
			<polygon class="st22" points="750.85,631.51 758.79,635.06 748.99,641.6 737.01,636.15 745.61,629.48 			"/>
			<path class="st23" d="M776.22,699.31c0,0,1.23,1.09,2.25,0s0-81.93,0-81.93s-2.25-4.66-2.25-1.11S776.22,699.31,776.22,699.31z"
				/>
			<path class="st23" d="M776.3,617.38l-27.16,14.41c0,0,0,5.45-4.36,3.27c0,0-4.36-5.44,3.27-5.44l27.22-14.16
				c0,0,3.27-2.73,3.27,0.81S776.3,617.38,776.3,617.38z"/>
			<polygon class="st24" points="748.99,641.6 748.99,662.63 737.01,657.12 737.01,636.15 			"/>
			<polygon class="st25" points="758.79,635.06 758.79,656.84 748.99,662.63 748.99,641.6 			"/>
			<polygon class="st26" points="748.99,662.29 748.99,683.32 737.01,677.82 737.01,656.84 			"/>
			<polygon class="st27" points="758.79,655.75 758.79,677.53 748.99,683.32 748.99,662.29 			"/>
		</g>
	</g>
</g>
</svg>
