<?xml version="1.0" encoding="utf-8"?>
<!-- Generator: Adobe Illustrator 26.3.1, SVG Export Plug-In . SVG Version: 6.00 Build 0)  -->
<svg version="1.1" id="map_x5F_sun" xmlns="http://www.w3.org/2000/svg" xmlns:xlink="http://www.w3.org/1999/xlink" x="0px"
	 y="0px" viewBox="0 0 1920 900" style="enable-background:new 0 0 1920 900;" xml:space="preserve">
<style type="text/css">
	.st0{fill:#F2E5D1;}
	.st1{fill:#F4ECDC;}
	.st2{clip-path:url(#SVGID_00000176015530491340059480000005456497143060974007_);}
	.st3{fill:none;stroke:#EFDBB9;stroke-width:0.5;stroke-miterlimit:10;}
	
		.st4{clip-path:url(#SVGID_00000111179990326939431370000002034112524836677306_);fill:none;stroke:#EFDBB9;stroke-width:0.5;stroke-miterlimit:10;}
	
		.st5{clip-path:url(#SVGID_00000111179990326939431370000002034112524836677306_);fill:none;stroke:#E2DED5;stroke-width:0.5;stroke-miterlimit:10;}
	
		.st6{clip-path:url(#SVGID_00000067946542121607086210000005556466537795288219_);fill:none;stroke:#EFDBB9;stroke-width:0.5;stroke-miterlimit:10;}
	.st7{fill:#BCB6AA;}
	.st8{font-family:'YetR-HM';}
	.st9{font-size:3.5508px;}
	.st10{clip-path:url(#SVGID_00000024691904472903771900000017629541688260483728_);}
	.st11{fill:none;stroke:#EFDBB9;stroke-miterlimit:10;}
	.st12{font-size:6.3331px;}
	.st13{clip-path:url(#SVGID_00000164489737178825891410000016358520772420806820_);}
	.st14{clip-path:url(#SVGID_00000169558245671597785390000016446053198687490711_);}
</style>
<g>
	<g id="집옥재">
		<g>
			<polygon class="st0" points="1174.76,219.24 1182.53,213.71 1182.53,147.62 1173.97,153.79 			"/>
			<path class="st0" d="M1052.42,85.52c0,0,31.76-4.42,60.38,34.86l7.2-4.3c0,0-16.27-32.76-57.31-36.62L1052.42,85.52z"/>
			<path class="st0" d="M1112.8,120.38l61.17,33.41l8.56-6.17c0,0-39.54-43.03-62.52-31.54L1112.8,120.38z"/>
			<path class="st1" d="M1113.59,185.82c0,0-22.51-30.91-61.17-32.62V85.52c0,0,35.16-7.43,60.38,34.86L1113.59,185.82z"/>
			<path class="st1" d="M1174.76,219.24c0,0-22.51-31.7-61.17-33.41l-0.79-65.45c0,0,35.95-8.87,61.17,33.41L1174.76,219.24z"/>
			<g>
				<defs>
					<polygon id="SVGID_1_" points="1174.76,219.24 1182.53,213.71 1182.53,147.62 1173.97,153.79 					"/>
				</defs>
				<clipPath id="SVGID_00000149359726779653712440000017682428698743151773_">
					<use xlink:href="#SVGID_1_"  style="overflow:visible;"/>
				</clipPath>
				<g style="clip-path:url(#SVGID_00000149359726779653712440000017682428698743151773_);">
					<line class="st3" x1="1174.81" y1="152.14" x2="1175.25" y2="220.92"/>
					<line class="st3" x1="1175.78" y1="151.54" x2="1176.21" y2="220.32"/>
					<line class="st3" x1="1176.74" y1="150.94" x2="1177.17" y2="219.72"/>
					<line class="st3" x1="1177.7" y1="150.34" x2="1178.13" y2="219.12"/>
					<line class="st3" x1="1178.66" y1="149.74" x2="1179.09" y2="218.52"/>
					<line class="st3" x1="1179.62" y1="149.14" x2="1180.06" y2="217.92"/>
					<line class="st3" x1="1180.59" y1="148.55" x2="1181.02" y2="217.32"/>
					<line class="st3" x1="1181.55" y1="147.95" x2="1181.98" y2="216.72"/>
					<line class="st3" x1="1182.51" y1="147.35" x2="1182.94" y2="216.12"/>
				</g>
			</g>
			<g>
				<defs>
					<path id="SVGID_00000005261256332002804220000009233153199998267780_" d="M1112.8,120.38l61.17,33.41l8.56-6.17
						c0,0-39.54-43.03-62.52-31.54L1112.8,120.38z"/>
				</defs>
				<clipPath id="SVGID_00000043426722563537728420000002901257942909601709_">
					<use xlink:href="#SVGID_00000005261256332002804220000009233153199998267780_"  style="overflow:visible;"/>
				</clipPath>
				
					<path style="clip-path:url(#SVGID_00000043426722563537728420000002901257942909601709_);fill:none;stroke:#EFDBB9;stroke-width:0.5;stroke-miterlimit:10;" d="
					M1174.82,153.18c0,0-19.82-38.62-59.29-34.43"/>
				
					<path style="clip-path:url(#SVGID_00000043426722563537728420000002901257942909601709_);fill:none;stroke:#EFDBB9;stroke-width:0.5;stroke-miterlimit:10;" d="
					M1175.78,152.48c0,0-19.56-38.63-58.33-34.88"/>
				
					<path style="clip-path:url(#SVGID_00000043426722563537728420000002901257942909601709_);fill:none;stroke:#EFDBB9;stroke-width:0.5;stroke-miterlimit:10;" d="
					M1176.84,151.72c0,0-21.18-39.53-57.62-35.17"/>
				
					<path style="clip-path:url(#SVGID_00000043426722563537728420000002901257942909601709_);fill:none;stroke:#EFDBB9;stroke-width:0.5;stroke-miterlimit:10;" d="
					M1177.7,151.09c0,0-21.45-40.38-57.7-35.02"/>
				
					<path style="clip-path:url(#SVGID_00000043426722563537728420000002901257942909601709_);fill:none;stroke:#EFDBB9;stroke-width:0.5;stroke-miterlimit:10;" d="
					M1178.67,150.4c0,0-10.63-18.01-20.77-24.29"/>
				
					<path style="clip-path:url(#SVGID_00000043426722563537728420000002901257942909601709_);fill:none;stroke:#EFDBB9;stroke-width:0.5;stroke-miterlimit:10;" d="
					M1179.63,149.71c0,0-6.75-10.72-11.35-15.54"/>
				
					<path style="clip-path:url(#SVGID_00000043426722563537728420000002901257942909601709_);fill:none;stroke:#EFDBB9;stroke-width:0.5;stroke-miterlimit:10;" d="
					M1180.59,149.01c0,0-3.73-6.38-9.03-12.01"/>
				
					<line style="clip-path:url(#SVGID_00000043426722563537728420000002901257942909601709_);fill:none;stroke:#EFDBB9;stroke-width:0.5;stroke-miterlimit:10;" x1="1181.55" y1="148.32" x2="1177.7" y2="142.72"/>
				
					<line style="clip-path:url(#SVGID_00000043426722563537728420000002901257942909601709_);fill:none;stroke:#E2DED5;stroke-width:0.5;stroke-miterlimit:10;" x1="1182.53" y1="147.62" x2="1180.92" y2="145.94"/>
			</g>
			<g>
				<defs>
					<path id="SVGID_00000176737749511450903630000012886055118706566059_" d="M1052.42,85.52c0,0,31.76-4.42,60.38,34.86l7.2-4.3
						c0,0-16.27-32.76-57.31-36.62L1052.42,85.52z"/>
				</defs>
				<clipPath id="SVGID_00000168818396149426449300000001769731460004966020_">
					<use xlink:href="#SVGID_00000176737749511450903630000012886055118706566059_"  style="overflow:visible;"/>
				</clipPath>
				
					<path style="clip-path:url(#SVGID_00000168818396149426449300000001769731460004966020_);fill:none;stroke:#EFDBB9;stroke-width:0.5;stroke-miterlimit:10;" d="
					M1115.53,118.75c0,0-22.9-39.27-60.49-34.77"/>
				
					<path style="clip-path:url(#SVGID_00000168818396149426449300000001769731460004966020_);fill:none;stroke:#EFDBB9;stroke-width:0.5;stroke-miterlimit:10;" d="
					M1117.45,117.6c0,0-22.38-37.52-59.72-35.21"/>
				
					<path style="clip-path:url(#SVGID_00000168818396149426449300000001769731460004966020_);fill:none;stroke:#EFDBB9;stroke-width:0.5;stroke-miterlimit:10;" d="
					M1119.22,116.54c0,0-22.91-35.58-59.03-35.61"/>
				
					<path style="clip-path:url(#SVGID_00000168818396149426449300000001769731460004966020_);fill:none;stroke:#EFDBB9;stroke-width:0.5;stroke-miterlimit:10;" d="
					M1120,116.08c0,0-22.4-36.12-58.46-35.94"/>
				
					<path style="clip-path:url(#SVGID_00000168818396149426449300000001769731460004966020_);fill:none;stroke:#EFDBB9;stroke-width:0.5;stroke-miterlimit:10;" d="
					M1113.99,119.98c0,0-19.25-37.98-60.06-35.04"/>
			</g>
			<line class="st7" x1="1112.8" y1="185.82" x2="1112.8" y2="120.38"/>
			<text transform="matrix(0.8655 0.4243 -0.0106 0.9999 1057.5148 92.7887)"><tspan x="0" y="0" class="st8 st9">朝</tspan><tspan x="0" y="4.26" class="st8 st9">鮮</tspan><tspan x="0" y="8.52" class="st8 st9">王</tspan><tspan x="0" y="12.78" class="st8 st9">朝</tspan><tspan x="0" y="17.04" class="st8 st9">實</tspan><tspan x="0" y="21.3" class="st8 st9">錄</tspan><tspan x="0" y="25.57" class="st8 st9">外</tspan><tspan x="0" y="29.83" class="st8 st9">四</tspan><tspan x="0" y="34.09" class="st8 st9">山</tspan><tspan x="0" y="38.35" class="st8 st9">白</tspan><tspan x="0" y="42.61" class="st8 st9">岳</tspan><tspan x="0" y="46.87" class="st8 st9">案</tspan><tspan x="0" y="51.13" class="st8 st9">山</tspan></text>
			<text transform="matrix(0.8655 0.4243 -0.0106 0.9999 1063.235 95.2318)"><tspan x="0" y="0" class="st8 st9">景</tspan><tspan x="0" y="4.26" class="st8 st9">福</tspan><tspan x="0" y="8.52" class="st8 st9">宮</tspan><tspan x="0" y="12.78" class="st8 st9">山</tspan><tspan x="0" y="17.04" class="st8 st9">仁</tspan><tspan x="0" y="21.3" class="st8 st9">王</tspan><tspan x="0" y="25.57" class="st8 st9">朝</tspan><tspan x="0" y="29.83" class="st8 st9">實</tspan><tspan x="0" y="34.09" class="st8 st9">錄</tspan><tspan x="0" y="38.35" class="st8 st9">朝</tspan><tspan x="0" y="42.61" class="st8 st9">鮮</tspan><tspan x="0" y="46.87" class="st8 st9">王</tspan><tspan x="0" y="51.13" class="st8 st9">朝</tspan></text>
			<text transform="matrix(0.8655 0.4243 -0.0106 0.9999 1069.7964 96.1467)"><tspan x="0" y="0" class="st8 st9">朝</tspan><tspan x="0" y="4.26" class="st8 st9">鮮</tspan><tspan x="0" y="8.52" class="st8 st9">王</tspan><tspan x="0" y="12.78" class="st8 st9">朝</tspan><tspan x="0" y="17.04" class="st8 st9">實</tspan><tspan x="0" y="21.3" class="st8 st9">錄</tspan><tspan x="0" y="25.57" class="st8 st9">外</tspan><tspan x="0" y="29.83" class="st8 st9">四</tspan><tspan x="0" y="34.09" class="st8 st9">山</tspan><tspan x="0" y="38.35" class="st8 st9">白</tspan><tspan x="0" y="42.61" class="st8 st9">岳</tspan><tspan x="0" y="46.87" class="st8 st9">案</tspan><tspan x="0" y="51.13" class="st8 st9">山</tspan></text>
			<text transform="matrix(0.8655 0.4243 -0.0106 0.9999 1075.5193 98.5909)"><tspan x="0" y="0" class="st8 st9">景</tspan><tspan x="0" y="4.26" class="st8 st9">福</tspan><tspan x="0" y="8.52" class="st8 st9">宮</tspan><tspan x="0" y="12.78" class="st8 st9">山</tspan><tspan x="0" y="17.04" class="st8 st9">仁</tspan><tspan x="0" y="21.3" class="st8 st9">王</tspan><tspan x="0" y="25.57" class="st8 st9">朝</tspan><tspan x="0" y="29.83" class="st8 st9">實</tspan><tspan x="0" y="34.09" class="st8 st9">錄</tspan><tspan x="0" y="38.35" class="st8 st9">朝</tspan><tspan x="0" y="42.61" class="st8 st9">鮮</tspan><tspan x="0" y="46.87" class="st8 st9">王</tspan><tspan x="0" y="51.13" class="st8 st9">鮮</tspan></text>
			<text transform="matrix(0.8655 0.4243 -0.0106 0.9999 1082.0792 100.7266)"><tspan x="0" y="0" class="st8 st9">朝</tspan><tspan x="0" y="4.26" class="st8 st9">鮮</tspan><tspan x="0" y="8.52" class="st8 st9">王</tspan><tspan x="0" y="12.78" class="st8 st9">朝</tspan><tspan x="0" y="17.04" class="st8 st9">實</tspan><tspan x="0" y="21.3" class="st8 st9">錄</tspan><tspan x="0" y="25.57" class="st8 st9">外</tspan><tspan x="0" y="29.83" class="st8 st9">四</tspan><tspan x="0" y="34.09" class="st8 st9">山</tspan><tspan x="0" y="38.35" class="st8 st9">白</tspan><tspan x="0" y="42.61" class="st8 st9">岳</tspan><tspan x="0" y="46.87" class="st8 st9">案</tspan><tspan x="0" y="51.13" class="st8 st9">山</tspan></text>
			<text transform="matrix(0.8655 0.4243 -0.0106 0.9999 1087.8011 103.1703)"><tspan x="0" y="0" class="st8 st9">景</tspan><tspan x="0" y="4.26" class="st8 st9">福</tspan><tspan x="0" y="8.52" class="st8 st9">宮</tspan><tspan x="0" y="12.78" class="st8 st9">山</tspan><tspan x="0" y="17.04" class="st8 st9">仁</tspan><tspan x="0" y="21.3" class="st8 st9">王</tspan><tspan x="0" y="25.57" class="st8 st9">朝</tspan><tspan x="0" y="29.83" class="st8 st9">實</tspan><tspan x="0" y="34.09" class="st8 st9">錄</tspan><tspan x="0" y="38.35" class="st8 st9">朝</tspan><tspan x="0" y="42.61" class="st8 st9">鮮</tspan><tspan x="0" y="46.87" class="st8 st9">王</tspan><tspan x="0" y="51.13" class="st8 st9">案</tspan></text>
			<text transform="matrix(0.8655 0.4243 -0.0106 0.9999 1094.1228 106.6573)"><tspan x="0" y="0" class="st8 st9">朝</tspan><tspan x="0" y="4.26" class="st8 st9">鮮</tspan><tspan x="0" y="8.52" class="st8 st9">王</tspan><tspan x="0" y="12.78" class="st8 st9">朝</tspan><tspan x="0" y="17.04" class="st8 st9">實</tspan><tspan x="0" y="21.3" class="st8 st9">錄</tspan><tspan x="0" y="25.57" class="st8 st9">外</tspan><tspan x="0" y="29.83" class="st8 st9">四</tspan><tspan x="0" y="34.09" class="st8 st9">山</tspan><tspan x="0" y="38.35" class="st8 st9">白</tspan><tspan x="0" y="42.61" class="st8 st9">岳</tspan><tspan x="0" y="46.87" class="st8 st9">案</tspan><tspan x="0" y="51.13" class="st8 st9">山</tspan></text>
			<text transform="matrix(0.8655 0.4243 -0.0106 0.9999 1099.8433 112.1403)"><tspan x="0" y="0" class="st8 st9">景</tspan><tspan x="0" y="4.26" class="st8 st9">福</tspan><tspan x="0" y="8.52" class="st8 st9">宮</tspan><tspan x="0" y="12.78" class="st8 st9">山</tspan><tspan x="0" y="17.04" class="st8 st9">仁</tspan><tspan x="0" y="21.3" class="st8 st9">王</tspan><tspan x="0" y="25.57" class="st8 st9">朝</tspan><tspan x="0" y="29.83" class="st8 st9">實</tspan><tspan x="0" y="34.09" class="st8 st9">錄</tspan><tspan x="0" y="38.35" class="st8 st9">朝</tspan><tspan x="0" y="42.61" class="st8 st9">鮮</tspan><tspan x="0" y="46.87" class="st8 st9">王</tspan><tspan x="0" y="51.13" class="st8 st9">錄</tspan></text>
			<text transform="matrix(0.8655 0.4243 -0.0106 0.9999 1121.6707 129.3611)"><tspan x="0" y="0" class="st8 st9">朝</tspan><tspan x="0" y="4.26" class="st8 st9">鮮</tspan><tspan x="0" y="8.52" class="st8 st9">王</tspan><tspan x="0" y="12.78" class="st8 st9">朝</tspan><tspan x="0" y="17.04" class="st8 st9">實</tspan><tspan x="0" y="21.3" class="st8 st9">錄</tspan><tspan x="0" y="25.57" class="st8 st9">外</tspan><tspan x="0" y="29.83" class="st8 st9">四</tspan><tspan x="0" y="34.09" class="st8 st9">山</tspan><tspan x="0" y="38.35" class="st8 st9">白</tspan><tspan x="0" y="42.61" class="st8 st9">岳</tspan><tspan x="0" y="46.87" class="st8 st9">案</tspan><tspan x="0" y="51.13" class="st8 st9">山</tspan></text>
			<text transform="matrix(0.8655 0.4243 -0.0106 0.9999 1127.3917 131.8044)"><tspan x="0" y="0" class="st8 st9">景</tspan><tspan x="0" y="4.26" class="st8 st9">福</tspan><tspan x="0" y="8.52" class="st8 st9">宮</tspan><tspan x="0" y="12.78" class="st8 st9">山</tspan><tspan x="0" y="17.04" class="st8 st9">仁</tspan><tspan x="0" y="21.3" class="st8 st9">王</tspan><tspan x="0" y="25.57" class="st8 st9">朝</tspan><tspan x="0" y="29.83" class="st8 st9">實</tspan><tspan x="0" y="34.09" class="st8 st9">錄</tspan><tspan x="0" y="38.35" class="st8 st9">朝</tspan><tspan x="0" y="42.61" class="st8 st9">鮮</tspan><tspan x="0" y="46.87" class="st8 st9">王</tspan><tspan x="0" y="51.13" class="st8 st9">朝</tspan></text>
			<text transform="matrix(0.8655 0.4243 -0.0106 0.9999 1133.9523 132.7188)"><tspan x="0" y="0" class="st8 st9">朝</tspan><tspan x="0" y="4.26" class="st8 st9">鮮</tspan><tspan x="0" y="8.52" class="st8 st9">王</tspan><tspan x="0" y="12.78" class="st8 st9">朝</tspan><tspan x="0" y="17.04" class="st8 st9">實</tspan><tspan x="0" y="21.3" class="st8 st9">錄</tspan><tspan x="0" y="25.57" class="st8 st9">外</tspan><tspan x="0" y="29.83" class="st8 st9">四</tspan><tspan x="0" y="34.09" class="st8 st9">山</tspan><tspan x="0" y="38.35" class="st8 st9">白</tspan><tspan x="0" y="42.61" class="st8 st9">岳</tspan><tspan x="0" y="46.87" class="st8 st9">案</tspan><tspan x="0" y="51.13" class="st8 st9">山</tspan></text>
			<text transform="matrix(0.8655 0.4243 -0.0106 0.9999 1139.675 135.1632)"><tspan x="0" y="0" class="st8 st9">景</tspan><tspan x="0" y="4.26" class="st8 st9">福</tspan><tspan x="0" y="8.52" class="st8 st9">宮</tspan><tspan x="0" y="12.78" class="st8 st9">山</tspan><tspan x="0" y="17.04" class="st8 st9">仁</tspan><tspan x="0" y="21.3" class="st8 st9">王</tspan><tspan x="0" y="25.57" class="st8 st9">朝</tspan><tspan x="0" y="29.83" class="st8 st9">實</tspan><tspan x="0" y="34.09" class="st8 st9">錄</tspan><tspan x="0" y="38.35" class="st8 st9">朝</tspan><tspan x="0" y="42.61" class="st8 st9">鮮</tspan><tspan x="0" y="46.87" class="st8 st9">王</tspan><tspan x="0" y="51.13" class="st8 st9">鮮</tspan></text>
			<text transform="matrix(0.8655 0.4243 -0.0106 0.9999 1146.2341 137.2985)"><tspan x="0" y="0" class="st8 st9">朝</tspan><tspan x="0" y="4.26" class="st8 st9">鮮</tspan><tspan x="0" y="8.52" class="st8 st9">王</tspan><tspan x="0" y="12.78" class="st8 st9">朝</tspan><tspan x="0" y="17.04" class="st8 st9">實</tspan><tspan x="0" y="21.3" class="st8 st9">錄</tspan><tspan x="0" y="25.57" class="st8 st9">外</tspan><tspan x="0" y="29.83" class="st8 st9">四</tspan><tspan x="0" y="34.09" class="st8 st9">山</tspan><tspan x="0" y="38.35" class="st8 st9">白</tspan><tspan x="0" y="42.61" class="st8 st9">岳</tspan><tspan x="0" y="46.87" class="st8 st9">案</tspan><tspan x="0" y="51.13" class="st8 st9">山</tspan></text>
			<text transform="matrix(0.8655 0.4243 -0.0106 0.9999 1151.9569 139.7424)"><tspan x="0" y="0" class="st8 st9">景</tspan><tspan x="0" y="4.26" class="st8 st9">福</tspan><tspan x="0" y="8.52" class="st8 st9">宮</tspan><tspan x="0" y="12.78" class="st8 st9">山</tspan><tspan x="0" y="17.04" class="st8 st9">仁</tspan><tspan x="0" y="21.3" class="st8 st9">王</tspan><tspan x="0" y="25.57" class="st8 st9">朝</tspan><tspan x="0" y="29.83" class="st8 st9">實</tspan><tspan x="0" y="34.09" class="st8 st9">錄</tspan><tspan x="0" y="38.35" class="st8 st9">朝</tspan><tspan x="0" y="42.61" class="st8 st9">鮮</tspan><tspan x="0" y="46.87" class="st8 st9">王</tspan><tspan x="0" y="51.13" class="st8 st9">案</tspan></text>
			<text transform="matrix(0.8655 0.4243 -0.0106 0.9999 1158.2786 143.2296)"><tspan x="0" y="0" class="st8 st9">朝</tspan><tspan x="0" y="4.26" class="st8 st9">鮮</tspan><tspan x="0" y="8.52" class="st8 st9">王</tspan><tspan x="0" y="12.78" class="st8 st9">朝</tspan><tspan x="0" y="17.04" class="st8 st9">實</tspan><tspan x="0" y="21.3" class="st8 st9">錄</tspan><tspan x="0" y="25.57" class="st8 st9">外</tspan><tspan x="0" y="29.83" class="st8 st9">四</tspan><tspan x="0" y="34.09" class="st8 st9">山</tspan><tspan x="0" y="38.35" class="st8 st9">白</tspan><tspan x="0" y="42.61" class="st8 st9">岳</tspan><tspan x="0" y="46.87" class="st8 st9">案</tspan><tspan x="0" y="51.13" class="st8 st9">山</tspan></text>
			<text transform="matrix(0.8655 0.4243 -0.0106 0.9999 1163.999 148.7129)"><tspan x="0" y="0" class="st8 st9">景</tspan><tspan x="0" y="4.26" class="st8 st9">福</tspan><tspan x="0" y="8.52" class="st8 st9">宮</tspan><tspan x="0" y="12.78" class="st8 st9">山</tspan><tspan x="0" y="17.04" class="st8 st9">仁</tspan><tspan x="0" y="21.3" class="st8 st9">王</tspan><tspan x="0" y="25.57" class="st8 st9">朝</tspan><tspan x="0" y="29.83" class="st8 st9">實</tspan><tspan x="0" y="34.09" class="st8 st9">錄</tspan><tspan x="0" y="38.35" class="st8 st9">朝</tspan><tspan x="0" y="42.61" class="st8 st9">鮮</tspan><tspan x="0" y="46.87" class="st8 st9">王</tspan><tspan x="0" y="51.13" class="st8 st9">錄</tspan></text>
		</g>
		<g>
			<polygon class="st1" points="1026.83,88.41 1026.83,148.39 1073.73,175.46 1073.73,115.48 			"/>
			<polygon class="st0" points="1073.73,175.46 1082.59,170.31 1082.59,110.36 1073.73,115.48 			"/>
			<polygon class="st0" points="1026.83,88.41 1073.73,115.48 1082.59,110.36 1036.01,83.11 			"/>
			<g>
				<defs>
					<polygon id="SVGID_00000085246524764950468520000012108396726875194514_" points="1026.83,88.41 1026.83,148.39 
						1073.73,175.46 1073.73,115.48 					"/>
				</defs>
				<clipPath id="SVGID_00000057110129932002951820000005424319856110569398_">
					<use xlink:href="#SVGID_00000085246524764950468520000012108396726875194514_"  style="overflow:visible;"/>
				</clipPath>
				<g style="clip-path:url(#SVGID_00000057110129932002951820000005424319856110569398_);">
					<line class="st11" x1="1033.51" y1="90.5" x2="1033.51" y2="154.09"/>
					<line class="st11" x1="1033.51" y1="102.6" x2="1025.75" y2="97.37"/>
					<line class="st11" x1="1033.51" y1="122.76" x2="1025.75" y2="117.52"/>
					<line class="st11" x1="1033.51" y1="142.91" x2="1025.75" y2="137.67"/>
				</g>
			</g>
			<text transform="matrix(0.8655 0.4243 -0.0106 0.9999 1065.0092 120.6)"><tspan x="0" y="0" class="st8 st12">朝</tspan><tspan x="0" y="7.6" class="st8 st12">鮮</tspan><tspan x="0" y="15.2" class="st8 st12">王</tspan><tspan x="0" y="22.8" class="st8 st12">朝</tspan><tspan x="0" y="30.4" class="st8 st12">實</tspan><tspan x="0" y="38" class="st8 st12">錄</tspan></text>
			<g>
				<defs>
					<polygon id="SVGID_00000059304258069115875330000007935250327543260590_" points="1073.73,175.46 1082.59,170.31 
						1082.59,110.36 1073.73,115.48 					"/>
				</defs>
				<clipPath id="SVGID_00000028323905933742433850000002917895391340066185_">
					<use xlink:href="#SVGID_00000059304258069115875330000007935250327543260590_"  style="overflow:visible;"/>
				</clipPath>
				<g style="clip-path:url(#SVGID_00000028323905933742433850000002917895391340066185_);">
					<line class="st3" x1="1074.54" y1="113.67" x2="1074.54" y2="174.94"/>
					<line class="st3" x1="1075.58" y1="113.14" x2="1075.58" y2="174.41"/>
					<line class="st3" x1="1076.61" y1="112.61" x2="1076.61" y2="173.88"/>
					<line class="st3" x1="1077.65" y1="112.09" x2="1077.65" y2="173.35"/>
					<line class="st3" x1="1078.69" y1="111.56" x2="1078.69" y2="172.83"/>
					<line class="st3" x1="1079.72" y1="111.03" x2="1079.72" y2="172.3"/>
					<line class="st3" x1="1080.76" y1="110.5" x2="1080.76" y2="171.77"/>
					<line class="st3" x1="1081.79" y1="109.97" x2="1081.79" y2="171.24"/>
					<line class="st3" x1="1082.83" y1="109.44" x2="1082.83" y2="170.71"/>
				</g>
			</g>
			<g>
				<defs>
					<polygon id="SVGID_00000150787621735655533790000015380554756721542301_" points="1026.83,88.41 1073.73,115.48 
						1082.59,110.36 1036.01,83.11 					"/>
				</defs>
				<clipPath id="SVGID_00000153679082160392470110000000386614358514895754_">
					<use xlink:href="#SVGID_00000150787621735655533790000015380554756721542301_"  style="overflow:visible;"/>
				</clipPath>
				<g style="clip-path:url(#SVGID_00000153679082160392470110000000386614358514895754_);">
					<line class="st3" x1="1074.4" y1="115.09" x2="1026.29" y2="86.82"/>
					<line class="st3" x1="1075.54" y1="114.47" x2="1027.43" y2="86.19"/>
					<line class="st3" x1="1076.79" y1="114" x2="1028.67" y2="85.72"/>
					<line class="st3" x1="1078.02" y1="113.47" x2="1029.91" y2="85.2"/>
					<line class="st3" x1="1079.27" y1="112.93" x2="1031.16" y2="84.66"/>
					<line class="st3" x1="1080.51" y1="112.44" x2="1032.4" y2="84.17"/>
					<line class="st3" x1="1081.76" y1="111.88" x2="1033.64" y2="83.61"/>
					<line class="st3" x1="1083" y1="111.38" x2="1034.88" y2="83.11"/>
				</g>
			</g>
		</g>
	</g>
</g>
</svg>
