<?xml version="1.0" encoding="utf-8"?>
<!-- Generator: Adobe Illustrator 26.3.1, SVG Export Plug-In . SVG Version: 6.00 Build 0)  -->
<svg version="1.1" id="Layer_1" xmlns="http://www.w3.org/2000/svg" xmlns:xlink="http://www.w3.org/1999/xlink" x="0px" y="0px"
	 viewBox="0 0 5102.36 1842.52" style="enable-background:new 0 0 5102.36 1842.52;" xml:space="preserve">
<style type="text/css">
	.st0{fill:#1D5A3F;}
	.st1{fill:#9EB985;}
	.st2{fill:#829F68;}
</style>
<path class="st0" d="M0,1842.52h3312.51c0,0-417.19-570.72-1656.26-570.72S0,1842.52,0,1842.52z"/>
<path class="st1" d="M3312.51,1842.52h3312.51c0,0-417.19-570.72-1656.26-570.72S3312.51,1842.52,3312.51,1842.52z"/>
<g>
	<path class="st2" d="M283.97,1067.91c0,0-4.75-13.9,12.26-19.14c17.01-5.24,18.79,13.38,18.79,13.38s98.58-14.54,152.44,52.75
		c53.87,67.29-10.39,90.31-10.39,90.31s-30.76,14.64-119.15,2.29c0,0-59.9,58.96-99.51,63.64s-65.43-16.94-65.43-16.94
		c-4.12-4.1-8.67-9.73-12.17-17.13c-11.91-25.18-2.1-50.62,0.4-56.61c2.96-6.08,6.32-12.36,10.15-18.76
		c13.19-22.04,28.16-39.29,41.87-52.44c6.88-6.74,15.83-14.35,27.06-21.53C256.64,1077.27,272.15,1071.36,283.97,1067.91z"/>
	<path class="st2" d="M321.56,1263.22c2.38,11.95,4.77,23.89,7.15,35.84c0,0,6.71,25.11,30.1,26.98
		c23.39,1.87,42.65-18.38,42.65-18.38c1.45-1.7,3.42-4.27,5.22-7.68c2.76-5.24,6.94-13.16,4.1-21.04
		c-1.65-4.58-6.57-11.59-13.85-11.27c-7.34,0.32-11.4,7.85-11.63,8.29c-2.91,11.15-8.34,18.56-14.23,18.87
		c-0.62,0.03-2.7,0.06-5.51-1.73c-11.99-7.64-13.35-33.1-13.54-37.41c-1.57-8.95-7.46-15.3-13.98-15.93
		c-5.12-0.48-9.07,2.7-10.1,3.54C319.54,1250.1,321.42,1262.4,321.56,1263.22z"/>
</g>
<g>
	<path class="st1" d="M4896.07,563.17c0,0,4.72-15.73,23.6-9.44c18.88,6.29,8.39,24.39,8.39,24.39s99.11,50.87,104.36,147.09
		s-68.17,75.38-68.17,75.38s-37.49-6.69-109.86-75.38c0,0-92.82,14.68-131.89-6.82c-39.07-21.5-48.51-57.94-48.51-57.94
		c-1.08-6.41-1.56-14.49,0.07-23.5c5.54-30.65,31-47.4,37.17-51.22c6.64-3.6,13.78-7.13,21.43-10.46
		c26.33-11.48,51.15-17.42,72.18-20.48c10.64-1.66,23.72-2.76,38.61-1.99C4865.14,553.92,4883.08,558.63,4896.07,563.17z"/>
	<path class="st1" d="M4803.27,765.25c-5.6,12.41-11.2,24.83-16.8,37.25c0,0-10.23,27.2,9.83,44.11
		c20.06,16.91,50.74,11.01,50.74,11.01c2.43-0.6,5.88-1.66,9.73-3.59c5.92-2.97,14.87-7.46,17.4-16.47
		c1.48-5.24,1.56-14.81-5.27-19.25c-6.89-4.48-15.48-0.27-15.97-0.02c-9.9,8.25-19.66,11.46-25.21,7.92
		c-0.59-0.38-2.5-1.7-3.89-5.16c-5.93-14.74,9.38-38.78,12.01-42.82c4.39-9.16,3.17-18.77-2.36-23.57c-4.34-3.77-10-3.44-11.48-3.35
		C4809.97,752.01,4803.68,764.42,4803.27,765.25z"/>
</g>
<g>
	<path class="st1" d="M722.35,939.44c0,0,7.25-9.19,18.11-0.07c10.86,9.12-0.83,18.35-0.83,18.35s52.33,59.68,30.58,124.81
		c-21.75,65.13-64.93,32.08-64.93,32.08s-23.09-14.26-53.02-78.75c0,0-65.34-14.6-85.6-39.09c-20.25-24.48-16.95-51.11-16.95-51.11
		c0.96-4.53,2.76-10.01,6.2-15.55c11.7-18.86,32.96-23.28,38.06-24.19c5.35-0.65,11-1.11,16.94-1.31
		c20.45-0.7,38.46,1.86,53.19,5.35c7.48,1.7,16.44,4.39,26.1,8.81C704.27,925.2,714.93,933.03,722.35,939.44z"/>
	<path class="st1" d="M607.89,1049c-6.97,6.76-13.93,13.52-20.9,20.27c0,0-13.91,15.34-5.05,31.8c8.86,16.47,30.72,20.6,30.72,20.6
		c1.76,0.24,4.33,0.44,7.39,0.18c4.7-0.41,11.81-1.05,15.85-6.35c2.35-3.09,4.92-9.4,1.56-14.14c-3.39-4.77-10.19-4.24-10.58-4.2
		c-8.72,2.87-16.03,2.44-18.78-1.37c-0.29-0.4-1.21-1.78-1.22-4.44c-0.07-11.33,16.38-23.23,19.18-25.23
		c5.31-4.92,7.02-11.61,4.61-16.24c-1.89-3.64-5.73-4.9-6.73-5.23C615.8,1041.99,608.37,1048.56,607.89,1049z"/>
</g>
<g>
	<path class="st0" d="M256.39,672.92c0,0-3.92-11.03,9.58-15.37c13.5-4.34,15.09,10.48,15.09,10.48s78.39-12.52,121.93,40.58
		s-7.42,72.03-7.42,72.03s-24.36,11.95-94.89,2.96c0,0-47.16,47.53-78.66,51.63c-31.51,4.1-52.28-12.87-52.28-12.87
		c-3.32-3.23-7-7.67-9.86-13.53c-9.73-19.95-2.15-40.29-0.22-45.1c2.3-4.87,4.92-9.91,7.9-15.04
		c10.29-17.69,22.06-31.56,32.85-42.17c5.42-5.44,12.47-11.58,21.35-17.41C234.71,680.63,247.01,675.78,256.39,672.92z"/>
	<path class="st0" d="M288.18,828.14c2.01,9.49,4.02,18.99,6.03,28.48c0,0,5.58,19.94,24.23,21.21
		c18.65,1.27,33.79-15.05,33.79-15.05c1.14-1.37,2.68-3.43,4.09-6.16c2.15-4.19,5.41-10.55,3.06-16.79
		c-1.36-3.64-5.35-9.16-11.13-8.84c-5.84,0.33-9.01,6.36-9.19,6.71c-2.21,8.91-6.47,14.87-11.16,15.17
		c-0.5,0.03-2.15,0.08-4.41-1.33c-9.62-5.97-10.94-26.23-11.13-29.67c-1.34-7.12-6.09-12.12-11.29-12.56
		c-4.08-0.34-7.19,2.24-8.01,2.91C286.45,817.71,288.07,827.49,288.18,828.14z"/>
</g>
<g>
	<path class="st2" d="M4637.11,869.09c0,0,10.73-10.35-2.2-22.96c-12.92-12.61-23.16,3.37-23.16,3.37s-82.24-58.8-162.04-23.02
		c-79.8,35.78-32.47,86.33-32.47,86.33s20.98,27.47,106.48,57.28c0,0,26.75,80.98,60.33,103.55c33.59,22.57,66.91,15.03,66.91,15.03
		c5.62-1.79,12.33-4.76,18.93-9.82c22.42-17.21,25.35-44.71,25.87-51.28c0.15-6.86,0.02-14.08-0.47-21.63
		c-1.69-26-7.21-48.51-13.49-66.73c-3.09-9.27-7.64-20.28-14.45-31.97C4657.44,890.2,4646.19,877.68,4637.11,869.09z"/>
	<path class="st2" d="M4512.69,1027.96c-7.69,9.68-15.38,19.36-23.06,29.04c0,0-17.69,19.56-39.67,10.41
		c-21.98-9.15-29.97-36.35-29.97-36.35c-0.52-2.21-1.11-5.43-1.15-9.34c-0.07-6-0.17-15.1,6.05-20.89
		c3.62-3.37,11.3-7.42,17.72-3.76c6.48,3.7,6.65,12.38,6.65,12.87c-2.54,11.42-1.08,20.62,4.1,23.63c0.55,0.32,2.41,1.31,5.78,0.99
		c14.36-1.34,27.38-23.68,29.55-27.49c5.56-7.35,13.82-10.36,20-7.9c4.84,1.93,6.93,6.64,7.48,7.87
		C4520.59,1017.06,4513.19,1027.28,4512.69,1027.96z"/>
</g>
</svg>
