<?xml version="1.0" encoding="utf-8"?>
<!-- Generator: Adobe Illustrator 26.3.1, SVG Export Plug-In . SVG Version: 6.00 Build 0)  -->
<svg version="1.1" id="Layer_1" xmlns="http://www.w3.org/2000/svg" xmlns:xlink="http://www.w3.org/1999/xlink" x="0px" y="0px"
	 viewBox="0 0 1800 250" style="enable-background:new 0 0 1800 250;" xml:space="preserve">
<style type="text/css">
	.st0{fill:#F7FCF2;}
	.st1{fill:#FFFFFF;}
	.st2{fill:#1D5A3F;}
	.st3{fill:#9EB985;}
</style>
<g>
	<path class="st0" d="M83.8,26.6c0,0-1.9-5.7,5-7.8s7.7,5.5,7.7,5.5s40.3-6,62.3,21.6c22,27.5-4.3,36.9-4.3,36.9s-12.6,6-48.7,0.9
		c0,0-24.5,24.1-40.7,26s-26.8-6.9-26.8-6.9c-1.7-1.7-3.5-4-5-7c-4.9-10.3-0.9-20.7,0.2-23.1c1.2-2.5,2.6-5.1,4.2-7.7
		c5.4-9,11.5-16.1,17.1-21.4c2.8-2.8,6.5-5.9,11.1-8.8C72.7,30.4,79,28,83.8,26.6z"/>
	<path class="st0" d="M99.2,106.4c1,4.9,1.9,9.8,2.9,14.7c0,0,2.8,10.3,12.3,11s17.4-7.5,17.4-7.5c0.6-0.7,1.4-1.8,2.1-3.1
		c1.1-2.1,2.8-5.4,1.7-8.6c-0.7-1.9-2.7-4.7-5.7-4.6c-3,0.1-4.7,3.2-4.8,3.4c-1.2,4.6-3.4,7.6-5.8,7.7c-0.3,0-1.1,0-2.3-0.7
		c-4.9-3.1-5.5-13.5-5.5-15.3c-0.6-3.7-3-6.3-5.7-6.5c-2.1-0.2-3.7,1.1-4.1,1.5C98.4,101,99.1,106.1,99.2,106.4z"/>
</g>
<g>
	<path class="st1" d="M1740.3,57.2c0,0,1.5-5,7.6-3c6.1,2,2.7,7.8,2.7,7.8s31.8,16.3,33.5,47.2c1.7,30.9-21.9,24.2-21.9,24.2
		s-12-2.1-35.3-24.2c0,0-29.8,4.7-42.3-2.2c-12.6-6.9-15.6-18.6-15.6-18.6c-0.3-2.1-0.5-4.7,0-7.6c1.8-9.8,9.9-15.2,11.9-16.4
		c2.1-1.2,4.4-2.3,6.9-3.4c8.4-3.7,16.4-5.6,23.2-6.6c3.4-0.5,7.6-0.9,12.4-0.6C1730.4,54.2,1736.1,55.7,1740.3,57.2z"/>
	<path class="st1" d="M1710.5,122.1c-1.8,4-3.6,8-5.4,11.9c0,0-3.3,8.7,3.2,14.2c6.4,5.4,16.3,3.5,16.3,3.5c0.8-0.2,1.9-0.5,3.1-1.2
		c1.9-0.9,4.8-2.4,5.6-5.3c0.5-1.7,0.5-4.8-1.7-6.2c-2.2-1.4-5-0.1-5.1,0c-3.2,2.6-6.3,3.7-8.1,2.5c-0.2-0.1-0.8-0.6-1.3-1.7
		c-1.9-4.7,3-12.4,3.8-13.8c1.4-2.9,1-6-0.8-7.6c-1.4-1.2-3.2-1.1-3.7-1.1C1712.7,117.8,1710.7,121.8,1710.5,122.1z"/>
</g>
<g>
	<path class="st2" d="M1542.7,132.7c0,0-2.5-7,6.1-9.8c8.6-2.8,9.6,6.7,9.6,6.7s49.9-8,77.6,25.8c27.7,33.8-4.7,45.8-4.7,45.8
		s-15.5,7.6-60.4,1.9c0,0-30,30.2-50.1,32.9c-20.1,2.6-33.3-8.2-33.3-8.2c-2.1-2.1-4.4-4.9-6.3-8.6c-6.2-12.7-1.4-25.6-0.2-28.7
		c1.5-3.1,3.1-6.3,5-9.6c6.5-11.3,14-20.1,20.9-26.8c3.5-3.5,7.9-7.4,13.6-11.1C1528.9,137.6,1536.7,134.6,1542.7,132.7z"/>
	<path class="st2" d="M1562.9,231.5c1.3,6,2.6,12.1,3.8,18.1c0,0,3.5,12.7,15.4,13.5c11.9,0.8,21.5-9.6,21.5-9.6
		c0.7-0.9,1.7-2.2,2.6-3.9c1.4-2.7,3.4-6.7,1.9-10.7c-0.9-2.3-3.4-5.8-7.1-5.6c-3.7,0.2-5.7,4.1-5.8,4.3c-1.4,5.7-4.1,9.5-7.1,9.6
		c-0.3,0-1.4,0.1-2.8-0.8c-6.1-3.8-7-16.7-7.1-18.9c-0.8-4.5-3.9-7.7-7.2-8c-2.6-0.2-4.6,1.4-5.1,1.9
		C1561.8,224.9,1562.8,231.1,1562.9,231.5z"/>
</g>
<g>
	<path class="st3" d="M229.3,189.7c0,0,2.7-2.6-0.6-5.8c-3.2-3.1-5.8,0.8-5.8,0.8s-20.6-14.7-40.6-5.8c-20,9-8.1,21.6-8.1,21.6
		s5.3,6.9,26.7,14.3c0,0,6.7,20.3,15.1,25.9c8.4,5.6,16.8,3.8,16.8,3.8c1.4-0.4,3.1-1.2,4.7-2.4c5.6-4.3,6.4-11.2,6.5-12.8
		c0-1.7,0-3.5-0.1-5.4c-0.4-6.5-1.8-12.1-3.4-16.7c-0.8-2.3-1.9-5.1-3.6-8C234.4,195,231.6,191.9,229.3,189.7z"/>
	<path class="st3" d="M198.1,229.5c-1.9,2.4-3.9,4.9-5.8,7.3c0,0-4.4,4.9-9.9,2.6c-5.5-2.3-7.5-9.1-7.5-9.1
		c-0.1-0.6-0.3-1.4-0.3-2.3c0-1.5,0-3.8,1.5-5.2c0.9-0.8,2.8-1.9,4.4-0.9c1.6,0.9,1.7,3.1,1.7,3.2c-0.6,2.9-0.3,5.2,1,5.9
		c0.1,0.1,0.6,0.3,1.4,0.3c3.6-0.3,6.9-5.9,7.4-6.9c1.4-1.8,3.4-2.6,5-2c1.2,0.5,1.7,1.7,1.9,2C200.1,226.8,198.3,229.3,198.1,229.5
		z"/>
</g>
</svg>
